<svg width="24" height="24" viewBox="0 0 24 24" fill="none" xmlns="http://www.w3.org/2000/svg">
<g id="arrow-right-contained-02">
<path id="Icon" d="M13.0916 7.43717C12.9149 7.22503 12.5996 7.19637 12.3874 7.37315C12.1753 7.54993 12.1466 7.86521 12.3234 8.07735L13.0916 7.43717ZM16.2431 11.9999L16.6272 12.32C16.7817 12.1346 16.7817 11.8653 16.6272 11.6798L16.2431 11.9999ZM12.3234 15.9225C12.1466 16.1346 12.1753 16.4499 12.3874 16.6267C12.5996 16.8035 12.9149 16.7748 13.0916 16.5627L12.3234 15.9225ZM7.75775 11.4999C7.48161 11.4999 7.25775 11.7238 7.25775 11.9999C7.25775 12.2761 7.48161 12.4999 7.75775 12.4999V11.4999ZM12.3234 8.07735L15.859 12.32L16.6272 11.6798L13.0916 7.43717L12.3234 8.07735ZM15.859 11.6798L12.3234 15.9225L13.0916 16.5627L16.6272 12.32L15.859 11.6798ZM16.2431 11.4999L7.75775 11.4999V12.4999L16.2431 12.4999L16.2431 11.4999ZM18.4351 5.56523C21.9888 9.119 21.9888 14.8808 18.4351 18.4346L19.1422 19.1417C23.0865 15.1974 23.0865 8.80242 19.1422 4.85812L18.4351 5.56523ZM18.4351 18.4346C14.8813 21.9883 9.11949 21.9883 5.56572 18.4346L4.85861 19.1417C8.80291 23.086 15.1979 23.086 19.1422 19.1417L18.4351 18.4346ZM5.56572 18.4346C2.01195 14.8808 2.01195 9.119 5.56572 5.56523L4.85861 4.85812C0.914317 8.80242 0.914317 15.1974 4.85861 19.1417L5.56572 18.4346ZM5.56572 5.56523C9.11949 2.01146 14.8813 2.01146 18.4351 5.56523L19.1422 4.85812C15.1979 0.913829 8.80291 0.913829 4.85861 4.85812L5.56572 5.56523Z" fill="white"/>
</g>
</svg>
