<svg width="14" height="14" viewBox="0 0 14 14" fill="none" xmlns="http://www.w3.org/2000/svg">
<path d="M6.35298 1.8508C6.5752 1.25026 7.4246 1.25026 7.64682 1.8508L8.75288 4.83988C8.82274 5.02868 8.97161 5.17755 9.16042 5.24741L12.1495 6.35347C12.75 6.57569 12.75 7.42509 12.1495 7.64731L9.16042 8.75337C8.97161 8.82323 8.82274 8.9721 8.75288 9.1609L7.64682 12.15C7.4246 12.7505 6.57521 12.7505 6.35299 12.15L5.24693 9.1609C5.17706 8.9721 5.0282 8.82323 4.83939 8.75337L1.85031 7.64731C1.24977 7.42509 1.24977 6.57569 1.85031 6.35347L4.83939 5.24741C5.0282 5.17755 5.17706 5.02869 5.24693 4.83988L6.35298 1.8508Z" stroke="#787881" stroke-width="1.5" stroke-linejoin="round"/>
</svg>
