<svg width="14" height="14" viewBox="0 0 14 14" fill="none" xmlns="http://www.w3.org/2000/svg">
<path d="M6.35298 1.85031C6.5752 1.24977 7.4246 1.24977 7.64682 1.85031L8.75288 4.83939C8.82274 5.0282 8.97161 5.17706 9.16042 5.24693L12.1495 6.35298C12.75 6.5752 12.75 7.4246 12.1495 7.64682L9.16042 8.75288C8.97161 8.82274 8.82274 8.97161 8.75288 9.16042L7.64682 12.1495C7.4246 12.75 6.57521 12.75 6.35299 12.1495L5.24693 9.16042C5.17706 8.97161 5.0282 8.82274 4.83939 8.75288L1.85031 7.64682C1.24977 7.4246 1.24977 6.57521 1.85031 6.35299L4.83939 5.24693C5.0282 5.17706 5.17706 5.0282 5.24693 4.83939L6.35298 1.85031Z" stroke="white" stroke-width="1.5" stroke-linejoin="round"/>
</svg>
