<svg xmlns="http://www.w3.org/2000/svg" width="43" height="43" viewBox="0 0 43 43" fill="none">
  <g clip-path="url(#clip0_6907_21073)">
    <path d="M21.5 43C33.3741 43 43 33.3741 43 21.5C43 9.62588 33.3741 0 21.5 0C9.62588 0 0 9.62588 0 21.5C0 33.3741 9.62588 43 21.5 43Z" fill="url(#paint0_linear_6907_21073)"/>
    <path d="M27.563 15.374H15.0155C12.7083 15.374 11.2459 17.862 12.4076 19.8739L20.1526 33.2967C20.6574 34.1737 21.9247 34.1737 22.4294 33.2967L30.1745 19.8739C31.3344 17.8656 29.872 15.374 27.5665 15.374H27.563ZM20.1437 29.2729L18.4576 26.008L14.3872 18.7302C14.1187 18.2648 14.4499 17.6669 15.0119 17.6669H20.1419V29.2747L20.1437 29.2729ZM28.1859 18.7284L24.1173 26.0098L22.4312 29.2729V17.6651H27.5612C28.1232 17.6651 28.4543 18.263 28.1859 18.7284Z" fill="white"/>
    <path d="M20.8409 14.1013H19.7204L17.8249 11.3466H17.7891V14.1013H16.4502V9H17.5922L19.4591 11.7404H19.502V9H20.8409V14.1013Z" fill="white"/>
    <path d="M23.7945 10.5214H23.8375L24.711 9H26.2127L24.6841 11.5507L26.27 14.1013H24.7342L23.8393 12.5584H23.7963L22.9085 14.1013H21.3799L22.9514 11.5507L21.43 9H22.9371L23.7963 10.5214H23.7945Z" fill="white"/>
  </g>
  <defs>
    <linearGradient id="paint0_linear_6907_21073" x1="0" y1="21.5" x2="43" y2="21.5" gradientUnits="userSpaceOnUse">
      <stop stop-color="#8468BF"/>
      <stop offset="1" stop-color="#6060FF"/>
    </linearGradient>
    <clipPath id="clip0_6907_21073">
      <rect width="43" height="43" fill="white"/>
    </clipPath>
  </defs>
</svg>