<svg width="18" height="18" viewBox="0 0 18 18" fill="none" xmlns="http://www.w3.org/2000/svg">
<g clip-path="url(#clip0_453_8130)">
<path d="M9 18C13.9706 18 18 13.9706 18 9C18 4.02944 13.9706 0 9 0C4.02944 0 0 4.02944 0 9C0 13.9706 4.02944 18 9 18Z" fill="#0088CC"/>
<path fill-rule="evenodd" clip-rule="evenodd" d="M6.49569 5.94779L11.5435 5.94775C11.7221 5.94775 11.9006 5.97398 12.0871 6.06093C12.3106 6.16514 12.4292 6.32939 12.5122 6.45085C12.5187 6.4603 12.5247 6.47004 12.5303 6.48001C12.628 6.65384 12.6783 6.84152 12.6783 7.04341C12.6783 7.23524 12.6327 7.44423 12.5303 7.62638C12.5294 7.62815 12.5284 7.62985 12.5274 7.63159L9.33821 13.1099C9.26788 13.2307 9.13844 13.3048 8.99865 13.3043C8.85887 13.3038 8.72994 13.2288 8.66048 13.1074L5.52989 7.64088C5.52899 7.6394 5.52809 7.63792 5.52719 7.63641C5.45555 7.51835 5.34475 7.33578 5.32537 7.10017C5.30756 6.8835 5.35626 6.6664 5.46513 6.47818C5.57399 6.28991 5.73789 6.13942 5.93502 6.0473C6.14639 5.94853 6.36059 5.94779 6.49569 5.94779ZM8.60873 6.73037H6.49569C6.35686 6.73037 6.30357 6.73892 6.26632 6.75634C6.21479 6.78038 6.17153 6.81995 6.1426 6.86996C6.11367 6.92001 6.10059 6.978 6.10535 7.03605C6.10808 7.06932 6.12164 7.10737 6.20165 7.23932C6.20332 7.24208 6.20496 7.24488 6.20656 7.24768L8.60873 11.4423V6.73037ZM9.39134 6.73037V11.463L11.8491 7.24102C11.8769 7.19062 11.8957 7.11779 11.8957 7.04341C11.8957 6.98308 11.8832 6.93068 11.8552 6.87668C11.8259 6.83448 11.808 6.81214 11.7931 6.79684C11.7802 6.78376 11.7704 6.77675 11.7564 6.77026C11.6983 6.74316 11.6388 6.73037 11.5435 6.73037H9.39134Z" fill="white"/>
</g>
<defs>
<clipPath id="clip0_453_8130">
<rect width="18" height="18" fill="white"/>
</clipPath>
</defs>
</svg>
