<svg xmlns="http://www.w3.org/2000/svg" width="43" height="43" viewBox="0 0 43 43" fill="none">
  <g clip-path="url(#clip0_7086_10282)">
    <path d="M21.5 43C33.3741 43 43 33.3741 43 21.5C43 9.62588 33.3741 0 21.5 0C9.62588 0 0 9.62588 0 21.5C0 33.3741 9.62588 43 21.5 43Z" fill="#0098EA"/>
    <path fill-rule="evenodd" clip-rule="evenodd" d="M15.5172 14.2086L27.576 14.2085C28.0026 14.2085 28.4289 14.2712 28.8744 14.4789C29.4085 14.7278 29.6916 15.1202 29.8901 15.4103C29.9055 15.4329 29.9199 15.4562 29.9333 15.48C30.1666 15.8952 30.2868 16.3436 30.2868 16.8259C30.2868 17.2841 30.1778 17.7834 29.9333 18.2186C29.931 18.2228 29.9286 18.2268 29.9262 18.231L22.3077 31.318C22.1397 31.6066 21.8305 31.7836 21.4965 31.7824C21.1626 31.7813 20.8546 31.602 20.6887 31.3122L13.2101 18.2532C13.2079 18.2497 13.2058 18.2461 13.2036 18.2425C13.0325 17.9605 12.7678 17.5243 12.7215 16.9615C12.6789 16.4439 12.7953 15.9253 13.0553 15.4756C13.3154 15.0259 13.7069 14.6664 14.1779 14.4463C14.6828 14.2103 15.1945 14.2086 15.5172 14.2086ZM20.5651 16.0781H15.5172C15.1856 16.0781 15.0583 16.0985 14.9693 16.1401C14.8462 16.1976 14.7429 16.2921 14.6737 16.4116C14.6046 16.5311 14.5734 16.6696 14.5848 16.8083C14.5913 16.8878 14.6237 16.9787 14.8148 17.2939C14.8188 17.3005 14.8227 17.3072 14.8265 17.3139L20.5651 27.3343V16.0781ZM22.4346 16.0781V27.3839L28.3061 17.298C28.3723 17.1776 28.4172 17.0036 28.4172 16.8259C28.4172 16.6818 28.3874 16.5566 28.3206 16.4276C28.2505 16.3268 28.2078 16.2734 28.1721 16.2369C28.1414 16.2056 28.1179 16.1889 28.0845 16.1734C27.9457 16.1086 27.8036 16.0781 27.576 16.0781H22.4346Z" fill="white"/>
  </g>
  <defs>
    <clipPath id="clip0_7086_10282">
      <rect width="43" height="43" fill="white"/>
    </clipPath>
  </defs>
</svg>