<svg xmlns="http://www.w3.org/2000/svg" width="21" height="20" viewBox="0 0 21 20" fill="none">
  <path d="M17.7036 5.01213H17.6925H3.16731H2.65054C1.7837 5.01213 1.078 4.30643 1.078 3.43959V2.6561C1.078 1.78925 1.7837 1.078 2.65054 1.078H17.7925C18.0926 1.078 18.3315 0.83906 18.3315 0.538999C18.3315 0.238938 18.0926 0 17.7925 0H1.96707C0.877957 0 0 0.877957 0 1.96707V5.02325H17.8814C17.8481 5.02325 17.8147 5.01213 17.7814 5.01213H17.7092H17.7036Z" fill="white"/>
  <path d="M0 5.31764V17.7368C0 18.9871 1.01132 19.9984 2.26157 19.9984H17.7814C19.0317 19.9984 20.043 18.9871 20.043 17.7368V7.26804C20.043 6.05668 19.0872 5.07315 17.887 5.01758H0V5.31208V5.31764Z" fill="white"/>
  <ellipse cx="16.1143" cy="12.7783" rx="1.66701" ry="1.66701" fill="#1F53FF"/>
  <path d="M2.38672 2.38281H15.9572" stroke="#B4C5FF" stroke-width="0.7" stroke-linecap="round"/>
  <path d="M2.38672 3.80859H15.9572" stroke="#B4C5FF" stroke-width="0.7" stroke-linecap="round"/>
</svg>
