<svg xmlns="http://www.w3.org/2000/svg" width="24" height="24" viewBox="0 0 24 24" fill="none">
  <path fill-rule="evenodd" clip-rule="evenodd" d="M24 12C24 18.6274 18.6274 24 12 24C5.37258 24 0 18.6274 0 12C0 5.37258 5.37258 0 12 0C18.6274 0 24 5.37258 24 12ZM6.91406 11.0657H16.6768V8.54297H6.91406V11.0657ZM6.91406 16.2314V13.7362C7.60703 12.9999 8.48343 12.6216 9.44136 12.6113C10.2723 12.6164 11.0403 12.9046 11.8091 13.1932C12.5867 13.485 13.3652 13.7771 14.2106 13.7771C15.1584 13.7771 16.0042 13.3988 16.6768 12.6522V15.1475C15.9838 15.8837 15.1074 16.2723 14.1495 16.2723C13.3104 16.2723 12.533 15.9811 11.7553 15.6897C10.984 15.4007 10.2124 15.1116 9.38022 15.1065C8.43248 15.1168 7.58665 15.4951 6.91406 16.2314Z" fill="#1F53FF"/>
</svg>
