<svg xmlns="http://www.w3.org/2000/svg" width="18" height="18" viewBox="0 0 18 18" fill="none">
  <g clip-path="url(#clip0_4801_27803)">
    <path d="M9 18C13.9706 18 18 13.9706 18 9C18 4.02944 13.9706 0 9 0C4.02944 0 0 4.02944 0 9C0 13.9706 4.02944 18 9 18Z" fill="#0088CC"/>
    <path fill-rule="evenodd" clip-rule="evenodd" d="M6.4952 5.94779L11.543 5.94775C11.7216 5.94775 11.9001 5.97398 12.0866 6.06093C12.3101 6.16514 12.4287 6.32939 12.5117 6.45085C12.5182 6.4603 12.5242 6.47004 12.5298 6.48001C12.6275 6.65384 12.6778 6.84152 12.6778 7.04341C12.6778 7.23524 12.6322 7.44423 12.5298 7.62638C12.5289 7.62815 12.5279 7.62985 12.5269 7.63159L9.33772 13.1099C9.26739 13.2307 9.13796 13.3048 8.99817 13.3043C8.85838 13.3038 8.72945 13.2288 8.65999 13.1074L5.52941 7.64088C5.52851 7.6394 5.52761 7.63792 5.52671 7.63641C5.45506 7.51835 5.34426 7.33578 5.32488 7.10017C5.30707 6.8835 5.35577 6.6664 5.46464 6.47818C5.57351 6.28991 5.7374 6.13942 5.93453 6.0473C6.14591 5.94853 6.36011 5.94779 6.4952 5.94779ZM8.60824 6.73037H6.4952C6.35638 6.73037 6.30308 6.73892 6.26583 6.75634C6.21431 6.78038 6.17104 6.81995 6.14211 6.86996C6.11318 6.92001 6.1001 6.978 6.10486 7.03605C6.10759 7.06932 6.12116 7.10737 6.20116 7.23932C6.20283 7.24208 6.20447 7.24488 6.20608 7.24768L8.60824 11.4423V6.73037ZM9.39086 6.73037V11.463L11.8487 7.24102C11.8764 7.19062 11.8952 7.11779 11.8952 7.04341C11.8952 6.98308 11.8827 6.93068 11.8547 6.87668C11.8254 6.83448 11.8075 6.81214 11.7926 6.79684C11.7797 6.78376 11.7699 6.77675 11.7559 6.77026C11.6978 6.74316 11.6383 6.73037 11.543 6.73037H9.39086Z" fill="white"/>
  </g>
  <defs>
    <clipPath id="clip0_4801_27803">
      <rect width="18" height="18" fill="white"/>
    </clipPath>
  </defs>
</svg>
