<svg width="20" height="20" viewBox="0 0 20 20" fill="none" xmlns="http://www.w3.org/2000/svg">
<g clip-path="url(#clip0_940_4264)">
<path fill-rule="evenodd" clip-rule="evenodd" d="M10 0C15.5228 0 20 4.47715 20 10C20 15.5228 15.5228 20 10 20C4.47715 20 0 15.5228 0 10C0 4.47715 4.47715 0 10 0ZM10.0494 6.94375H9.94864C9.8012 6.95242 9.65624 7.01307 9.54359 7.12573L6.00806 10.6613C5.76398 10.9053 5.76398 11.3011 6.00806 11.5451C6.25214 11.7892 6.64786 11.7892 6.89194 11.5451L9.99928 8.43813L13.1061 11.5451C13.3502 11.7892 13.7459 11.7892 13.99 11.5451C14.2341 11.3011 14.2341 10.9053 13.99 10.6613L10.4544 7.12573C10.3418 7.01307 10.1968 6.95242 10.0494 6.94375Z" fill="#45464F"/>
</g>
<defs>
<clipPath id="clip0_940_4264">
<rect width="20" height="20" fill="white"/>
</clipPath>
</defs>
</svg>
