<svg width="20" height="20" viewBox="0 0 20 20" fill="none" xmlns="http://www.w3.org/2000/svg">
<g clip-path="url(#clip0_940_4179)">
<path fill-rule="evenodd" clip-rule="evenodd" d="M10 20C4.47715 20 0 15.5228 0 10C0 4.47715 4.47715 0 10 0C15.5228 0 20 4.47715 20 10C20 15.5228 15.5228 20 10 20ZM9.95061 13.0563H10.0514C10.1988 13.0476 10.3438 12.9869 10.4564 12.8743L13.9919 9.33874C14.236 9.09466 14.236 8.69894 13.9919 8.45486C13.7479 8.21078 13.3521 8.21078 13.1081 8.45486L10.0007 11.5619L6.89391 8.45486C6.64983 8.21078 6.2541 8.21078 6.01003 8.45486C5.76595 8.69894 5.76595 9.09466 6.01003 9.33874L9.54556 12.8743C9.65821 12.9869 9.80317 13.0476 9.95061 13.0563Z" fill="#45464F"/>
</g>
<defs>
<clipPath id="clip0_940_4179">
<rect width="20" height="20" fill="white" transform="matrix(-1 0 0 -1 20 20)"/>
</clipPath>
</defs>
</svg>
