<svg xmlns="http://www.w3.org/2000/svg" width="24" height="24" viewBox="0 0 24 24" fill="none">
  <path d="M17.9999 9.5999H20.3999C21.0626 9.5999 21.5999 10.1372 21.5999 10.7999L21.5999 19.5999C21.5999 20.7045 20.7045 21.5999 19.5999 21.5999L10.7999 21.5999C10.1372 21.5999 9.5999 21.0626 9.5999 20.3999V17.9999M11.9999 2.3999L4.7999 2.3999C3.47442 2.3999 2.3999 3.47442 2.3999 4.7999L2.3999 11.9999C2.3999 13.3254 3.47442 14.3999 4.7999 14.3999L11.9999 14.3999C13.3254 14.3999 14.3999 13.3254 14.3999 11.9999L14.3999 4.7999C14.3999 3.47442 13.3254 2.3999 11.9999 2.3999Z" stroke="black" stroke-width="2" stroke-linecap="round"/>
</svg>