<svg width="20" height="92" viewBox="0 0 20 92" fill="none" xmlns="http://www.w3.org/2000/svg">
<path d="M10 9V82" stroke="#BDEBFE"/>
<g opacity="0.9" filter="url(#filter0_f_1447_18865)">
<circle cx="10" cy="10" r="8" fill="#007AFF"/>
</g>
<circle opacity="0.5" cx="9.99985" cy="9.99961" r="6.4" fill="#007AFF"/>
<path d="M10.9611 7.38086V13.199H9.90709V8.40643H9.873L8.51221 9.27575V8.30984L9.95823 7.38086H10.9611Z" fill="white"/>
<g opacity="0.9" filter="url(#filter1_f_1447_18865)">
<circle cx="10" cy="46" r="8" fill="#007AFF"/>
</g>
<circle opacity="0.5" cx="9.99985" cy="45.9996" r="6.4" fill="#007AFF"/>
<path d="M8.03238 49.2005V48.4391L10.0523 46.459C10.2455 46.2639 10.4064 46.0906 10.5352 45.9391C10.664 45.7876 10.7606 45.6408 10.825 45.4988C10.8894 45.3567 10.9216 45.2052 10.9216 45.0442C10.9216 44.8605 10.8799 44.7033 10.7966 44.5726C10.7133 44.44 10.5987 44.3378 10.4528 44.2658C10.307 44.1938 10.1413 44.1578 9.95568 44.1578C9.76439 44.1578 9.59678 44.1976 9.45284 44.2772C9.3089 44.3548 9.19715 44.4656 9.11761 44.6096C9.03996 44.7535 9.00113 44.9249 9.00113 45.1238H7.99829C7.99829 44.7544 8.08257 44.4334 8.25113 44.1607C8.41969 43.888 8.6517 43.6768 8.94715 43.5272C9.2445 43.3775 9.58541 43.3027 9.96988 43.3027C10.36 43.3027 10.7028 43.3757 10.9983 43.5215C11.2937 43.6673 11.5229 43.8671 11.6858 44.1209C11.8506 44.3747 11.933 44.6645 11.933 44.9902C11.933 45.208 11.8913 45.4221 11.808 45.6323C11.7246 45.8425 11.5778 46.0755 11.3676 46.3311C11.1593 46.5868 10.8667 46.8965 10.4898 47.2601L9.48693 48.28V48.3198H12.021V49.2005H8.03238Z" fill="white"/>
<g opacity="0.9" filter="url(#filter2_f_1447_18865)">
<circle cx="10" cy="82" r="8" fill="#007AFF"/>
</g>
<circle opacity="0.5" cx="9.99985" cy="81.9996" r="6.4" fill="#007AFF"/>
<path d="M10.0002 85.28C9.59113 85.28 9.22749 85.2099 8.90931 85.0698C8.59303 84.9296 8.34303 84.7346 8.15931 84.4846C7.9756 84.2346 7.87806 83.9457 7.8667 83.6181H8.93488C8.94435 83.7753 8.99643 83.9126 9.09113 84.03C9.18583 84.1455 9.31178 84.2355 9.46897 84.2999C9.62617 84.3643 9.80231 84.3965 9.99738 84.3965C10.2057 84.3965 10.3904 84.3605 10.5514 84.2885C10.7123 84.2147 10.8383 84.1124 10.9292 83.9817C11.0201 83.851 11.0646 83.7005 11.0627 83.53C11.0646 83.3539 11.0192 83.1986 10.9264 83.0641C10.8336 82.9296 10.6991 82.8245 10.5229 82.7488C10.3487 82.673 10.1385 82.6351 9.89227 82.6351H9.37806V81.8226H9.89227C10.0949 81.8226 10.272 81.7876 10.4235 81.7175C10.5769 81.6474 10.6972 81.5489 10.7843 81.4221C10.8714 81.2933 10.914 81.1446 10.9122 80.976C10.914 80.8113 10.8771 80.6683 10.8014 80.5471C10.7275 80.4239 10.6224 80.3283 10.486 80.2601C10.3515 80.1919 10.1934 80.1578 10.0116 80.1578C9.83356 80.1578 9.66878 80.19 9.51727 80.2544C9.36575 80.3188 9.24359 80.4107 9.15079 80.53C9.05799 80.6474 9.00874 80.7876 9.00306 80.9505H7.98886C7.99643 80.6247 8.09018 80.3387 8.27011 80.0925C8.45193 79.8444 8.69435 79.6512 8.99738 79.513C9.30041 79.3728 9.64037 79.3027 10.0173 79.3027C10.4055 79.3027 10.7426 79.3757 11.0286 79.5215C11.3165 79.6654 11.539 79.8596 11.6962 80.1039C11.8534 80.3482 11.932 80.6181 11.932 80.9135C11.9339 81.2412 11.8373 81.5158 11.6423 81.7374C11.4491 81.959 11.1953 82.1039 10.8809 82.1721V82.2175C11.29 82.2743 11.6034 82.4258 11.8212 82.6721C12.0409 82.9164 12.1498 83.2203 12.1479 83.584C12.1479 83.9097 12.0551 84.2014 11.8695 84.459C11.6858 84.7147 11.432 84.9154 11.1082 85.0613C10.7862 85.2071 10.4169 85.28 10.0002 85.28Z" fill="white"/>
<defs>
<filter id="filter0_f_1447_18865" x="0" y="0" width="20" height="20" filterUnits="userSpaceOnUse" color-interpolation-filters="sRGB">
<feFlood flood-opacity="0" result="BackgroundImageFix"/>
<feBlend mode="normal" in="SourceGraphic" in2="BackgroundImageFix" result="shape"/>
<feGaussianBlur stdDeviation="1" result="effect1_foregroundBlur_1447_18865"/>
</filter>
<filter id="filter1_f_1447_18865" x="0" y="36" width="20" height="20" filterUnits="userSpaceOnUse" color-interpolation-filters="sRGB">
<feFlood flood-opacity="0" result="BackgroundImageFix"/>
<feBlend mode="normal" in="SourceGraphic" in2="BackgroundImageFix" result="shape"/>
<feGaussianBlur stdDeviation="1" result="effect1_foregroundBlur_1447_18865"/>
</filter>
<filter id="filter2_f_1447_18865" x="0" y="72" width="20" height="20" filterUnits="userSpaceOnUse" color-interpolation-filters="sRGB">
<feFlood flood-opacity="0" result="BackgroundImageFix"/>
<feBlend mode="normal" in="SourceGraphic" in2="BackgroundImageFix" result="shape"/>
<feGaussianBlur stdDeviation="1" result="effect1_foregroundBlur_1447_18865"/>
</filter>
</defs>
</svg>
