<svg width="92" height="93" viewBox="0 0 92 93" fill="none" xmlns="http://www.w3.org/2000/svg">
<path d="M67.5879 51.2335C67.5879 50.7582 67.2261 50.3329 66.7052 50.1828L58.313 48.3441C57.1699 48.094 56.3597 47.1934 56.3597 46.1677C56.3597 44.7043 57.9513 43.6411 59.5863 43.9913L63.5075 44.8544C64.9689 44.9419 66.2712 43.9538 66.2712 42.6404C66.2712 41.8274 65.7503 41.1019 64.9545 40.7142L20.0271 30.8828V42.2777L66.0397 52.3593C66.821 52.4593 67.5879 51.934 67.5879 51.2335ZM50.3983 44.7793C50.3983 43.8287 51.2809 43.0657 52.3806 43.0657C53.4803 43.0657 54.3629 43.8287 54.3629 44.7793C54.3629 45.7299 53.4803 46.4929 52.3806 46.4929C51.2809 46.4929 50.3983 45.7299 50.3983 44.7793Z" fill="url(#paint0_linear_97_3856)"/>
<path d="M21.5174 11.1447L29.953 12.8458C31.1106 13.0835 31.9353 13.959 31.9498 14.9847C31.9787 16.4481 30.4161 17.5364 28.7666 17.2111L24.8309 16.4231C23.3695 16.3606 22.0962 17.3612 22.1251 18.6871C22.1541 19.6627 22.9065 20.5008 23.9917 20.776L69.411 30.3822C70.7422 30.6699 72.0299 29.7943 72.0299 28.606V20.9761C72.0299 20.138 71.3643 19.4001 70.4094 19.1999L22.6026 9.06835C22.0528 8.95578 21.5174 9.04334 21.0689 9.25597C20.7939 9.46861 20.6058 9.76881 20.6058 10.119C20.6058 10.5943 20.982 11.0071 21.5029 11.1572L21.5174 11.1447Z" fill="url(#paint1_linear_97_3856)"/>
<path d="M39.6624 11.3574H19.4342V0H72.5657V11.3574H52.5546V56.4366H39.6624V11.3574Z" fill="#0C0F5E"/>
<path d="M72.016 31.0827V19.6753L19.9697 30.6949V42.0898L72.016 31.0827Z" fill="#0C0F5E"/>
<path d="M10.0625 76.7442H14.1984V92.1288H10.7234L4.13587 83.931V92.1288H0V76.7442H3.47499L10.0625 84.942V76.7442Z" fill="#0C0F5E"/>
<path d="M21.3544 88.7662H29.1571V92.1288H17.1759V76.7442H28.88V80.1069H21.3544V82.7003H27.9846V85.953H21.3544V88.7662Z" fill="#0C0F5E"/>
<path d="M45.6583 92.1288H40.7976L37.7064 87.3596L34.6577 92.1288H29.8397L35.276 84.3486L30.0742 76.7442H34.8283L37.8129 81.1838L40.755 76.7442H45.3172L40.1154 84.1728L45.6583 92.1288Z" fill="#0C0F5E"/>
<path d="M49.6243 92.1288V80.1948H45.0407V76.7442H58.4077V80.1948H53.8455V92.1288H49.6243Z" fill="#0C0F5E"/>
<path d="M67.2977 92.4365C62.5222 92.4365 59.0046 89.0519 59.0046 84.4365C59.0046 79.8211 62.5222 76.4365 67.2977 76.4365C72.0731 76.4365 75.5908 79.8211 75.5908 84.4365C75.5908 89.0519 72.0731 92.4365 67.2977 92.4365ZM67.2977 88.8321C69.5575 88.8321 71.327 87.0959 71.327 84.4365C71.327 81.7772 69.5575 80.0409 67.2977 80.0409C65.0379 80.0409 63.2684 81.7772 63.2684 84.4365C63.2684 87.0959 65.0379 88.8321 67.2977 88.8321Z" fill="#0C0F5E"/>
<path d="M87.8641 76.7442H92V92.1288H88.525L81.9375 83.931V92.1288H77.8016V76.7442H81.2766L87.8641 84.942V76.7442Z" fill="#0C0F5E"/>
<defs>
<linearGradient id="paint0_linear_97_3856" x1="43.8003" y1="52.672" x2="43.8003" y2="30.8828" gradientUnits="userSpaceOnUse">
<stop stop-color="#8968BF"/>
<stop offset="1" stop-color="#4444D6"/>
</linearGradient>
<linearGradient id="paint1_linear_97_3856" x1="19.9837" y1="19.7253" x2="72.0299" y2="19.7253" gradientUnits="userSpaceOnUse">
<stop stop-color="#8468BF"/>
<stop offset="1" stop-color="#6060FF"/>
</linearGradient>
</defs>
</svg>
