<svg xmlns="http://www.w3.org/2000/svg" width="73" height="41" viewBox="0 0 73 41" fill="none">
  <g clip-path="url(#clip0_11811_5260)">
    <path d="M0 40.4964L39.735 0.566406H0V40.4964Z" fill="#7037C9"/>
    <path d="M19.867 20.5312L0 40.4953H39.735L19.867 20.5312Z" fill="#442078"/>
    <path d="M23.5469 20.5684H26.1319C27.6499 20.5684 28.7665 20.829 29.4819 21.3504C30.2085 21.8604 30.5719 22.6584 30.5719 23.7444C30.5719 24.3297 30.4685 24.8074 30.2619 25.1774C30.0672 25.5354 29.7259 25.839 29.2379 26.0884C29.9645 26.3817 30.4849 26.7617 30.7989 27.2284C31.1242 27.695 31.2869 28.3084 31.2869 29.0684C31.2869 30.2304 30.8969 31.1097 30.1169 31.7064C29.3362 32.3037 28.1869 32.6024 26.6689 32.6024H23.5469V20.5684ZM26.7169 30.8114C27.6495 30.8114 28.3272 30.6754 28.7499 30.4034C29.1725 30.1214 29.3839 29.6657 29.3839 29.0364C29.3839 28.471 29.1999 28.026 28.8319 27.7014C28.4739 27.3754 27.9859 27.2124 27.3679 27.2124H25.4329V30.8114H26.7179H26.7169ZM27.1399 25.3884C28.1699 25.3884 28.6849 24.889 28.6849 23.8904C28.6849 23.3584 28.5115 22.9784 28.1649 22.7504C27.8289 22.5117 27.2815 22.3924 26.5229 22.3924H25.4329V25.3884H27.1399ZM32.7669 23.6134H34.6049V32.6024H32.7669V23.6134ZM32.7669 20.5684H34.6049V22.6044H32.7669V20.5684ZM36.0609 28.1084C36.0609 27.435 36.1749 26.8107 36.4029 26.2354C36.6273 25.6726 36.9583 25.1585 37.3779 24.7214C37.7871 24.2904 38.2793 23.9469 38.8249 23.7114C39.3934 23.4606 40.0086 23.3332 40.6299 23.3374C41.2168 23.3304 41.7986 23.4466 42.3379 23.6784C42.8692 23.8964 43.3135 24.2114 43.6709 24.6234V20.5684H45.5249V32.6024H43.8009V31.2824C43.3569 31.8157 42.8909 32.2067 42.4029 32.4554C41.9155 32.694 41.3409 32.8134 40.6789 32.8134C40.0667 32.818 39.4598 32.701 38.8933 32.4691C38.3268 32.2371 37.812 31.8949 37.3789 31.4624C36.9607 31.0301 36.6294 30.5215 36.4029 29.9644C36.1721 29.373 36.056 28.7431 36.0609 28.1084ZM37.9149 28.0584C37.9149 28.4824 37.9905 28.8844 38.1419 29.2644C38.3045 29.633 38.5162 29.9587 38.7769 30.2414C39.0475 30.5127 39.3619 30.7297 39.7199 30.8924C40.0885 31.0444 40.4842 31.1204 40.9069 31.1204C41.3082 31.1204 41.6822 31.0444 42.0289 30.8924C42.3764 30.7362 42.691 30.5153 42.9559 30.2414C43.2159 29.9587 43.4219 29.633 43.5739 29.2644C43.7252 28.8944 43.8009 28.498 43.8009 28.0754C43.8009 27.6414 43.7252 27.2397 43.5739 26.8704C43.4308 26.5052 43.2151 26.1728 42.9399 25.8934C42.6739 25.617 42.3521 25.4006 41.9959 25.2584C41.614 25.1031 41.205 25.0256 40.7929 25.0304C40.3922 25.0304 40.0129 25.1117 39.6549 25.2744C39.3122 25.4232 39.0028 25.6391 38.7449 25.9094C38.4789 26.1871 38.2687 26.5133 38.1259 26.8704C37.9859 27.2397 37.9155 27.635 37.9149 28.0584ZM46.9869 28.1394C46.9869 27.456 47.1005 26.8264 47.3279 26.2504C47.5473 25.6933 47.8734 25.1845 48.2879 24.7524C48.7033 24.3258 49.201 23.988 49.7509 23.7594C50.3391 23.5184 50.9693 23.3968 51.6049 23.4014C52.2982 23.4014 52.8945 23.526 53.3939 23.7754C53.8925 24.0154 54.3369 24.4064 54.7269 24.9484V23.6134H56.4509V32.6014H54.7269V31.2984C54.2829 31.841 53.8222 32.232 53.3449 32.4714C52.8682 32.6994 52.2882 32.8134 51.6049 32.8134C50.9706 32.8204 50.3409 32.7043 49.7509 32.4714C49.2049 32.2428 48.7081 31.9111 48.2879 31.4944C47.8731 31.0686 47.5469 30.5649 47.3279 30.0124C47.0953 29.4156 46.9795 28.7798 46.9869 28.1394ZM48.8399 28.1564C48.8399 28.5797 48.9105 28.9757 49.0519 29.3444C49.2039 29.703 49.4099 30.018 49.6699 30.2894C49.9405 30.5494 50.2549 30.7557 50.6129 30.9084C50.9922 31.051 51.3946 31.1225 51.7999 31.1194C52.2225 31.1194 52.6075 31.0487 52.9549 30.9074C53.3009 30.7632 53.6157 30.5533 53.8819 30.2894C54.1419 30.0174 54.3422 29.697 54.4829 29.3284C54.6242 28.959 54.6949 28.5574 54.6949 28.1234C54.6949 27.6787 54.6189 27.2717 54.4669 26.9024C54.3341 26.5451 54.1229 26.2222 53.8489 25.9574C53.5832 25.6812 53.2617 25.4647 52.9059 25.3224C52.5298 25.1666 52.1259 25.089 51.7189 25.0944C51.3069 25.0944 50.9219 25.176 50.5639 25.3394C50.2212 25.4882 49.9118 25.7041 49.6539 25.9744C49.4045 26.2457 49.2039 26.5714 49.0519 26.9514C48.9105 27.32 48.8399 27.7217 48.8399 28.1564ZM59.4899 29.8164C59.6519 30.685 60.1019 31.1194 60.8399 31.1194C61.1759 31.1194 61.4522 31.016 61.6689 30.8094C61.8855 30.604 61.9939 30.3384 61.9939 30.0124C62.0006 29.84 61.9553 29.6696 61.8639 29.5234C61.774 29.3778 61.6514 29.2552 61.5059 29.1654C61.3487 29.0591 61.1796 28.9718 61.0019 28.9054C60.8019 28.8276 60.6012 28.7516 60.3999 28.6774C59.5112 28.3627 58.8825 28.0097 58.5139 27.6184C58.1452 27.217 57.9609 26.7014 57.9609 26.0714C57.9577 25.7164 58.0268 25.3645 58.1638 25.037C58.3008 24.7096 58.5029 24.4133 58.7579 24.1664C59.0179 23.9277 59.3212 23.7434 59.6679 23.6134C60.0252 23.4714 60.4064 23.3994 60.7909 23.4014C61.1915 23.4014 61.5602 23.4664 61.8969 23.5964C62.2329 23.7264 62.5255 23.9057 62.7749 24.1344C63.0242 24.3624 63.2192 24.639 63.3599 24.9644C63.5119 25.279 63.5932 25.6264 63.6039 26.0064H61.7829C61.6962 25.3984 61.3655 25.0944 60.7909 25.0944C60.5324 25.0852 60.2808 25.1787 60.0909 25.3544C60.0023 25.4346 59.9318 25.5329 59.8842 25.6426C59.8366 25.7522 59.813 25.8708 59.8149 25.9904C59.8117 26.1543 59.863 26.3147 59.9609 26.4464C60.0765 26.5823 60.2141 26.6979 60.3679 26.7884C60.5305 26.8857 60.7092 26.9724 60.9039 27.0484C61.0985 27.1244 61.2939 27.195 61.4899 27.2604C62.3245 27.5317 62.9262 27.8684 63.2949 28.2704C63.6635 28.6717 63.8479 29.1927 63.8479 29.8334C63.8479 30.2567 63.7665 30.653 63.6039 31.0224C63.4547 31.3746 63.2395 31.695 62.9699 31.9664C62.6877 32.234 62.3563 32.4442 61.9939 32.5854C61.6252 32.7374 61.2242 32.8134 60.7909 32.8134C59.8689 32.8134 59.1262 32.5527 58.5629 32.0314C58.0095 31.4994 57.7005 30.761 57.6359 29.8164H59.4899ZM65.1469 20.5684H66.9849V28.2544L70.2849 23.6144H72.5139L69.2129 28.0594L72.9359 32.6024H70.4969L68.1069 29.5084L66.9849 30.9734V32.6024H65.1469V20.5684Z" fill="white"/>
    <path d="M54.5488 35.6103H54.8838V36.0363C54.9892 35.8763 55.1232 35.7556 55.2858 35.6743C55.4641 35.5906 55.659 35.5486 55.8558 35.5513C56.1119 35.5496 56.3628 35.6235 56.577 35.7639C56.7912 35.9043 56.9592 36.1048 57.0598 36.3403C57.1265 36.4976 57.1598 36.6683 57.1598 36.8523C57.1622 37.0236 57.1301 37.1937 57.0655 37.3524C57.001 37.5111 56.9052 37.6553 56.7838 37.7763C56.5318 38.0175 56.1957 38.151 55.8468 38.1483C55.6543 38.1525 55.4636 38.1103 55.2908 38.0253C55.1259 37.9421 54.9856 37.8173 54.8838 37.6633V38.9593H54.5488V35.6103ZM55.8428 37.8403C55.9717 37.8417 56.0996 37.8177 56.2192 37.7697C56.3388 37.7216 56.4478 37.6505 56.5398 37.5603C56.7213 37.3735 56.8219 37.1227 56.8198 36.8623C56.8229 36.5945 56.7226 36.3359 56.5398 36.1403C56.3495 35.9567 56.0942 35.8561 55.8298 35.8603C55.7014 35.859 55.5741 35.8841 55.4558 35.934C55.3375 35.9839 55.2306 36.0575 55.1418 36.1503C55.0534 36.2402 54.9829 36.3461 54.9338 36.4623C54.8837 36.5861 54.8589 36.7187 54.8608 36.8523C54.8587 36.982 54.8824 37.1108 54.9304 37.2313C54.9785 37.3518 55.05 37.4616 55.1408 37.5543C55.233 37.6459 55.3424 37.7182 55.4627 37.7671C55.5831 37.8161 55.7119 37.8406 55.8418 37.8393L55.8428 37.8403ZM57.6328 35.6103H57.9678V35.9643C58.0235 35.8402 58.1151 35.7357 58.2308 35.6643C58.3659 35.5917 58.5165 35.5529 58.6698 35.5513V35.8823C58.2018 35.9283 57.9678 36.1819 57.9678 36.6433V38.0893H57.6328V35.6103ZM58.8998 36.8523C58.8998 36.6643 58.9312 36.4906 58.9938 36.3313C59.0572 36.1768 59.1513 36.0369 59.2704 35.92C59.3895 35.8031 59.5312 35.7116 59.6868 35.6513C59.8468 35.5846 60.0218 35.5513 60.2118 35.5513C60.3803 35.5499 60.5473 35.5825 60.7028 35.6473C60.8584 35.7121 60.9992 35.8077 61.1168 35.9283C61.2308 36.0429 61.3198 36.1803 61.3838 36.3403C61.4505 36.4976 61.4838 36.6696 61.4838 36.8563C61.4838 37.0409 61.4518 37.2133 61.3878 37.3733C61.3282 37.5254 61.2386 37.6639 61.1243 37.7807C61.0101 37.8975 60.8736 37.9902 60.7228 38.0533C60.3905 38.1798 60.0232 38.1798 59.6908 38.0533C59.536 37.9902 59.3947 37.8978 59.2748 37.7813C59.1528 37.6595 59.0565 37.5144 58.9919 37.3546C58.9273 37.1948 58.8956 37.0236 58.8988 36.8513L58.8998 36.8523ZM60.2118 37.8393C60.3403 37.8396 60.4676 37.8151 60.5868 37.7673C60.6972 37.7208 60.7971 37.6528 60.8808 37.5673C60.9648 37.4773 61.0295 37.3712 61.0708 37.2553C61.1215 37.1302 61.1463 36.9962 61.1438 36.8613C61.1438 36.7159 61.1195 36.5813 61.0708 36.4573C61.0289 36.3398 60.9624 36.2326 60.8758 36.1428C60.7893 36.053 60.6846 35.9826 60.5688 35.9363C60.4476 35.8829 60.3162 35.857 60.1838 35.8603C60.0531 35.858 59.9234 35.8843 59.8038 35.9373C59.6914 35.9856 59.59 36.0564 59.5058 36.1453C59.3312 36.3406 59.236 36.5942 59.2388 36.8563C59.2388 36.9983 59.2628 37.1299 59.3108 37.2513C59.3568 37.3669 59.4263 37.4718 59.5148 37.5593C59.6022 37.6466 59.7045 37.7159 59.8218 37.7673C59.9418 37.8153 60.0718 37.8393 60.2118 37.8393ZM62.2628 35.9133H61.7288V35.6093H62.2628V34.7393H62.5968V35.6093H63.1538V35.9133H62.5968V38.0883H62.2628V35.9133ZM63.3978 36.8523C63.3978 36.6643 63.4295 36.4906 63.4928 36.3313C63.5555 36.1766 63.6493 36.0365 63.7683 35.9195C63.8874 35.8026 64.0291 35.7112 64.1848 35.6513C64.3448 35.5846 64.5198 35.5513 64.7098 35.5513C64.8783 35.5499 65.0453 35.5825 65.2008 35.6473C65.3564 35.7121 65.4972 35.8077 65.6148 35.9283C65.7295 36.0429 65.8185 36.1803 65.8818 36.3403C65.9485 36.4976 65.9818 36.6696 65.9818 36.8563C65.9818 37.0409 65.9498 37.2133 65.8858 37.3733C65.8262 37.5254 65.7366 37.6639 65.6223 37.7807C65.5081 37.8975 65.3716 37.9902 65.2208 38.0533C64.8885 38.1798 64.5212 38.1798 64.1888 38.0533C64.034 37.9902 63.8927 37.8978 63.7728 37.7813C63.6509 37.6595 63.5549 37.5143 63.4905 37.3545C63.426 37.1947 63.3945 37.0245 63.3978 36.8523ZM64.7098 37.8393C64.8386 37.8397 64.9663 37.8152 65.0858 37.7673C65.1962 37.7208 65.2961 37.6528 65.3798 37.5673C65.4638 37.4773 65.5285 37.3712 65.5698 37.2553C65.6202 37.1301 65.6446 36.9961 65.6418 36.8613C65.6418 36.7159 65.6178 36.5813 65.5698 36.4573C65.5279 36.3398 65.4614 36.2326 65.3748 36.1428C65.2883 36.053 65.1836 35.9826 65.0678 35.9363C64.9466 35.8829 64.8152 35.857 64.6828 35.8603C64.5563 35.8596 64.4309 35.8845 64.3143 35.9335C64.1976 35.9825 64.092 36.0545 64.0038 36.1453C63.8292 36.3406 63.734 36.5942 63.7368 36.8563C63.7368 36.9983 63.7612 37.1299 63.8098 37.2513C63.8555 37.3668 63.9246 37.4717 64.0128 37.5593C64.1002 37.6466 64.2028 37.7159 64.3208 37.7673C64.4408 37.8153 64.5705 37.8393 64.7098 37.8393ZM68.9238 37.3593C68.7792 37.6286 68.6088 37.8279 68.4128 37.9573C68.2168 38.0839 67.9828 38.1473 67.7108 38.1473C67.5208 38.1473 67.3428 38.1139 67.1768 38.0473C66.8588 37.9204 66.6037 37.6731 66.4668 37.3593C66.3973 37.1961 66.3619 37.0206 66.3628 36.8433C66.3628 36.6619 66.3962 36.4926 66.4628 36.3353C66.5679 36.0988 66.7401 35.8984 66.958 35.759C67.176 35.6197 67.4301 35.5474 67.6888 35.5513C67.8302 35.5513 67.9642 35.5713 68.0908 35.6113C68.3399 35.679 68.5605 35.8252 68.7198 36.0283C68.8045 36.1269 68.8712 36.2383 68.9198 36.3623H68.5438C68.4565 36.2083 68.3298 36.0803 68.1768 35.9913C68.0277 35.903 67.8571 35.8576 67.6838 35.8603C67.554 35.8584 67.4252 35.8832 67.3053 35.9331C67.1854 35.9829 67.077 36.0569 66.9868 36.1503C66.8951 36.2425 66.8227 36.3521 66.7737 36.4726C66.7248 36.5931 66.7004 36.7222 66.7018 36.8523C66.7016 36.9826 66.7271 37.1117 66.7768 37.2322C66.8266 37.3526 66.8997 37.4621 66.9918 37.5543C67.0818 37.6416 67.1875 37.7113 67.3088 37.7633C67.4288 37.8133 67.5585 37.8386 67.6978 37.8393C67.8758 37.8393 68.0282 37.8033 68.1548 37.7313C68.2848 37.6553 68.4145 37.5313 68.5438 37.3593H68.9238ZM69.2928 36.8523C69.2928 36.6643 69.3245 36.4906 69.3878 36.3313C69.451 36.1769 69.545 36.037 69.664 35.9201C69.7829 35.8032 69.9244 35.7118 70.0798 35.6513C70.2398 35.5846 70.4148 35.5513 70.6048 35.5513C70.7733 35.5499 70.9403 35.5825 71.0958 35.6473C71.2514 35.7121 71.3922 35.8077 71.5098 35.9283C71.6238 36.0429 71.7128 36.1803 71.7768 36.3403C71.8435 36.4976 71.8768 36.6696 71.8768 36.8563C71.8768 37.0409 71.8448 37.2133 71.7808 37.3733C71.7212 37.5254 71.6316 37.6639 71.5173 37.7807C71.4031 37.8975 71.2666 37.9902 71.1158 38.0533C70.7835 38.1798 70.4162 38.1798 70.0838 38.0533C69.929 37.9902 69.7877 37.8978 69.6678 37.7813C69.5462 37.6592 69.4503 37.514 69.3857 37.3543C69.3212 37.1946 69.2892 37.0235 69.2918 36.8513L69.2928 36.8523ZM70.6048 37.8393C70.7333 37.8396 70.8606 37.8151 70.9798 37.7673C71.0902 37.7208 71.1901 37.6528 71.2738 37.5673C71.3578 37.4773 71.4225 37.3712 71.4638 37.2553C71.5145 37.1302 71.5393 36.9962 71.5368 36.8613C71.5368 36.7159 71.5125 36.5813 71.4638 36.4573C71.4219 36.3398 71.3554 36.2326 71.2688 36.1428C71.1823 36.053 71.0776 35.9826 70.9618 35.9363C70.841 35.8831 70.7099 35.8571 70.5778 35.8603C70.4471 35.858 70.3174 35.8843 70.1978 35.9373C70.0847 35.9854 69.9826 36.0562 69.8978 36.1453C69.7232 36.3406 69.628 36.5942 69.6308 36.8563C69.6308 36.9983 69.6552 37.1299 69.7038 37.2513C69.7525 37.3686 69.8205 37.4713 69.9078 37.5593C69.9966 37.6472 70.1011 37.7178 70.2158 37.7673C70.3358 37.8153 70.4655 37.8393 70.6048 37.8393ZM72.3528 34.7393H72.6878V38.0883H72.3528V34.7393Z" fill="#757C8F"/>
  </g>
  <defs>
    <clipPath id="clip0_11811_5260">
      <rect width="72.936" height="39.93" fill="white" transform="translate(0 0.566406)"/>
    </clipPath>
  </defs>
</svg>