<svg width="20" height="20" viewBox="0 0 20 20" fill="none" xmlns="http://www.w3.org/2000/svg">
<rect x="0.000976562" width="20" height="20" rx="10" fill="white"/>
<path d="M13.9008 14.8613C13.9008 14.7656 13.8373 14.68 13.746 14.6498L12.2741 14.2795C12.0737 14.2292 11.9316 14.0478 11.9316 13.8413C11.9316 13.5467 12.2107 13.3326 12.4975 13.4031L13.1852 13.5769C13.4415 13.5945 13.6698 13.3955 13.6698 13.1311C13.6698 12.9674 13.5785 12.8213 13.4389 12.7432L5.55957 10.7637V13.0581L13.6292 15.088C13.7663 15.1081 13.9008 15.0024 13.9008 14.8613ZM10.8861 13.5618C10.8861 13.3704 11.0409 13.2167 11.2337 13.2167C11.4266 13.2167 11.5814 13.3704 11.5814 13.5618C11.5814 13.7532 11.4266 13.9068 11.2337 13.9068C11.0409 13.9068 10.8861 13.7532 10.8861 13.5618Z" fill="url(#paint0_linear_487_3379)"/>
<path d="M5.821 6.78933L7.30044 7.13185C7.50345 7.17971 7.6481 7.356 7.65064 7.56252C7.65571 7.85719 7.38165 8.07631 7.09236 8.01082L6.40212 7.85216C6.14582 7.83956 5.92251 8.04105 5.92758 8.30801C5.93266 8.50446 6.06462 8.6732 6.25494 8.72861L14.2206 10.6628C14.454 10.7208 14.6799 10.5445 14.6799 10.3052V8.7689C14.6799 8.60016 14.5631 8.45157 14.3957 8.41127L6.01133 6.37126C5.9149 6.34859 5.821 6.36622 5.74234 6.40903C5.69412 6.45185 5.66113 6.51229 5.66113 6.58281C5.66113 6.67852 5.72711 6.76163 5.81847 6.79185L5.821 6.78933Z" fill="url(#paint1_linear_487_3379)"/>
<path d="M9.00317 6.83224H5.45557V4.54541H14.7737V6.83224H11.2642V15.909H9.00317V6.83224Z" fill="#0C0F5E"/>
<path d="M14.6774 10.804V8.50708L5.54956 10.7259V13.0203L14.6774 10.804Z" fill="#0C0F5E"/>
<defs>
<linearGradient id="paint0_linear_487_3379" x1="9.7289" y1="15.151" x2="9.7289" y2="10.7637" gradientUnits="userSpaceOnUse">
<stop stop-color="#8968BF"/>
<stop offset="1" stop-color="#4444D6"/>
</linearGradient>
<linearGradient id="paint1_linear_487_3379" x1="5.55201" y1="8.51705" x2="14.6799" y2="8.51705" gradientUnits="userSpaceOnUse">
<stop stop-color="#8468BF"/>
<stop offset="1" stop-color="#6060FF"/>
</linearGradient>
</defs>
</svg>
