<svg width="44" height="44" viewBox="0 0 44 44" fill="none" xmlns="http://www.w3.org/2000/svg">
<g id="Subtract" filter="url(#filter0_dii_2401_13304)">
<path fill-rule="evenodd" clip-rule="evenodd" d="M20 33C27.732 33 34 26.732 34 19C34 11.268 27.732 5 20 5C12.268 5 6 11.268 6 19C6 26.732 12.268 33 20 33ZM12.7983 13.3945C12.7983 13.1736 12.9774 12.9945 13.1983 12.9945H14.7267C14.9073 12.9945 15.0655 13.1156 15.1128 13.29L15.7571 15.6692H25.9983C26.1186 15.6692 26.2325 15.7233 26.3085 15.8166C26.3844 15.9099 26.4144 16.0324 26.39 16.1502L25.2437 21.6905C25.2091 21.8581 25.0715 21.9851 24.9016 22.0064L17.2599 22.9616C17.0621 22.9863 16.8763 22.8616 16.8242 22.6693L14.4206 13.7945H13.1983C12.9774 13.7945 12.7983 13.6154 12.7983 13.3945ZM17.1983 25.066C17.1983 24.2928 17.8251 23.666 18.5983 23.666C19.3715 23.666 19.9983 24.2928 19.9983 25.066C19.9983 25.8392 19.3715 26.466 18.5983 26.466C17.8251 26.466 17.1983 25.8392 17.1983 25.066ZM22.5316 25.066C22.5316 24.2928 23.1584 23.666 23.9316 23.666C24.7048 23.666 25.3316 24.2928 25.3316 25.066C25.3316 25.8392 24.7048 26.466 23.9316 26.466C23.1584 26.466 22.5316 25.8392 22.5316 25.066Z" fill="url(#paint0_linear_2401_13304)"/>
</g>
<defs>
<filter id="filter0_dii_2401_13304" x="0.780109" y="0.514906" width="42.9333" height="42.9333" filterUnits="userSpaceOnUse" color-interpolation-filters="sRGB">
<feFlood flood-opacity="0" result="BackgroundImageFix"/>
<feColorMatrix in="SourceAlpha" type="matrix" values="0 0 0 0 0 0 0 0 0 0 0 0 0 0 0 0 0 0 127 0" result="hardAlpha"/>
<feOffset dx="2.24678" dy="2.98157"/>
<feGaussianBlur stdDeviation="3.73333"/>
<feColorMatrix type="matrix" values="0 0 0 0 0.0690173 0 0 0 0 0.129692 0 0 0 0 0.135001 0 0 0 0.3135 0"/>
<feBlend mode="normal" in2="BackgroundImageFix" result="effect1_dropShadow_2401_13304"/>
<feBlend mode="normal" in="SourceGraphic" in2="effect1_dropShadow_2401_13304" result="shape"/>
<feColorMatrix in="SourceAlpha" type="matrix" values="0 0 0 0 0 0 0 0 0 0 0 0 0 0 0 0 0 0 127 0" result="hardAlpha"/>
<feOffset dx="0.803847" dy="1.06674"/>
<feGaussianBlur stdDeviation="0.667852"/>
<feComposite in2="hardAlpha" operator="arithmetic" k2="-1" k3="1"/>
<feColorMatrix type="matrix" values="0 0 0 0 0.414794 0 0 0 0 0.779448 0 0 0 0 0.811355 0 0 0 1 0"/>
<feBlend mode="normal" in2="shape" result="effect2_innerShadow_2401_13304"/>
<feColorMatrix in="SourceAlpha" type="matrix" values="0 0 0 0 0 0 0 0 0 0 0 0 0 0 0 0 0 0 127 0" result="hardAlpha"/>
<feOffset dx="-0.803847" dy="-1.06674"/>
<feGaussianBlur stdDeviation="0.667852"/>
<feComposite in2="hardAlpha" operator="arithmetic" k2="-1" k3="1"/>
<feColorMatrix type="matrix" values="0 0 0 0 0.257952 0 0 0 0 0.484723 0 0 0 0 0.504565 0 0 0 1 0"/>
<feBlend mode="normal" in2="effect2_innerShadow_2401_13304" result="effect3_innerShadow_2401_13304"/>
</filter>
<linearGradient id="paint0_linear_2401_13304" x1="16.0361" y1="0.105045" x2="28.3105" y2="25.2713" gradientUnits="userSpaceOnUse">
<stop stop-color="#93E6EE"/>
<stop offset="1" stop-color="#278A93"/>
</linearGradient>
</defs>
</svg>
