<svg width="24" height="24" viewBox="0 0 24 24" fill="none" xmlns="http://www.w3.org/2000/svg">
<g id="cart">
<path id="Icon" d="M2.40039 1.99316C1.84811 1.99316 1.40039 2.44088 1.40039 2.99316C1.40039 3.54545 1.84811 3.99316 2.40039 3.99316V1.99316ZM4.69293 2.99316L5.65815 2.73175C5.5401 2.29585 5.14453 1.99316 4.69293 1.99316V2.99316ZM8.4183 16.7484L7.45307 17.0098C7.58334 17.4908 8.04786 17.8025 8.54234 17.7407L8.4183 16.7484ZM19.881 15.3156L20.005 16.3078C20.4297 16.2547 20.7735 15.9373 20.8602 15.5182L19.881 15.3156ZM21.6004 7.00511L22.5796 7.20771C22.6406 6.9132 22.5657 6.6069 22.3758 6.37368C22.1859 6.14047 21.9011 6.00511 21.6004 6.00511V7.00511ZM5.77949 7.00511L4.81427 7.26652L5.77949 7.00511ZM2.40039 3.99316H4.69293V1.99316H2.40039V3.99316ZM8.54234 17.7407L20.005 16.3078L19.7569 14.3233L8.29427 15.7561L8.54234 17.7407ZM20.8602 15.5182L22.5796 7.20771L20.6211 6.8025L18.9017 15.1129L20.8602 15.5182ZM3.7277 3.25458L4.81427 7.26652L6.74472 6.74369L5.65815 2.73175L3.7277 3.25458ZM4.81427 7.26652L7.45307 17.0098L9.38353 16.487L6.74472 6.74369L4.81427 7.26652ZM21.6004 6.00511H5.77949V8.00511H21.6004V6.00511ZM11.0004 20.5004C11.0004 20.7766 10.7765 21.0004 10.5004 21.0004V23.0004C11.8811 23.0004 13.0004 21.8811 13.0004 20.5004H11.0004ZM10.5004 21.0004C10.2242 21.0004 10.0004 20.7766 10.0004 20.5004H8.00039C8.00039 21.8811 9.11968 23.0004 10.5004 23.0004V21.0004ZM10.0004 20.5004C10.0004 20.2243 10.2242 20.0004 10.5004 20.0004V18.0004C9.11968 18.0004 8.00039 19.1197 8.00039 20.5004H10.0004ZM10.5004 20.0004C10.7765 20.0004 11.0004 20.2243 11.0004 20.5004H13.0004C13.0004 19.1197 11.8811 18.0004 10.5004 18.0004V20.0004ZM19.0004 20.5004C19.0004 20.7766 18.7765 21.0004 18.5004 21.0004V23.0004C19.8811 23.0004 21.0004 21.8811 21.0004 20.5004H19.0004ZM18.5004 21.0004C18.2242 21.0004 18.0004 20.7766 18.0004 20.5004H16.0004C16.0004 21.8811 17.1197 23.0004 18.5004 23.0004V21.0004ZM18.0004 20.5004C18.0004 20.2243 18.2242 20.0004 18.5004 20.0004V18.0004C17.1197 18.0004 16.0004 19.1197 16.0004 20.5004H18.0004ZM18.5004 20.0004C18.7765 20.0004 19.0004 20.2243 19.0004 20.5004H21.0004C21.0004 19.1197 19.8811 18.0004 18.5004 18.0004V20.0004Z" fill="#2F3038"/>
</g>
</svg>
