<svg width="328" height="421" viewBox="0 0 328 421" fill="none" xmlns="http://www.w3.org/2000/svg">
<g clip-path="url(#clip0_7387_8125)">
<path d="M271.318 222.329C261.7 226.87 260.429 236.338 260.996 240.505C262.321 240.346 266.763 238.482 273.925 232.3C282.879 224.572 287.619 215.332 285.392 213.583C283.166 211.834 283.341 216.652 271.318 222.329Z" fill="#FB9E92"/>
<path d="M290.926 219.372C288.344 223.392 278.538 228.722 273.958 230.884L283.499 234.781C285.094 235.194 288.81 235.354 289.828 230.392C291.101 224.19 310.932 211.326 310.153 208.193C309.374 205.06 294.155 214.347 290.926 219.372Z" fill="#FB9E92"/>
<path d="M297.429 219.8C316.847 206.061 319.153 210.945 317.102 214.014L311.01 220.389L295.997 233.079L285.724 236.529C283.678 235.161 283.154 229.9 297.429 219.8Z" fill="#FFB2A7"/>
<rect width="24.96" height="3.84" transform="matrix(-1 0 0 1 303.163 224.228)" fill="url(#paint0_linear_7387_8125)"/>
<rect width="24.96" height="3.84" transform="matrix(-1 0 0 1 303.163 205.029)" fill="url(#paint1_linear_7387_8125)"/>
<rect width="24.96" height="3.84" transform="matrix(-1 0 0 1 303.163 220.389)" fill="url(#paint2_linear_7387_8125)"/>
<rect width="24.96" height="3.84" transform="matrix(-1 0 0 1 303.163 201.188)" fill="url(#paint3_linear_7387_8125)"/>
<rect width="24.96" height="3.84" transform="matrix(-1 0 0 1 303.163 216.548)" fill="url(#paint4_linear_7387_8125)"/>
<rect width="24.96" height="3.84" transform="matrix(-1 0 0 1 303.163 197.348)" fill="url(#paint5_linear_7387_8125)"/>
<rect width="24.96" height="3.84" transform="matrix(-1 0 0 1 303.163 212.709)" fill="url(#paint6_linear_7387_8125)"/>
<rect width="24.96" height="3.84" transform="matrix(-1 0 0 1 303.163 193.508)" fill="url(#paint7_linear_7387_8125)"/>
<rect width="24.96" height="3.84" transform="matrix(-1 0 0 1 303.163 208.868)" fill="url(#paint8_linear_7387_8125)"/>
<rect width="24.96" height="3.84" transform="matrix(-1 0 0 1 303.163 189.668)" fill="url(#paint9_linear_7387_8125)"/>
<line y1="-0.299225" x2="24.96" y2="-0.299225" transform="matrix(-1 8.74228e-08 8.74228e-08 1 303.163 224.228)" stroke="#FFF1D5" stroke-width="0.59845"/>
<line y1="-0.299225" x2="24.96" y2="-0.299225" transform="matrix(-1 8.74228e-08 8.74228e-08 1 303.163 228.125)" stroke="#FFF1D5" stroke-width="0.59845"/>
<line y1="-0.299225" x2="24.96" y2="-0.299225" transform="matrix(-1 8.74228e-08 8.74228e-08 1 303.163 205.029)" stroke="#FFF1D5" stroke-width="0.59845"/>
<line y1="-0.299225" x2="24.96" y2="-0.299225" transform="matrix(-1 8.74228e-08 8.74228e-08 1 303.163 220.389)" stroke="#FFF1D5" stroke-width="0.59845"/>
<line y1="-0.299225" x2="24.96" y2="-0.299225" transform="matrix(-1 8.74228e-08 8.74228e-08 1 303.163 201.188)" stroke="#FFF1D5" stroke-width="0.59845"/>
<line y1="-0.299225" x2="24.96" y2="-0.299225" transform="matrix(-1 8.74228e-08 8.74228e-08 1 303.163 216.548)" stroke="#FFF1D5" stroke-width="0.59845"/>
<line y1="-0.299225" x2="24.96" y2="-0.299225" transform="matrix(-1 8.74228e-08 8.74228e-08 1 303.163 197.348)" stroke="#FFF1D5" stroke-width="0.59845"/>
<line y1="-0.299225" x2="24.96" y2="-0.299225" transform="matrix(-1 8.74228e-08 8.74228e-08 1 303.163 213.027)" stroke="#FFF1D5" stroke-width="0.59845"/>
<line y1="-0.299225" x2="24.96" y2="-0.299225" transform="matrix(-1 8.74228e-08 8.74228e-08 1 303.163 193.828)" stroke="#FFF1D5" stroke-width="0.59845"/>
<line y1="-0.299225" x2="24.96" y2="-0.299225" transform="matrix(-1 8.74228e-08 8.74228e-08 1 303.163 209.188)" stroke="#FFF1D5" stroke-width="0.59845"/>
<rect width="24.96" height="3.84" transform="matrix(-1 0 0 1 303.163 186.193)" fill="url(#paint10_linear_7387_8125)"/>
<rect width="24.96" height="3.84" transform="matrix(-1 0 0 1 303.163 166.993)" fill="url(#paint11_linear_7387_8125)"/>
<rect width="24.96" height="3.84" transform="matrix(-1 0 0 1 303.163 182.354)" fill="url(#paint12_linear_7387_8125)"/>
<rect width="24.96" height="3.84" transform="matrix(-1 0 0 1 303.163 163.153)" fill="url(#paint13_linear_7387_8125)"/>
<rect width="24.96" height="3.84" transform="matrix(-1 0 0 1 303.163 178.515)" fill="url(#paint14_linear_7387_8125)"/>
<rect width="24.96" height="3.84" transform="matrix(-1 0 0 1 303.163 159.313)" fill="url(#paint15_linear_7387_8125)"/>
<rect width="24.96" height="3.84" transform="matrix(-1 0 0 1 303.163 174.675)" fill="url(#paint16_linear_7387_8125)"/>
<rect width="24.96" height="3.84" transform="matrix(-1 0 0 1 303.163 155.475)" fill="url(#paint17_linear_7387_8125)"/>
<rect width="24.96" height="3.84" transform="matrix(-1 0 0 1 303.163 170.834)" fill="url(#paint18_linear_7387_8125)"/>
<rect width="24.96" height="3.84" transform="matrix(-1 0 0 1 303.163 151.634)" fill="url(#paint19_linear_7387_8125)"/>
<line y1="-0.299225" x2="24.96" y2="-0.299225" transform="matrix(-1 8.74228e-08 8.74228e-08 1 303.163 186.193)" stroke="#FFF1D5" stroke-width="0.59845"/>
<line y1="-0.299225" x2="24.96" y2="-0.299225" transform="matrix(-1 8.74228e-08 8.74228e-08 1 303.163 190.091)" stroke="#FFF1D5" stroke-width="0.59845"/>
<line y1="-0.299225" x2="24.96" y2="-0.299225" transform="matrix(-1 8.74228e-08 8.74228e-08 1 303.163 166.993)" stroke="#FFF1D5" stroke-width="0.59845"/>
<line y1="-0.299225" x2="24.96" y2="-0.299225" transform="matrix(-1 8.74228e-08 8.74228e-08 1 303.163 182.354)" stroke="#FFF1D5" stroke-width="0.59845"/>
<line y1="-0.299225" x2="24.96" y2="-0.299225" transform="matrix(-1 8.74228e-08 8.74228e-08 1 303.163 163.153)" stroke="#FFF1D5" stroke-width="0.59845"/>
<line y1="-0.299225" x2="24.96" y2="-0.299225" transform="matrix(-1 8.74228e-08 8.74228e-08 1 303.163 178.515)" stroke="#FFF1D5" stroke-width="0.59845"/>
<line y1="-0.299225" x2="24.96" y2="-0.299225" transform="matrix(-1 8.74228e-08 8.74228e-08 1 303.163 159.313)" stroke="#FFF1D5" stroke-width="0.59845"/>
<line y1="-0.299225" x2="24.96" y2="-0.299225" transform="matrix(-1 8.74228e-08 8.74228e-08 1 303.163 174.993)" stroke="#FFF1D5" stroke-width="0.59845"/>
<line y1="-0.299225" x2="24.96" y2="-0.299225" transform="matrix(-1 8.74228e-08 8.74228e-08 1 303.163 155.794)" stroke="#FFF1D5" stroke-width="0.59845"/>
<line y1="-0.299225" x2="24.96" y2="-0.299225" transform="matrix(-1 8.74228e-08 8.74228e-08 1 303.163 171.153)" stroke="#FFF1D5" stroke-width="0.59845"/>
<rect width="24.96" height="3.84" transform="matrix(-1 0 0 1 274.606 226.71)" fill="url(#paint20_linear_7387_8125)"/>
<rect width="24.96" height="3.84" transform="matrix(-1 0 0 1 274.606 207.512)" fill="url(#paint21_linear_7387_8125)"/>
<rect width="24.96" height="3.84" transform="matrix(-1 0 0 1 274.606 222.871)" fill="url(#paint22_linear_7387_8125)"/>
<rect width="24.96" height="3.84" transform="matrix(-1 0 0 1 274.606 203.67)" fill="url(#paint23_linear_7387_8125)"/>
<rect width="24.96" height="3.84" transform="matrix(-1 0 0 1 274.606 219.03)" fill="url(#paint24_linear_7387_8125)"/>
<rect width="24.96" height="3.84" transform="matrix(-1 0 0 1 274.606 199.83)" fill="url(#paint25_linear_7387_8125)"/>
<rect width="24.96" height="3.84" transform="matrix(-1 0 0 1 274.606 215.191)" fill="url(#paint26_linear_7387_8125)"/>
<rect width="24.96" height="3.84" transform="matrix(-1 0 0 1 274.606 195.99)" fill="url(#paint27_linear_7387_8125)"/>
<rect width="24.96" height="3.84" transform="matrix(-1 0 0 1 274.606 211.351)" fill="url(#paint28_linear_7387_8125)"/>
<rect width="24.96" height="3.84" transform="matrix(-1 0 0 1 274.606 192.15)" fill="url(#paint29_linear_7387_8125)"/>
<line y1="-0.299225" x2="24.96" y2="-0.299225" transform="matrix(-1 8.74228e-08 8.74228e-08 1 274.606 226.71)" stroke="#FFF1D5" stroke-width="0.59845"/>
<line y1="-0.299225" x2="24.96" y2="-0.299225" transform="matrix(-1 8.74228e-08 8.74228e-08 1 274.606 230.607)" stroke="#FFF1D5" stroke-width="0.59845"/>
<line y1="-0.299225" x2="24.96" y2="-0.299225" transform="matrix(-1 8.74228e-08 8.74228e-08 1 274.606 207.512)" stroke="#FFF1D5" stroke-width="0.59845"/>
<line y1="-0.299225" x2="24.96" y2="-0.299225" transform="matrix(-1 8.74228e-08 8.74228e-08 1 274.606 222.871)" stroke="#FFF1D5" stroke-width="0.59845"/>
<line y1="-0.299225" x2="24.96" y2="-0.299225" transform="matrix(-1 8.74228e-08 8.74228e-08 1 274.606 203.67)" stroke="#FFF1D5" stroke-width="0.59845"/>
<line y1="-0.299225" x2="24.96" y2="-0.299225" transform="matrix(-1 8.74228e-08 8.74228e-08 1 274.606 219.03)" stroke="#FFF1D5" stroke-width="0.59845"/>
<line y1="-0.299225" x2="24.96" y2="-0.299225" transform="matrix(-1 8.74228e-08 8.74228e-08 1 274.606 199.83)" stroke="#FFF1D5" stroke-width="0.59845"/>
<line y1="-0.299225" x2="24.96" y2="-0.299225" transform="matrix(-1 8.74228e-08 8.74228e-08 1 274.606 215.51)" stroke="#FFF1D5" stroke-width="0.59845"/>
<line y1="-0.299225" x2="24.96" y2="-0.299225" transform="matrix(-1 8.74228e-08 8.74228e-08 1 274.606 196.311)" stroke="#FFF1D5" stroke-width="0.59845"/>
<line y1="-0.299225" x2="24.96" y2="-0.299225" transform="matrix(-1 8.74228e-08 8.74228e-08 1 274.606 211.67)" stroke="#FFF1D5" stroke-width="0.59845"/>
<rect width="24.96" height="3.84" transform="matrix(-1 0 0 1 274.606 188.676)" fill="url(#paint30_linear_7387_8125)"/>
<rect width="24.96" height="3.84" transform="matrix(-1 0 0 1 274.606 169.476)" fill="url(#paint31_linear_7387_8125)"/>
<rect width="24.96" height="3.84" transform="matrix(-1 0 0 1 274.606 184.837)" fill="url(#paint32_linear_7387_8125)"/>
<rect width="24.96" height="3.84" transform="matrix(-1 0 0 1 274.606 180.997)" fill="url(#paint33_linear_7387_8125)"/>
<rect width="24.96" height="3.84" transform="matrix(-1 0 0 1 274.606 177.157)" fill="url(#paint34_linear_7387_8125)"/>
<rect width="24.96" height="3.84" transform="matrix(-1 0 0 1 274.606 173.316)" fill="url(#paint35_linear_7387_8125)"/>
<line y1="-0.299225" x2="24.96" y2="-0.299225" transform="matrix(-1 8.74228e-08 8.74228e-08 1 274.606 188.676)" stroke="#FFF1D5" stroke-width="0.59845"/>
<line y1="-0.299225" x2="24.96" y2="-0.299225" transform="matrix(-1 8.74228e-08 8.74228e-08 1 274.606 192.573)" stroke="#FFF1D5" stroke-width="0.59845"/>
<line y1="-0.299225" x2="24.96" y2="-0.299225" transform="matrix(-1 8.74228e-08 8.74228e-08 1 274.606 184.837)" stroke="#FFF1D5" stroke-width="0.59845"/>
<line y1="-0.299225" x2="24.96" y2="-0.299225" transform="matrix(-1 8.74228e-08 8.74228e-08 1 274.606 180.997)" stroke="#FFF1D5" stroke-width="0.59845"/>
<line y1="-0.299225" x2="24.96" y2="-0.299225" transform="matrix(-1 8.74228e-08 8.74228e-08 1 274.606 177.476)" stroke="#FFF1D5" stroke-width="0.59845"/>
<line y1="-0.299225" x2="24.96" y2="-0.299225" transform="matrix(-1 8.74228e-08 8.74228e-08 1 274.606 173.636)" stroke="#FFF1D5" stroke-width="0.59845"/>
<path d="M259.948 243.66C260.295 247.479 266.713 271.445 269.146 285L279.646 331L312.409 324.8C314.08 313.509 287.923 255.144 284.917 250.262C283.836 247.972 284.452 242.733 306.001 229.058C327.55 215.382 319.79 207.844 317.707 212.329C315.623 216.813 298.416 226.338 279.683 228.182C260.949 230.026 258.831 239.375 259.948 243.66Z" fill="url(#paint36_linear_7387_8125)"/>
<path d="M164.453 244.841C165.812 233.588 168.278 222.612 168.278 222.612L139.593 205.514L136.342 222.612C142.671 232.842 153.301 240.065 164.453 244.841Z" fill="black" stroke="black" stroke-width="0.61243" stroke-miterlimit="10"/>
<path d="M164.452 244.839C153.3 240.062 142.669 232.839 136.34 222.609L129 261.235C129 261.235 167.632 276.042 164.413 265.098C163.093 260.611 163.505 252.66 164.452 244.839Z" fill="url(#paint37_linear_7387_8125)"/>
<path fill-rule="evenodd" clip-rule="evenodd" d="M196.433 229.788C234.363 207.167 166.866 139.777 166.866 139.777H166.859C166.859 139.777 154.838 122.376 115.787 141.412C92.605 152.717 98.9007 175.347 107.845 191.872C104.363 192.933 100.151 195.112 100.387 199.424C100.779 206.537 108.738 215.782 119.39 209.27C120.593 210.787 121.331 211.634 121.331 211.634C121.331 211.634 158.502 252.41 196.433 229.788Z" fill="url(#paint38_linear_7387_8125)"/>
<path d="M166.515 127.874C164.983 126.721 161.725 125.511 157.43 124.487C142.717 125.447 128.05 122.678 113.923 127.977C110.562 129.238 107.62 131.318 105.354 133.957C112.359 133.32 119.364 134.028 125.513 135.702C143.471 140.833 162.246 144.727 178.588 138.277C183.114 131.099 185.484 125.949 185.484 125.949C185.484 125.949 175.529 134.633 166.515 127.88V127.874Z" fill="#4C4529"/>
<path d="M118.16 198.289C118.16 198.289 115.037 197.252 111.837 196.808C108.959 196.409 106.01 196.493 105.218 198.25" stroke="black" stroke-width="0.61243" stroke-miterlimit="10"/>
<path fill-rule="evenodd" clip-rule="evenodd" d="M143.483 124.648C133.486 124.499 123.583 124.351 113.933 127.97V127.964C110.578 129.226 107.636 131.311 105.363 133.944C103.805 134.086 102.24 134.292 100.688 134.569C110.366 119.472 141.278 120.631 157.439 124.481C152.777 124.787 148.12 124.717 143.483 124.648ZM105.355 133.951C100.661 139.391 98.8644 147.2 102.335 155.009H102.341C94.1191 157.474 89.8373 164.395 87.8156 172.094C87.5451 160.713 98.594 152.588 98.594 152.588C96.8105 144.927 97.8149 139.043 100.68 134.576C102.232 134.299 103.796 134.093 105.355 133.951Z" fill="white"/>
<path d="M178.577 138.272C162.242 144.723 143.467 140.828 125.503 135.697C119.354 134.017 112.349 133.315 105.343 133.952C100.65 139.399 98.8531 147.201 102.324 155.01C94.1078 157.476 89.8261 164.396 87.7979 172.096C87.9588 179.022 92.305 187.153 105.878 195.406L112.941 196.134L112.11 190.868L110.964 189.458L122.541 196.475L115.632 181.849C146.3 182.074 168.153 154.804 178.577 138.272Z" fill="#2B250D"/>
<path d="M112.884 196.969C108.415 197.355 108.879 203.477 108.879 203.477C108.879 203.477 114.184 197.407 115.826 197.613L112.89 196.969H112.884Z" fill="black" stroke="black" stroke-width="0.61243" stroke-miterlimit="10"/>
<path d="M157.226 180.389L156.785 180.643C155.926 181.139 155.632 182.237 156.128 183.096L158.272 186.81C158.768 187.669 159.867 187.963 160.726 187.467L161.166 187.213C162.025 186.717 162.32 185.618 161.824 184.759L159.68 181.046C159.184 180.187 158.085 179.893 157.226 180.389Z" fill="black"/>
<path d="M174.874 169.601L174.434 169.855C173.574 170.351 173.28 171.449 173.776 172.308L175.92 176.021C176.416 176.881 177.515 177.175 178.374 176.679L178.815 176.425C179.674 175.929 179.968 174.83 179.472 173.971L177.328 170.258C176.832 169.399 175.733 169.105 174.874 169.601Z" fill="black"/>
<path d="M143.867 214.236C150.801 214.236 156.423 208.615 156.423 201.682C156.423 194.749 150.801 189.129 143.867 189.129C136.933 189.129 131.312 194.749 131.312 201.682C131.312 208.615 136.933 214.236 143.867 214.236Z" fill="#FFB18A"/>
<path d="M183.465 200.1C183.465 200.1 169.19 216.805 149.198 202.681" stroke="black" stroke-width="1.22486" stroke-miterlimit="10"/>
<path d="M170.579 188.139L155.024 198.632C153.948 199.353 152.448 198.71 152.133 197.396L150.748 191.583C150.568 190.817 150.858 190.038 151.476 189.62L167.032 179.126C168.107 178.405 169.607 179.049 169.923 180.362L171.307 186.175C171.487 186.942 171.198 187.72 170.579 188.139Z" stroke="black" stroke-width="1.22486" stroke-miterlimit="10"/>
<path d="M190.535 174.621L177.555 183.827C176.48 184.548 174.979 183.904 174.664 182.591L173.279 176.778C173.099 176.012 173.389 175.233 174.007 174.814L186.988 165.609C188.063 164.888 189.563 165.531 189.879 166.845L191.263 172.658C191.443 173.424 191.153 174.203 190.535 174.621Z" stroke="black" stroke-width="1.22486" stroke-miterlimit="10"/>
<path d="M170.534 181.663L174.121 179.018" stroke="black" stroke-width="1.22486" stroke-miterlimit="10"/>
<path d="M129.145 249.019C129.145 249.019 146.645 271.519 169.42 256.533C169.42 256.533 197.645 253.019 233.645 279.019C250.55 292.34 275.645 324.519 275.645 324.519L265.645 276.519L295.645 269.019C309.145 305.519 348.145 355.019 312.145 393.519C291.645 408.019 242.645 368.519 224.645 349.519L238.145 449.802H99.0599L47.1452 449.803C41.7039 392.697 5.34024 269.272 129.145 249.019Z" fill="url(#paint39_linear_7387_8125)"/>
<path d="M99.0604 449.803L99.0599 449.802M99.0599 449.802L47.1452 449.803C41.7039 392.697 5.34023 269.272 129.145 249.019C129.145 249.019 146.645 271.519 169.42 256.533C169.42 256.533 197.645 253.019 233.645 279.019C250.55 292.34 275.645 324.519 275.645 324.519L265.645 276.519L295.645 269.019C309.145 305.519 348.145 355.019 312.145 393.519C291.645 408.019 242.645 368.519 224.645 349.519L238.145 449.802H99.0599Z" stroke="url(#paint40_linear_7387_8125)" stroke-width="0.851952" stroke-miterlimit="10"/>
<path d="M92.6133 434.913C88.275 416.861 90.14 384.707 92.6133 357.5C93.5692 346.99 94.3211 339 94.3211 339L102.146 429.5L92.6133 434.913Z" fill="url(#paint41_linear_7387_8125)"/>
<rect x="277.49" y="143.548" width="27.8438" height="2.59787" transform="rotate(-35.5409 277.49 143.548)" fill="#CF8900"/>
<ellipse cx="290.349" cy="137.597" rx="13.9219" ry="6.82773" transform="rotate(-35.5409 290.349 137.597)" fill="url(#paint42_linear_7387_8125)"/>
<ellipse cx="288.838" cy="135.484" rx="13.9219" ry="6.82773" transform="rotate(-35.5409 288.838 135.484)" fill="url(#paint43_linear_7387_8125)"/>
<ellipse cx="288.838" cy="135.482" rx="12.3232" ry="6.02839" transform="rotate(-35.5409 288.838 135.482)" fill="url(#paint44_linear_7387_8125)"/>
<mask id="mask0_7387_8125" style="mask-type:alpha" maskUnits="userSpaceOnUse" x="278" y="126" width="22" height="19">
<ellipse cx="288.839" cy="135.482" rx="12.3232" ry="6.02839" transform="rotate(-35.5409 288.839 135.482)" fill="url(#paint45_linear_7387_8125)"/>
</mask>
<g mask="url(#mask0_7387_8125)">
<ellipse cx="289.305" cy="136.134" rx="12.3232" ry="6.02839" transform="rotate(-35.5409 289.305 136.134)" fill="url(#paint46_linear_7387_8125)"/>
<g filter="url(#filter0_d_7387_8125)">
<path d="M285.014 138.683L291.975 130.585L293.045 130.996L286.083 139.095L285.014 138.683ZM286.199 137.901C285.6 137.671 285.081 137.386 284.64 137.049C284.205 136.705 283.909 136.365 283.752 136.03L285.243 135.205C285.406 135.512 285.653 135.81 285.984 136.098C286.327 136.383 286.723 136.612 287.172 136.785C287.514 136.917 287.811 136.997 288.062 137.025C288.325 137.05 288.549 137.033 288.733 136.973C288.916 136.914 289.063 136.821 289.171 136.695C289.309 136.534 289.34 136.378 289.262 136.225C289.189 136.067 289.049 135.91 288.842 135.754C288.639 135.592 288.404 135.425 288.134 135.252C287.877 135.077 287.626 134.888 287.382 134.687C287.145 134.489 286.952 134.277 286.804 134.052C286.656 133.826 286.589 133.579 286.603 133.309C286.623 133.042 286.772 132.747 287.049 132.426C287.345 132.081 287.728 131.812 288.198 131.618C288.68 131.422 289.224 131.329 289.831 131.341C290.449 131.35 291.111 131.49 291.817 131.762C292.288 131.943 292.711 132.168 293.089 132.435C293.471 132.697 293.76 132.984 293.956 133.297L292.511 134.151C292.3 133.855 292.052 133.603 291.766 133.394C291.486 133.179 291.179 133.007 290.844 132.878C290.509 132.749 290.207 132.675 289.939 132.656C289.671 132.637 289.446 132.661 289.264 132.729C289.088 132.791 288.943 132.888 288.829 133.02C288.696 133.175 288.666 133.331 288.739 133.489C288.816 133.642 288.959 133.796 289.166 133.952C289.373 134.108 289.606 134.274 289.863 134.45C290.127 134.628 290.38 134.814 290.623 135.006C290.872 135.202 291.071 135.412 291.219 135.637C291.367 135.862 291.43 136.109 291.409 136.376C291.396 136.646 291.253 136.939 290.981 137.255C290.69 137.593 290.306 137.858 289.829 138.049C289.352 138.24 288.804 138.331 288.185 138.322C287.574 138.316 286.912 138.176 286.199 137.901Z" fill="#FFEFC5"/>
</g>
</g>
<path fill-rule="evenodd" clip-rule="evenodd" d="M57 136.898C26.6243 136.898 2 112.273 2 81.896C2 51.5195 26.6243 26.8945 57 26.8945C87.3757 26.8945 112 51.5195 112 81.896C112 104.638 98.1983 124.156 78.5143 132.53C81.4434 137.523 86.1998 139.919 88.9018 140.567C81.5702 141.484 74.4539 138.74 69.1486 135.551C65.2403 136.432 61.1745 136.898 57 136.898Z" fill="black"/>
<path d="M59.3575 117.06L21.6675 102.6C22.5568 87.4872 35.8041 55.9269 42.3165 42.0358L73.0406 54.7516L59.3575 117.06Z" fill="url(#paint47_linear_7387_8125)"/>
<g filter="url(#filter1_d_7387_8125)">
<path d="M67.0924 118.589L28.8746 103.914C26.2587 82.3307 39.6383 54.125 46.655 42.72L76.0246 58.9558C68.1154 68.8706 66.7743 102.842 67.0924 118.589Z" fill="url(#paint48_linear_7387_8125)"/>
</g>
<g filter="url(#filter2_d_7387_8125)">
<path d="M34.8693 104.152C27.4556 96.9103 40.0119 61.069 47.2167 44.0536L77.2653 59.0981C62.9103 84.9788 68.233 109.483 72.6888 118.5L34.8693 104.152Z" fill="url(#paint49_linear_7387_8125)"/>
</g>
<g filter="url(#filter3_d_7387_8125)">
<path d="M40.8877 102.184C31.1433 91.4119 42.0438 59.3545 48.7121 44.6723L61.1132 49.8048L79.8229 61.9221C68.1118 84.2912 74.2085 107.334 78.7207 116.06L40.8877 102.184Z" fill="url(#paint50_linear_7387_8125)"/>
</g>
<g filter="url(#filter4_d_7387_8125)">
<path d="M84.8877 113.267C75.0736 105.023 80.6952 78.7514 84.7328 66.646L87.0654 59.4435L49.9795 44.0947L46.0766 55.8748C36.9494 84.5075 43.0157 97.081 47.1898 99.7887L84.8877 113.267Z" fill="url(#paint51_linear_7387_8125)"/>
</g>
<path d="M86.8347 57.6733L45.8052 41.6658C42.3849 40.2502 40.9339 41.5964 40.6359 42.4464L37.4832 50.0641L38.7245 50.5778L41.304 44.3452C41.8084 43.1264 42.639 42.6806 42.9913 42.6101L48.6459 44.9504C50.6319 45.7723 50.4859 47.0097 50.1647 47.5257L47.4132 54.1739L85.5805 68.5101L88.2174 62.1389C89.3638 59.3689 87.7733 58.0076 86.8347 57.6733Z" fill="url(#paint52_linear_7387_8125)"/>
<path d="M62.329 70.6542L60.0724 78.5091L58.0001 77.9137L59.7082 71.9683L59.6648 71.9559L57.6297 72.4987L58.1378 70.7303L60.4195 70.1056L62.329 70.6542ZM64.6712 79.9477C62.8811 79.4334 61.897 78.035 62.3007 76.5889L64.3078 77.1655C64.1705 77.7251 64.5482 78.2094 65.1232 78.3746C65.7958 78.5678 66.4072 78.2385 66.5959 77.541C66.8124 76.8281 66.466 76.2352 65.7933 76.042C65.254 75.8753 64.8491 76.0174 64.5416 76.3518L62.708 75.8251L64.3878 71.2457L69.6063 72.7449L69.1325 74.394L65.6173 73.3841L64.9465 75.1058L64.9899 75.1182C65.3735 74.7234 66.1102 74.571 66.8914 74.7954C68.3018 75.2006 69.041 76.5522 68.6108 78.0494C68.1402 79.6876 66.5698 80.4932 64.6712 79.9477ZM49.9042 87.0328L47.3546 86.3003L49.6113 78.4455L52.2368 79.1997C54.5477 79.8636 55.5125 81.7381 54.8112 84.1792C54.1068 86.6311 52.2911 87.7185 49.9042 87.0328ZM48.8473 85.6017L50.1383 85.9726C51.9176 86.4838 53.0956 85.6947 53.6286 83.8395C54.1585 81.9951 53.5758 80.7119 51.8616 80.2195L50.5055 79.8298L48.8473 85.6017ZM55.022 86.7062C55.4085 85.3608 56.6474 85.3409 57.7324 85.5705C58.1308 85.6555 59.0291 85.8607 59.3088 85.9294L59.432 85.4597C59.6221 84.7979 59.3329 84.292 58.5409 84.0645C57.8574 83.8681 57.3548 84.0643 57.1107 84.464L55.9607 84.1336C56.3497 83.1884 57.4637 82.745 58.8524 83.1439C59.7854 83.412 61.0635 84.155 60.5742 85.8583L59.449 89.7749L58.3207 89.4508L58.5513 88.6479L58.5079 88.6355C58.1523 89.0148 57.4696 89.3472 56.4931 89.0667C55.3756 88.7456 54.6916 87.8562 55.022 86.7062ZM56.1472 87.0412C55.9851 87.6053 56.3675 88.0323 57.0184 88.2193C57.9623 88.4905 58.7073 88.0233 58.9099 87.3181L59.0657 86.7756L57.649 86.4743C56.8739 86.3104 56.3155 86.4553 56.1472 87.0412ZM60.6007 92.5017C60.362 92.4332 60.1373 92.3569 59.9916 92.2915L60.269 91.3259C60.3961 91.3742 60.6208 91.4505 60.7835 91.4972C61.1416 91.6001 61.4547 91.6548 61.9379 90.995L62.1911 90.6449L61.7464 84.0576L62.9832 84.4129L63.1574 89.4075L63.2225 89.4262L66.021 85.2856L67.2687 85.6441L62.9216 91.6182C62.3172 92.4546 61.5662 92.7791 60.6007 92.5017ZM70.9492 88.4397C70.9748 87.942 70.6931 87.5322 70.053 87.3483C69.3912 87.1582 68.8141 87.3682 68.6972 87.8162C68.5866 88.1602 68.797 88.4908 69.4043 88.8297L70.275 89.3148C71.2914 89.8651 71.6625 90.5355 71.4334 91.374C71.1171 92.4341 70.0092 92.938 68.5012 92.5047C67.0908 92.0995 66.4253 91.2272 66.5991 90.0909L67.7817 90.4306C67.7266 90.9903 68.064 91.3691 68.7584 91.5686C69.507 91.7837 70.0716 91.617 70.2259 91.1211C70.3241 90.7382 70.1137 90.4077 69.5358 90.0889L68.6697 89.6287C67.6751 89.0846 67.2838 88.3615 67.5176 87.5478C67.8199 86.4954 68.937 86.0411 70.304 86.4339C71.6168 86.811 72.2372 87.7174 72.0667 88.7607L70.9492 88.4397Z" fill="black"/>
</g>
<defs>
<filter id="filter0_d_7387_8125" x="280.648" y="129.964" width="16.4121" height="14.7187" filterUnits="userSpaceOnUse" color-interpolation-filters="sRGB">
<feFlood flood-opacity="0" result="BackgroundImageFix"/>
<feColorMatrix in="SourceAlpha" type="matrix" values="0 0 0 0 0 0 0 0 0 0 0 0 0 0 0 0 0 0 127 0" result="hardAlpha"/>
<feOffset dy="2.48318"/>
<feGaussianBlur stdDeviation="1.55199"/>
<feComposite in2="hardAlpha" operator="out"/>
<feColorMatrix type="matrix" values="0 0 0 0 0.668913 0 0 0 0 0.441654 0 0 0 0 0 0 0 0 1 0"/>
<feBlend mode="normal" in2="BackgroundImageFix" result="effect1_dropShadow_7387_8125"/>
<feBlend mode="normal" in="SourceGraphic" in2="effect1_dropShadow_7387_8125" result="shape"/>
</filter>
<filter id="filter1_d_7387_8125" x="24.0597" y="40.2998" width="56.4451" height="84.8289" filterUnits="userSpaceOnUse" color-interpolation-filters="sRGB">
<feFlood flood-opacity="0" result="BackgroundImageFix"/>
<feColorMatrix in="SourceAlpha" type="matrix" values="0 0 0 0 0 0 0 0 0 0 0 0 0 0 0 0 0 0 127 0" result="hardAlpha"/>
<feOffset dy="2.05995"/>
<feGaussianBlur stdDeviation="2.24019"/>
<feComposite in2="hardAlpha" operator="out"/>
<feColorMatrix type="matrix" values="0 0 0 0 0 0 0 0 0 0 0 0 0 0 0 0 0 0 0.25 0"/>
<feBlend mode="normal" in2="BackgroundImageFix" result="effect1_dropShadow_7387_8125"/>
<feBlend mode="normal" in="SourceGraphic" in2="effect1_dropShadow_7387_8125" result="shape"/>
</filter>
<filter id="filter2_d_7387_8125" x="28.1251" y="41.6333" width="53.6209" height="83.407" filterUnits="userSpaceOnUse" color-interpolation-filters="sRGB">
<feFlood flood-opacity="0" result="BackgroundImageFix"/>
<feColorMatrix in="SourceAlpha" type="matrix" values="0 0 0 0 0 0 0 0 0 0 0 0 0 0 0 0 0 0 127 0" result="hardAlpha"/>
<feOffset dy="2.05995"/>
<feGaussianBlur stdDeviation="2.24019"/>
<feComposite in2="hardAlpha" operator="out"/>
<feColorMatrix type="matrix" values="0 0 0 0 0 0 0 0 0 0 0 0 0 0 0 0 0 0 0.25 0"/>
<feBlend mode="normal" in2="BackgroundImageFix" result="effect1_dropShadow_7387_8125"/>
<feBlend mode="normal" in="SourceGraphic" in2="effect1_dropShadow_7387_8125" result="shape"/>
</filter>
<filter id="filter3_d_7387_8125" x="32.5304" y="42.2519" width="51.7733" height="80.3485" filterUnits="userSpaceOnUse" color-interpolation-filters="sRGB">
<feFlood flood-opacity="0" result="BackgroundImageFix"/>
<feColorMatrix in="SourceAlpha" type="matrix" values="0 0 0 0 0 0 0 0 0 0 0 0 0 0 0 0 0 0 127 0" result="hardAlpha"/>
<feOffset dy="2.05995"/>
<feGaussianBlur stdDeviation="2.24019"/>
<feComposite in2="hardAlpha" operator="out"/>
<feColorMatrix type="matrix" values="0 0 0 0 0 0 0 0 0 0 0 0 0 0 0 0 0 0 0.25 0"/>
<feBlend mode="normal" in2="BackgroundImageFix" result="effect1_dropShadow_7387_8125"/>
<feBlend mode="normal" in="SourceGraphic" in2="effect1_dropShadow_7387_8125" result="shape"/>
</filter>
<filter id="filter4_d_7387_8125" x="36.835" y="41.6743" width="54.7108" height="78.1331" filterUnits="userSpaceOnUse" color-interpolation-filters="sRGB">
<feFlood flood-opacity="0" result="BackgroundImageFix"/>
<feColorMatrix in="SourceAlpha" type="matrix" values="0 0 0 0 0 0 0 0 0 0 0 0 0 0 0 0 0 0 127 0" result="hardAlpha"/>
<feOffset dy="2.05995"/>
<feGaussianBlur stdDeviation="2.24019"/>
<feComposite in2="hardAlpha" operator="out"/>
<feColorMatrix type="matrix" values="0 0 0 0 0 0 0 0 0 0 0 0 0 0 0 0 0 0 0.25 0"/>
<feBlend mode="normal" in2="BackgroundImageFix" result="effect1_dropShadow_7387_8125"/>
<feBlend mode="normal" in="SourceGraphic" in2="effect1_dropShadow_7387_8125" result="shape"/>
</filter>
<linearGradient id="paint0_linear_7387_8125" x1="0" y1="1.92" x2="24.96" y2="1.92" gradientUnits="userSpaceOnUse">
<stop stop-color="#FFDFA3"/>
<stop offset="0.5" stop-color="#DE9103"/>
<stop offset="1" stop-color="#CC8600"/>
</linearGradient>
<linearGradient id="paint1_linear_7387_8125" x1="0" y1="1.92" x2="24.96" y2="1.92" gradientUnits="userSpaceOnUse">
<stop stop-color="#FFDFA3"/>
<stop offset="0.5" stop-color="#DE9103"/>
<stop offset="1" stop-color="#CC8600"/>
</linearGradient>
<linearGradient id="paint2_linear_7387_8125" x1="0" y1="1.92" x2="24.96" y2="1.92" gradientUnits="userSpaceOnUse">
<stop stop-color="#FFDFA3"/>
<stop offset="0.5" stop-color="#DE9103"/>
<stop offset="1" stop-color="#CC8600"/>
</linearGradient>
<linearGradient id="paint3_linear_7387_8125" x1="0" y1="1.92" x2="24.96" y2="1.92" gradientUnits="userSpaceOnUse">
<stop stop-color="#FFDFA3"/>
<stop offset="0.5" stop-color="#DE9103"/>
<stop offset="1" stop-color="#CC8600"/>
</linearGradient>
<linearGradient id="paint4_linear_7387_8125" x1="0" y1="1.92" x2="24.96" y2="1.92" gradientUnits="userSpaceOnUse">
<stop stop-color="#FFDFA3"/>
<stop offset="0.5" stop-color="#DE9103"/>
<stop offset="1" stop-color="#CC8600"/>
</linearGradient>
<linearGradient id="paint5_linear_7387_8125" x1="0" y1="1.92" x2="24.96" y2="1.92" gradientUnits="userSpaceOnUse">
<stop stop-color="#FFDFA3"/>
<stop offset="0.5" stop-color="#DE9103"/>
<stop offset="1" stop-color="#CC8600"/>
</linearGradient>
<linearGradient id="paint6_linear_7387_8125" x1="0" y1="1.92" x2="24.96" y2="1.92" gradientUnits="userSpaceOnUse">
<stop stop-color="#FFDFA3"/>
<stop offset="0.5" stop-color="#DE9103"/>
<stop offset="1" stop-color="#CC8600"/>
</linearGradient>
<linearGradient id="paint7_linear_7387_8125" x1="0" y1="1.92" x2="24.96" y2="1.92" gradientUnits="userSpaceOnUse">
<stop stop-color="#FFDFA3"/>
<stop offset="0.5" stop-color="#DE9103"/>
<stop offset="1" stop-color="#CC8600"/>
</linearGradient>
<linearGradient id="paint8_linear_7387_8125" x1="0" y1="1.92" x2="24.96" y2="1.92" gradientUnits="userSpaceOnUse">
<stop stop-color="#FFDFA3"/>
<stop offset="0.5" stop-color="#DE9103"/>
<stop offset="1" stop-color="#CC8600"/>
</linearGradient>
<linearGradient id="paint9_linear_7387_8125" x1="0" y1="1.92" x2="24.96" y2="1.92" gradientUnits="userSpaceOnUse">
<stop stop-color="#FFDFA3"/>
<stop offset="0.5" stop-color="#DE9103"/>
<stop offset="1" stop-color="#CC8600"/>
</linearGradient>
<linearGradient id="paint10_linear_7387_8125" x1="0" y1="1.92" x2="24.96" y2="1.92" gradientUnits="userSpaceOnUse">
<stop stop-color="#FFDFA3"/>
<stop offset="0.5" stop-color="#DE9103"/>
<stop offset="1" stop-color="#CC8600"/>
</linearGradient>
<linearGradient id="paint11_linear_7387_8125" x1="0" y1="1.92" x2="24.96" y2="1.92" gradientUnits="userSpaceOnUse">
<stop stop-color="#FFDFA3"/>
<stop offset="0.5" stop-color="#DE9103"/>
<stop offset="1" stop-color="#CC8600"/>
</linearGradient>
<linearGradient id="paint12_linear_7387_8125" x1="0" y1="1.92" x2="24.96" y2="1.92" gradientUnits="userSpaceOnUse">
<stop stop-color="#FFDFA3"/>
<stop offset="0.5" stop-color="#DE9103"/>
<stop offset="1" stop-color="#CC8600"/>
</linearGradient>
<linearGradient id="paint13_linear_7387_8125" x1="0" y1="1.92" x2="24.96" y2="1.92" gradientUnits="userSpaceOnUse">
<stop stop-color="#FFDFA3"/>
<stop offset="0.5" stop-color="#DE9103"/>
<stop offset="1" stop-color="#CC8600"/>
</linearGradient>
<linearGradient id="paint14_linear_7387_8125" x1="0" y1="1.92" x2="24.96" y2="1.92" gradientUnits="userSpaceOnUse">
<stop stop-color="#FFDFA3"/>
<stop offset="0.5" stop-color="#DE9103"/>
<stop offset="1" stop-color="#CC8600"/>
</linearGradient>
<linearGradient id="paint15_linear_7387_8125" x1="0" y1="1.92" x2="24.96" y2="1.92" gradientUnits="userSpaceOnUse">
<stop stop-color="#FFDFA3"/>
<stop offset="0.5" stop-color="#DE9103"/>
<stop offset="1" stop-color="#CC8600"/>
</linearGradient>
<linearGradient id="paint16_linear_7387_8125" x1="0" y1="1.92" x2="24.96" y2="1.92" gradientUnits="userSpaceOnUse">
<stop stop-color="#FFDFA3"/>
<stop offset="0.5" stop-color="#DE9103"/>
<stop offset="1" stop-color="#CC8600"/>
</linearGradient>
<linearGradient id="paint17_linear_7387_8125" x1="0" y1="1.92" x2="24.96" y2="1.92" gradientUnits="userSpaceOnUse">
<stop stop-color="#FFDFA3"/>
<stop offset="0.5" stop-color="#DE9103"/>
<stop offset="1" stop-color="#CC8600"/>
</linearGradient>
<linearGradient id="paint18_linear_7387_8125" x1="0" y1="1.92" x2="24.96" y2="1.92" gradientUnits="userSpaceOnUse">
<stop stop-color="#FFDFA3"/>
<stop offset="0.5" stop-color="#DE9103"/>
<stop offset="1" stop-color="#CC8600"/>
</linearGradient>
<linearGradient id="paint19_linear_7387_8125" x1="0" y1="1.92" x2="24.96" y2="1.92" gradientUnits="userSpaceOnUse">
<stop stop-color="#FFDFA3"/>
<stop offset="0.5" stop-color="#DE9103"/>
<stop offset="1" stop-color="#CC8600"/>
</linearGradient>
<linearGradient id="paint20_linear_7387_8125" x1="0" y1="1.92" x2="24.96" y2="1.92" gradientUnits="userSpaceOnUse">
<stop stop-color="#FFDFA3"/>
<stop offset="0.5" stop-color="#DE9103"/>
<stop offset="1" stop-color="#CC8600"/>
</linearGradient>
<linearGradient id="paint21_linear_7387_8125" x1="0" y1="1.92" x2="24.96" y2="1.92" gradientUnits="userSpaceOnUse">
<stop stop-color="#FFDFA3"/>
<stop offset="0.5" stop-color="#DE9103"/>
<stop offset="1" stop-color="#CC8600"/>
</linearGradient>
<linearGradient id="paint22_linear_7387_8125" x1="0" y1="1.92" x2="24.96" y2="1.92" gradientUnits="userSpaceOnUse">
<stop stop-color="#FFDFA3"/>
<stop offset="0.5" stop-color="#DE9103"/>
<stop offset="1" stop-color="#CC8600"/>
</linearGradient>
<linearGradient id="paint23_linear_7387_8125" x1="0" y1="1.92" x2="24.96" y2="1.92" gradientUnits="userSpaceOnUse">
<stop stop-color="#FFDFA3"/>
<stop offset="0.5" stop-color="#DE9103"/>
<stop offset="1" stop-color="#CC8600"/>
</linearGradient>
<linearGradient id="paint24_linear_7387_8125" x1="0" y1="1.92" x2="24.96" y2="1.92" gradientUnits="userSpaceOnUse">
<stop stop-color="#FFDFA3"/>
<stop offset="0.5" stop-color="#DE9103"/>
<stop offset="1" stop-color="#CC8600"/>
</linearGradient>
<linearGradient id="paint25_linear_7387_8125" x1="0" y1="1.92" x2="24.96" y2="1.92" gradientUnits="userSpaceOnUse">
<stop stop-color="#FFDFA3"/>
<stop offset="0.5" stop-color="#DE9103"/>
<stop offset="1" stop-color="#CC8600"/>
</linearGradient>
<linearGradient id="paint26_linear_7387_8125" x1="0" y1="1.92" x2="24.96" y2="1.92" gradientUnits="userSpaceOnUse">
<stop stop-color="#FFDFA3"/>
<stop offset="0.5" stop-color="#DE9103"/>
<stop offset="1" stop-color="#CC8600"/>
</linearGradient>
<linearGradient id="paint27_linear_7387_8125" x1="0" y1="1.92" x2="24.96" y2="1.92" gradientUnits="userSpaceOnUse">
<stop stop-color="#FFDFA3"/>
<stop offset="0.5" stop-color="#DE9103"/>
<stop offset="1" stop-color="#CC8600"/>
</linearGradient>
<linearGradient id="paint28_linear_7387_8125" x1="0" y1="1.92" x2="24.96" y2="1.92" gradientUnits="userSpaceOnUse">
<stop stop-color="#FFDFA3"/>
<stop offset="0.5" stop-color="#DE9103"/>
<stop offset="1" stop-color="#CC8600"/>
</linearGradient>
<linearGradient id="paint29_linear_7387_8125" x1="0" y1="1.92" x2="24.96" y2="1.92" gradientUnits="userSpaceOnUse">
<stop stop-color="#FFDFA3"/>
<stop offset="0.5" stop-color="#DE9103"/>
<stop offset="1" stop-color="#CC8600"/>
</linearGradient>
<linearGradient id="paint30_linear_7387_8125" x1="0" y1="1.92" x2="24.96" y2="1.92" gradientUnits="userSpaceOnUse">
<stop stop-color="#FFDFA3"/>
<stop offset="0.5" stop-color="#DE9103"/>
<stop offset="1" stop-color="#CC8600"/>
</linearGradient>
<linearGradient id="paint31_linear_7387_8125" x1="0" y1="1.92" x2="24.96" y2="1.92" gradientUnits="userSpaceOnUse">
<stop stop-color="#FFDFA3"/>
<stop offset="0.5" stop-color="#DE9103"/>
<stop offset="1" stop-color="#CC8600"/>
</linearGradient>
<linearGradient id="paint32_linear_7387_8125" x1="0" y1="1.92" x2="24.96" y2="1.92" gradientUnits="userSpaceOnUse">
<stop stop-color="#FFDFA3"/>
<stop offset="0.5" stop-color="#DE9103"/>
<stop offset="1" stop-color="#CC8600"/>
</linearGradient>
<linearGradient id="paint33_linear_7387_8125" x1="0" y1="1.92" x2="24.96" y2="1.92" gradientUnits="userSpaceOnUse">
<stop stop-color="#FFDFA3"/>
<stop offset="0.5" stop-color="#DE9103"/>
<stop offset="1" stop-color="#CC8600"/>
</linearGradient>
<linearGradient id="paint34_linear_7387_8125" x1="0" y1="1.92" x2="24.96" y2="1.92" gradientUnits="userSpaceOnUse">
<stop stop-color="#FFDFA3"/>
<stop offset="0.5" stop-color="#DE9103"/>
<stop offset="1" stop-color="#CC8600"/>
</linearGradient>
<linearGradient id="paint35_linear_7387_8125" x1="0" y1="1.92" x2="24.96" y2="1.92" gradientUnits="userSpaceOnUse">
<stop stop-color="#FFDFA3"/>
<stop offset="0.5" stop-color="#DE9103"/>
<stop offset="1" stop-color="#CC8600"/>
</linearGradient>
<linearGradient id="paint36_linear_7387_8125" x1="261.646" y1="219.5" x2="285.565" y2="291.529" gradientUnits="userSpaceOnUse">
<stop stop-color="#FFF7D8"/>
<stop offset="1" stop-color="#FF9292"/>
</linearGradient>
<linearGradient id="paint37_linear_7387_8125" x1="154.957" y1="251.568" x2="134.509" y2="267.229" gradientUnits="userSpaceOnUse">
<stop stop-color="#FFF7D8"/>
<stop offset="1" stop-color="#FF9292"/>
</linearGradient>
<linearGradient id="paint38_linear_7387_8125" x1="140.061" y1="157.114" x2="115.331" y2="290.962" gradientUnits="userSpaceOnUse">
<stop stop-color="#FFF7D8"/>
<stop offset="1" stop-color="#FF9292"/>
</linearGradient>
<linearGradient id="paint39_linear_7387_8125" x1="60.2361" y1="231.507" x2="191.221" y2="395.405" gradientUnits="userSpaceOnUse">
<stop stop-color="white"/>
<stop offset="1" stop-color="#CFCFFF"/>
</linearGradient>
<linearGradient id="paint40_linear_7387_8125" x1="192.762" y1="357.623" x2="207.091" y2="453.772" gradientUnits="userSpaceOnUse">
<stop offset="0.256188" stop-color="white" stop-opacity="0"/>
<stop offset="1" stop-color="white"/>
</linearGradient>
<linearGradient id="paint41_linear_7387_8125" x1="97.6455" y1="434.913" x2="97.6455" y2="320.913" gradientUnits="userSpaceOnUse">
<stop stop-color="#2E2E81"/>
<stop offset="1" stop-color="#88889E"/>
</linearGradient>
<linearGradient id="paint42_linear_7387_8125" x1="304.271" y1="137.597" x2="276.427" y2="137.597" gradientUnits="userSpaceOnUse">
<stop stop-color="#CF8900"/>
<stop offset="1" stop-color="#694500"/>
</linearGradient>
<linearGradient id="paint43_linear_7387_8125" x1="293.917" y1="127.247" x2="284.601" y2="143.294" gradientUnits="userSpaceOnUse">
<stop stop-color="#FFE5B3"/>
<stop offset="0.395" stop-color="#FFB11A"/>
<stop offset="1" stop-color="#F7A300"/>
</linearGradient>
<linearGradient id="paint44_linear_7387_8125" x1="301.161" y1="140.845" x2="279.279" y2="129.454" gradientUnits="userSpaceOnUse">
<stop stop-color="#FFBF44"/>
<stop offset="1" stop-color="#FFD179"/>
</linearGradient>
<linearGradient id="paint45_linear_7387_8125" x1="301.162" y1="140.845" x2="279.28" y2="129.454" gradientUnits="userSpaceOnUse">
<stop stop-color="#936100"/>
<stop offset="1" stop-color="#FFD179"/>
</linearGradient>
<linearGradient id="paint46_linear_7387_8125" x1="301.628" y1="141.496" x2="279.746" y2="130.105" gradientUnits="userSpaceOnUse">
<stop stop-color="#FFBF44"/>
<stop offset="1" stop-color="#FFD179"/>
</linearGradient>
<linearGradient id="paint47_linear_7387_8125" x1="62.6763" y1="50.4621" x2="38.2566" y2="109.465" gradientUnits="userSpaceOnUse">
<stop stop-color="white"/>
<stop offset="1" stop-color="#DBDBFF"/>
</linearGradient>
<linearGradient id="paint48_linear_7387_8125" x1="68.0715" y1="51.5837" x2="43.8487" y2="110.111" gradientUnits="userSpaceOnUse">
<stop stop-color="white"/>
<stop offset="1" stop-color="#DBDBFF"/>
</linearGradient>
<linearGradient id="paint49_linear_7387_8125" x1="71.2396" y1="53.9959" x2="48.1984" y2="109.668" gradientUnits="userSpaceOnUse">
<stop stop-color="white"/>
<stop offset="1" stop-color="#DBDBFF"/>
</linearGradient>
<linearGradient id="paint50_linear_7387_8125" x1="74.0997" y1="55.1795" x2="52.6339" y2="107.045" gradientUnits="userSpaceOnUse">
<stop stop-color="white"/>
<stop offset="1" stop-color="#DBDBFF"/>
</linearGradient>
<linearGradient id="paint51_linear_7387_8125" x1="77.102" y1="55.3199" x2="57.0148" y2="103.855" gradientUnits="userSpaceOnUse">
<stop stop-color="white"/>
<stop offset="1" stop-color="#DBDBFF"/>
</linearGradient>
<linearGradient id="paint52_linear_7387_8125" x1="39.746" y1="44.5912" x2="87.3294" y2="64.2845" gradientUnits="userSpaceOnUse">
<stop stop-color="#9D6A19"/>
<stop offset="1" stop-color="#583600"/>
</linearGradient>
<clipPath id="clip0_7387_8125">
<rect width="328" height="421" fill="white" transform="matrix(-1 0 0 1 328 0)"/>
</clipPath>
</defs>
</svg>
