<svg width="240" height="226" viewBox="0 0 240 226" fill="none" xmlns="http://www.w3.org/2000/svg">
<g clip-path="url(#clip0_7346_9167)">
<path d="M127.946 149.358C127.082 142.203 125.514 135.224 125.514 135.224L143.752 124.353L145.819 135.224C141.795 141.728 135.036 146.321 127.946 149.358Z" fill="black" stroke="black" stroke-width="0.48574" stroke-miterlimit="10"/>
<path d="M127.943 149.357C135.033 146.32 141.792 141.727 145.816 135.223L150.483 159.782C150.483 159.782 125.92 169.197 127.967 162.238C128.806 159.385 128.544 154.33 127.943 149.357Z" fill="url(#paint0_linear_7346_9167)"/>
<path d="M155.804 75.0484C146.822 71.6797 137.496 73.4439 128.141 72.8299C138.417 70.3821 158.072 69.6454 164.225 79.244C163.238 79.0679 162.243 78.937 161.252 78.8469C159.807 77.1728 157.936 75.8466 155.804 75.0443V75.0484Z" fill="white"/>
<path fill-rule="evenodd" clip-rule="evenodd" d="M103.348 139.786C79.2309 125.403 122.147 82.5548 122.147 82.5548H122.151C122.151 82.5548 129.794 71.4908 154.623 83.5945C169.364 90.7827 165.36 105.173 159.672 115.68C161.886 116.355 164.562 117.741 164.412 120.482C164.163 125.004 159.103 130.881 152.331 126.743C151.567 127.705 151.099 128.243 151.099 128.243C151.099 128.243 127.465 154.17 103.348 139.786Z" fill="url(#paint1_linear_7346_9167)"/>
<path d="M122.369 74.987C123.344 74.2543 125.415 73.4848 128.146 72.834C137.5 73.4439 146.826 71.6838 155.808 75.0525C157.945 75.8548 159.816 77.1769 161.257 78.8551C156.803 78.4499 152.349 78.9001 148.439 79.9644C137.021 83.2267 125.084 85.703 114.693 81.6016C111.815 77.0377 110.309 73.7631 110.309 73.7631C110.309 73.7631 116.638 79.2849 122.369 74.9911V74.987Z" fill="#4C4529"/>
<path d="M153.113 119.757C153.113 119.757 155.099 119.098 157.133 118.816C158.963 118.562 160.838 118.615 161.342 119.733" stroke="black" stroke-width="0.48574" stroke-miterlimit="10"/>
<path d="M163.177 92.24C165.384 87.2749 164.242 82.3098 161.257 78.8511C162.248 78.9411 163.243 79.0721 164.229 79.2481C166.051 82.0888 166.69 85.83 165.556 90.7009C165.556 90.7009 172.581 95.8666 172.409 103.103C171.124 98.2079 168.401 93.8077 163.173 92.24H163.177Z" fill="white"/>
<path d="M114.698 81.5995C125.084 85.7009 137.022 83.2245 148.443 79.9622C152.353 78.8939 156.807 78.4478 161.261 78.853C164.246 82.3158 165.388 87.2768 163.181 92.2419C168.405 93.8096 171.127 98.2098 172.417 103.105C172.315 107.51 169.551 112.679 160.921 117.927L156.43 118.389L156.959 115.041L157.687 114.145L150.327 118.606L154.719 109.306C135.22 109.45 121.326 92.1109 114.698 81.5995Z" fill="#2B250D"/>
<path d="M156.466 118.92C159.308 119.166 159.013 123.058 159.013 123.058C159.013 123.058 155.639 119.198 154.596 119.329L156.462 118.92H156.466Z" fill="black" stroke="black" stroke-width="0.48574" stroke-miterlimit="10"/>
<path d="M128.271 108.376L128.551 108.537C129.097 108.853 129.284 109.551 128.969 110.097L127.606 112.458C127.29 113.004 126.592 113.192 126.045 112.876L125.765 112.715C125.219 112.399 125.032 111.701 125.347 111.155L126.711 108.794C127.026 108.248 127.724 108.06 128.271 108.376Z" fill="black"/>
<path d="M117.051 101.518L117.331 101.68C117.877 101.995 118.065 102.694 117.749 103.24L116.386 105.601C116.071 106.147 115.372 106.334 114.826 106.019L114.546 105.857C113.999 105.542 113.812 104.843 114.128 104.297L115.491 101.936C115.806 101.39 116.505 101.203 117.051 101.518Z" fill="black"/>
<path d="M136.772 129.898C132.363 129.898 128.789 126.324 128.789 121.916C128.789 117.508 132.363 113.934 136.772 113.934C141.181 113.934 144.755 117.508 144.755 121.916C144.755 126.324 141.181 129.898 136.772 129.898Z" fill="#FFB18A"/>
<path d="M111.588 120.909C111.588 120.909 120.665 131.531 133.376 122.55" stroke="black" stroke-width="0.971481" stroke-miterlimit="10"/>
<rect x="26.4844" y="200.746" width="32.1745" height="4.94993" fill="url(#paint2_linear_7346_9167)"/>
<rect x="26.4844" y="175.996" width="32.1745" height="4.94993" fill="url(#paint3_linear_7346_9167)"/>
<rect x="26.4844" y="195.796" width="32.1745" height="4.94993" fill="url(#paint4_linear_7346_9167)"/>
<rect x="26.4844" y="171.046" width="32.1745" height="4.94993" fill="url(#paint5_linear_7346_9167)"/>
<rect x="26.4844" y="190.846" width="32.1745" height="4.94993" fill="url(#paint6_linear_7346_9167)"/>
<rect x="26.4844" y="166.096" width="32.1745" height="4.94993" fill="url(#paint7_linear_7346_9167)"/>
<rect x="26.4844" y="185.896" width="32.1745" height="4.94993" fill="url(#paint8_linear_7346_9167)"/>
<rect x="26.4844" y="161.146" width="32.1745" height="4.94993" fill="url(#paint9_linear_7346_9167)"/>
<rect x="26.4844" y="180.946" width="32.1745" height="4.94993" fill="url(#paint10_linear_7346_9167)"/>
<rect x="26.4844" y="156.196" width="32.1745" height="4.94993" fill="url(#paint11_linear_7346_9167)"/>
<line x1="26.4844" y1="200.47" x2="58.6589" y2="200.47" stroke="#FFF1D5" stroke-width="0.550417"/>
<line x1="26.4844" y1="205.493" x2="58.6589" y2="205.493" stroke="#FFF1D5" stroke-width="0.550417"/>
<line x1="26.4844" y1="175.721" x2="58.6589" y2="175.721" stroke="#FFF1D5" stroke-width="0.550417"/>
<line x1="26.4844" y1="195.521" x2="58.6589" y2="195.521" stroke="#FFF1D5" stroke-width="0.550417"/>
<line x1="26.4844" y1="170.771" x2="58.6589" y2="170.771" stroke="#FFF1D5" stroke-width="0.550417"/>
<line x1="26.4844" y1="190.57" x2="58.6589" y2="190.57" stroke="#FFF1D5" stroke-width="0.550417"/>
<line x1="26.4844" y1="165.821" x2="58.6589" y2="165.821" stroke="#FFF1D5" stroke-width="0.550417"/>
<line x1="26.4844" y1="186.033" x2="58.6589" y2="186.033" stroke="#FFF1D5" stroke-width="0.550417"/>
<line x1="26.4844" y1="161.283" x2="58.6589" y2="161.283" stroke="#FFF1D5" stroke-width="0.550417"/>
<line x1="26.4844" y1="181.084" x2="58.6589" y2="181.084" stroke="#FFF1D5" stroke-width="0.550417"/>
<rect y="209.43" width="24.7187" height="3.80288" fill="url(#paint12_linear_7346_9167)"/>
<rect y="224.642" width="24.7187" height="3.80288" fill="url(#paint13_linear_7346_9167)"/>
<rect y="205.627" width="24.7187" height="3.80288" fill="url(#paint14_linear_7346_9167)"/>
<rect y="220.838" width="24.7187" height="3.80288" fill="url(#paint15_linear_7346_9167)"/>
<rect y="201.824" width="24.7187" height="3.80288" fill="url(#paint16_linear_7346_9167)"/>
<rect y="217.036" width="24.7187" height="3.80288" fill="url(#paint17_linear_7346_9167)"/>
<rect y="198.022" width="24.7187" height="3.80288" fill="url(#paint18_linear_7346_9167)"/>
<rect y="213.233" width="24.7187" height="3.80288" fill="url(#paint19_linear_7346_9167)"/>
<rect y="194.219" width="24.7187" height="3.80288" fill="url(#paint20_linear_7346_9167)"/>
<line x1="1.84842e-08" y1="209.219" x2="24.7187" y2="209.219" stroke="#FFF1D5" stroke-width="0.422869"/>
<line x1="1.84842e-08" y1="224.431" x2="24.7187" y2="224.431" stroke="#FFF1D5" stroke-width="0.422869"/>
<line x1="1.84842e-08" y1="205.416" x2="24.7187" y2="205.416" stroke="#FFF1D5" stroke-width="0.422869"/>
<line x1="1.84842e-08" y1="220.627" x2="24.7187" y2="220.627" stroke="#FFF1D5" stroke-width="0.422869"/>
<line x1="1.84842e-08" y1="201.613" x2="24.7187" y2="201.613" stroke="#FFF1D5" stroke-width="0.422869"/>
<line x1="1.84842e-08" y1="217.141" x2="24.7187" y2="217.141" stroke="#FFF1D5" stroke-width="0.422869"/>
<line x1="1.84842e-08" y1="198.127" x2="24.7187" y2="198.127" stroke="#FFF1D5" stroke-width="0.422869"/>
<line x1="1.84842e-08" y1="213.339" x2="24.7187" y2="213.339" stroke="#FFF1D5" stroke-width="0.422869"/>
<rect y="190.189" width="24.7187" height="3.80288" fill="url(#paint21_linear_7346_9167)"/>
<rect y="171.175" width="24.7187" height="3.80288" fill="url(#paint22_linear_7346_9167)"/>
<rect y="186.387" width="24.7187" height="3.80288" fill="url(#paint23_linear_7346_9167)"/>
<rect y="167.372" width="24.7187" height="3.80288" fill="url(#paint24_linear_7346_9167)"/>
<rect y="182.583" width="24.7187" height="3.80288" fill="url(#paint25_linear_7346_9167)"/>
<rect y="163.569" width="24.7187" height="3.80288" fill="url(#paint26_linear_7346_9167)"/>
<rect y="178.781" width="24.7187" height="3.80288" fill="url(#paint27_linear_7346_9167)"/>
<rect y="159.767" width="24.7187" height="3.80288" fill="url(#paint28_linear_7346_9167)"/>
<rect y="174.978" width="24.7187" height="3.80288" fill="url(#paint29_linear_7346_9167)"/>
<rect y="155.963" width="24.7187" height="3.80288" fill="url(#paint30_linear_7346_9167)"/>
<line x1="1.84842e-08" y1="189.978" x2="24.7187" y2="189.978" stroke="#FFF1D5" stroke-width="0.422869"/>
<line x1="1.84842e-08" y1="193.837" x2="24.7187" y2="193.837" stroke="#FFF1D5" stroke-width="0.422869"/>
<line x1="1.84842e-08" y1="170.964" x2="24.7187" y2="170.964" stroke="#FFF1D5" stroke-width="0.422869"/>
<line x1="1.84842e-08" y1="186.175" x2="24.7187" y2="186.175" stroke="#FFF1D5" stroke-width="0.422869"/>
<line x1="1.84842e-08" y1="167.161" x2="24.7187" y2="167.161" stroke="#FFF1D5" stroke-width="0.422869"/>
<line x1="1.84842e-08" y1="182.372" x2="24.7187" y2="182.372" stroke="#FFF1D5" stroke-width="0.422869"/>
<line x1="1.84842e-08" y1="163.358" x2="24.7187" y2="163.358" stroke="#FFF1D5" stroke-width="0.422869"/>
<line x1="1.84842e-08" y1="178.886" x2="24.7187" y2="178.886" stroke="#FFF1D5" stroke-width="0.422869"/>
<line x1="1.84842e-08" y1="159.872" x2="24.7187" y2="159.872" stroke="#FFF1D5" stroke-width="0.422869"/>
<line x1="1.84842e-08" y1="175.083" x2="24.7187" y2="175.083" stroke="#FFF1D5" stroke-width="0.422869"/>
<rect x="60.6914" y="197.202" width="20.5989" height="3.16906" fill="url(#paint31_linear_7346_9167)"/>
<rect x="60.6914" y="181.357" width="20.5989" height="3.16906" fill="url(#paint32_linear_7346_9167)"/>
<rect x="60.6914" y="194.033" width="20.5989" height="3.16906" fill="url(#paint33_linear_7346_9167)"/>
<rect x="60.6914" y="178.188" width="20.5989" height="3.16906" fill="url(#paint34_linear_7346_9167)"/>
<rect x="60.6914" y="190.864" width="20.5989" height="3.16906" fill="url(#paint35_linear_7346_9167)"/>
<rect x="60.6914" y="175.019" width="20.5989" height="3.16906" fill="url(#paint36_linear_7346_9167)"/>
<rect x="60.6914" y="187.695" width="20.5989" height="3.16906" fill="url(#paint37_linear_7346_9167)"/>
<rect x="60.6914" y="171.85" width="20.5989" height="3.16906" fill="url(#paint38_linear_7346_9167)"/>
<rect x="60.6914" y="184.525" width="20.5989" height="3.16906" fill="url(#paint39_linear_7346_9167)"/>
<rect x="60.6914" y="168.68" width="20.5989" height="3.16906" fill="url(#paint40_linear_7346_9167)"/>
<line x1="60.6914" y1="197.026" x2="81.2903" y2="197.026" stroke="#FFF1D5" stroke-width="0.352391"/>
<line x1="60.6914" y1="200.241" x2="81.2903" y2="200.241" stroke="#FFF1D5" stroke-width="0.352391"/>
<line x1="60.6914" y1="181.181" x2="81.2903" y2="181.181" stroke="#FFF1D5" stroke-width="0.352391"/>
<line x1="60.6914" y1="193.857" x2="81.2903" y2="193.857" stroke="#FFF1D5" stroke-width="0.352391"/>
<line x1="60.6914" y1="178.011" x2="81.2903" y2="178.011" stroke="#FFF1D5" stroke-width="0.352391"/>
<line x1="60.6914" y1="190.688" x2="81.2903" y2="190.688" stroke="#FFF1D5" stroke-width="0.352391"/>
<line x1="60.6914" y1="174.842" x2="81.2903" y2="174.842" stroke="#FFF1D5" stroke-width="0.352391"/>
<line x1="60.6914" y1="187.783" x2="81.2903" y2="187.783" stroke="#FFF1D5" stroke-width="0.352391"/>
<line x1="60.6914" y1="171.938" x2="81.2903" y2="171.938" stroke="#FFF1D5" stroke-width="0.352391"/>
<line x1="60.6914" y1="184.613" x2="81.2903" y2="184.613" stroke="#FFF1D5" stroke-width="0.352391"/>
<rect x="26.4844" y="151.246" width="32.1745" height="4.94993" fill="url(#paint41_linear_7346_9167)"/>
<rect x="26.4844" y="146.296" width="32.1745" height="4.94993" fill="url(#paint42_linear_7346_9167)"/>
<rect x="26.4844" y="141.347" width="32.1745" height="4.94993" fill="url(#paint43_linear_7346_9167)"/>
<rect x="26.4844" y="136.396" width="32.1745" height="4.94993" fill="url(#paint44_linear_7346_9167)"/>
<line x1="26.4844" y1="150.971" x2="58.6589" y2="150.971" stroke="#FFF1D5" stroke-width="0.550417"/>
<line x1="26.4844" y1="156.427" x2="58.6589" y2="156.427" stroke="#FFF1D5" stroke-width="0.550417"/>
<line x1="26.4844" y1="146.021" x2="58.6589" y2="146.021" stroke="#FFF1D5" stroke-width="0.550417"/>
<line x1="26.4844" y1="141.071" x2="58.6589" y2="141.071" stroke="#FFF1D5" stroke-width="0.550417"/>
<rect x="26.4844" y="220.618" width="32.1745" height="4.94993" fill="url(#paint45_linear_7346_9167)"/>
<rect x="26.4844" y="215.668" width="32.1745" height="4.94993" fill="url(#paint46_linear_7346_9167)"/>
<rect x="26.4844" y="210.719" width="32.1745" height="4.94993" fill="url(#paint47_linear_7346_9167)"/>
<rect x="26.4844" y="205.769" width="32.1745" height="4.94993" fill="url(#paint48_linear_7346_9167)"/>
<line x1="26.4844" y1="220.343" x2="58.6589" y2="220.343" stroke="#FFF1D5" stroke-width="0.550417"/>
<line x1="26.4844" y1="225.799" x2="58.6589" y2="225.799" stroke="#FFF1D5" stroke-width="0.550417"/>
<line x1="26.4844" y1="215.393" x2="58.6589" y2="215.393" stroke="#FFF1D5" stroke-width="0.550417"/>
<line x1="26.4844" y1="210.444" x2="58.6589" y2="210.444" stroke="#FFF1D5" stroke-width="0.550417"/>
<rect x="87.1641" y="203.441" width="14.653" height="2.2543" fill="url(#paint49_linear_7346_9167)"/>
<rect x="87.1641" y="201.187" width="14.653" height="2.2543" fill="url(#paint50_linear_7346_9167)"/>
<rect x="87.1641" y="198.932" width="14.653" height="2.2543" fill="url(#paint51_linear_7346_9167)"/>
<rect x="87.1641" y="196.678" width="14.653" height="2.2543" fill="url(#paint52_linear_7346_9167)"/>
<rect x="87.1641" y="194.424" width="14.653" height="2.2543" fill="url(#paint53_linear_7346_9167)"/>
<line x1="87.1641" y1="203.316" x2="101.817" y2="203.316" stroke="#FFF1D5" stroke-width="0.250672"/>
<line x1="87.1641" y1="201.062" x2="101.817" y2="201.062" stroke="#FFF1D5" stroke-width="0.250672"/>
<line x1="87.1641" y1="198.807" x2="101.817" y2="198.807" stroke="#FFF1D5" stroke-width="0.250672"/>
<line x1="87.1641" y1="196.74" x2="101.817" y2="196.74" stroke="#FFF1D5" stroke-width="0.250672"/>
<line x1="87.1641" y1="194.486" x2="101.817" y2="194.486" stroke="#FFF1D5" stroke-width="0.250672"/>
<rect x="87.1641" y="192.438" width="14.653" height="2.2543" fill="url(#paint54_linear_7346_9167)"/>
<rect x="87.1641" y="190.184" width="14.653" height="2.2543" fill="url(#paint55_linear_7346_9167)"/>
<rect x="87.1641" y="187.929" width="14.653" height="2.2543" fill="url(#paint56_linear_7346_9167)"/>
<rect x="87.1641" y="185.675" width="14.653" height="2.2543" fill="url(#paint57_linear_7346_9167)"/>
<rect x="87.1641" y="183.421" width="14.653" height="2.2543" fill="url(#paint58_linear_7346_9167)"/>
<path d="M87.1641 192.344L101.817 192.344M87.1641 194.558L101.817 194.558" stroke="#FFF1D5" stroke-width="0.250672"/>
<line x1="87.1641" y1="190.058" x2="101.817" y2="190.058" stroke="#FFF1D5" stroke-width="0.250672"/>
<line x1="87.1641" y1="187.804" x2="101.817" y2="187.804" stroke="#FFF1D5" stroke-width="0.250672"/>
<line x1="87.1641" y1="185.737" x2="101.817" y2="185.737" stroke="#FFF1D5" stroke-width="0.250672"/>
<line x1="87.1641" y1="183.483" x2="101.817" y2="183.483" stroke="#FFF1D5" stroke-width="0.250672"/>
<path fill-rule="evenodd" clip-rule="evenodd" d="M58.0493 131.851C58.0368 131.882 58.0231 131.912 58.0081 131.942C56.9422 134.065 49.915 132.691 42.3126 128.873C34.7101 125.056 29.4112 120.24 30.4772 118.118C30.4921 118.088 30.5083 118.059 30.5256 118.03L30.5228 118.029L32.0489 114.99L37.8145 117.885C40.295 118.567 43.1896 119.688 46.1727 121.186C49.1558 122.684 51.7843 124.336 53.8127 125.918L59.5799 128.814L58.0538 131.853L58.0493 131.851Z" fill="url(#paint59_linear_7346_9167)"/>
<path d="M59.0424 128.656C59.1808 128.38 59.165 127.9 58.7267 127.138C58.3013 126.399 57.5476 125.523 56.497 124.568C54.4018 122.664 51.2215 120.532 47.4519 118.639C43.6822 116.746 40.0729 115.468 37.2943 114.925C35.901 114.653 34.7484 114.571 33.9012 114.672C33.0281 114.776 32.6337 115.05 32.4952 115.325C32.3567 115.601 32.3726 116.081 32.8109 116.843C33.2363 117.583 33.99 118.459 35.0405 119.413C37.1358 121.318 40.3161 123.449 44.0857 125.342C47.8554 127.235 51.4647 128.513 54.2433 129.056C55.6365 129.328 56.7892 129.41 57.6364 129.309C58.5095 129.206 58.9039 128.932 59.0424 128.656Z" fill="url(#paint60_linear_7346_9167)" stroke="url(#paint61_linear_7346_9167)" stroke-width="1.10083"/>
<rect x="63.5605" y="164.127" width="21.9662" height="2.04948" transform="rotate(-50.1883 63.5605 164.127)" fill="#CF8900"/>
<ellipse cx="72.1873" cy="157.019" rx="10.9831" ry="5.38645" transform="rotate(-50.1883 72.1873 157.019)" fill="url(#paint62_linear_7346_9167)"/>
<ellipse cx="70.6131" cy="155.707" rx="10.9831" ry="5.38645" transform="rotate(-50.1883 70.6131 155.707)" fill="url(#paint63_linear_7346_9167)"/>
<ellipse cx="70.6132" cy="155.707" rx="9.72189" ry="4.75584" transform="rotate(-50.1883 70.6132 155.707)" fill="url(#paint64_linear_7346_9167)"/>
<mask id="mask0_7346_9167" style="mask-type:alpha" maskUnits="userSpaceOnUse" x="63" y="147" width="15" height="17">
<ellipse cx="70.6132" cy="155.707" rx="9.72189" ry="4.75584" transform="rotate(-50.1883 70.6132 155.707)" fill="url(#paint65_linear_7346_9167)"/>
</mask>
<g mask="url(#mask0_7346_9167)">
<ellipse cx="71.0985" cy="156.11" rx="9.72189" ry="4.75584" transform="rotate(-50.1883 71.0985 156.11)" fill="url(#paint66_linear_7346_9167)"/>
<g filter="url(#filter0_d_7346_9167)">
<path d="M68.3334 158.913L72.0311 151.343L72.9293 151.444L69.2317 159.014L68.3334 158.913ZM69.0816 158.08C68.5786 158.023 68.1254 157.91 67.722 157.74C67.3213 157.564 67.0274 157.364 66.8403 157.139L67.8142 156.212C67.9998 156.414 68.2477 156.592 68.5579 156.746C68.8767 156.895 69.2247 156.991 69.602 157.034C69.8894 157.066 70.1318 157.068 70.329 157.039C70.5349 157.005 70.702 156.948 70.8304 156.866C70.9589 156.784 71.0519 156.684 71.1096 156.566C71.183 156.416 71.1749 156.29 71.0851 156.189C70.9979 156.083 70.8597 155.991 70.6703 155.913C70.4836 155.83 70.2703 155.749 70.0304 155.671C69.7991 155.589 69.5701 155.495 69.3434 155.39C69.1226 155.286 68.9333 155.163 68.7754 155.021C68.6175 154.878 68.5169 154.703 68.4736 154.494C68.4362 154.286 68.491 154.031 68.6379 153.731C68.7952 153.409 69.0339 153.127 69.3541 152.885C69.6828 152.639 70.0798 152.46 70.5451 152.348C71.019 152.231 71.5523 152.206 72.1452 152.273C72.5404 152.318 72.9086 152.404 73.2499 152.533C73.5938 152.657 73.8718 152.818 74.084 153.018L73.151 153.958C72.931 153.775 72.6914 153.632 72.432 153.529C72.1753 153.421 71.9062 153.351 71.6248 153.319C71.3434 153.287 71.0984 153.291 70.8899 153.33C70.6814 153.369 70.5146 153.432 70.3896 153.52C70.2672 153.602 70.1758 153.705 70.1155 153.829C70.0447 153.974 70.0528 154.099 70.14 154.206C70.2298 154.306 70.3693 154.396 70.5587 154.474C70.748 154.551 70.9584 154.632 71.1896 154.714C71.4269 154.798 71.6572 154.889 71.8806 154.987C72.11 155.087 72.3036 155.208 72.4615 155.35C72.6194 155.493 72.717 155.668 72.7543 155.876C72.7976 156.085 72.7472 156.337 72.603 156.632C72.4482 156.949 72.2078 157.228 71.8817 157.468C71.5556 157.709 71.1556 157.888 70.6817 158.005C70.2138 158.122 69.6804 158.147 69.0816 158.08Z" fill="#FFEFC5"/>
</g>
</g>
<path d="M119.787 113.306L129.678 119.977C130.361 120.436 131.315 120.027 131.516 119.192L132.396 115.495C132.511 115.008 132.326 114.513 131.933 114.247L122.043 107.575C121.359 107.117 120.405 107.526 120.205 108.361L119.324 112.057C119.21 112.544 119.394 113.039 119.787 113.306Z" stroke="black" stroke-width="0.971481" stroke-miterlimit="10"/>
<path d="M107.092 104.711L115.346 110.564C116.029 111.023 116.983 110.613 117.184 109.778L118.064 106.082C118.179 105.595 117.994 105.1 117.601 104.834L109.348 98.9803C108.665 98.5219 107.711 98.9312 107.51 99.7662L106.63 103.462C106.515 103.949 106.699 104.445 107.092 104.711Z" stroke="black" stroke-width="0.971481" stroke-miterlimit="10"/>
<path d="M119.81 109.188L117.529 107.505" stroke="black" stroke-width="0.971481" stroke-miterlimit="10"/>
<path fill-rule="evenodd" clip-rule="evenodd" d="M84.5719 178.201C70.2434 190.481 20.8935 235.719 20.8935 235.719L24.9874 296.164L175.795 279.676C175.795 279.676 175.795 279.676 175.795 279.676L198.962 278.935L238.5 277.666C242.967 247.273 237.953 181.169 182.157 159.896C182.157 159.896 182.157 159.896 182.157 159.896C171.513 155.337 160.415 152.209 150.483 152.639C150.483 152.639 136.564 164.694 126.329 156.507C126.329 156.507 98.9004 165.922 84.5719 178.201Z" fill="url(#paint67_linear_7346_9167)"/>
<path d="M93.795 271.174C99.0633 260.559 94.4079 230.378 91.4044 214.38C90.2436 208.2 89.3303 204.142 89.3303 204.142L79.1834 267.495L93.795 271.174Z" fill="url(#paint68_linear_7346_9167)"/>
<circle cx="64.7393" cy="47.6719" r="47.6719" fill="black"/>
<path d="M64.3564 76.9174L32.4079 64.66C33.1618 51.8498 44.391 25.0978 49.9114 13.323L75.955 24.1015L64.3564 76.9174Z" fill="url(#paint69_linear_7346_9167)"/>
<g filter="url(#filter1_d_7346_9167)">
<path d="M70.9096 78.2072L38.5138 65.7683C36.2964 47.4733 47.6378 23.5648 53.5856 13.8974L78.4812 27.6596C71.7768 36.0638 70.64 64.8598 70.9096 78.2072Z" fill="url(#paint70_linear_7346_9167)"/>
</g>
<g filter="url(#filter2_d_7346_9167)">
<path d="M43.5998 65.9803C37.3155 59.8419 47.959 29.4611 54.0663 15.038L79.5373 27.7905C67.3691 49.7282 71.881 70.4992 75.658 78.1425L43.5998 65.9803Z" fill="url(#paint71_linear_7346_9167)"/>
</g>
<g filter="url(#filter3_d_7346_9167)">
<path d="M48.697 64.3126C40.4371 55.1817 49.677 28.0083 55.3294 15.563L65.8414 19.9135L81.7009 30.1847C71.7739 49.1459 76.9418 68.6784 80.7666 76.0745L48.697 64.3126Z" fill="url(#paint72_linear_7346_9167)"/>
</g>
<g filter="url(#filter4_d_7346_9167)">
<path d="M85.9996 73.6993C77.6805 66.7115 82.4458 44.4421 85.8683 34.181L87.8455 28.0758L56.4092 15.0654L53.1008 25.0508C45.364 49.3212 50.5063 59.9792 54.0445 62.2743L85.9996 73.6993Z" fill="url(#paint73_linear_7346_9167)"/>
</g>
<path d="M87.647 26.577L52.8678 13.0082C49.9685 11.8083 48.7386 12.9494 48.486 13.67L45.8135 20.1271L46.8657 20.5625L49.0522 15.2795C49.4798 14.2463 50.1839 13.8685 50.4825 13.8087L55.2757 15.7925C56.9592 16.4892 56.8355 17.5381 56.5632 17.9754L54.2309 23.6107L86.5839 35.7628L88.819 30.3623C89.7908 28.0143 88.4426 26.8604 87.647 26.577Z" fill="url(#paint74_linear_7346_9167)"/>
<path d="M63.9046 44.5438C62.61 44.1488 61.7202 43.0384 62.3525 40.9944C62.9161 39.1751 64.2149 38.3343 65.68 38.7814C66.9047 39.1551 67.4952 40.1911 67.2973 41.173L65.8478 40.7306C65.8696 40.3814 65.6378 40.1412 65.2968 40.0372C64.6379 39.8361 64.1487 40.3562 63.8625 41.2942L63.8935 41.3036C64.2744 40.8606 64.9426 40.7256 65.586 40.9219C66.6015 41.2318 67.0619 42.1942 66.7473 43.2252C66.3807 44.4267 65.2223 44.946 63.9046 44.5438ZM64.2398 43.4175C64.7049 43.5594 65.1524 43.3147 65.2967 42.8418C65.4434 42.3612 65.2165 41.9107 64.7437 41.7664C64.2786 41.6245 63.831 41.8692 63.6844 42.3498C63.5401 42.8227 63.7747 43.2756 64.2398 43.4175ZM69.1738 46.1517C67.6622 45.6905 67.0436 44.3578 67.6042 42.5207C68.1672 40.6758 69.4221 39.9233 70.9337 40.3846C72.4453 40.8458 73.0639 42.1785 72.5032 44.0156C71.9402 45.8605 70.6853 46.613 69.1738 46.1517ZM69.5357 44.9658C70.0807 45.1236 70.6119 44.7434 70.9762 43.5496C71.331 42.3869 71.1144 41.7362 70.5718 41.5706C70.0292 41.405 69.4939 41.8263 69.1313 42.9867C68.767 44.1804 68.9954 44.7924 69.5357 44.9658ZM57.6042 49.8552L55.4725 49.2047L57.1851 43.5926L59.3013 44.2383C61.0299 44.7658 61.7857 46.1488 61.2511 47.9007C60.7165 49.6525 59.3173 50.378 57.6042 49.8552ZM57.3285 48.3984L57.9332 48.5829C58.8013 48.8478 59.4009 48.6325 59.7628 47.4465C60.1247 46.2605 59.7475 45.7472 58.8406 45.4704L58.2747 45.2978L57.3285 48.3984ZM61.2051 49.683C61.4889 48.7528 62.2876 48.6068 63.1646 48.8151L64.1609 49.0767L64.265 48.7356C64.3359 48.5031 64.1824 48.3122 63.8956 48.2247C63.5933 48.1324 63.3592 48.2051 63.2401 48.4568L61.8835 48.0428C62.172 47.292 62.9884 46.8378 64.2287 47.2163C65.3992 47.5735 65.976 48.3765 65.7277 49.1905L64.8501 52.0663L63.478 51.6476L63.6578 51.0585L63.6268 51.049C63.2392 51.4307 62.7591 51.5045 62.201 51.3342C61.3948 51.0882 60.9496 50.5202 61.2051 49.683ZM62.6109 50.0188C62.5352 50.2668 62.6888 50.4577 62.9601 50.5405C63.3244 50.6517 63.7364 50.5232 63.8493 50.1255L63.9179 49.9007C63.7694 49.8597 63.3771 49.7569 63.1774 49.7172C62.9044 49.6677 62.6795 49.794 62.6109 50.0188ZM65.7144 54.0586C65.4354 53.9735 65.1897 53.89 65.0006 53.8154L65.3342 52.7224C65.531 52.7994 65.717 52.8562 65.8798 52.9059C66.0891 52.9697 66.2435 52.9914 66.3902 52.8159L66.4449 52.7478L66.3032 47.9087L67.8303 48.3746L67.6391 51.5277L67.6856 51.5419L69.3031 48.8241L70.8379 49.2924L67.8919 53.3928C67.4465 54.0194 66.7996 54.3898 65.7144 54.0586ZM73.2436 51.5094C73.2931 51.2364 73.0947 50.9979 72.7846 50.9033C72.5056 50.8181 72.2476 50.858 72.1986 51.0465C72.1507 51.1759 72.2159 51.3229 72.5303 51.4866L73.3202 51.8971C74.1333 52.3147 74.433 52.8044 74.2515 53.4269C73.9717 54.3159 72.9541 54.624 71.7991 54.2715C70.5279 53.8836 69.9641 53.093 70.1391 52.2143L71.5964 52.659C71.5601 52.9445 71.7531 53.1729 72.1097 53.2817C72.4042 53.3716 72.6466 53.3269 72.7111 53.1433C72.7554 52.9704 72.6365 52.8324 72.3144 52.6663L71.6182 52.3098C70.8128 51.8946 70.5166 51.3382 70.7153 50.687C70.9802 49.8188 71.868 49.5475 73.054 49.9094C74.2478 50.2736 74.8233 51.0255 74.5924 51.921L73.2436 51.5094Z" fill="black"/>
<path d="M88.8695 87.9868C89.5757 94.5785 94.6568 97.4035 97.109 97.992C89.5757 98.9337 82.3955 93.8722 79.7471 91.2238L88.8695 87.9868Z" fill="black"/>
</g>
<defs>
<filter id="filter0_d_7346_9167" x="63.4451" y="151.343" width="14.0336" height="15.0599" filterUnits="userSpaceOnUse" color-interpolation-filters="sRGB">
<feFlood flood-opacity="0" result="BackgroundImageFix"/>
<feColorMatrix in="SourceAlpha" type="matrix" values="0 0 0 0 0 0 0 0 0 0 0 0 0 0 0 0 0 0 127 0" result="hardAlpha"/>
<feOffset dy="3.99378"/>
<feGaussianBlur stdDeviation="1.69736"/>
<feComposite in2="hardAlpha" operator="out"/>
<feColorMatrix type="matrix" values="0 0 0 0 0.774333 0 0 0 0 0.511258 0 0 0 0 0 0 0 0 1 0"/>
<feBlend mode="normal" in2="BackgroundImageFix" result="effect1_dropShadow_7346_9167"/>
<feBlend mode="normal" in="SourceGraphic" in2="effect1_dropShadow_7346_9167" result="shape"/>
</filter>
<filter id="filter1_d_7346_9167" x="34.4327" y="11.8458" width="47.8465" height="71.9051" filterUnits="userSpaceOnUse" color-interpolation-filters="sRGB">
<feFlood flood-opacity="0" result="BackgroundImageFix"/>
<feColorMatrix in="SourceAlpha" type="matrix" values="0 0 0 0 0 0 0 0 0 0 0 0 0 0 0 0 0 0 127 0" result="hardAlpha"/>
<feOffset dy="1.74609"/>
<feGaussianBlur stdDeviation="1.89888"/>
<feComposite in2="hardAlpha" operator="out"/>
<feColorMatrix type="matrix" values="0 0 0 0 0 0 0 0 0 0 0 0 0 0 0 0 0 0 0.25 0"/>
<feBlend mode="normal" in2="BackgroundImageFix" result="effect1_dropShadow_7346_9167"/>
<feBlend mode="normal" in="SourceGraphic" in2="effect1_dropShadow_7346_9167" result="shape"/>
</filter>
<filter id="filter2_d_7346_9167" x="37.8829" y="12.9864" width="45.452" height="70.7" filterUnits="userSpaceOnUse" color-interpolation-filters="sRGB">
<feFlood flood-opacity="0" result="BackgroundImageFix"/>
<feColorMatrix in="SourceAlpha" type="matrix" values="0 0 0 0 0 0 0 0 0 0 0 0 0 0 0 0 0 0 127 0" result="hardAlpha"/>
<feOffset dy="1.74609"/>
<feGaussianBlur stdDeviation="1.89888"/>
<feComposite in2="hardAlpha" operator="out"/>
<feColorMatrix type="matrix" values="0 0 0 0 0 0 0 0 0 0 0 0 0 0 0 0 0 0 0.25 0"/>
<feBlend mode="normal" in2="BackgroundImageFix" result="effect1_dropShadow_7346_9167"/>
<feBlend mode="normal" in="SourceGraphic" in2="effect1_dropShadow_7346_9167" result="shape"/>
</filter>
<filter id="filter3_d_7346_9167" x="41.6134" y="13.5113" width="43.8855" height="68.1072" filterUnits="userSpaceOnUse" color-interpolation-filters="sRGB">
<feFlood flood-opacity="0" result="BackgroundImageFix"/>
<feColorMatrix in="SourceAlpha" type="matrix" values="0 0 0 0 0 0 0 0 0 0 0 0 0 0 0 0 0 0 127 0" result="hardAlpha"/>
<feOffset dy="1.74609"/>
<feGaussianBlur stdDeviation="1.89888"/>
<feComposite in2="hardAlpha" operator="out"/>
<feColorMatrix type="matrix" values="0 0 0 0 0 0 0 0 0 0 0 0 0 0 0 0 0 0 0.25 0"/>
<feBlend mode="normal" in2="BackgroundImageFix" result="effect1_dropShadow_7346_9167"/>
<feBlend mode="normal" in="SourceGraphic" in2="effect1_dropShadow_7346_9167" result="shape"/>
</filter>
<filter id="filter4_d_7346_9167" x="45.2677" y="13.0138" width="46.3758" height="66.2293" filterUnits="userSpaceOnUse" color-interpolation-filters="sRGB">
<feFlood flood-opacity="0" result="BackgroundImageFix"/>
<feColorMatrix in="SourceAlpha" type="matrix" values="0 0 0 0 0 0 0 0 0 0 0 0 0 0 0 0 0 0 127 0" result="hardAlpha"/>
<feOffset dy="1.74609"/>
<feGaussianBlur stdDeviation="1.89888"/>
<feComposite in2="hardAlpha" operator="out"/>
<feColorMatrix type="matrix" values="0 0 0 0 0 0 0 0 0 0 0 0 0 0 0 0 0 0 0.25 0"/>
<feBlend mode="normal" in2="BackgroundImageFix" result="effect1_dropShadow_7346_9167"/>
<feBlend mode="normal" in="SourceGraphic" in2="effect1_dropShadow_7346_9167" result="shape"/>
</filter>
<linearGradient id="paint0_linear_7346_9167" x1="133.98" y1="153.635" x2="146.981" y2="163.593" gradientUnits="userSpaceOnUse">
<stop stop-color="#FFF7D8"/>
<stop offset="1" stop-color="#FF9292"/>
</linearGradient>
<linearGradient id="paint1_linear_7346_9167" x1="139.19" y1="93.578" x2="154.914" y2="178.682" gradientUnits="userSpaceOnUse">
<stop stop-color="#FFF7D8"/>
<stop offset="1" stop-color="#FF9292"/>
</linearGradient>
<linearGradient id="paint2_linear_7346_9167" x1="26.4844" y1="203.221" x2="58.6589" y2="203.221" gradientUnits="userSpaceOnUse">
<stop stop-color="#FFDFA3"/>
<stop offset="0.5" stop-color="#DE9103"/>
<stop offset="1" stop-color="#CC8600"/>
</linearGradient>
<linearGradient id="paint3_linear_7346_9167" x1="26.4844" y1="178.471" x2="58.6589" y2="178.471" gradientUnits="userSpaceOnUse">
<stop stop-color="#FFDFA3"/>
<stop offset="0.5" stop-color="#DE9103"/>
<stop offset="1" stop-color="#CC8600"/>
</linearGradient>
<linearGradient id="paint4_linear_7346_9167" x1="26.4844" y1="198.271" x2="58.6589" y2="198.271" gradientUnits="userSpaceOnUse">
<stop stop-color="#FFDFA3"/>
<stop offset="0.5" stop-color="#DE9103"/>
<stop offset="1" stop-color="#CC8600"/>
</linearGradient>
<linearGradient id="paint5_linear_7346_9167" x1="26.4844" y1="173.521" x2="58.6589" y2="173.521" gradientUnits="userSpaceOnUse">
<stop stop-color="#FFDFA3"/>
<stop offset="0.5" stop-color="#DE9103"/>
<stop offset="1" stop-color="#CC8600"/>
</linearGradient>
<linearGradient id="paint6_linear_7346_9167" x1="26.4844" y1="193.321" x2="58.6589" y2="193.321" gradientUnits="userSpaceOnUse">
<stop stop-color="#FFDFA3"/>
<stop offset="0.5" stop-color="#DE9103"/>
<stop offset="1" stop-color="#CC8600"/>
</linearGradient>
<linearGradient id="paint7_linear_7346_9167" x1="26.4844" y1="168.571" x2="58.6589" y2="168.571" gradientUnits="userSpaceOnUse">
<stop stop-color="#FFDFA3"/>
<stop offset="0.5" stop-color="#DE9103"/>
<stop offset="1" stop-color="#CC8600"/>
</linearGradient>
<linearGradient id="paint8_linear_7346_9167" x1="26.4844" y1="188.37" x2="58.6589" y2="188.37" gradientUnits="userSpaceOnUse">
<stop stop-color="#FFDFA3"/>
<stop offset="0.5" stop-color="#DE9103"/>
<stop offset="1" stop-color="#CC8600"/>
</linearGradient>
<linearGradient id="paint9_linear_7346_9167" x1="26.4844" y1="163.621" x2="58.6589" y2="163.621" gradientUnits="userSpaceOnUse">
<stop stop-color="#FFDFA3"/>
<stop offset="0.5" stop-color="#DE9103"/>
<stop offset="1" stop-color="#CC8600"/>
</linearGradient>
<linearGradient id="paint10_linear_7346_9167" x1="26.4844" y1="183.421" x2="58.6589" y2="183.421" gradientUnits="userSpaceOnUse">
<stop stop-color="#FFDFA3"/>
<stop offset="0.5" stop-color="#DE9103"/>
<stop offset="1" stop-color="#CC8600"/>
</linearGradient>
<linearGradient id="paint11_linear_7346_9167" x1="26.4844" y1="158.671" x2="58.6589" y2="158.671" gradientUnits="userSpaceOnUse">
<stop stop-color="#FFDFA3"/>
<stop offset="0.5" stop-color="#DE9103"/>
<stop offset="1" stop-color="#CC8600"/>
</linearGradient>
<linearGradient id="paint12_linear_7346_9167" x1="0" y1="211.332" x2="24.7187" y2="211.332" gradientUnits="userSpaceOnUse">
<stop stop-color="#FFDFA3"/>
<stop offset="0.5" stop-color="#DE9103"/>
<stop offset="1" stop-color="#CC8600"/>
</linearGradient>
<linearGradient id="paint13_linear_7346_9167" x1="0" y1="226.544" x2="24.7187" y2="226.544" gradientUnits="userSpaceOnUse">
<stop stop-color="#FFDFA3"/>
<stop offset="0.5" stop-color="#DE9103"/>
<stop offset="1" stop-color="#CC8600"/>
</linearGradient>
<linearGradient id="paint14_linear_7346_9167" x1="0" y1="207.529" x2="24.7187" y2="207.529" gradientUnits="userSpaceOnUse">
<stop stop-color="#FFDFA3"/>
<stop offset="0.5" stop-color="#DE9103"/>
<stop offset="1" stop-color="#CC8600"/>
</linearGradient>
<linearGradient id="paint15_linear_7346_9167" x1="0" y1="222.74" x2="24.7187" y2="222.74" gradientUnits="userSpaceOnUse">
<stop stop-color="#FFDFA3"/>
<stop offset="0.5" stop-color="#DE9103"/>
<stop offset="1" stop-color="#CC8600"/>
</linearGradient>
<linearGradient id="paint16_linear_7346_9167" x1="0" y1="203.726" x2="24.7187" y2="203.726" gradientUnits="userSpaceOnUse">
<stop stop-color="#FFDFA3"/>
<stop offset="0.5" stop-color="#DE9103"/>
<stop offset="1" stop-color="#CC8600"/>
</linearGradient>
<linearGradient id="paint17_linear_7346_9167" x1="0" y1="218.938" x2="24.7187" y2="218.938" gradientUnits="userSpaceOnUse">
<stop stop-color="#FFDFA3"/>
<stop offset="0.5" stop-color="#DE9103"/>
<stop offset="1" stop-color="#CC8600"/>
</linearGradient>
<linearGradient id="paint18_linear_7346_9167" x1="0" y1="199.923" x2="24.7187" y2="199.923" gradientUnits="userSpaceOnUse">
<stop stop-color="#FFDFA3"/>
<stop offset="0.5" stop-color="#DE9103"/>
<stop offset="1" stop-color="#CC8600"/>
</linearGradient>
<linearGradient id="paint19_linear_7346_9167" x1="0" y1="215.134" x2="24.7187" y2="215.134" gradientUnits="userSpaceOnUse">
<stop stop-color="#FFDFA3"/>
<stop offset="0.5" stop-color="#DE9103"/>
<stop offset="1" stop-color="#CC8600"/>
</linearGradient>
<linearGradient id="paint20_linear_7346_9167" x1="0" y1="196.12" x2="24.7187" y2="196.12" gradientUnits="userSpaceOnUse">
<stop stop-color="#FFDFA3"/>
<stop offset="0.5" stop-color="#DE9103"/>
<stop offset="1" stop-color="#CC8600"/>
</linearGradient>
<linearGradient id="paint21_linear_7346_9167" x1="0" y1="192.091" x2="24.7187" y2="192.091" gradientUnits="userSpaceOnUse">
<stop stop-color="#FFDFA3"/>
<stop offset="0.5" stop-color="#DE9103"/>
<stop offset="1" stop-color="#CC8600"/>
</linearGradient>
<linearGradient id="paint22_linear_7346_9167" x1="0" y1="173.077" x2="24.7187" y2="173.077" gradientUnits="userSpaceOnUse">
<stop stop-color="#FFDFA3"/>
<stop offset="0.5" stop-color="#DE9103"/>
<stop offset="1" stop-color="#CC8600"/>
</linearGradient>
<linearGradient id="paint23_linear_7346_9167" x1="0" y1="188.288" x2="24.7187" y2="188.288" gradientUnits="userSpaceOnUse">
<stop stop-color="#FFDFA3"/>
<stop offset="0.5" stop-color="#DE9103"/>
<stop offset="1" stop-color="#CC8600"/>
</linearGradient>
<linearGradient id="paint24_linear_7346_9167" x1="0" y1="169.274" x2="24.7187" y2="169.274" gradientUnits="userSpaceOnUse">
<stop stop-color="#FFDFA3"/>
<stop offset="0.5" stop-color="#DE9103"/>
<stop offset="1" stop-color="#CC8600"/>
</linearGradient>
<linearGradient id="paint25_linear_7346_9167" x1="0" y1="184.485" x2="24.7187" y2="184.485" gradientUnits="userSpaceOnUse">
<stop stop-color="#FFDFA3"/>
<stop offset="0.5" stop-color="#DE9103"/>
<stop offset="1" stop-color="#CC8600"/>
</linearGradient>
<linearGradient id="paint26_linear_7346_9167" x1="0" y1="165.471" x2="24.7187" y2="165.471" gradientUnits="userSpaceOnUse">
<stop stop-color="#FFDFA3"/>
<stop offset="0.5" stop-color="#DE9103"/>
<stop offset="1" stop-color="#CC8600"/>
</linearGradient>
<linearGradient id="paint27_linear_7346_9167" x1="0" y1="180.682" x2="24.7187" y2="180.682" gradientUnits="userSpaceOnUse">
<stop stop-color="#FFDFA3"/>
<stop offset="0.5" stop-color="#DE9103"/>
<stop offset="1" stop-color="#CC8600"/>
</linearGradient>
<linearGradient id="paint28_linear_7346_9167" x1="0" y1="161.668" x2="24.7187" y2="161.668" gradientUnits="userSpaceOnUse">
<stop stop-color="#FFDFA3"/>
<stop offset="0.5" stop-color="#DE9103"/>
<stop offset="1" stop-color="#CC8600"/>
</linearGradient>
<linearGradient id="paint29_linear_7346_9167" x1="0" y1="176.879" x2="24.7187" y2="176.879" gradientUnits="userSpaceOnUse">
<stop stop-color="#FFDFA3"/>
<stop offset="0.5" stop-color="#DE9103"/>
<stop offset="1" stop-color="#CC8600"/>
</linearGradient>
<linearGradient id="paint30_linear_7346_9167" x1="0" y1="157.865" x2="24.7187" y2="157.865" gradientUnits="userSpaceOnUse">
<stop stop-color="#FFDFA3"/>
<stop offset="0.5" stop-color="#DE9103"/>
<stop offset="1" stop-color="#CC8600"/>
</linearGradient>
<linearGradient id="paint31_linear_7346_9167" x1="60.6914" y1="198.787" x2="81.2903" y2="198.787" gradientUnits="userSpaceOnUse">
<stop stop-color="#FFDFA3"/>
<stop offset="0.5" stop-color="#DE9103"/>
<stop offset="1" stop-color="#CC8600"/>
</linearGradient>
<linearGradient id="paint32_linear_7346_9167" x1="60.6914" y1="182.941" x2="81.2903" y2="182.941" gradientUnits="userSpaceOnUse">
<stop stop-color="#FFDFA3"/>
<stop offset="0.5" stop-color="#DE9103"/>
<stop offset="1" stop-color="#CC8600"/>
</linearGradient>
<linearGradient id="paint33_linear_7346_9167" x1="60.6914" y1="195.618" x2="81.2903" y2="195.618" gradientUnits="userSpaceOnUse">
<stop stop-color="#FFDFA3"/>
<stop offset="0.5" stop-color="#DE9103"/>
<stop offset="1" stop-color="#CC8600"/>
</linearGradient>
<linearGradient id="paint34_linear_7346_9167" x1="60.6914" y1="179.772" x2="81.2903" y2="179.772" gradientUnits="userSpaceOnUse">
<stop stop-color="#FFDFA3"/>
<stop offset="0.5" stop-color="#DE9103"/>
<stop offset="1" stop-color="#CC8600"/>
</linearGradient>
<linearGradient id="paint35_linear_7346_9167" x1="60.6914" y1="192.449" x2="81.2903" y2="192.449" gradientUnits="userSpaceOnUse">
<stop stop-color="#FFDFA3"/>
<stop offset="0.5" stop-color="#DE9103"/>
<stop offset="1" stop-color="#CC8600"/>
</linearGradient>
<linearGradient id="paint36_linear_7346_9167" x1="60.6914" y1="176.603" x2="81.2903" y2="176.603" gradientUnits="userSpaceOnUse">
<stop stop-color="#FFDFA3"/>
<stop offset="0.5" stop-color="#DE9103"/>
<stop offset="1" stop-color="#CC8600"/>
</linearGradient>
<linearGradient id="paint37_linear_7346_9167" x1="60.6914" y1="189.279" x2="81.2903" y2="189.279" gradientUnits="userSpaceOnUse">
<stop stop-color="#FFDFA3"/>
<stop offset="0.5" stop-color="#DE9103"/>
<stop offset="1" stop-color="#CC8600"/>
</linearGradient>
<linearGradient id="paint38_linear_7346_9167" x1="60.6914" y1="173.434" x2="81.2903" y2="173.434" gradientUnits="userSpaceOnUse">
<stop stop-color="#FFDFA3"/>
<stop offset="0.5" stop-color="#DE9103"/>
<stop offset="1" stop-color="#CC8600"/>
</linearGradient>
<linearGradient id="paint39_linear_7346_9167" x1="60.6914" y1="186.11" x2="81.2903" y2="186.11" gradientUnits="userSpaceOnUse">
<stop stop-color="#FFDFA3"/>
<stop offset="0.5" stop-color="#DE9103"/>
<stop offset="1" stop-color="#CC8600"/>
</linearGradient>
<linearGradient id="paint40_linear_7346_9167" x1="60.6914" y1="170.265" x2="81.2903" y2="170.265" gradientUnits="userSpaceOnUse">
<stop stop-color="#FFDFA3"/>
<stop offset="0.5" stop-color="#DE9103"/>
<stop offset="1" stop-color="#CC8600"/>
</linearGradient>
<linearGradient id="paint41_linear_7346_9167" x1="26.4844" y1="153.721" x2="58.6589" y2="153.721" gradientUnits="userSpaceOnUse">
<stop stop-color="#FFDFA3"/>
<stop offset="0.5" stop-color="#DE9103"/>
<stop offset="1" stop-color="#CC8600"/>
</linearGradient>
<linearGradient id="paint42_linear_7346_9167" x1="26.4844" y1="148.771" x2="58.6589" y2="148.771" gradientUnits="userSpaceOnUse">
<stop stop-color="#FFDFA3"/>
<stop offset="0.5" stop-color="#DE9103"/>
<stop offset="1" stop-color="#CC8600"/>
</linearGradient>
<linearGradient id="paint43_linear_7346_9167" x1="26.4844" y1="143.822" x2="58.6589" y2="143.822" gradientUnits="userSpaceOnUse">
<stop stop-color="#FFDFA3"/>
<stop offset="0.5" stop-color="#DE9103"/>
<stop offset="1" stop-color="#CC8600"/>
</linearGradient>
<linearGradient id="paint44_linear_7346_9167" x1="26.4844" y1="138.871" x2="58.6589" y2="138.871" gradientUnits="userSpaceOnUse">
<stop stop-color="#FFDFA3"/>
<stop offset="0.5" stop-color="#DE9103"/>
<stop offset="1" stop-color="#CC8600"/>
</linearGradient>
<linearGradient id="paint45_linear_7346_9167" x1="26.4844" y1="223.093" x2="58.6589" y2="223.093" gradientUnits="userSpaceOnUse">
<stop stop-color="#FFDFA3"/>
<stop offset="0.5" stop-color="#DE9103"/>
<stop offset="1" stop-color="#CC8600"/>
</linearGradient>
<linearGradient id="paint46_linear_7346_9167" x1="26.4844" y1="218.143" x2="58.6589" y2="218.143" gradientUnits="userSpaceOnUse">
<stop stop-color="#FFDFA3"/>
<stop offset="0.5" stop-color="#DE9103"/>
<stop offset="1" stop-color="#CC8600"/>
</linearGradient>
<linearGradient id="paint47_linear_7346_9167" x1="26.4844" y1="213.194" x2="58.6589" y2="213.194" gradientUnits="userSpaceOnUse">
<stop stop-color="#FFDFA3"/>
<stop offset="0.5" stop-color="#DE9103"/>
<stop offset="1" stop-color="#CC8600"/>
</linearGradient>
<linearGradient id="paint48_linear_7346_9167" x1="26.4844" y1="208.244" x2="58.6589" y2="208.244" gradientUnits="userSpaceOnUse">
<stop stop-color="#FFDFA3"/>
<stop offset="0.5" stop-color="#DE9103"/>
<stop offset="1" stop-color="#CC8600"/>
</linearGradient>
<linearGradient id="paint49_linear_7346_9167" x1="87.1641" y1="204.568" x2="101.817" y2="204.568" gradientUnits="userSpaceOnUse">
<stop stop-color="#FFDFA3"/>
<stop offset="0.5" stop-color="#DE9103"/>
<stop offset="1" stop-color="#7C5201"/>
</linearGradient>
<linearGradient id="paint50_linear_7346_9167" x1="87.1641" y1="202.314" x2="101.817" y2="202.314" gradientUnits="userSpaceOnUse">
<stop stop-color="#FFDFA3"/>
<stop offset="0.5" stop-color="#DE9103"/>
<stop offset="1" stop-color="#7C5201"/>
</linearGradient>
<linearGradient id="paint51_linear_7346_9167" x1="87.1641" y1="200.059" x2="101.817" y2="200.059" gradientUnits="userSpaceOnUse">
<stop stop-color="#FFDFA3"/>
<stop offset="0.5" stop-color="#DE9103"/>
<stop offset="1" stop-color="#7C5201"/>
</linearGradient>
<linearGradient id="paint52_linear_7346_9167" x1="87.1641" y1="197.805" x2="101.817" y2="197.805" gradientUnits="userSpaceOnUse">
<stop stop-color="#FFDFA3"/>
<stop offset="0.5" stop-color="#DE9103"/>
<stop offset="1" stop-color="#7C5201"/>
</linearGradient>
<linearGradient id="paint53_linear_7346_9167" x1="87.1641" y1="195.551" x2="101.817" y2="195.551" gradientUnits="userSpaceOnUse">
<stop stop-color="#FFDFA3"/>
<stop offset="0.5" stop-color="#DE9103"/>
<stop offset="1" stop-color="#7C5201"/>
</linearGradient>
<linearGradient id="paint54_linear_7346_9167" x1="87.1641" y1="193.565" x2="101.817" y2="193.565" gradientUnits="userSpaceOnUse">
<stop stop-color="#FFDFA3"/>
<stop offset="0.5" stop-color="#DE9103"/>
<stop offset="1" stop-color="#7C5201"/>
</linearGradient>
<linearGradient id="paint55_linear_7346_9167" x1="87.1641" y1="191.311" x2="101.817" y2="191.311" gradientUnits="userSpaceOnUse">
<stop stop-color="#FFDFA3"/>
<stop offset="0.5" stop-color="#DE9103"/>
<stop offset="1" stop-color="#7C5201"/>
</linearGradient>
<linearGradient id="paint56_linear_7346_9167" x1="87.1641" y1="189.056" x2="101.817" y2="189.056" gradientUnits="userSpaceOnUse">
<stop stop-color="#FFDFA3"/>
<stop offset="0.5" stop-color="#DE9103"/>
<stop offset="1" stop-color="#7C5201"/>
</linearGradient>
<linearGradient id="paint57_linear_7346_9167" x1="87.1641" y1="186.802" x2="101.817" y2="186.802" gradientUnits="userSpaceOnUse">
<stop stop-color="#FFDFA3"/>
<stop offset="0.5" stop-color="#DE9103"/>
<stop offset="1" stop-color="#7C5201"/>
</linearGradient>
<linearGradient id="paint58_linear_7346_9167" x1="87.1641" y1="184.548" x2="101.817" y2="184.548" gradientUnits="userSpaceOnUse">
<stop stop-color="#FFDFA3"/>
<stop offset="0.5" stop-color="#DE9103"/>
<stop offset="1" stop-color="#7C5201"/>
</linearGradient>
<linearGradient id="paint59_linear_7346_9167" x1="30.4772" y1="118.118" x2="58.0089" y2="131.943" gradientUnits="userSpaceOnUse">
<stop stop-color="#FFF0D3"/>
<stop offset="0.29" stop-color="#E49401"/>
<stop offset="1" stop-color="#FDAD12"/>
</linearGradient>
<linearGradient id="paint60_linear_7346_9167" x1="43.8387" y1="125.834" x2="47.6989" y2="118.147" gradientUnits="userSpaceOnUse">
<stop stop-color="#CD8700"/>
<stop offset="1" stop-color="#621D00"/>
</linearGradient>
<linearGradient id="paint61_linear_7346_9167" x1="59.5343" y1="128.903" x2="32.0033" y2="115.078" gradientUnits="userSpaceOnUse">
<stop stop-color="#B66B17"/>
<stop offset="1" stop-color="#FFB119"/>
</linearGradient>
<linearGradient id="paint62_linear_7346_9167" x1="83.1704" y1="157.019" x2="61.2042" y2="157.019" gradientUnits="userSpaceOnUse">
<stop stop-color="#CF8900"/>
<stop offset="1" stop-color="#694500"/>
</linearGradient>
<linearGradient id="paint63_linear_7346_9167" x1="74.6197" y1="149.209" x2="67.2708" y2="161.869" gradientUnits="userSpaceOnUse">
<stop stop-color="#FFE5B3"/>
<stop offset="0.395" stop-color="#FFB11A"/>
<stop offset="1" stop-color="#F7A300"/>
</linearGradient>
<linearGradient id="paint64_linear_7346_9167" x1="80.3351" y1="159.938" x2="63.0721" y2="150.952" gradientUnits="userSpaceOnUse">
<stop stop-color="#FFBF44"/>
<stop offset="1" stop-color="#FFD179"/>
</linearGradient>
<linearGradient id="paint65_linear_7346_9167" x1="80.3351" y1="159.937" x2="63.0721" y2="150.951" gradientUnits="userSpaceOnUse">
<stop stop-color="#936100"/>
<stop offset="1" stop-color="#FFD179"/>
</linearGradient>
<linearGradient id="paint66_linear_7346_9167" x1="80.8204" y1="160.341" x2="63.5575" y2="151.354" gradientUnits="userSpaceOnUse">
<stop stop-color="#FFBF44"/>
<stop offset="1" stop-color="#FFD179"/>
</linearGradient>
<linearGradient id="paint67_linear_7346_9167" x1="123.221" y1="187.874" x2="203.082" y2="227.724" gradientUnits="userSpaceOnUse">
<stop stop-color="#EEEEEE"/>
<stop offset="1" stop-color="#909090"/>
</linearGradient>
<linearGradient id="paint68_linear_7346_9167" x1="87.684" y1="271.174" x2="87.684" y2="204.142" gradientUnits="userSpaceOnUse">
<stop stop-color="#2C2C2C"/>
<stop offset="1" stop-color="#666666"/>
</linearGradient>
<linearGradient id="paint69_linear_7346_9167" x1="67.1696" y1="20.4656" x2="46.4705" y2="70.4799" gradientUnits="userSpaceOnUse">
<stop stop-color="white"/>
<stop offset="1" stop-color="#DBDBFF"/>
</linearGradient>
<linearGradient id="paint70_linear_7346_9167" x1="71.7396" y1="21.4106" x2="51.2074" y2="71.0216" gradientUnits="userSpaceOnUse">
<stop stop-color="white"/>
<stop offset="1" stop-color="#DBDBFF"/>
</linearGradient>
<linearGradient id="paint71_linear_7346_9167" x1="74.4296" y1="23.4656" x2="54.899" y2="70.6566" gradientUnits="userSpaceOnUse">
<stop stop-color="white"/>
<stop offset="1" stop-color="#DBDBFF"/>
</linearGradient>
<linearGradient id="paint72_linear_7346_9167" x1="76.8496" y1="24.4693" x2="58.6544" y2="68.4336" gradientUnits="userSpaceOnUse">
<stop stop-color="white"/>
<stop offset="1" stop-color="#DBDBFF"/>
</linearGradient>
<linearGradient id="paint73_linear_7346_9167" x1="79.3999" y1="24.5805" x2="62.3733" y2="65.7213" gradientUnits="userSpaceOnUse">
<stop stop-color="white"/>
<stop offset="1" stop-color="#DBDBFF"/>
</linearGradient>
<linearGradient id="paint74_linear_7346_9167" x1="47.7316" y1="15.488" x2="88.0661" y2="32.1815" gradientUnits="userSpaceOnUse">
<stop stop-color="#9D6A19"/>
<stop offset="1" stop-color="#583600"/>
</linearGradient>
<clipPath id="clip0_7346_9167">
<rect width="239.536" height="226" fill="white"/>
</clipPath>
</defs>
</svg>
