<svg width="375" height="335" viewBox="0 0 375 335" fill="none" xmlns="http://www.w3.org/2000/svg">
<g opacity="0.86">
<g opacity="0.82">
<rect x="-6" y="93" width="38" height="99" fill="#B0BDE8"/>
<rect x="-6" y="93" width="38" height="99" fill="#B0BDE8"/>
<rect x="345" y="93" width="38" height="99" fill="#B0BDE8"/>
<rect x="19" y="29" width="38" height="163" fill="#95ABF3"/>
<rect x="150" y="82" width="50" height="102" fill="#AABDFD"/>
<rect x="159" y="100" width="15.2414" height="7.03448" fill="#D6E0FF"/>
<rect x="159" y="109.38" width="15.2414" height="7.03448" fill="#D6E0FF"/>
<rect x="159" y="118.759" width="15.2414" height="7.03448" fill="#D6E0FF"/>
<rect x="159" y="128.139" width="15.2414" height="7.03448" fill="#D6E0FF"/>
<rect x="159" y="137.518" width="15.2414" height="7.03448" fill="#D6E0FF"/>
<rect x="159" y="146.896" width="15.2414" height="7.03448" fill="#D6E0FF"/>
<rect x="159" y="156.276" width="15.2414" height="7.03448" fill="#D6E0FF"/>
<rect x="176.586" y="100" width="15.2414" height="7.03448" fill="#D6E0FF"/>
<rect x="176.586" y="109.38" width="15.2414" height="7.03448" fill="#D6E0FF"/>
<rect x="176.586" y="118.759" width="15.2414" height="7.03448" fill="#D6E0FF"/>
<rect x="176.586" y="128.139" width="15.2414" height="7.03448" fill="#D6E0FF"/>
<rect x="176.586" y="137.518" width="15.2414" height="7.03448" fill="#D6E0FF"/>
<rect x="176.586" y="146.896" width="15.2414" height="7.03448" fill="#D6E0FF"/>
<rect x="176.586" y="156.276" width="15.2414" height="7.03448" fill="#D6E0FF"/>
<rect x="309" y="59" width="46" height="135" fill="#889CDC"/>
<rect x="312" y="51" width="40" height="27" fill="#889CDC"/>
<path d="M332 27L345.856 51H318.144L332 27Z" fill="#889CDC"/>
<rect x="331" width="2" height="35" fill="#889CDC"/>
<rect x="86" y="59" width="46" height="135" fill="#B0C0F5"/>
<rect x="89" y="51" width="40" height="27" fill="#B0C0F5"/>
<path d="M109 27L122.856 51H95.1436L109 27Z" fill="#B0C0F5"/>
<rect x="108" width="2" height="35" fill="#B0C0F5"/>
<rect x="304" y="128" width="38" height="64" fill="#BBCBFF"/>
<rect x="48" y="106" width="46" height="86" fill="#7C92D9"/>
<path d="M211 34.3333L211 152.815L211 169L294 169L294 8L211 34.3333Z" fill="#BCC6E8"/>
<rect x="218" y="49" width="15.2414" height="7.03448" fill="#E1E7FA"/>
<rect x="218" y="58.3789" width="15.2414" height="7.03448" fill="#E1E7FA"/>
<rect x="218" y="67.7578" width="15.2414" height="7.03448" fill="#E1E7FA"/>
<rect x="218" y="77.1377" width="15.2414" height="7.03448" fill="#E1E7FA"/>
<rect x="218" y="86.5166" width="15.2414" height="7.03448" fill="#E1E7FA"/>
<rect x="218" y="95.8965" width="15.2414" height="7.03448" fill="#E1E7FA"/>
<rect x="218" y="105.275" width="15.2414" height="7.03448" fill="#E1E7FA"/>
<rect x="218" y="114.654" width="15.2414" height="7.03448" fill="#E1E7FA"/>
<rect x="218" y="124.034" width="15.2414" height="7.03448" fill="#E1E7FA"/>
<rect x="218" y="133.413" width="15.2414" height="7.03448" fill="#E1E7FA"/>
<rect x="218" y="142.793" width="15.2414" height="7.03448" fill="#E1E7FA"/>
<rect x="235.586" y="49" width="15.2414" height="7.03448" fill="#E1E7FA"/>
<rect x="235.586" y="58.3789" width="15.2414" height="7.03448" fill="#E1E7FA"/>
<rect x="235.586" y="67.7578" width="15.2414" height="7.03448" fill="#E1E7FA"/>
<rect x="235.586" y="77.1377" width="15.2414" height="7.03448" fill="#E1E7FA"/>
<rect x="235.586" y="86.5166" width="15.2414" height="7.03448" fill="#E1E7FA"/>
<rect x="235.586" y="95.8965" width="15.2414" height="7.03448" fill="#E1E7FA"/>
<rect x="235.586" y="105.275" width="15.2414" height="7.03448" fill="#E1E7FA"/>
<rect x="235.586" y="114.654" width="15.2414" height="7.03448" fill="#E1E7FA"/>
<rect x="235.586" y="124.034" width="15.2414" height="7.03448" fill="#E1E7FA"/>
<rect x="235.586" y="133.413" width="15.2414" height="7.03448" fill="#E1E7FA"/>
<rect x="235.586" y="142.793" width="15.2414" height="7.03448" fill="#E1E7FA"/>
<rect x="253.172" y="49" width="15.2414" height="7.03448" fill="#E1E7FA"/>
<rect x="253.172" y="58.3789" width="15.2414" height="7.03448" fill="#E1E7FA"/>
<rect x="253.172" y="67.7578" width="15.2414" height="7.03448" fill="#E1E7FA"/>
<rect x="253.172" y="77.1377" width="15.2414" height="7.03448" fill="#E1E7FA"/>
<rect x="253.172" y="86.5166" width="15.2414" height="7.03448" fill="#E1E7FA"/>
<rect x="253.172" y="95.8965" width="15.2414" height="7.03448" fill="#E1E7FA"/>
<rect x="253.172" y="105.275" width="15.2414" height="7.03448" fill="#E1E7FA"/>
<rect x="253.172" y="114.654" width="15.2414" height="7.03448" fill="#E1E7FA"/>
<rect x="253.172" y="124.034" width="15.2414" height="7.03448" fill="#E1E7FA"/>
<rect x="253.172" y="133.413" width="15.2414" height="7.03448" fill="#E1E7FA"/>
<rect x="253.172" y="142.793" width="15.2414" height="7.03448" fill="#E1E7FA"/>
<rect x="270.759" y="49" width="15.2414" height="7.03448" fill="#E1E7FA"/>
<rect x="270.759" y="58.3789" width="15.2414" height="7.03448" fill="#E1E7FA"/>
<rect x="270.759" y="67.7578" width="15.2414" height="7.03448" fill="#E1E7FA"/>
<rect x="270.759" y="77.1377" width="15.2414" height="7.03448" fill="#E1E7FA"/>
<rect x="270.759" y="86.5166" width="15.2414" height="7.03448" fill="#E1E7FA"/>
<rect x="270.759" y="95.8965" width="15.2414" height="7.03448" fill="#E1E7FA"/>
<rect x="270.759" y="105.275" width="15.2414" height="7.03448" fill="#E1E7FA"/>
<rect x="270.759" y="114.654" width="15.2414" height="7.03448" fill="#E1E7FA"/>
<rect x="270.759" y="124.034" width="15.2414" height="7.03448" fill="#E1E7FA"/>
<rect x="270.759" y="133.413" width="15.2414" height="7.03448" fill="#E1E7FA"/>
<rect x="270.759" y="142.793" width="15.2414" height="7.03448" fill="#E1E7FA"/>
<path d="M95.5 165.433C49.5 139.833 34.5 145.934 19 153.933L-29 178.934L-20.5 276.434L19 282.934H95.5H234.5L387.5 255.434V236.434V165.433C381.667 161.6 362.4 153.933 332 153.933C294 153.933 153 197.433 95.5 165.433Z" fill="#9AA8D5"/>
<path d="M33.7637 160.014C30.9637 160.414 36.7637 172.514 36.7637 172.514C36.7637 172.514 37.5637 173.914 38.7636 173.514C40.2634 173.014 37.2637 159.514 33.7637 160.014Z" fill="#7885B1"/>
<path d="M101.764 159.014C98.9637 159.414 104.764 171.514 104.764 171.514C104.764 171.514 105.564 172.914 106.764 172.514C108.263 172.014 105.264 158.514 101.764 159.014Z" fill="#7885B1"/>
<path d="M97.7637 194.014C94.9637 194.414 100.764 206.514 100.764 206.514C100.764 206.514 101.564 207.914 102.764 207.514C104.263 207.014 101.264 193.514 97.7637 194.014Z" fill="#7885B1"/>
<path d="M344.764 208.014C341.964 208.414 347.764 220.514 347.764 220.514C347.764 220.514 348.564 221.914 349.764 221.514C351.263 221.014 348.264 207.514 344.764 208.014Z" fill="#7885B1"/>
<path d="M355.764 148.014C352.964 148.414 358.764 160.514 358.764 160.514C358.764 160.514 359.564 161.914 360.764 161.514C362.263 161.014 359.264 147.514 355.764 148.014Z" fill="#7885B1"/>
<path d="M44.1999 160.553C41.9492 158.84 37.4055 171.466 37.4055 171.466C37.4055 171.466 36.9704 173.019 38.0977 173.592C39.5068 174.309 47.0134 162.694 44.1999 160.553Z" fill="#7885B1"/>
<path d="M112.2 159.553C109.949 157.84 105.405 170.466 105.405 170.466C105.405 170.466 104.97 172.019 106.098 172.592C107.507 173.309 115.013 161.694 112.2 159.553Z" fill="#7885B1"/>
<path d="M108.2 194.553C105.949 192.84 101.405 205.466 101.405 205.466C101.405 205.466 100.97 207.019 102.098 207.592C103.507 208.309 111.013 196.694 108.2 194.553Z" fill="#7885B1"/>
<path d="M355.2 208.553C352.949 206.84 348.405 219.466 348.405 219.466C348.405 219.466 347.97 221.019 349.098 221.592C350.507 222.309 358.013 210.694 355.2 208.553Z" fill="#7885B1"/>
<path d="M366.2 148.553C363.949 146.84 359.405 159.466 359.405 159.466C359.405 159.466 358.97 161.019 360.098 161.592C361.507 162.309 369.013 150.694 366.2 148.553Z" fill="#7885B1"/>
<rect y="260" width="375" height="75" fill="#D0DBFF"/>
<rect y="239" width="375" height="21" fill="#ACBBEB"/>
</g>
</g>
</svg>
