<svg width="239" height="237" viewBox="0 0 239 237" fill="none" xmlns="http://www.w3.org/2000/svg">
<g clip-path="url(#clip0_7346_8820)">
<path d="M134.188 156.64C133.282 149.136 131.637 141.817 131.637 141.817L150.765 130.415L152.934 141.817C148.713 148.638 141.624 153.455 134.188 156.64Z" fill="black" stroke="black" stroke-width="0.509434" stroke-miterlimit="10"/>
<path d="M134.183 156.642C141.619 153.456 148.708 148.64 152.929 141.818L157.823 167.576C157.823 167.576 132.062 177.449 134.209 170.151C135.089 167.159 134.814 161.857 134.183 156.642Z" fill="url(#paint0_linear_7346_8820)"/>
<path d="M163.405 78.7077C153.985 75.1747 144.205 77.0249 134.394 76.381C145.171 73.8138 165.784 73.0411 172.237 83.1079C171.203 82.9233 170.159 82.7859 169.12 82.6915C167.605 80.9357 165.642 79.5448 163.405 78.7034V78.7077Z" fill="white"/>
<path fill-rule="evenodd" clip-rule="evenodd" d="M108.392 146.604C83.0987 131.519 128.108 86.5816 128.108 86.5816H128.113C128.113 86.5816 136.129 74.978 162.169 87.672C177.63 95.2113 173.429 110.305 167.463 121.325C169.785 122.033 172.591 123.486 172.434 126.361C172.173 131.104 166.866 137.268 159.764 132.927C158.963 133.935 158.472 134.499 158.472 134.499C158.472 134.499 133.686 161.69 108.392 146.604Z" fill="url(#paint1_linear_7346_8820)"/>
<path d="M128.338 78.6428C129.36 77.8744 131.533 77.0673 134.397 76.3848C144.207 77.0244 153.988 75.1785 163.408 78.7115C165.65 79.5529 167.612 80.9395 169.123 82.6996C164.452 82.2746 159.78 82.7468 155.68 83.8629C143.705 87.2843 131.185 89.8815 120.288 85.5801C117.27 80.7935 115.689 77.3592 115.689 77.3592C115.689 77.3592 122.327 83.1503 128.338 78.6471V78.6428Z" fill="#4C4529"/>
<path d="M160.584 125.597C160.584 125.597 162.666 124.906 164.8 124.61C166.719 124.344 168.686 124.399 169.214 125.571" stroke="black" stroke-width="0.509434" stroke-miterlimit="10"/>
<path d="M171.137 96.7402C173.451 91.533 172.253 86.3257 169.123 82.6982C170.162 82.7927 171.206 82.9301 172.24 83.1147C174.151 86.0939 174.821 90.0176 173.632 95.1261C173.632 95.1261 180.999 100.544 180.819 108.133C179.471 102.999 176.616 98.3844 171.133 96.7402H171.137Z" fill="white"/>
<path d="M120.295 85.5776C131.188 89.8791 143.708 87.2819 155.687 83.8605C159.787 82.74 164.459 82.2721 169.13 82.6971C172.26 86.3289 173.458 91.5318 171.144 96.7391C176.622 98.3832 179.478 102.998 180.83 108.132C180.723 112.751 177.825 118.173 168.774 123.677L164.064 124.162L164.618 120.65L165.382 119.71L157.662 124.389L162.269 114.636C141.819 114.786 127.246 96.6017 120.295 85.5776Z" fill="#2B250D"/>
<path d="M164.1 124.718C167.079 124.975 166.77 129.058 166.77 129.058C166.77 129.058 163.232 125.01 162.137 125.147L164.095 124.718H164.1Z" fill="black" stroke="black" stroke-width="0.509434" stroke-miterlimit="10"/>
<path d="M134.528 113.662L134.822 113.832C135.395 114.163 135.591 114.895 135.26 115.468L133.831 117.944C133.5 118.517 132.767 118.713 132.194 118.382L131.901 118.213C131.328 117.882 131.131 117.149 131.462 116.577L132.892 114.101C133.223 113.528 133.955 113.331 134.528 113.662Z" fill="black"/>
<path d="M122.761 106.47L123.054 106.639C123.627 106.97 123.824 107.703 123.493 108.276L122.063 110.752C121.732 111.324 121 111.521 120.427 111.19L120.133 111.02C119.56 110.69 119.364 109.957 119.694 109.384L121.124 106.908C121.455 106.335 122.188 106.139 122.761 106.47Z" fill="black"/>
<path d="M143.447 136.233C138.823 136.233 135.074 132.486 135.074 127.862C135.074 123.239 138.823 119.491 143.447 119.491C148.071 119.491 151.819 123.239 151.819 127.862C151.819 132.486 148.071 136.233 143.447 136.233Z" fill="#FFB18A"/>
<path d="M117.03 126.807C117.03 126.807 126.549 137.947 139.881 128.528" stroke="black" stroke-width="1.01887" stroke-miterlimit="10"/>
<rect x="27.7773" y="210.536" width="33.7442" height="5.19137" fill="url(#paint2_linear_7346_8820)"/>
<rect x="27.7773" y="184.579" width="33.7442" height="5.19137" fill="url(#paint3_linear_7346_8820)"/>
<rect x="27.7773" y="205.345" width="33.7442" height="5.19137" fill="url(#paint4_linear_7346_8820)"/>
<rect x="27.7773" y="179.387" width="33.7442" height="5.19137" fill="url(#paint5_linear_7346_8820)"/>
<rect x="27.7773" y="200.152" width="33.7442" height="5.19137" fill="url(#paint6_linear_7346_8820)"/>
<rect x="27.7773" y="174.196" width="33.7442" height="5.19137" fill="url(#paint7_linear_7346_8820)"/>
<rect x="27.7773" y="194.963" width="33.7442" height="5.19137" fill="url(#paint8_linear_7346_8820)"/>
<rect x="27.7773" y="169.004" width="33.7442" height="5.19137" fill="url(#paint9_linear_7346_8820)"/>
<rect x="27.7773" y="189.771" width="33.7442" height="5.19137" fill="url(#paint10_linear_7346_8820)"/>
<rect x="27.7773" y="163.813" width="33.7442" height="5.19137" fill="url(#paint11_linear_7346_8820)"/>
<line x1="27.7773" y1="210.247" x2="61.5215" y2="210.247" stroke="#FFF1D5" stroke-width="0.577266"/>
<line x1="27.7773" y1="215.516" x2="61.5215" y2="215.516" stroke="#FFF1D5" stroke-width="0.577266"/>
<line x1="27.7773" y1="184.29" x2="61.5215" y2="184.29" stroke="#FFF1D5" stroke-width="0.577266"/>
<line x1="27.7773" y1="205.056" x2="61.5215" y2="205.056" stroke="#FFF1D5" stroke-width="0.577266"/>
<line x1="27.7773" y1="179.098" x2="61.5215" y2="179.098" stroke="#FFF1D5" stroke-width="0.577266"/>
<line x1="27.7773" y1="199.864" x2="61.5215" y2="199.864" stroke="#FFF1D5" stroke-width="0.577266"/>
<line x1="27.7773" y1="173.908" x2="61.5215" y2="173.908" stroke="#FFF1D5" stroke-width="0.577266"/>
<line x1="27.7773" y1="195.106" x2="61.5215" y2="195.106" stroke="#FFF1D5" stroke-width="0.577266"/>
<line x1="27.7773" y1="169.15" x2="61.5215" y2="169.15" stroke="#FFF1D5" stroke-width="0.577266"/>
<line x1="27.7773" y1="189.915" x2="61.5215" y2="189.915" stroke="#FFF1D5" stroke-width="0.577266"/>
<rect y="219.644" width="25.9246" height="3.98837" fill="url(#paint12_linear_7346_8820)"/>
<rect y="235.599" width="25.9246" height="3.98837" fill="url(#paint13_linear_7346_8820)"/>
<rect y="215.657" width="25.9246" height="3.98837" fill="url(#paint14_linear_7346_8820)"/>
<rect y="231.609" width="25.9246" height="3.98837" fill="url(#paint15_linear_7346_8820)"/>
<rect y="211.671" width="25.9246" height="3.98837" fill="url(#paint16_linear_7346_8820)"/>
<rect y="227.623" width="25.9246" height="3.98837" fill="url(#paint17_linear_7346_8820)"/>
<rect y="207.682" width="25.9246" height="3.98837" fill="url(#paint18_linear_7346_8820)"/>
<rect y="223.634" width="25.9246" height="3.98837" fill="url(#paint19_linear_7346_8820)"/>
<rect y="203.691" width="25.9246" height="3.98837" fill="url(#paint20_linear_7346_8820)"/>
<line x1="1.9386e-08" y1="219.422" x2="25.9246" y2="219.422" stroke="#FFF1D5" stroke-width="0.443496"/>
<line x1="1.9386e-08" y1="235.377" x2="25.9246" y2="235.377" stroke="#FFF1D5" stroke-width="0.443496"/>
<line x1="1.9386e-08" y1="215.435" x2="25.9246" y2="215.435" stroke="#FFF1D5" stroke-width="0.443496"/>
<line x1="1.9386e-08" y1="231.388" x2="25.9246" y2="231.388" stroke="#FFF1D5" stroke-width="0.443496"/>
<line x1="1.9386e-08" y1="211.449" x2="25.9246" y2="211.449" stroke="#FFF1D5" stroke-width="0.443496"/>
<line x1="1.9386e-08" y1="227.731" x2="25.9246" y2="227.731" stroke="#FFF1D5" stroke-width="0.443496"/>
<line x1="1.9386e-08" y1="207.79" x2="25.9246" y2="207.79" stroke="#FFF1D5" stroke-width="0.443496"/>
<line x1="1.9386e-08" y1="223.745" x2="25.9246" y2="223.745" stroke="#FFF1D5" stroke-width="0.443496"/>
<rect y="199.465" width="25.9246" height="3.98837" fill="url(#paint21_linear_7346_8820)"/>
<rect y="179.522" width="25.9246" height="3.98837" fill="url(#paint22_linear_7346_8820)"/>
<rect y="195.477" width="25.9246" height="3.98837" fill="url(#paint23_linear_7346_8820)"/>
<rect y="175.535" width="25.9246" height="3.98837" fill="url(#paint24_linear_7346_8820)"/>
<rect y="191.488" width="25.9246" height="3.98837" fill="url(#paint25_linear_7346_8820)"/>
<rect y="171.548" width="25.9246" height="3.98837" fill="url(#paint26_linear_7346_8820)"/>
<rect y="187.498" width="25.9246" height="3.98837" fill="url(#paint27_linear_7346_8820)"/>
<rect y="167.559" width="25.9246" height="3.98837" fill="url(#paint28_linear_7346_8820)"/>
<rect y="183.51" width="25.9246" height="3.98837" fill="url(#paint29_linear_7346_8820)"/>
<rect y="163.569" width="25.9246" height="3.98837" fill="url(#paint30_linear_7346_8820)"/>
<line x1="1.9386e-08" y1="199.243" x2="25.9246" y2="199.243" stroke="#FFF1D5" stroke-width="0.443496"/>
<line x1="1.9386e-08" y1="203.293" x2="25.9246" y2="203.293" stroke="#FFF1D5" stroke-width="0.443496"/>
<line x1="1.9386e-08" y1="179.301" x2="25.9246" y2="179.301" stroke="#FFF1D5" stroke-width="0.443496"/>
<line x1="1.9386e-08" y1="195.255" x2="25.9246" y2="195.255" stroke="#FFF1D5" stroke-width="0.443496"/>
<line x1="1.9386e-08" y1="175.313" x2="25.9246" y2="175.313" stroke="#FFF1D5" stroke-width="0.443496"/>
<line x1="1.9386e-08" y1="191.267" x2="25.9246" y2="191.267" stroke="#FFF1D5" stroke-width="0.443496"/>
<line x1="1.9386e-08" y1="171.326" x2="25.9246" y2="171.326" stroke="#FFF1D5" stroke-width="0.443496"/>
<line x1="1.9386e-08" y1="187.609" x2="25.9246" y2="187.609" stroke="#FFF1D5" stroke-width="0.443496"/>
<line x1="1.9386e-08" y1="167.669" x2="25.9246" y2="167.669" stroke="#FFF1D5" stroke-width="0.443496"/>
<line x1="1.9386e-08" y1="183.623" x2="25.9246" y2="183.623" stroke="#FFF1D5" stroke-width="0.443496"/>
<rect x="63.6533" y="206.822" width="21.6039" height="3.32364" fill="url(#paint31_linear_7346_8820)"/>
<rect x="63.6533" y="190.204" width="21.6039" height="3.32364" fill="url(#paint32_linear_7346_8820)"/>
<rect x="63.6533" y="203.5" width="21.6039" height="3.32364" fill="url(#paint33_linear_7346_8820)"/>
<rect x="63.6533" y="186.882" width="21.6039" height="3.32364" fill="url(#paint34_linear_7346_8820)"/>
<rect x="63.6533" y="200.179" width="21.6039" height="3.32364" fill="url(#paint35_linear_7346_8820)"/>
<rect x="63.6533" y="183.559" width="21.6039" height="3.32364" fill="url(#paint36_linear_7346_8820)"/>
<rect x="63.6533" y="196.854" width="21.6039" height="3.32364" fill="url(#paint37_linear_7346_8820)"/>
<rect x="63.6533" y="180.235" width="21.6039" height="3.32364" fill="url(#paint38_linear_7346_8820)"/>
<rect x="63.6533" y="193.528" width="21.6039" height="3.32364" fill="url(#paint39_linear_7346_8820)"/>
<rect x="63.6533" y="176.911" width="21.6039" height="3.32364" fill="url(#paint40_linear_7346_8820)"/>
<line x1="63.6533" y1="206.637" x2="85.2572" y2="206.637" stroke="#FFF1D5" stroke-width="0.36958"/>
<line x1="63.6533" y1="210.011" x2="85.2572" y2="210.011" stroke="#FFF1D5" stroke-width="0.36958"/>
<line x1="63.6533" y1="190.019" x2="85.2572" y2="190.019" stroke="#FFF1D5" stroke-width="0.36958"/>
<line x1="63.6533" y1="203.315" x2="85.2572" y2="203.315" stroke="#FFF1D5" stroke-width="0.36958"/>
<line x1="63.6533" y1="186.697" x2="85.2572" y2="186.697" stroke="#FFF1D5" stroke-width="0.36958"/>
<line x1="63.6533" y1="199.994" x2="85.2572" y2="199.994" stroke="#FFF1D5" stroke-width="0.36958"/>
<line x1="63.6533" y1="183.374" x2="85.2572" y2="183.374" stroke="#FFF1D5" stroke-width="0.36958"/>
<line x1="63.6533" y1="196.947" x2="85.2572" y2="196.947" stroke="#FFF1D5" stroke-width="0.36958"/>
<line x1="63.6533" y1="180.328" x2="85.2572" y2="180.328" stroke="#FFF1D5" stroke-width="0.36958"/>
<line x1="63.6533" y1="193.623" x2="85.2572" y2="193.623" stroke="#FFF1D5" stroke-width="0.36958"/>
<rect x="27.7773" y="158.622" width="33.7442" height="5.19137" fill="url(#paint41_linear_7346_8820)"/>
<rect x="27.7773" y="153.432" width="33.7442" height="5.19137" fill="url(#paint42_linear_7346_8820)"/>
<rect x="27.7773" y="148.241" width="33.7442" height="5.19137" fill="url(#paint43_linear_7346_8820)"/>
<rect x="27.7773" y="143.05" width="33.7442" height="5.19137" fill="url(#paint44_linear_7346_8820)"/>
<line x1="27.7773" y1="158.333" x2="61.5215" y2="158.333" stroke="#FFF1D5" stroke-width="0.577266"/>
<line x1="27.7773" y1="164.057" x2="61.5215" y2="164.057" stroke="#FFF1D5" stroke-width="0.577266"/>
<line x1="27.7773" y1="153.143" x2="61.5215" y2="153.143" stroke="#FFF1D5" stroke-width="0.577266"/>
<line x1="27.7773" y1="147.953" x2="61.5215" y2="147.953" stroke="#FFF1D5" stroke-width="0.577266"/>
<rect x="27.7773" y="231.381" width="33.7442" height="5.19137" fill="url(#paint45_linear_7346_8820)"/>
<rect x="27.7773" y="226.188" width="33.7442" height="5.19137" fill="url(#paint46_linear_7346_8820)"/>
<rect x="27.7773" y="220.998" width="33.7442" height="5.19137" fill="url(#paint47_linear_7346_8820)"/>
<rect x="27.7773" y="215.807" width="33.7442" height="5.19137" fill="url(#paint48_linear_7346_8820)"/>
<line x1="27.7773" y1="231.092" x2="61.5215" y2="231.092" stroke="#FFF1D5" stroke-width="0.577266"/>
<line x1="27.7773" y1="236.814" x2="61.5215" y2="236.814" stroke="#FFF1D5" stroke-width="0.577266"/>
<line x1="27.7773" y1="225.9" x2="61.5215" y2="225.9" stroke="#FFF1D5" stroke-width="0.577266"/>
<line x1="27.7773" y1="220.709" x2="61.5215" y2="220.709" stroke="#FFF1D5" stroke-width="0.577266"/>
<rect x="91.415" y="213.367" width="15.3678" height="2.36426" fill="url(#paint49_linear_7346_8820)"/>
<rect x="91.415" y="211.002" width="15.3678" height="2.36426" fill="url(#paint50_linear_7346_8820)"/>
<rect x="91.415" y="208.64" width="15.3678" height="2.36426" fill="url(#paint51_linear_7346_8820)"/>
<rect x="91.415" y="206.274" width="15.3678" height="2.36426" fill="url(#paint52_linear_7346_8820)"/>
<rect x="91.415" y="203.91" width="15.3678" height="2.36426" fill="url(#paint53_linear_7346_8820)"/>
<line x1="91.415" y1="213.236" x2="106.783" y2="213.236" stroke="#FFF1D5" stroke-width="0.2629"/>
<line x1="91.415" y1="210.871" x2="106.783" y2="210.87" stroke="#FFF1D5" stroke-width="0.2629"/>
<line x1="91.415" y1="208.508" x2="106.783" y2="208.508" stroke="#FFF1D5" stroke-width="0.2629"/>
<line x1="91.415" y1="206.337" x2="106.783" y2="206.337" stroke="#FFF1D5" stroke-width="0.2629"/>
<line x1="91.415" y1="203.979" x2="106.783" y2="203.979" stroke="#FFF1D5" stroke-width="0.2629"/>
<rect x="91.417" y="201.828" width="15.3678" height="2.36426" fill="url(#paint54_linear_7346_8820)"/>
<rect x="91.417" y="199.461" width="15.3678" height="2.36426" fill="url(#paint55_linear_7346_8820)"/>
<rect x="91.417" y="197.1" width="15.3678" height="2.36426" fill="url(#paint56_linear_7346_8820)"/>
<rect x="91.417" y="194.734" width="15.3678" height="2.36426" fill="url(#paint57_linear_7346_8820)"/>
<rect x="91.417" y="192.37" width="15.3678" height="2.36426" fill="url(#paint58_linear_7346_8820)"/>
<path d="M91.417 201.729L106.785 201.729M91.417 204.052L106.785 204.052" stroke="#FFF1D5" stroke-width="0.2629"/>
<line x1="91.417" y1="199.329" x2="106.785" y2="199.329" stroke="#FFF1D5" stroke-width="0.2629"/>
<line x1="91.417" y1="196.968" x2="106.785" y2="196.968" stroke="#FFF1D5" stroke-width="0.2629"/>
<line x1="91.417" y1="194.799" x2="106.785" y2="194.799" stroke="#FFF1D5" stroke-width="0.2629"/>
<line x1="91.417" y1="192.435" x2="106.785" y2="192.435" stroke="#FFF1D5" stroke-width="0.2629"/>
<path fill-rule="evenodd" clip-rule="evenodd" d="M60.881 138.283C60.868 138.315 60.8537 138.346 60.8381 138.377C59.7202 140.604 52.3502 139.163 44.3769 135.159C36.4035 131.155 30.8461 126.105 31.964 123.878C31.9796 123.847 31.9964 123.817 32.0144 123.787L32.0121 123.786L33.6127 120.599L39.6548 123.633C42.2574 124.348 45.2948 125.525 48.4253 127.097C51.5558 128.669 54.3139 130.402 56.4417 132.062L62.4867 135.098L60.8862 138.285L60.881 138.283Z" fill="url(#paint59_linear_7346_8820)"/>
<path d="M61.9244 134.931C62.0696 134.642 62.053 134.138 61.5933 133.339C61.1472 132.564 60.3567 131.645 59.2549 130.644C57.0574 128.647 53.722 126.411 49.7684 124.425C45.8149 122.44 42.0295 121.1 39.1153 120.531C37.6541 120.245 36.4452 120.16 35.5567 120.265C34.641 120.374 34.2273 120.661 34.0821 120.95C33.9369 121.239 33.9535 121.743 34.4132 122.542C34.8593 123.318 35.6498 124.236 36.7516 125.238C38.9491 127.235 42.2845 129.471 46.2381 131.456C50.1916 133.441 53.977 134.781 56.8912 135.351C58.3524 135.636 59.5613 135.722 60.4498 135.616C61.3655 135.508 61.7792 135.22 61.9244 134.931Z" fill="url(#paint60_linear_7346_8820)" stroke="url(#paint61_linear_7346_8820)" stroke-width="1.15453"/>
<rect width="23.0377" height="2.14946" transform="matrix(0.64027 -0.76815 0.768155 0.640264 66.6611 172.13)" fill="#CF8900"/>
<ellipse cx="11.5189" cy="5.64921" rx="11.5189" ry="5.64921" transform="matrix(0.64027 -0.76815 0.768155 0.640264 63.9941 169.91)" fill="url(#paint62_linear_7346_8820)"/>
<ellipse cx="11.5189" cy="5.64921" rx="11.5189" ry="5.64921" transform="matrix(0.64027 -0.76815 0.768155 0.640264 62.3418 168.532)" fill="url(#paint63_linear_7346_8820)"/>
<ellipse cx="10.1961" cy="4.98784" rx="10.1961" ry="4.98784" transform="matrix(0.64027 -0.76815 0.768155 0.640264 63.6973 167.939)" fill="url(#paint64_linear_7346_8820)"/>
<mask id="mask0_7346_8820" style="mask-type:alpha" maskUnits="userSpaceOnUse" x="66" y="154" width="16" height="18">
<ellipse cx="10.1961" cy="4.98784" rx="10.1961" ry="4.98784" transform="matrix(0.64027 -0.76815 0.768155 0.640264 63.6973 167.937)" fill="url(#paint65_linear_7346_8820)"/>
</mask>
<g mask="url(#mask0_7346_8820)">
<ellipse cx="10.1961" cy="4.98784" rx="10.1961" ry="4.98784" transform="matrix(0.64027 -0.76815 0.768155 0.640264 64.207 168.361)" fill="url(#paint66_linear_7346_8820)"/>
<g filter="url(#filter0_d_7346_8820)">
<path d="M71.6667 166.662L75.5447 158.723L76.4867 158.829L72.6087 166.768L71.6667 166.662ZM72.4514 165.788C71.9238 165.729 71.4485 165.61 71.0254 165.432C70.6051 165.248 70.2969 165.038 70.1007 164.802L71.1222 163.83C71.3168 164.042 71.5767 164.228 71.9021 164.39C72.2364 164.546 72.6015 164.647 72.9971 164.691C73.2986 164.725 73.5527 164.727 73.7596 164.697C73.9755 164.662 74.1508 164.601 74.2855 164.515C74.4202 164.429 74.5178 164.325 74.5783 164.201C74.6553 164.043 74.6467 163.911 74.5526 163.806C74.4612 163.694 74.3162 163.598 74.1176 163.516C73.9217 163.429 73.698 163.344 73.4464 163.263C73.2039 163.176 72.9637 163.078 72.7259 162.968C72.4943 162.858 72.2958 162.729 72.1302 162.58C71.9646 162.431 71.8591 162.246 71.8137 162.028C71.7745 161.809 71.8319 161.542 71.986 161.227C72.151 160.889 72.4014 160.594 72.7371 160.34C73.0819 160.082 73.4982 159.894 73.9862 159.777C74.4832 159.655 75.0426 159.628 75.6644 159.698C76.0789 159.745 76.4651 159.836 76.823 159.971C77.1837 160.101 77.4753 160.27 77.6977 160.479L76.7193 161.465C76.4886 161.273 76.2372 161.123 75.9652 161.015C75.696 160.902 75.4138 160.829 75.1186 160.795C74.8234 160.762 74.5665 160.766 74.3479 160.807C74.1292 160.847 73.9543 160.914 73.8231 161.006C73.6947 161.093 73.5989 161.201 73.5357 161.33C73.4614 161.482 73.47 161.614 73.5614 161.725C73.6555 161.831 73.8019 161.924 74.0005 162.006C74.1991 162.088 74.4197 162.172 74.6622 162.259C74.911 162.346 75.1526 162.442 75.3869 162.545C75.6275 162.649 75.8306 162.776 75.9961 162.926C76.1617 163.075 76.2641 163.259 76.3032 163.477C76.3487 163.696 76.2958 163.96 76.1445 164.27C75.9822 164.602 75.7301 164.895 75.3881 165.147C75.046 165.4 74.6265 165.587 74.1295 165.71C73.6388 165.833 73.0794 165.859 72.4514 165.788Z" fill="#FFEFC5"/>
</g>
</g>
<path d="M125.629 118.834L136.002 125.831C136.719 126.312 137.72 125.883 137.93 125.007L138.853 121.131C138.974 120.62 138.78 120.1 138.368 119.821L127.995 112.824C127.278 112.343 126.278 112.773 126.067 113.648L125.144 117.525C125.024 118.036 125.217 118.555 125.629 118.834Z" stroke="black" stroke-width="1.01887" stroke-miterlimit="10"/>
<path d="M112.317 109.817L120.973 115.955C121.69 116.436 122.691 116.007 122.901 115.131L123.824 111.255C123.944 110.744 123.751 110.224 123.339 109.945L114.683 103.806C113.966 103.326 112.966 103.755 112.755 104.631L111.832 108.507C111.712 109.018 111.905 109.537 112.317 109.817Z" stroke="black" stroke-width="1.01887" stroke-miterlimit="10"/>
<path d="M125.656 114.513L123.265 112.749" stroke="black" stroke-width="1.01887" stroke-miterlimit="10"/>
<path fill-rule="evenodd" clip-rule="evenodd" d="M88.6991 186.896C73.6716 199.775 21.9142 247.22 21.9142 247.22L26.2078 310.612L184.373 293.321C184.373 293.32 184.373 293.32 184.373 293.319L208.668 292.542L250.136 291.212L254 234.546L239.831 197.632C239.831 197.632 221.837 182.898 199.995 171.883C197.071 170.406 194.075 168.998 191.043 167.697C191.043 167.698 191.043 167.698 191.043 167.698C179.881 162.916 168.241 159.637 157.826 160.087C157.826 160.087 143.228 172.73 132.494 164.144C132.494 164.144 103.727 174.018 88.6991 186.896Z" fill="url(#paint67_linear_7346_8820)"/>
<path d="M98.3718 284.399C103.897 273.267 99.0146 241.614 95.8645 224.836C94.6471 218.354 93.6893 214.098 93.6893 214.098L83.0474 280.541L98.3718 284.399Z" fill="url(#paint68_linear_7346_8820)"/>
<ellipse cx="67.898" cy="49.9971" rx="49.9976" ry="49.9971" fill="black"/>
<path d="M67.497 80.6686L33.9899 67.8133C34.7806 54.3784 46.5576 26.3215 52.3473 13.9724L79.6615 25.2766L67.497 80.6686Z" fill="url(#paint69_linear_7346_8820)"/>
<g filter="url(#filter1_d_7346_8820)">
<path d="M74.3684 82.0202L40.3921 68.9745C38.0665 49.7873 49.9612 24.7125 56.1992 14.5736L82.3093 29.007C75.2779 37.8213 74.0856 68.0217 74.3684 82.0202Z" fill="url(#paint70_linear_7346_8820)"/>
</g>
<g filter="url(#filter2_d_7346_8820)">
<path d="M45.7282 69.1981C39.1373 62.7603 50.3 30.8977 56.7052 15.771L83.4189 29.1456C70.6571 52.1533 75.3891 73.9374 79.3503 81.9535L45.7282 69.1981Z" fill="url(#paint71_linear_7346_8820)"/>
</g>
<g filter="url(#filter3_d_7346_8820)">
<path d="M51.0726 67.4499C42.4097 57.8736 52.1004 29.3748 58.0286 16.3225L69.0534 20.8852L85.6866 31.6574C75.2753 51.5434 80.6953 72.0287 84.7068 79.7855L51.0726 67.4499Z" fill="url(#paint72_linear_7346_8820)"/>
</g>
<g filter="url(#filter4_d_7346_8820)">
<path d="M90.1961 77.2926C81.4712 69.964 86.4689 46.6084 90.0584 35.8467L92.1321 29.4438L59.1621 15.7988L55.6924 26.2712C47.5781 51.7255 52.9712 62.9033 56.682 65.3104L90.1961 77.2926Z" fill="url(#paint73_linear_7346_8820)"/>
</g>
<path d="M91.9225 27.8734L55.4466 13.6428C52.4059 12.3844 51.1159 13.5811 50.851 14.3368L48.0482 21.1089L49.1517 21.5656L51.4449 16.0248C51.8933 14.9413 52.6318 14.5451 52.945 14.4824L57.972 16.5629C59.7376 17.2936 59.6078 18.3936 59.3223 18.8523L56.8762 24.7624L90.8075 37.5073L93.1517 31.8434C94.1709 29.3808 92.7569 28.1707 91.9225 27.8734Z" fill="url(#paint74_linear_7346_8820)"/>
<path d="M67.1338 46.3915C65.7762 45.9772 64.843 44.8126 65.5061 42.6689C66.0972 40.7609 67.4594 39.8791 68.9959 40.348C70.2804 40.7399 70.8997 41.8265 70.6921 42.8562L69.1718 42.3923C69.1947 42.026 68.9517 41.7741 68.594 41.665C67.903 41.4541 67.3899 41.9996 67.0897 42.9833L67.1222 42.9932C67.5217 42.5286 68.2226 42.387 68.8973 42.5929C69.9623 42.9179 70.4452 43.9272 70.1153 45.0085C69.7307 46.2686 68.5159 46.8132 67.1338 46.3915ZM67.4854 45.2102C67.9732 45.359 68.4426 45.1024 68.5939 44.6064C68.7477 44.1024 68.5098 43.6299 68.0139 43.4786C67.5261 43.3297 67.0567 43.5864 66.9029 44.0904C66.7516 44.5863 66.9977 45.0613 67.4854 45.2102ZM72.6601 48.0778C71.0748 47.594 70.426 46.1964 71.014 44.2696C71.6044 42.3348 72.9206 41.5456 74.5059 42.0293C76.0912 42.5131 76.7399 43.9108 76.152 45.8375C75.5615 47.7723 74.2454 48.5615 72.6601 48.0778ZM73.0397 46.834C73.6112 46.9995 74.1684 46.6007 74.5504 45.3488C74.9225 44.1293 74.6954 43.4468 74.1263 43.2732C73.5572 43.0995 72.9958 43.5414 72.6155 44.7583C72.2335 46.0103 72.4731 46.6522 73.0397 46.834ZM60.3339 52.5918L58.0983 51.9096L59.8944 46.0237L62.1138 46.7009C63.9268 47.2542 64.7194 48.7046 64.1587 50.5419C63.598 52.3792 62.1306 53.14 60.3339 52.5918ZM60.0448 51.0639L60.6789 51.2574C61.5895 51.5353 62.2182 51.3095 62.5978 50.0656C62.9774 48.8218 62.5818 48.2834 61.6306 47.9931L61.0372 47.8121L60.0448 51.0639ZM64.1105 52.4112C64.4082 51.4356 65.2458 51.2825 66.1656 51.5009L67.2105 51.7753L67.3196 51.4176C67.3941 51.1737 67.233 50.9735 66.9322 50.8817C66.6151 50.785 66.3697 50.8611 66.2447 51.1252L64.822 50.691C65.1245 49.9035 65.9808 49.4272 67.2816 49.8242C68.5092 50.1988 69.1142 51.041 68.8537 51.8946L67.9332 54.9107L66.4943 54.4716L66.6828 53.8538L66.6503 53.8438C66.2438 54.2441 65.7403 54.3215 65.155 54.1429C64.3095 53.8849 63.8425 53.2892 64.1105 52.4112ZM65.5848 52.7633C65.5054 53.0235 65.6665 53.2237 65.9511 53.3105C66.3331 53.4271 66.7653 53.2924 66.8837 52.8753L66.9556 52.6395C66.7999 52.5965 66.3885 52.4887 66.179 52.447C65.8927 52.3952 65.6568 52.5276 65.5848 52.7633ZM68.8398 57.0002C68.5471 56.9109 68.2894 56.8234 68.0911 56.7451L68.4409 55.5988C68.6474 55.6796 68.8425 55.7391 69.0132 55.7912C69.2327 55.8582 69.3946 55.881 69.5485 55.6969L69.6059 55.6255L69.4573 50.5503L71.0588 51.039L70.8584 54.3459L70.9071 54.3608L72.6035 51.5103L74.2131 52.0015L71.1235 56.3019C70.6563 56.9591 69.9779 57.3475 68.8398 57.0002ZM76.7363 54.3266C76.7881 54.0403 76.58 53.7902 76.2548 53.691C75.9622 53.6017 75.6917 53.6435 75.6403 53.8411C75.59 53.9768 75.6584 54.131 75.9882 54.3028L76.8166 54.7333C77.6693 55.1712 77.9836 55.6848 77.7933 56.3377C77.4998 57.2701 76.4326 57.5931 75.2213 57.2235C73.888 56.8167 73.2968 55.9875 73.4803 55.066L75.0086 55.5324C74.9706 55.8318 75.173 56.0713 75.547 56.1854C75.8559 56.2797 76.1101 56.2328 76.1778 56.0402C76.2242 55.8589 76.0995 55.7142 75.7617 55.54L75.0315 55.1661C74.1869 54.7306 73.8762 54.1471 74.0846 53.4642C74.3625 52.5536 75.2936 52.269 76.5374 52.6486C77.7894 53.0306 78.393 53.8191 78.1508 54.7583L76.7363 54.3266Z" fill="black"/>
<path d="M93.2051 92.2803C93.9458 99.1935 99.2748 102.156 101.847 102.773C93.9458 103.761 86.4153 98.4528 83.6377 95.6751L93.2051 92.2803Z" fill="black"/>
</g>
<defs>
<filter id="filter0_d_7346_8820" x="66.5403" y="158.723" width="14.7173" height="15.7943" filterUnits="userSpaceOnUse" color-interpolation-filters="sRGB">
<feFlood flood-opacity="0" result="BackgroundImageFix"/>
<feColorMatrix in="SourceAlpha" type="matrix" values="0 0 0 0 0 0 0 0 0 0 0 0 0 0 0 0 0 0 127 0" result="hardAlpha"/>
<feOffset dy="4.1886"/>
<feGaussianBlur stdDeviation="1.78015"/>
<feComposite in2="hardAlpha" operator="out"/>
<feColorMatrix type="matrix" values="0 0 0 0 0.774333 0 0 0 0 0.511258 0 0 0 0 0 0 0 0 1 0"/>
<feBlend mode="normal" in2="BackgroundImageFix" result="effect1_dropShadow_7346_8820"/>
<feBlend mode="normal" in="SourceGraphic" in2="effect1_dropShadow_7346_8820" result="shape"/>
</filter>
<filter id="filter1_d_7346_8820" x="36.1117" y="12.422" width="50.1809" height="75.4123" filterUnits="userSpaceOnUse" color-interpolation-filters="sRGB">
<feFlood flood-opacity="0" result="BackgroundImageFix"/>
<feColorMatrix in="SourceAlpha" type="matrix" values="0 0 0 0 0 0 0 0 0 0 0 0 0 0 0 0 0 0 127 0" result="hardAlpha"/>
<feOffset dy="1.83127"/>
<feGaussianBlur stdDeviation="1.9915"/>
<feComposite in2="hardAlpha" operator="out"/>
<feColorMatrix type="matrix" values="0 0 0 0 0 0 0 0 0 0 0 0 0 0 0 0 0 0 0.25 0"/>
<feBlend mode="normal" in2="BackgroundImageFix" result="effect1_dropShadow_7346_8820"/>
<feBlend mode="normal" in="SourceGraphic" in2="effect1_dropShadow_7346_8820" result="shape"/>
</filter>
<filter id="filter2_d_7346_8820" x="39.7318" y="13.6193" width="47.6701" height="74.1486" filterUnits="userSpaceOnUse" color-interpolation-filters="sRGB">
<feFlood flood-opacity="0" result="BackgroundImageFix"/>
<feColorMatrix in="SourceAlpha" type="matrix" values="0 0 0 0 0 0 0 0 0 0 0 0 0 0 0 0 0 0 127 0" result="hardAlpha"/>
<feOffset dy="1.83127"/>
<feGaussianBlur stdDeviation="1.9915"/>
<feComposite in2="hardAlpha" operator="out"/>
<feColorMatrix type="matrix" values="0 0 0 0 0 0 0 0 0 0 0 0 0 0 0 0 0 0 0.25 0"/>
<feBlend mode="normal" in2="BackgroundImageFix" result="effect1_dropShadow_7346_8820"/>
<feBlend mode="normal" in="SourceGraphic" in2="effect1_dropShadow_7346_8820" result="shape"/>
</filter>
<filter id="filter3_d_7346_8820" x="43.643" y="14.1705" width="46.0266" height="71.4294" filterUnits="userSpaceOnUse" color-interpolation-filters="sRGB">
<feFlood flood-opacity="0" result="BackgroundImageFix"/>
<feColorMatrix in="SourceAlpha" type="matrix" values="0 0 0 0 0 0 0 0 0 0 0 0 0 0 0 0 0 0 127 0" result="hardAlpha"/>
<feOffset dy="1.83127"/>
<feGaussianBlur stdDeviation="1.9915"/>
<feComposite in2="hardAlpha" operator="out"/>
<feColorMatrix type="matrix" values="0 0 0 0 0 0 0 0 0 0 0 0 0 0 0 0 0 0 0.25 0"/>
<feBlend mode="normal" in2="BackgroundImageFix" result="effect1_dropShadow_7346_8820"/>
<feBlend mode="normal" in="SourceGraphic" in2="effect1_dropShadow_7346_8820" result="shape"/>
</filter>
<filter id="filter4_d_7346_8820" x="47.477" y="13.6471" width="48.6379" height="69.4597" filterUnits="userSpaceOnUse" color-interpolation-filters="sRGB">
<feFlood flood-opacity="0" result="BackgroundImageFix"/>
<feColorMatrix in="SourceAlpha" type="matrix" values="0 0 0 0 0 0 0 0 0 0 0 0 0 0 0 0 0 0 127 0" result="hardAlpha"/>
<feOffset dy="1.83127"/>
<feGaussianBlur stdDeviation="1.9915"/>
<feComposite in2="hardAlpha" operator="out"/>
<feColorMatrix type="matrix" values="0 0 0 0 0 0 0 0 0 0 0 0 0 0 0 0 0 0 0.25 0"/>
<feBlend mode="normal" in2="BackgroundImageFix" result="effect1_dropShadow_7346_8820"/>
<feBlend mode="normal" in="SourceGraphic" in2="effect1_dropShadow_7346_8820" result="shape"/>
</filter>
<linearGradient id="paint0_linear_7346_8820" x1="140.514" y1="161.129" x2="154.15" y2="171.572" gradientUnits="userSpaceOnUse">
<stop stop-color="#FFF7D8"/>
<stop offset="1" stop-color="#FF9292"/>
</linearGradient>
<linearGradient id="paint1_linear_7346_8820" x1="145.983" y1="98.1424" x2="162.474" y2="187.397" gradientUnits="userSpaceOnUse">
<stop stop-color="#FFF7D8"/>
<stop offset="1" stop-color="#FF9292"/>
</linearGradient>
<linearGradient id="paint2_linear_7346_8820" x1="27.7773" y1="213.132" x2="61.5215" y2="213.132" gradientUnits="userSpaceOnUse">
<stop stop-color="#FFDFA3"/>
<stop offset="0.5" stop-color="#DE9103"/>
<stop offset="1" stop-color="#CC8600"/>
</linearGradient>
<linearGradient id="paint3_linear_7346_8820" x1="27.7773" y1="187.175" x2="61.5215" y2="187.175" gradientUnits="userSpaceOnUse">
<stop stop-color="#FFDFA3"/>
<stop offset="0.5" stop-color="#DE9103"/>
<stop offset="1" stop-color="#CC8600"/>
</linearGradient>
<linearGradient id="paint4_linear_7346_8820" x1="27.7773" y1="207.94" x2="61.5215" y2="207.94" gradientUnits="userSpaceOnUse">
<stop stop-color="#FFDFA3"/>
<stop offset="0.5" stop-color="#DE9103"/>
<stop offset="1" stop-color="#CC8600"/>
</linearGradient>
<linearGradient id="paint5_linear_7346_8820" x1="27.7773" y1="181.982" x2="61.5215" y2="181.982" gradientUnits="userSpaceOnUse">
<stop stop-color="#FFDFA3"/>
<stop offset="0.5" stop-color="#DE9103"/>
<stop offset="1" stop-color="#CC8600"/>
</linearGradient>
<linearGradient id="paint6_linear_7346_8820" x1="27.7773" y1="202.748" x2="61.5215" y2="202.748" gradientUnits="userSpaceOnUse">
<stop stop-color="#FFDFA3"/>
<stop offset="0.5" stop-color="#DE9103"/>
<stop offset="1" stop-color="#CC8600"/>
</linearGradient>
<linearGradient id="paint7_linear_7346_8820" x1="27.7773" y1="176.792" x2="61.5215" y2="176.792" gradientUnits="userSpaceOnUse">
<stop stop-color="#FFDFA3"/>
<stop offset="0.5" stop-color="#DE9103"/>
<stop offset="1" stop-color="#CC8600"/>
</linearGradient>
<linearGradient id="paint8_linear_7346_8820" x1="27.7773" y1="197.559" x2="61.5215" y2="197.559" gradientUnits="userSpaceOnUse">
<stop stop-color="#FFDFA3"/>
<stop offset="0.5" stop-color="#DE9103"/>
<stop offset="1" stop-color="#CC8600"/>
</linearGradient>
<linearGradient id="paint9_linear_7346_8820" x1="27.7773" y1="171.6" x2="61.5215" y2="171.6" gradientUnits="userSpaceOnUse">
<stop stop-color="#FFDFA3"/>
<stop offset="0.5" stop-color="#DE9103"/>
<stop offset="1" stop-color="#CC8600"/>
</linearGradient>
<linearGradient id="paint10_linear_7346_8820" x1="27.7773" y1="192.367" x2="61.5215" y2="192.367" gradientUnits="userSpaceOnUse">
<stop stop-color="#FFDFA3"/>
<stop offset="0.5" stop-color="#DE9103"/>
<stop offset="1" stop-color="#CC8600"/>
</linearGradient>
<linearGradient id="paint11_linear_7346_8820" x1="27.7773" y1="166.409" x2="61.5215" y2="166.409" gradientUnits="userSpaceOnUse">
<stop stop-color="#FFDFA3"/>
<stop offset="0.5" stop-color="#DE9103"/>
<stop offset="1" stop-color="#CC8600"/>
</linearGradient>
<linearGradient id="paint12_linear_7346_8820" x1="0" y1="221.638" x2="25.9246" y2="221.638" gradientUnits="userSpaceOnUse">
<stop stop-color="#FFDFA3"/>
<stop offset="0.5" stop-color="#DE9103"/>
<stop offset="1" stop-color="#CC8600"/>
</linearGradient>
<linearGradient id="paint13_linear_7346_8820" x1="0" y1="237.593" x2="25.9246" y2="237.593" gradientUnits="userSpaceOnUse">
<stop stop-color="#FFDFA3"/>
<stop offset="0.5" stop-color="#DE9103"/>
<stop offset="1" stop-color="#CC8600"/>
</linearGradient>
<linearGradient id="paint14_linear_7346_8820" x1="0" y1="217.651" x2="25.9246" y2="217.651" gradientUnits="userSpaceOnUse">
<stop stop-color="#FFDFA3"/>
<stop offset="0.5" stop-color="#DE9103"/>
<stop offset="1" stop-color="#CC8600"/>
</linearGradient>
<linearGradient id="paint15_linear_7346_8820" x1="0" y1="233.604" x2="25.9246" y2="233.604" gradientUnits="userSpaceOnUse">
<stop stop-color="#FFDFA3"/>
<stop offset="0.5" stop-color="#DE9103"/>
<stop offset="1" stop-color="#CC8600"/>
</linearGradient>
<linearGradient id="paint16_linear_7346_8820" x1="0" y1="213.665" x2="25.9246" y2="213.665" gradientUnits="userSpaceOnUse">
<stop stop-color="#FFDFA3"/>
<stop offset="0.5" stop-color="#DE9103"/>
<stop offset="1" stop-color="#CC8600"/>
</linearGradient>
<linearGradient id="paint17_linear_7346_8820" x1="0" y1="229.617" x2="25.9246" y2="229.617" gradientUnits="userSpaceOnUse">
<stop stop-color="#FFDFA3"/>
<stop offset="0.5" stop-color="#DE9103"/>
<stop offset="1" stop-color="#CC8600"/>
</linearGradient>
<linearGradient id="paint18_linear_7346_8820" x1="0" y1="209.676" x2="25.9246" y2="209.676" gradientUnits="userSpaceOnUse">
<stop stop-color="#FFDFA3"/>
<stop offset="0.5" stop-color="#DE9103"/>
<stop offset="1" stop-color="#CC8600"/>
</linearGradient>
<linearGradient id="paint19_linear_7346_8820" x1="0" y1="225.628" x2="25.9246" y2="225.628" gradientUnits="userSpaceOnUse">
<stop stop-color="#FFDFA3"/>
<stop offset="0.5" stop-color="#DE9103"/>
<stop offset="1" stop-color="#CC8600"/>
</linearGradient>
<linearGradient id="paint20_linear_7346_8820" x1="0" y1="205.686" x2="25.9246" y2="205.686" gradientUnits="userSpaceOnUse">
<stop stop-color="#FFDFA3"/>
<stop offset="0.5" stop-color="#DE9103"/>
<stop offset="1" stop-color="#CC8600"/>
</linearGradient>
<linearGradient id="paint21_linear_7346_8820" x1="0" y1="201.459" x2="25.9246" y2="201.459" gradientUnits="userSpaceOnUse">
<stop stop-color="#FFDFA3"/>
<stop offset="0.5" stop-color="#DE9103"/>
<stop offset="1" stop-color="#CC8600"/>
</linearGradient>
<linearGradient id="paint22_linear_7346_8820" x1="0" y1="181.517" x2="25.9246" y2="181.517" gradientUnits="userSpaceOnUse">
<stop stop-color="#FFDFA3"/>
<stop offset="0.5" stop-color="#DE9103"/>
<stop offset="1" stop-color="#CC8600"/>
</linearGradient>
<linearGradient id="paint23_linear_7346_8820" x1="0" y1="197.471" x2="25.9246" y2="197.471" gradientUnits="userSpaceOnUse">
<stop stop-color="#FFDFA3"/>
<stop offset="0.5" stop-color="#DE9103"/>
<stop offset="1" stop-color="#CC8600"/>
</linearGradient>
<linearGradient id="paint24_linear_7346_8820" x1="0" y1="177.529" x2="25.9246" y2="177.529" gradientUnits="userSpaceOnUse">
<stop stop-color="#FFDFA3"/>
<stop offset="0.5" stop-color="#DE9103"/>
<stop offset="1" stop-color="#CC8600"/>
</linearGradient>
<linearGradient id="paint25_linear_7346_8820" x1="0" y1="193.482" x2="25.9246" y2="193.482" gradientUnits="userSpaceOnUse">
<stop stop-color="#FFDFA3"/>
<stop offset="0.5" stop-color="#DE9103"/>
<stop offset="1" stop-color="#CC8600"/>
</linearGradient>
<linearGradient id="paint26_linear_7346_8820" x1="0" y1="173.542" x2="25.9246" y2="173.542" gradientUnits="userSpaceOnUse">
<stop stop-color="#FFDFA3"/>
<stop offset="0.5" stop-color="#DE9103"/>
<stop offset="1" stop-color="#CC8600"/>
</linearGradient>
<linearGradient id="paint27_linear_7346_8820" x1="0" y1="189.492" x2="25.9246" y2="189.492" gradientUnits="userSpaceOnUse">
<stop stop-color="#FFDFA3"/>
<stop offset="0.5" stop-color="#DE9103"/>
<stop offset="1" stop-color="#CC8600"/>
</linearGradient>
<linearGradient id="paint28_linear_7346_8820" x1="0" y1="169.553" x2="25.9246" y2="169.553" gradientUnits="userSpaceOnUse">
<stop stop-color="#FFDFA3"/>
<stop offset="0.5" stop-color="#DE9103"/>
<stop offset="1" stop-color="#CC8600"/>
</linearGradient>
<linearGradient id="paint29_linear_7346_8820" x1="0" y1="185.504" x2="25.9246" y2="185.504" gradientUnits="userSpaceOnUse">
<stop stop-color="#FFDFA3"/>
<stop offset="0.5" stop-color="#DE9103"/>
<stop offset="1" stop-color="#CC8600"/>
</linearGradient>
<linearGradient id="paint30_linear_7346_8820" x1="0" y1="165.564" x2="25.9246" y2="165.564" gradientUnits="userSpaceOnUse">
<stop stop-color="#FFDFA3"/>
<stop offset="0.5" stop-color="#DE9103"/>
<stop offset="1" stop-color="#CC8600"/>
</linearGradient>
<linearGradient id="paint31_linear_7346_8820" x1="63.6533" y1="208.484" x2="85.2572" y2="208.484" gradientUnits="userSpaceOnUse">
<stop stop-color="#FFDFA3"/>
<stop offset="0.5" stop-color="#DE9103"/>
<stop offset="1" stop-color="#CC8600"/>
</linearGradient>
<linearGradient id="paint32_linear_7346_8820" x1="63.6533" y1="191.866" x2="85.2572" y2="191.866" gradientUnits="userSpaceOnUse">
<stop stop-color="#FFDFA3"/>
<stop offset="0.5" stop-color="#DE9103"/>
<stop offset="1" stop-color="#CC8600"/>
</linearGradient>
<linearGradient id="paint33_linear_7346_8820" x1="63.6533" y1="205.162" x2="85.2572" y2="205.162" gradientUnits="userSpaceOnUse">
<stop stop-color="#FFDFA3"/>
<stop offset="0.5" stop-color="#DE9103"/>
<stop offset="1" stop-color="#CC8600"/>
</linearGradient>
<linearGradient id="paint34_linear_7346_8820" x1="63.6533" y1="188.544" x2="85.2572" y2="188.544" gradientUnits="userSpaceOnUse">
<stop stop-color="#FFDFA3"/>
<stop offset="0.5" stop-color="#DE9103"/>
<stop offset="1" stop-color="#CC8600"/>
</linearGradient>
<linearGradient id="paint35_linear_7346_8820" x1="63.6533" y1="201.841" x2="85.2572" y2="201.841" gradientUnits="userSpaceOnUse">
<stop stop-color="#FFDFA3"/>
<stop offset="0.5" stop-color="#DE9103"/>
<stop offset="1" stop-color="#CC8600"/>
</linearGradient>
<linearGradient id="paint36_linear_7346_8820" x1="63.6533" y1="185.22" x2="85.2572" y2="185.22" gradientUnits="userSpaceOnUse">
<stop stop-color="#FFDFA3"/>
<stop offset="0.5" stop-color="#DE9103"/>
<stop offset="1" stop-color="#CC8600"/>
</linearGradient>
<linearGradient id="paint37_linear_7346_8820" x1="63.6533" y1="198.515" x2="85.2572" y2="198.515" gradientUnits="userSpaceOnUse">
<stop stop-color="#FFDFA3"/>
<stop offset="0.5" stop-color="#DE9103"/>
<stop offset="1" stop-color="#CC8600"/>
</linearGradient>
<linearGradient id="paint38_linear_7346_8820" x1="63.6533" y1="181.897" x2="85.2572" y2="181.897" gradientUnits="userSpaceOnUse">
<stop stop-color="#FFDFA3"/>
<stop offset="0.5" stop-color="#DE9103"/>
<stop offset="1" stop-color="#CC8600"/>
</linearGradient>
<linearGradient id="paint39_linear_7346_8820" x1="63.6533" y1="195.19" x2="85.2572" y2="195.19" gradientUnits="userSpaceOnUse">
<stop stop-color="#FFDFA3"/>
<stop offset="0.5" stop-color="#DE9103"/>
<stop offset="1" stop-color="#CC8600"/>
</linearGradient>
<linearGradient id="paint40_linear_7346_8820" x1="63.6533" y1="178.573" x2="85.2572" y2="178.573" gradientUnits="userSpaceOnUse">
<stop stop-color="#FFDFA3"/>
<stop offset="0.5" stop-color="#DE9103"/>
<stop offset="1" stop-color="#CC8600"/>
</linearGradient>
<linearGradient id="paint41_linear_7346_8820" x1="27.7773" y1="161.218" x2="61.5215" y2="161.218" gradientUnits="userSpaceOnUse">
<stop stop-color="#FFDFA3"/>
<stop offset="0.5" stop-color="#DE9103"/>
<stop offset="1" stop-color="#CC8600"/>
</linearGradient>
<linearGradient id="paint42_linear_7346_8820" x1="27.7773" y1="156.027" x2="61.5215" y2="156.027" gradientUnits="userSpaceOnUse">
<stop stop-color="#FFDFA3"/>
<stop offset="0.5" stop-color="#DE9103"/>
<stop offset="1" stop-color="#CC8600"/>
</linearGradient>
<linearGradient id="paint43_linear_7346_8820" x1="27.7773" y1="150.837" x2="61.5215" y2="150.837" gradientUnits="userSpaceOnUse">
<stop stop-color="#FFDFA3"/>
<stop offset="0.5" stop-color="#DE9103"/>
<stop offset="1" stop-color="#CC8600"/>
</linearGradient>
<linearGradient id="paint44_linear_7346_8820" x1="27.7773" y1="145.645" x2="61.5215" y2="145.645" gradientUnits="userSpaceOnUse">
<stop stop-color="#FFDFA3"/>
<stop offset="0.5" stop-color="#DE9103"/>
<stop offset="1" stop-color="#CC8600"/>
</linearGradient>
<linearGradient id="paint45_linear_7346_8820" x1="27.7773" y1="233.977" x2="61.5215" y2="233.977" gradientUnits="userSpaceOnUse">
<stop stop-color="#FFDFA3"/>
<stop offset="0.5" stop-color="#DE9103"/>
<stop offset="1" stop-color="#CC8600"/>
</linearGradient>
<linearGradient id="paint46_linear_7346_8820" x1="27.7773" y1="228.784" x2="61.5215" y2="228.784" gradientUnits="userSpaceOnUse">
<stop stop-color="#FFDFA3"/>
<stop offset="0.5" stop-color="#DE9103"/>
<stop offset="1" stop-color="#CC8600"/>
</linearGradient>
<linearGradient id="paint47_linear_7346_8820" x1="27.7773" y1="223.594" x2="61.5215" y2="223.594" gradientUnits="userSpaceOnUse">
<stop stop-color="#FFDFA3"/>
<stop offset="0.5" stop-color="#DE9103"/>
<stop offset="1" stop-color="#CC8600"/>
</linearGradient>
<linearGradient id="paint48_linear_7346_8820" x1="27.7773" y1="218.402" x2="61.5215" y2="218.402" gradientUnits="userSpaceOnUse">
<stop stop-color="#FFDFA3"/>
<stop offset="0.5" stop-color="#DE9103"/>
<stop offset="1" stop-color="#CC8600"/>
</linearGradient>
<linearGradient id="paint49_linear_7346_8820" x1="91.415" y1="214.549" x2="106.783" y2="214.549" gradientUnits="userSpaceOnUse">
<stop stop-color="#FFDFA3"/>
<stop offset="0.5" stop-color="#DE9103"/>
<stop offset="1" stop-color="#7C5201"/>
</linearGradient>
<linearGradient id="paint50_linear_7346_8820" x1="91.415" y1="212.184" x2="106.783" y2="212.184" gradientUnits="userSpaceOnUse">
<stop stop-color="#FFDFA3"/>
<stop offset="0.5" stop-color="#DE9103"/>
<stop offset="1" stop-color="#7C5201"/>
</linearGradient>
<linearGradient id="paint51_linear_7346_8820" x1="91.415" y1="209.822" x2="106.783" y2="209.822" gradientUnits="userSpaceOnUse">
<stop stop-color="#FFDFA3"/>
<stop offset="0.5" stop-color="#DE9103"/>
<stop offset="1" stop-color="#7C5201"/>
</linearGradient>
<linearGradient id="paint52_linear_7346_8820" x1="91.415" y1="207.457" x2="106.783" y2="207.457" gradientUnits="userSpaceOnUse">
<stop stop-color="#FFDFA3"/>
<stop offset="0.5" stop-color="#DE9103"/>
<stop offset="1" stop-color="#7C5201"/>
</linearGradient>
<linearGradient id="paint53_linear_7346_8820" x1="91.415" y1="205.092" x2="106.783" y2="205.092" gradientUnits="userSpaceOnUse">
<stop stop-color="#FFDFA3"/>
<stop offset="0.5" stop-color="#DE9103"/>
<stop offset="1" stop-color="#7C5201"/>
</linearGradient>
<linearGradient id="paint54_linear_7346_8820" x1="91.417" y1="203.01" x2="106.785" y2="203.01" gradientUnits="userSpaceOnUse">
<stop stop-color="#FFDFA3"/>
<stop offset="0.5" stop-color="#DE9103"/>
<stop offset="1" stop-color="#7C5201"/>
</linearGradient>
<linearGradient id="paint55_linear_7346_8820" x1="91.417" y1="200.643" x2="106.785" y2="200.643" gradientUnits="userSpaceOnUse">
<stop stop-color="#FFDFA3"/>
<stop offset="0.5" stop-color="#DE9103"/>
<stop offset="1" stop-color="#7C5201"/>
</linearGradient>
<linearGradient id="paint56_linear_7346_8820" x1="91.417" y1="198.282" x2="106.785" y2="198.282" gradientUnits="userSpaceOnUse">
<stop stop-color="#FFDFA3"/>
<stop offset="0.5" stop-color="#DE9103"/>
<stop offset="1" stop-color="#7C5201"/>
</linearGradient>
<linearGradient id="paint57_linear_7346_8820" x1="91.417" y1="195.917" x2="106.785" y2="195.917" gradientUnits="userSpaceOnUse">
<stop stop-color="#FFDFA3"/>
<stop offset="0.5" stop-color="#DE9103"/>
<stop offset="1" stop-color="#7C5201"/>
</linearGradient>
<linearGradient id="paint58_linear_7346_8820" x1="91.417" y1="193.552" x2="106.785" y2="193.552" gradientUnits="userSpaceOnUse">
<stop stop-color="#FFDFA3"/>
<stop offset="0.5" stop-color="#DE9103"/>
<stop offset="1" stop-color="#7C5201"/>
</linearGradient>
<linearGradient id="paint59_linear_7346_8820" x1="31.964" y1="123.878" x2="60.8393" y2="138.378" gradientUnits="userSpaceOnUse">
<stop stop-color="#FFF0D3"/>
<stop offset="0.29" stop-color="#E49401"/>
<stop offset="1" stop-color="#FDAD12"/>
</linearGradient>
<linearGradient id="paint60_linear_7346_8820" x1="45.979" y1="131.972" x2="50.0274" y2="123.909" gradientUnits="userSpaceOnUse">
<stop stop-color="#CD8700"/>
<stop offset="1" stop-color="#621D00"/>
</linearGradient>
<linearGradient id="paint61_linear_7346_8820" x1="62.4403" y1="135.19" x2="33.5663" y2="120.691" gradientUnits="userSpaceOnUse">
<stop stop-color="#B66B17"/>
<stop offset="1" stop-color="#FFB119"/>
</linearGradient>
<linearGradient id="paint62_linear_7346_8820" x1="23.0377" y1="5.64921" x2="0" y2="5.64921" gradientUnits="userSpaceOnUse">
<stop stop-color="#CF8900"/>
<stop offset="1" stop-color="#694500"/>
</linearGradient>
<linearGradient id="paint63_linear_7346_8820" x1="15.7209" y1="-1.16609" x2="8.01348" y2="12.1118" gradientUnits="userSpaceOnUse">
<stop stop-color="#FFE5B3"/>
<stop offset="0.395" stop-color="#FFB11A"/>
<stop offset="1" stop-color="#F7A300"/>
</linearGradient>
<linearGradient id="paint64_linear_7346_8820" x1="20.3922" y1="9.42454" x2="2.28723" y2="2.37579e-05" gradientUnits="userSpaceOnUse">
<stop stop-color="#FFBF44"/>
<stop offset="1" stop-color="#FFD179"/>
</linearGradient>
<linearGradient id="paint65_linear_7346_8820" x1="20.3922" y1="9.42454" x2="2.28723" y2="2.37579e-05" gradientUnits="userSpaceOnUse">
<stop stop-color="#936100"/>
<stop offset="1" stop-color="#FFD179"/>
</linearGradient>
<linearGradient id="paint66_linear_7346_8820" x1="20.3922" y1="9.42454" x2="2.28723" y2="2.37579e-05" gradientUnits="userSpaceOnUse">
<stop stop-color="#FFBF44"/>
<stop offset="1" stop-color="#FFD179"/>
</linearGradient>
<linearGradient id="paint67_linear_7346_8820" x1="130.425" y1="197.04" x2="214.737" y2="239.579" gradientUnits="userSpaceOnUse">
<stop stop-color="#EEEEEE"/>
<stop offset="1" stop-color="#909090"/>
</linearGradient>
<linearGradient id="paint68_linear_7346_8820" x1="91.9627" y1="284.399" x2="91.9627" y2="214.098" gradientUnits="userSpaceOnUse">
<stop stop-color="#2C2C2C"/>
<stop offset="1" stop-color="#666666"/>
</linearGradient>
<linearGradient id="paint69_linear_7346_8820" x1="70.4474" y1="21.4633" x2="48.7389" y2="73.9173" gradientUnits="userSpaceOnUse">
<stop stop-color="white"/>
<stop offset="1" stop-color="#DBDBFF"/>
</linearGradient>
<linearGradient id="paint70_linear_7346_8820" x1="75.2388" y1="22.4533" x2="53.7052" y2="74.4843" gradientUnits="userSpaceOnUse">
<stop stop-color="white"/>
<stop offset="1" stop-color="#DBDBFF"/>
</linearGradient>
<linearGradient id="paint71_linear_7346_8820" x1="78.0619" y1="24.6097" x2="57.5788" y2="74.1026" gradientUnits="userSpaceOnUse">
<stop stop-color="white"/>
<stop offset="1" stop-color="#DBDBFF"/>
</linearGradient>
<linearGradient id="paint72_linear_7346_8820" x1="80.5986" y1="25.6633" x2="61.5161" y2="71.772" gradientUnits="userSpaceOnUse">
<stop stop-color="white"/>
<stop offset="1" stop-color="#DBDBFF"/>
</linearGradient>
<linearGradient id="paint73_linear_7346_8820" x1="83.2745" y1="25.778" x2="65.4174" y2="68.9256" gradientUnits="userSpaceOnUse">
<stop stop-color="white"/>
<stop offset="1" stop-color="#DBDBFF"/>
</linearGradient>
<linearGradient id="paint74_linear_7346_8820" x1="50.0599" y1="16.2436" x2="92.3619" y2="33.7516" gradientUnits="userSpaceOnUse">
<stop stop-color="#9D6A19"/>
<stop offset="1" stop-color="#583600"/>
</linearGradient>
<clipPath id="clip0_7346_8820">
<rect width="239" height="237" fill="white"/>
</clipPath>
</defs>
</svg>
