<svg width="328" height="421" viewBox="0 0 328 421" fill="none" xmlns="http://www.w3.org/2000/svg">
<g clip-path="url(#clip0_11744_4906)">
<path d="M271.319 222.329C261.701 226.87 260.43 236.338 260.997 240.505C262.322 240.346 266.763 238.482 273.926 232.3C282.88 224.572 287.62 215.332 285.393 213.583C283.167 211.834 283.342 216.652 271.319 222.329Z" fill="#FB9E92"/>
<path d="M290.925 219.372C288.343 223.392 278.537 228.722 273.957 230.884L283.498 234.781C285.093 235.194 288.809 235.354 289.827 230.392C291.1 224.19 310.931 211.326 310.152 208.193C309.373 205.06 294.154 214.347 290.925 219.372Z" fill="#FB9E92"/>
<path d="M297.43 219.8C316.848 206.061 319.154 210.945 317.103 214.014L311.011 220.389L295.998 233.079L285.725 236.529C283.679 235.161 283.155 229.9 297.43 219.8Z" fill="#FFB2A7"/>
<rect width="24.96" height="3.84" transform="matrix(-1 0 0 1 303.164 224.228)" fill="url(#paint0_linear_11744_4906)"/>
<rect width="24.96" height="3.84" transform="matrix(-1 0 0 1 303.164 205.029)" fill="url(#paint1_linear_11744_4906)"/>
<rect width="24.96" height="3.84" transform="matrix(-1 0 0 1 303.164 220.389)" fill="url(#paint2_linear_11744_4906)"/>
<rect width="24.96" height="3.84" transform="matrix(-1 0 0 1 303.164 201.188)" fill="url(#paint3_linear_11744_4906)"/>
<rect width="24.96" height="3.84" transform="matrix(-1 0 0 1 303.164 216.548)" fill="url(#paint4_linear_11744_4906)"/>
<rect width="24.96" height="3.84" transform="matrix(-1 0 0 1 303.164 197.348)" fill="url(#paint5_linear_11744_4906)"/>
<rect width="24.96" height="3.84" transform="matrix(-1 0 0 1 303.164 212.709)" fill="url(#paint6_linear_11744_4906)"/>
<rect width="24.96" height="3.84" transform="matrix(-1 0 0 1 303.164 193.508)" fill="url(#paint7_linear_11744_4906)"/>
<rect width="24.96" height="3.84" transform="matrix(-1 0 0 1 303.164 208.868)" fill="url(#paint8_linear_11744_4906)"/>
<rect width="24.96" height="3.84" transform="matrix(-1 0 0 1 303.164 189.668)" fill="url(#paint9_linear_11744_4906)"/>
<line y1="-0.299225" x2="24.96" y2="-0.299225" transform="matrix(-1 8.74228e-08 8.74228e-08 1 303.164 224.228)" stroke="#FFF1D5" stroke-width="0.59845"/>
<line y1="-0.299225" x2="24.96" y2="-0.299225" transform="matrix(-1 8.74228e-08 8.74228e-08 1 303.164 228.125)" stroke="#FFF1D5" stroke-width="0.59845"/>
<line y1="-0.299225" x2="24.96" y2="-0.299225" transform="matrix(-1 8.74228e-08 8.74228e-08 1 303.164 205.029)" stroke="#FFF1D5" stroke-width="0.59845"/>
<line y1="-0.299225" x2="24.96" y2="-0.299225" transform="matrix(-1 8.74228e-08 8.74228e-08 1 303.164 220.389)" stroke="#FFF1D5" stroke-width="0.59845"/>
<line y1="-0.299225" x2="24.96" y2="-0.299225" transform="matrix(-1 8.74228e-08 8.74228e-08 1 303.164 201.188)" stroke="#FFF1D5" stroke-width="0.59845"/>
<line y1="-0.299225" x2="24.96" y2="-0.299225" transform="matrix(-1 8.74228e-08 8.74228e-08 1 303.164 216.548)" stroke="#FFF1D5" stroke-width="0.59845"/>
<line y1="-0.299225" x2="24.96" y2="-0.299225" transform="matrix(-1 8.74228e-08 8.74228e-08 1 303.164 197.348)" stroke="#FFF1D5" stroke-width="0.59845"/>
<line y1="-0.299225" x2="24.96" y2="-0.299225" transform="matrix(-1 8.74228e-08 8.74228e-08 1 303.164 213.027)" stroke="#FFF1D5" stroke-width="0.59845"/>
<line y1="-0.299225" x2="24.96" y2="-0.299225" transform="matrix(-1 8.74228e-08 8.74228e-08 1 303.164 193.828)" stroke="#FFF1D5" stroke-width="0.59845"/>
<line y1="-0.299225" x2="24.96" y2="-0.299225" transform="matrix(-1 8.74228e-08 8.74228e-08 1 303.164 209.188)" stroke="#FFF1D5" stroke-width="0.59845"/>
<rect width="24.96" height="3.84" transform="matrix(-1 0 0 1 303.164 186.193)" fill="url(#paint10_linear_11744_4906)"/>
<rect width="24.96" height="3.84" transform="matrix(-1 0 0 1 303.164 166.993)" fill="url(#paint11_linear_11744_4906)"/>
<rect width="24.96" height="3.84" transform="matrix(-1 0 0 1 303.164 182.354)" fill="url(#paint12_linear_11744_4906)"/>
<rect width="24.96" height="3.84" transform="matrix(-1 0 0 1 303.164 163.153)" fill="url(#paint13_linear_11744_4906)"/>
<rect width="24.96" height="3.84" transform="matrix(-1 0 0 1 303.164 178.515)" fill="url(#paint14_linear_11744_4906)"/>
<rect width="24.96" height="3.84" transform="matrix(-1 0 0 1 303.164 159.313)" fill="url(#paint15_linear_11744_4906)"/>
<rect width="24.96" height="3.84" transform="matrix(-1 0 0 1 303.164 174.675)" fill="url(#paint16_linear_11744_4906)"/>
<rect width="24.96" height="3.84" transform="matrix(-1 0 0 1 303.164 155.475)" fill="url(#paint17_linear_11744_4906)"/>
<rect width="24.96" height="3.84" transform="matrix(-1 0 0 1 303.164 170.834)" fill="url(#paint18_linear_11744_4906)"/>
<rect width="24.96" height="3.84" transform="matrix(-1 0 0 1 303.164 151.634)" fill="url(#paint19_linear_11744_4906)"/>
<line y1="-0.299225" x2="24.96" y2="-0.299225" transform="matrix(-1 8.74228e-08 8.74228e-08 1 303.164 186.193)" stroke="#FFF1D5" stroke-width="0.59845"/>
<line y1="-0.299225" x2="24.96" y2="-0.299225" transform="matrix(-1 8.74228e-08 8.74228e-08 1 303.164 190.091)" stroke="#FFF1D5" stroke-width="0.59845"/>
<line y1="-0.299225" x2="24.96" y2="-0.299225" transform="matrix(-1 8.74228e-08 8.74228e-08 1 303.164 166.993)" stroke="#FFF1D5" stroke-width="0.59845"/>
<line y1="-0.299225" x2="24.96" y2="-0.299225" transform="matrix(-1 8.74228e-08 8.74228e-08 1 303.164 182.354)" stroke="#FFF1D5" stroke-width="0.59845"/>
<line y1="-0.299225" x2="24.96" y2="-0.299225" transform="matrix(-1 8.74228e-08 8.74228e-08 1 303.164 163.153)" stroke="#FFF1D5" stroke-width="0.59845"/>
<line y1="-0.299225" x2="24.96" y2="-0.299225" transform="matrix(-1 8.74228e-08 8.74228e-08 1 303.164 178.515)" stroke="#FFF1D5" stroke-width="0.59845"/>
<line y1="-0.299225" x2="24.96" y2="-0.299225" transform="matrix(-1 8.74228e-08 8.74228e-08 1 303.164 159.313)" stroke="#FFF1D5" stroke-width="0.59845"/>
<line y1="-0.299225" x2="24.96" y2="-0.299225" transform="matrix(-1 8.74228e-08 8.74228e-08 1 303.164 174.993)" stroke="#FFF1D5" stroke-width="0.59845"/>
<line y1="-0.299225" x2="24.96" y2="-0.299225" transform="matrix(-1 8.74228e-08 8.74228e-08 1 303.164 155.794)" stroke="#FFF1D5" stroke-width="0.59845"/>
<line y1="-0.299225" x2="24.96" y2="-0.299225" transform="matrix(-1 8.74228e-08 8.74228e-08 1 303.164 171.153)" stroke="#FFF1D5" stroke-width="0.59845"/>
<rect width="24.96" height="3.84" transform="matrix(-1 0 0 1 274.605 226.71)" fill="url(#paint20_linear_11744_4906)"/>
<rect width="24.96" height="3.84" transform="matrix(-1 0 0 1 274.605 207.512)" fill="url(#paint21_linear_11744_4906)"/>
<rect width="24.96" height="3.84" transform="matrix(-1 0 0 1 274.605 222.871)" fill="url(#paint22_linear_11744_4906)"/>
<rect width="24.96" height="3.84" transform="matrix(-1 0 0 1 274.605 203.67)" fill="url(#paint23_linear_11744_4906)"/>
<rect width="24.96" height="3.84" transform="matrix(-1 0 0 1 274.605 219.03)" fill="url(#paint24_linear_11744_4906)"/>
<rect width="24.96" height="3.84" transform="matrix(-1 0 0 1 274.605 199.83)" fill="url(#paint25_linear_11744_4906)"/>
<rect width="24.96" height="3.84" transform="matrix(-1 0 0 1 274.605 215.191)" fill="url(#paint26_linear_11744_4906)"/>
<rect width="24.96" height="3.84" transform="matrix(-1 0 0 1 274.605 195.99)" fill="url(#paint27_linear_11744_4906)"/>
<rect width="24.96" height="3.84" transform="matrix(-1 0 0 1 274.605 211.351)" fill="url(#paint28_linear_11744_4906)"/>
<rect width="24.96" height="3.84" transform="matrix(-1 0 0 1 274.605 192.15)" fill="url(#paint29_linear_11744_4906)"/>
<line y1="-0.299225" x2="24.96" y2="-0.299225" transform="matrix(-1 8.74228e-08 8.74228e-08 1 274.605 226.71)" stroke="#FFF1D5" stroke-width="0.59845"/>
<line y1="-0.299225" x2="24.96" y2="-0.299225" transform="matrix(-1 8.74228e-08 8.74228e-08 1 274.605 230.607)" stroke="#FFF1D5" stroke-width="0.59845"/>
<line y1="-0.299225" x2="24.96" y2="-0.299225" transform="matrix(-1 8.74228e-08 8.74228e-08 1 274.605 207.512)" stroke="#FFF1D5" stroke-width="0.59845"/>
<line y1="-0.299225" x2="24.96" y2="-0.299225" transform="matrix(-1 8.74228e-08 8.74228e-08 1 274.605 222.871)" stroke="#FFF1D5" stroke-width="0.59845"/>
<line y1="-0.299225" x2="24.96" y2="-0.299225" transform="matrix(-1 8.74228e-08 8.74228e-08 1 274.605 203.67)" stroke="#FFF1D5" stroke-width="0.59845"/>
<line y1="-0.299225" x2="24.96" y2="-0.299225" transform="matrix(-1 8.74228e-08 8.74228e-08 1 274.605 219.03)" stroke="#FFF1D5" stroke-width="0.59845"/>
<line y1="-0.299225" x2="24.96" y2="-0.299225" transform="matrix(-1 8.74228e-08 8.74228e-08 1 274.605 199.83)" stroke="#FFF1D5" stroke-width="0.59845"/>
<line y1="-0.299225" x2="24.96" y2="-0.299225" transform="matrix(-1 8.74228e-08 8.74228e-08 1 274.605 215.51)" stroke="#FFF1D5" stroke-width="0.59845"/>
<line y1="-0.299225" x2="24.96" y2="-0.299225" transform="matrix(-1 8.74228e-08 8.74228e-08 1 274.605 196.311)" stroke="#FFF1D5" stroke-width="0.59845"/>
<line y1="-0.299225" x2="24.96" y2="-0.299225" transform="matrix(-1 8.74228e-08 8.74228e-08 1 274.605 211.67)" stroke="#FFF1D5" stroke-width="0.59845"/>
<rect width="24.96" height="3.84" transform="matrix(-1 0 0 1 274.605 188.676)" fill="url(#paint30_linear_11744_4906)"/>
<rect width="24.96" height="3.84" transform="matrix(-1 0 0 1 274.605 169.476)" fill="url(#paint31_linear_11744_4906)"/>
<rect width="24.96" height="3.84" transform="matrix(-1 0 0 1 274.605 184.837)" fill="url(#paint32_linear_11744_4906)"/>
<rect width="24.96" height="3.84" transform="matrix(-1 0 0 1 274.605 180.997)" fill="url(#paint33_linear_11744_4906)"/>
<rect width="24.96" height="3.84" transform="matrix(-1 0 0 1 274.605 177.157)" fill="url(#paint34_linear_11744_4906)"/>
<rect width="24.96" height="3.84" transform="matrix(-1 0 0 1 274.605 173.316)" fill="url(#paint35_linear_11744_4906)"/>
<line y1="-0.299225" x2="24.96" y2="-0.299225" transform="matrix(-1 8.74228e-08 8.74228e-08 1 274.605 188.676)" stroke="#FFF1D5" stroke-width="0.59845"/>
<line y1="-0.299225" x2="24.96" y2="-0.299225" transform="matrix(-1 8.74228e-08 8.74228e-08 1 274.605 192.573)" stroke="#FFF1D5" stroke-width="0.59845"/>
<line y1="-0.299225" x2="24.96" y2="-0.299225" transform="matrix(-1 8.74228e-08 8.74228e-08 1 274.605 184.837)" stroke="#FFF1D5" stroke-width="0.59845"/>
<line y1="-0.299225" x2="24.96" y2="-0.299225" transform="matrix(-1 8.74228e-08 8.74228e-08 1 274.605 180.997)" stroke="#FFF1D5" stroke-width="0.59845"/>
<line y1="-0.299225" x2="24.96" y2="-0.299225" transform="matrix(-1 8.74228e-08 8.74228e-08 1 274.605 177.476)" stroke="#FFF1D5" stroke-width="0.59845"/>
<line y1="-0.299225" x2="24.96" y2="-0.299225" transform="matrix(-1 8.74228e-08 8.74228e-08 1 274.605 173.636)" stroke="#FFF1D5" stroke-width="0.59845"/>
<path d="M259.948 243.66C260.295 247.479 266.713 271.445 269.146 285L279.646 331L312.409 324.8C314.08 313.509 287.923 255.144 284.917 250.262C283.836 247.972 284.452 242.733 306.001 229.058C327.55 215.382 319.79 207.844 317.707 212.329C315.623 216.813 298.416 226.338 279.683 228.182C260.949 230.026 258.831 239.375 259.948 243.66Z" fill="url(#paint36_linear_11744_4906)"/>
<path d="M164.453 244.841C165.812 233.588 168.278 222.612 168.278 222.612L139.593 205.514L136.342 222.612C142.671 232.842 153.301 240.065 164.453 244.841Z" fill="black" stroke="black" stroke-width="0.61243" stroke-miterlimit="10"/>
<path d="M164.452 244.839C153.3 240.062 142.669 232.839 136.34 222.609L129 261.235C129 261.235 167.632 276.042 164.413 265.098C163.093 260.611 163.505 252.66 164.452 244.839Z" fill="url(#paint37_linear_11744_4906)"/>
<path d="M115.788 141.412C154.839 122.376 166.861 139.777 166.861 139.777H166.867C167.039 139.949 234.315 207.195 196.434 229.788C158.503 252.41 121.332 211.634 121.332 211.634C121.315 211.614 120.58 210.768 119.39 209.267C108.738 215.779 100.781 206.537 100.389 199.424C100.153 195.112 104.364 192.933 107.846 191.872C98.9015 175.347 92.6062 152.717 115.788 141.412Z" fill="url(#paint38_linear_11744_4906)"/>
<path d="M166.515 127.874C164.983 126.721 161.725 125.511 157.43 124.487C142.717 125.447 128.05 122.678 113.923 127.977C110.562 129.238 107.62 131.318 105.354 133.957C112.359 133.32 119.364 134.028 125.513 135.702C143.471 140.833 162.246 144.727 178.588 138.277C183.114 131.099 185.484 125.949 185.484 125.949C185.484 125.949 175.529 134.633 166.515 127.88V127.874Z" fill="#4C4529"/>
<path d="M118.161 198.289C118.161 198.289 115.038 197.252 111.838 196.808C108.96 196.409 106.011 196.493 105.219 198.25" stroke="black" stroke-width="0.61243" stroke-miterlimit="10"/>
<path d="M105.354 133.951C103.796 134.093 102.231 134.298 100.68 134.575C97.8145 139.043 96.8103 144.927 98.5938 152.588C98.5938 152.588 87.545 160.713 87.8154 172.094C89.8372 164.395 94.1188 157.474 102.341 155.008H102.335C98.8645 147.2 100.661 139.391 105.354 133.951ZM157.438 124.481C141.277 120.631 110.365 119.472 100.688 134.568C102.239 134.291 103.804 134.086 105.362 133.944C107.635 131.311 110.577 129.225 113.932 127.964V127.969C128.058 122.671 142.726 125.447 157.438 124.481Z" fill="white"/>
<path d="M178.577 138.272C162.241 144.723 143.466 140.828 125.502 135.697C119.353 134.017 112.348 133.315 105.342 133.952C100.649 139.399 98.8522 147.201 102.323 155.01C94.1068 157.476 89.8251 164.396 87.7969 172.096C87.9578 179.022 92.304 187.153 105.877 195.406L112.94 196.134L112.11 190.868L110.963 189.458L122.54 196.475L115.632 181.849C146.299 182.074 168.152 154.804 178.577 138.272Z" fill="#2B250D"/>
<path d="M112.884 196.969C108.415 197.355 108.879 203.477 108.879 203.477C108.879 203.477 114.184 197.407 115.826 197.613L112.89 196.969H112.884Z" fill="black" stroke="black" stroke-width="0.61243" stroke-miterlimit="10"/>
<path d="M157.227 180.389L156.786 180.643C155.927 181.139 155.633 182.237 156.129 183.096L158.273 186.81C158.769 187.669 159.868 187.963 160.727 187.467L161.167 187.213C162.026 186.717 162.321 185.618 161.825 184.759L159.681 181.046C159.185 180.187 158.086 179.893 157.227 180.389Z" fill="black"/>
<path d="M174.875 169.601L174.435 169.855C173.575 170.351 173.281 171.449 173.777 172.308L175.921 176.021C176.417 176.881 177.516 177.175 178.375 176.679L178.816 176.425C179.675 175.929 179.969 174.83 179.473 173.971L177.329 170.258C176.833 169.399 175.734 169.105 174.875 169.601Z" fill="black"/>
<path d="M143.868 214.236C150.802 214.236 156.424 208.615 156.424 201.682C156.424 194.749 150.802 189.129 143.868 189.129C136.934 189.129 131.312 194.749 131.312 201.682C131.312 208.615 136.934 214.236 143.868 214.236Z" fill="#FFB18A"/>
<path d="M183.466 200.1C183.466 200.1 169.191 216.805 149.199 202.681" stroke="black" stroke-width="1.22486" stroke-miterlimit="10"/>
<path d="M170.579 188.139L155.024 198.632C153.948 199.353 152.448 198.71 152.133 197.396L150.748 191.583C150.568 190.817 150.858 190.038 151.476 189.62L167.032 179.126C168.107 178.405 169.607 179.049 169.923 180.362L171.307 186.175C171.487 186.942 171.198 187.72 170.579 188.139Z" stroke="black" stroke-width="1.22486" stroke-miterlimit="10"/>
<path d="M190.535 174.621L177.555 183.827C176.48 184.548 174.979 183.904 174.664 182.591L173.279 176.778C173.099 176.012 173.389 175.233 174.007 174.814L186.988 165.609C188.063 164.888 189.563 165.531 189.879 166.845L191.263 172.658C191.443 173.424 191.153 174.203 190.535 174.621Z" stroke="black" stroke-width="1.22486" stroke-miterlimit="10"/>
<path d="M170.535 181.663L174.122 179.018" stroke="black" stroke-width="1.22486" stroke-miterlimit="10"/>
<path d="M129.144 249.019C129.144 249.019 146.644 271.519 169.419 256.533C169.419 256.533 197.644 253.019 233.644 279.019C250.549 292.34 275.644 324.519 275.644 324.519L265.644 276.519L295.644 269.019C309.144 305.519 348.144 355.019 312.144 393.519C291.644 408.019 242.644 368.519 224.644 349.519L238.144 449.802H99.059L47.1443 449.803C41.703 392.697 5.33926 269.272 129.144 249.019Z" fill="url(#paint39_linear_11744_4906)"/>
<path d="M99.0594 449.803L99.059 449.802M99.059 449.802L47.1443 449.803C41.703 392.697 5.33926 269.272 129.144 249.019C129.144 249.019 146.644 271.519 169.419 256.533C169.419 256.533 197.644 253.019 233.644 279.019C250.549 292.34 275.644 324.519 275.644 324.519L265.644 276.519L295.644 269.019C309.144 305.519 348.144 355.019 312.144 393.519C291.644 408.019 242.644 368.519 224.644 349.519L238.144 449.802H99.059Z" stroke="url(#paint40_linear_11744_4906)" stroke-width="0.851952" stroke-miterlimit="10"/>
<path d="M92.6123 434.913C88.274 416.861 90.139 384.707 92.6123 357.5C93.5682 346.99 94.3202 339 94.3202 339L102.145 429.5L92.6123 434.913Z" fill="#4F2C00"/>
<rect x="277.49" y="143.548" width="27.8438" height="2.59787" transform="rotate(-35.5409 277.49 143.548)" fill="#CF8900"/>
<ellipse cx="290.35" cy="137.597" rx="13.9219" ry="6.82773" transform="rotate(-35.5409 290.35 137.597)" fill="url(#paint41_linear_11744_4906)"/>
<ellipse cx="288.838" cy="135.484" rx="13.9219" ry="6.82773" transform="rotate(-35.5409 288.838 135.484)" fill="url(#paint42_linear_11744_4906)"/>
<ellipse cx="288.838" cy="135.482" rx="12.3232" ry="6.02839" transform="rotate(-35.5409 288.838 135.482)" fill="url(#paint43_linear_11744_4906)"/>
<mask id="mask0_11744_4906" style="mask-type:alpha" maskUnits="userSpaceOnUse" x="278" y="126" width="22" height="19">
<ellipse cx="288.838" cy="135.482" rx="12.3232" ry="6.02839" transform="rotate(-35.5409 288.838 135.482)" fill="url(#paint44_linear_11744_4906)"/>
</mask>
<g mask="url(#mask0_11744_4906)">
<ellipse cx="289.305" cy="136.134" rx="12.3232" ry="6.02839" transform="rotate(-35.5409 289.305 136.134)" fill="url(#paint45_linear_11744_4906)"/>
<g filter="url(#filter0_d_11744_4906)">
<path d="M285.013 138.683L291.974 130.585L293.044 130.996L286.082 139.095L285.013 138.683ZM286.198 137.901C285.599 137.671 285.08 137.386 284.639 137.049C284.204 136.705 283.908 136.365 283.751 136.03L285.242 135.205C285.405 135.512 285.652 135.81 285.983 136.098C286.326 136.383 286.722 136.612 287.171 136.785C287.513 136.917 287.81 136.997 288.061 137.025C288.324 137.05 288.548 137.033 288.732 136.973C288.915 136.914 289.062 136.821 289.17 136.695C289.308 136.534 289.339 136.378 289.261 136.225C289.188 136.067 289.048 135.91 288.841 135.754C288.638 135.592 288.403 135.425 288.133 135.252C287.876 135.077 287.625 134.888 287.381 134.687C287.144 134.489 286.951 134.277 286.803 134.052C286.655 133.826 286.588 133.579 286.602 133.309C286.622 133.042 286.771 132.747 287.048 132.426C287.344 132.081 287.727 131.812 288.197 131.618C288.679 131.422 289.223 131.329 289.83 131.341C290.448 131.35 291.11 131.49 291.816 131.762C292.287 131.943 292.71 132.168 293.088 132.435C293.47 132.697 293.759 132.984 293.955 133.297L292.51 134.151C292.299 133.855 292.051 133.603 291.765 133.394C291.485 133.179 291.178 133.007 290.843 132.878C290.508 132.749 290.206 132.675 289.938 132.656C289.67 132.637 289.445 132.661 289.263 132.729C289.087 132.791 288.942 132.888 288.828 133.02C288.695 133.175 288.665 133.331 288.738 133.489C288.815 133.642 288.958 133.796 289.165 133.952C289.372 134.108 289.605 134.274 289.862 134.45C290.126 134.628 290.379 134.814 290.622 135.006C290.871 135.202 291.07 135.412 291.218 135.637C291.366 135.862 291.429 136.109 291.408 136.376C291.395 136.646 291.252 136.939 290.98 137.255C290.689 137.593 290.305 137.858 289.828 138.049C289.351 138.24 288.803 138.331 288.184 138.322C287.573 138.316 286.911 138.176 286.198 137.901Z" fill="#FFEFC5"/>
</g>
</g>
<path d="M57 26.8945C26.6243 26.8945 2 51.52 2 81.8965C2.00024 112.273 26.6245 136.897 57 136.897C61.1745 136.897 65.2401 136.431 69.1484 135.55C74.4537 138.739 81.5695 141.484 88.9014 140.567C86.1992 139.919 81.4445 137.521 78.5156 132.529C98.1987 124.154 112 104.637 112 81.8965C112 51.52 87.3757 26.8945 57 26.8945Z" fill="black"/>
<path d="M59.3585 117.06L21.6685 102.6C22.5578 87.4872 35.805 55.9269 42.3175 42.0358L73.0416 54.7516L59.3585 117.06Z" fill="url(#paint46_linear_11744_4906)"/>
<g filter="url(#filter1_d_11744_4906)">
<path d="M67.0934 118.589L28.8756 103.914C26.2597 82.3307 39.6392 54.125 46.656 42.72L76.0256 58.9558C68.1164 68.8706 66.7753 102.842 67.0934 118.589Z" fill="url(#paint47_linear_11744_4906)"/>
</g>
<g filter="url(#filter2_d_11744_4906)">
<path d="M34.8703 104.152C27.4566 96.9103 40.0129 61.069 47.2177 44.0536L77.2663 59.0981C62.9113 84.9788 68.234 109.483 72.6898 118.5L34.8703 104.152Z" fill="url(#paint48_linear_11744_4906)"/>
</g>
<g filter="url(#filter3_d_11744_4906)">
<path d="M40.8896 102.184C31.1453 91.4119 42.0458 59.3545 48.7141 44.6723L61.1151 49.8048L79.8248 61.9221C68.1138 84.2912 74.2104 107.334 78.7227 116.06L40.8896 102.184Z" fill="url(#paint49_linear_11744_4906)"/>
</g>
<g filter="url(#filter4_d_11744_4906)">
<path d="M84.8887 113.267C75.0745 105.023 80.6962 78.7514 84.7338 66.646L87.0663 59.4435L49.9805 44.0947L46.0776 55.8748C36.9503 84.5075 43.0167 97.081 47.1908 99.7887L84.8887 113.267Z" fill="url(#paint50_linear_11744_4906)"/>
</g>
<path d="M86.8357 57.6733L45.8062 41.6658C42.3859 40.2502 40.9349 41.5964 40.6369 42.4464L37.4842 50.0641L38.7254 50.5778L41.3049 44.3452C41.8094 43.1264 42.64 42.6806 42.9923 42.6101L48.6469 44.9504C50.6329 45.7723 50.4869 47.0097 50.1657 47.5257L47.4142 54.1739L85.5815 68.5101L88.2183 62.1389C89.3648 59.3689 87.7743 58.0076 86.8357 57.6733Z" fill="url(#paint51_linear_11744_4906)"/>
<path d="M62.33 70.6542L60.0733 78.5091L58.0011 77.9137L59.7092 71.9683L59.6658 71.9559L57.6307 72.4987L58.1387 70.7303L60.4205 70.1056L62.33 70.6542ZM64.6722 79.9477C62.8821 79.4334 61.898 78.035 62.3017 76.5889L64.3088 77.1655C64.1715 77.7251 64.5491 78.2094 65.1242 78.3746C65.7968 78.5678 66.4082 78.2385 66.5968 77.541C66.8134 76.8281 66.4669 76.2352 65.7943 76.042C65.2549 75.8753 64.85 76.0174 64.5425 76.3518L62.709 75.8251L64.3887 71.2457L69.6072 72.7449L69.1335 74.394L65.6183 73.3841L64.9475 75.1058L64.9909 75.1182C65.3745 74.7234 66.1112 74.571 66.8923 74.7954C68.3027 75.2006 69.0419 76.5522 68.6118 78.0494C68.1412 79.6876 66.5708 80.4932 64.6722 79.9477ZM49.9052 87.0328L47.3556 86.3003L49.6122 78.4455L52.2378 79.1997C54.5487 79.8636 55.5135 81.7381 54.8122 84.1792C54.1078 86.6311 52.292 87.7185 49.9052 87.0328ZM48.8482 85.6017L50.1393 85.9726C51.9186 86.4838 53.0966 85.6947 53.6296 83.8395C54.1595 81.9951 53.5768 80.7119 51.8626 80.2195L50.5064 79.8298L48.8482 85.6017ZM55.023 86.7062C55.4095 85.3608 56.6484 85.3409 57.7334 85.5705C58.1318 85.6555 59.03 85.8607 59.3098 85.9294L59.433 85.4597C59.6231 84.7979 59.3339 84.292 58.5419 84.0645C57.8584 83.8681 57.3557 84.0643 57.1117 84.464L55.9617 84.1336C56.3507 83.1884 57.4646 82.745 58.8534 83.1439C59.7864 83.412 61.0645 84.155 60.5752 85.8583L59.45 89.7749L58.3216 89.4508L58.5523 88.6479L58.5089 88.6355C58.1533 89.0148 57.4705 89.3472 56.4941 89.0667C55.3766 88.7456 54.6926 87.8562 55.023 86.7062ZM56.1482 87.0412C55.9861 87.6053 56.3685 88.0323 57.0194 88.2193C57.9633 88.4905 58.7082 88.0233 58.9108 87.3181L59.0667 86.7756L57.6499 86.4743C56.8749 86.3104 56.3165 86.4553 56.1482 87.0412ZM60.6016 92.5017C60.3629 92.4332 60.1382 92.3569 59.9926 92.2915L60.27 91.3259C60.3971 91.3742 60.6218 91.4505 60.7845 91.4972C61.1425 91.6001 61.4557 91.6548 61.9389 90.995L62.1921 90.6449L61.7474 84.0576L62.9842 84.4129L63.1583 89.4075L63.2234 89.4262L66.022 85.2856L67.2697 85.6441L62.9225 91.6182C62.3182 92.4546 61.5672 92.7791 60.6016 92.5017ZM70.9502 88.4397C70.9757 87.942 70.6941 87.5322 70.054 87.3483C69.3922 87.1582 68.8151 87.3682 68.6982 87.8162C68.5876 88.1602 68.798 88.4908 69.4053 88.8297L70.276 89.3148C71.2923 89.8651 71.6635 90.5355 71.4343 91.374C71.118 92.4341 70.0102 92.938 68.5022 92.5047C67.0918 92.0995 66.4263 91.2272 66.6001 90.0909L67.7826 90.4306C67.7275 90.9903 68.065 91.3691 68.7594 91.5686C69.508 91.7837 70.0726 91.617 70.2268 91.1211C70.3251 90.7382 70.1147 90.4077 69.5368 90.0889L68.6707 89.6287C67.6761 89.0846 67.2848 88.3615 67.5186 87.5478C67.8209 86.4954 68.938 86.0411 70.305 86.4339C71.6178 86.811 72.2382 87.7174 72.0677 88.7607L70.9502 88.4397Z" fill="black"/>
</g>
<defs>
<filter id="filter0_d_11744_4906" x="280.647" y="129.964" width="16.4125" height="14.7187" filterUnits="userSpaceOnUse" color-interpolation-filters="sRGB">
<feFlood flood-opacity="0" result="BackgroundImageFix"/>
<feColorMatrix in="SourceAlpha" type="matrix" values="0 0 0 0 0 0 0 0 0 0 0 0 0 0 0 0 0 0 127 0" result="hardAlpha"/>
<feOffset dy="2.48318"/>
<feGaussianBlur stdDeviation="1.55199"/>
<feComposite in2="hardAlpha" operator="out"/>
<feColorMatrix type="matrix" values="0 0 0 0 0.668913 0 0 0 0 0.441654 0 0 0 0 0 0 0 0 1 0"/>
<feBlend mode="normal" in2="BackgroundImageFix" result="effect1_dropShadow_11744_4906"/>
<feBlend mode="normal" in="SourceGraphic" in2="effect1_dropShadow_11744_4906" result="shape"/>
</filter>
<filter id="filter1_d_11744_4906" x="24.0611" y="40.2993" width="56.4446" height="84.8299" filterUnits="userSpaceOnUse" color-interpolation-filters="sRGB">
<feFlood flood-opacity="0" result="BackgroundImageFix"/>
<feColorMatrix in="SourceAlpha" type="matrix" values="0 0 0 0 0 0 0 0 0 0 0 0 0 0 0 0 0 0 127 0" result="hardAlpha"/>
<feOffset dy="2.05995"/>
<feGaussianBlur stdDeviation="2.24019"/>
<feComposite in2="hardAlpha" operator="out"/>
<feColorMatrix type="matrix" values="0 0 0 0 0 0 0 0 0 0 0 0 0 0 0 0 0 0 0.25 0"/>
<feBlend mode="normal" in2="BackgroundImageFix" result="effect1_dropShadow_11744_4906"/>
<feBlend mode="normal" in="SourceGraphic" in2="effect1_dropShadow_11744_4906" result="shape"/>
</filter>
<filter id="filter2_d_11744_4906" x="28.1256" y="41.6333" width="53.6209" height="83.407" filterUnits="userSpaceOnUse" color-interpolation-filters="sRGB">
<feFlood flood-opacity="0" result="BackgroundImageFix"/>
<feColorMatrix in="SourceAlpha" type="matrix" values="0 0 0 0 0 0 0 0 0 0 0 0 0 0 0 0 0 0 127 0" result="hardAlpha"/>
<feOffset dy="2.05995"/>
<feGaussianBlur stdDeviation="2.24019"/>
<feComposite in2="hardAlpha" operator="out"/>
<feColorMatrix type="matrix" values="0 0 0 0 0 0 0 0 0 0 0 0 0 0 0 0 0 0 0.25 0"/>
<feBlend mode="normal" in2="BackgroundImageFix" result="effect1_dropShadow_11744_4906"/>
<feBlend mode="normal" in="SourceGraphic" in2="effect1_dropShadow_11744_4906" result="shape"/>
</filter>
<filter id="filter3_d_11744_4906" x="32.5328" y="42.2514" width="51.7723" height="80.3485" filterUnits="userSpaceOnUse" color-interpolation-filters="sRGB">
<feFlood flood-opacity="0" result="BackgroundImageFix"/>
<feColorMatrix in="SourceAlpha" type="matrix" values="0 0 0 0 0 0 0 0 0 0 0 0 0 0 0 0 0 0 127 0" result="hardAlpha"/>
<feOffset dy="2.05995"/>
<feGaussianBlur stdDeviation="2.24019"/>
<feComposite in2="hardAlpha" operator="out"/>
<feColorMatrix type="matrix" values="0 0 0 0 0 0 0 0 0 0 0 0 0 0 0 0 0 0 0.25 0"/>
<feBlend mode="normal" in2="BackgroundImageFix" result="effect1_dropShadow_11744_4906"/>
<feBlend mode="normal" in="SourceGraphic" in2="effect1_dropShadow_11744_4906" result="shape"/>
</filter>
<filter id="filter4_d_11744_4906" x="36.8365" y="41.6743" width="54.7103" height="78.1326" filterUnits="userSpaceOnUse" color-interpolation-filters="sRGB">
<feFlood flood-opacity="0" result="BackgroundImageFix"/>
<feColorMatrix in="SourceAlpha" type="matrix" values="0 0 0 0 0 0 0 0 0 0 0 0 0 0 0 0 0 0 127 0" result="hardAlpha"/>
<feOffset dy="2.05995"/>
<feGaussianBlur stdDeviation="2.24019"/>
<feComposite in2="hardAlpha" operator="out"/>
<feColorMatrix type="matrix" values="0 0 0 0 0 0 0 0 0 0 0 0 0 0 0 0 0 0 0.25 0"/>
<feBlend mode="normal" in2="BackgroundImageFix" result="effect1_dropShadow_11744_4906"/>
<feBlend mode="normal" in="SourceGraphic" in2="effect1_dropShadow_11744_4906" result="shape"/>
</filter>
<linearGradient id="paint0_linear_11744_4906" x1="0" y1="1.92" x2="24.96" y2="1.92" gradientUnits="userSpaceOnUse">
<stop stop-color="#FFDFA3"/>
<stop offset="0.5" stop-color="#DE9103"/>
<stop offset="1" stop-color="#CC8600"/>
</linearGradient>
<linearGradient id="paint1_linear_11744_4906" x1="0" y1="1.92" x2="24.96" y2="1.92" gradientUnits="userSpaceOnUse">
<stop stop-color="#FFDFA3"/>
<stop offset="0.5" stop-color="#DE9103"/>
<stop offset="1" stop-color="#CC8600"/>
</linearGradient>
<linearGradient id="paint2_linear_11744_4906" x1="0" y1="1.92" x2="24.96" y2="1.92" gradientUnits="userSpaceOnUse">
<stop stop-color="#FFDFA3"/>
<stop offset="0.5" stop-color="#DE9103"/>
<stop offset="1" stop-color="#CC8600"/>
</linearGradient>
<linearGradient id="paint3_linear_11744_4906" x1="0" y1="1.92" x2="24.96" y2="1.92" gradientUnits="userSpaceOnUse">
<stop stop-color="#FFDFA3"/>
<stop offset="0.5" stop-color="#DE9103"/>
<stop offset="1" stop-color="#CC8600"/>
</linearGradient>
<linearGradient id="paint4_linear_11744_4906" x1="0" y1="1.92" x2="24.96" y2="1.92" gradientUnits="userSpaceOnUse">
<stop stop-color="#FFDFA3"/>
<stop offset="0.5" stop-color="#DE9103"/>
<stop offset="1" stop-color="#CC8600"/>
</linearGradient>
<linearGradient id="paint5_linear_11744_4906" x1="0" y1="1.92" x2="24.96" y2="1.92" gradientUnits="userSpaceOnUse">
<stop stop-color="#FFDFA3"/>
<stop offset="0.5" stop-color="#DE9103"/>
<stop offset="1" stop-color="#CC8600"/>
</linearGradient>
<linearGradient id="paint6_linear_11744_4906" x1="0" y1="1.92" x2="24.96" y2="1.92" gradientUnits="userSpaceOnUse">
<stop stop-color="#FFDFA3"/>
<stop offset="0.5" stop-color="#DE9103"/>
<stop offset="1" stop-color="#CC8600"/>
</linearGradient>
<linearGradient id="paint7_linear_11744_4906" x1="0" y1="1.92" x2="24.96" y2="1.92" gradientUnits="userSpaceOnUse">
<stop stop-color="#FFDFA3"/>
<stop offset="0.5" stop-color="#DE9103"/>
<stop offset="1" stop-color="#CC8600"/>
</linearGradient>
<linearGradient id="paint8_linear_11744_4906" x1="0" y1="1.92" x2="24.96" y2="1.92" gradientUnits="userSpaceOnUse">
<stop stop-color="#FFDFA3"/>
<stop offset="0.5" stop-color="#DE9103"/>
<stop offset="1" stop-color="#CC8600"/>
</linearGradient>
<linearGradient id="paint9_linear_11744_4906" x1="0" y1="1.92" x2="24.96" y2="1.92" gradientUnits="userSpaceOnUse">
<stop stop-color="#FFDFA3"/>
<stop offset="0.5" stop-color="#DE9103"/>
<stop offset="1" stop-color="#CC8600"/>
</linearGradient>
<linearGradient id="paint10_linear_11744_4906" x1="0" y1="1.92" x2="24.96" y2="1.92" gradientUnits="userSpaceOnUse">
<stop stop-color="#FFDFA3"/>
<stop offset="0.5" stop-color="#DE9103"/>
<stop offset="1" stop-color="#CC8600"/>
</linearGradient>
<linearGradient id="paint11_linear_11744_4906" x1="0" y1="1.92" x2="24.96" y2="1.92" gradientUnits="userSpaceOnUse">
<stop stop-color="#FFDFA3"/>
<stop offset="0.5" stop-color="#DE9103"/>
<stop offset="1" stop-color="#CC8600"/>
</linearGradient>
<linearGradient id="paint12_linear_11744_4906" x1="0" y1="1.92" x2="24.96" y2="1.92" gradientUnits="userSpaceOnUse">
<stop stop-color="#FFDFA3"/>
<stop offset="0.5" stop-color="#DE9103"/>
<stop offset="1" stop-color="#CC8600"/>
</linearGradient>
<linearGradient id="paint13_linear_11744_4906" x1="0" y1="1.92" x2="24.96" y2="1.92" gradientUnits="userSpaceOnUse">
<stop stop-color="#FFDFA3"/>
<stop offset="0.5" stop-color="#DE9103"/>
<stop offset="1" stop-color="#CC8600"/>
</linearGradient>
<linearGradient id="paint14_linear_11744_4906" x1="0" y1="1.92" x2="24.96" y2="1.92" gradientUnits="userSpaceOnUse">
<stop stop-color="#FFDFA3"/>
<stop offset="0.5" stop-color="#DE9103"/>
<stop offset="1" stop-color="#CC8600"/>
</linearGradient>
<linearGradient id="paint15_linear_11744_4906" x1="0" y1="1.92" x2="24.96" y2="1.92" gradientUnits="userSpaceOnUse">
<stop stop-color="#FFDFA3"/>
<stop offset="0.5" stop-color="#DE9103"/>
<stop offset="1" stop-color="#CC8600"/>
</linearGradient>
<linearGradient id="paint16_linear_11744_4906" x1="0" y1="1.92" x2="24.96" y2="1.92" gradientUnits="userSpaceOnUse">
<stop stop-color="#FFDFA3"/>
<stop offset="0.5" stop-color="#DE9103"/>
<stop offset="1" stop-color="#CC8600"/>
</linearGradient>
<linearGradient id="paint17_linear_11744_4906" x1="0" y1="1.92" x2="24.96" y2="1.92" gradientUnits="userSpaceOnUse">
<stop stop-color="#FFDFA3"/>
<stop offset="0.5" stop-color="#DE9103"/>
<stop offset="1" stop-color="#CC8600"/>
</linearGradient>
<linearGradient id="paint18_linear_11744_4906" x1="0" y1="1.92" x2="24.96" y2="1.92" gradientUnits="userSpaceOnUse">
<stop stop-color="#FFDFA3"/>
<stop offset="0.5" stop-color="#DE9103"/>
<stop offset="1" stop-color="#CC8600"/>
</linearGradient>
<linearGradient id="paint19_linear_11744_4906" x1="0" y1="1.92" x2="24.96" y2="1.92" gradientUnits="userSpaceOnUse">
<stop stop-color="#FFDFA3"/>
<stop offset="0.5" stop-color="#DE9103"/>
<stop offset="1" stop-color="#CC8600"/>
</linearGradient>
<linearGradient id="paint20_linear_11744_4906" x1="0" y1="1.92" x2="24.96" y2="1.92" gradientUnits="userSpaceOnUse">
<stop stop-color="#FFDFA3"/>
<stop offset="0.5" stop-color="#DE9103"/>
<stop offset="1" stop-color="#CC8600"/>
</linearGradient>
<linearGradient id="paint21_linear_11744_4906" x1="0" y1="1.92" x2="24.96" y2="1.92" gradientUnits="userSpaceOnUse">
<stop stop-color="#FFDFA3"/>
<stop offset="0.5" stop-color="#DE9103"/>
<stop offset="1" stop-color="#CC8600"/>
</linearGradient>
<linearGradient id="paint22_linear_11744_4906" x1="0" y1="1.92" x2="24.96" y2="1.92" gradientUnits="userSpaceOnUse">
<stop stop-color="#FFDFA3"/>
<stop offset="0.5" stop-color="#DE9103"/>
<stop offset="1" stop-color="#CC8600"/>
</linearGradient>
<linearGradient id="paint23_linear_11744_4906" x1="0" y1="1.92" x2="24.96" y2="1.92" gradientUnits="userSpaceOnUse">
<stop stop-color="#FFDFA3"/>
<stop offset="0.5" stop-color="#DE9103"/>
<stop offset="1" stop-color="#CC8600"/>
</linearGradient>
<linearGradient id="paint24_linear_11744_4906" x1="0" y1="1.92" x2="24.96" y2="1.92" gradientUnits="userSpaceOnUse">
<stop stop-color="#FFDFA3"/>
<stop offset="0.5" stop-color="#DE9103"/>
<stop offset="1" stop-color="#CC8600"/>
</linearGradient>
<linearGradient id="paint25_linear_11744_4906" x1="0" y1="1.92" x2="24.96" y2="1.92" gradientUnits="userSpaceOnUse">
<stop stop-color="#FFDFA3"/>
<stop offset="0.5" stop-color="#DE9103"/>
<stop offset="1" stop-color="#CC8600"/>
</linearGradient>
<linearGradient id="paint26_linear_11744_4906" x1="0" y1="1.92" x2="24.96" y2="1.92" gradientUnits="userSpaceOnUse">
<stop stop-color="#FFDFA3"/>
<stop offset="0.5" stop-color="#DE9103"/>
<stop offset="1" stop-color="#CC8600"/>
</linearGradient>
<linearGradient id="paint27_linear_11744_4906" x1="0" y1="1.92" x2="24.96" y2="1.92" gradientUnits="userSpaceOnUse">
<stop stop-color="#FFDFA3"/>
<stop offset="0.5" stop-color="#DE9103"/>
<stop offset="1" stop-color="#CC8600"/>
</linearGradient>
<linearGradient id="paint28_linear_11744_4906" x1="0" y1="1.92" x2="24.96" y2="1.92" gradientUnits="userSpaceOnUse">
<stop stop-color="#FFDFA3"/>
<stop offset="0.5" stop-color="#DE9103"/>
<stop offset="1" stop-color="#CC8600"/>
</linearGradient>
<linearGradient id="paint29_linear_11744_4906" x1="0" y1="1.92" x2="24.96" y2="1.92" gradientUnits="userSpaceOnUse">
<stop stop-color="#FFDFA3"/>
<stop offset="0.5" stop-color="#DE9103"/>
<stop offset="1" stop-color="#CC8600"/>
</linearGradient>
<linearGradient id="paint30_linear_11744_4906" x1="0" y1="1.92" x2="24.96" y2="1.92" gradientUnits="userSpaceOnUse">
<stop stop-color="#FFDFA3"/>
<stop offset="0.5" stop-color="#DE9103"/>
<stop offset="1" stop-color="#CC8600"/>
</linearGradient>
<linearGradient id="paint31_linear_11744_4906" x1="0" y1="1.92" x2="24.96" y2="1.92" gradientUnits="userSpaceOnUse">
<stop stop-color="#FFDFA3"/>
<stop offset="0.5" stop-color="#DE9103"/>
<stop offset="1" stop-color="#CC8600"/>
</linearGradient>
<linearGradient id="paint32_linear_11744_4906" x1="0" y1="1.92" x2="24.96" y2="1.92" gradientUnits="userSpaceOnUse">
<stop stop-color="#FFDFA3"/>
<stop offset="0.5" stop-color="#DE9103"/>
<stop offset="1" stop-color="#CC8600"/>
</linearGradient>
<linearGradient id="paint33_linear_11744_4906" x1="0" y1="1.92" x2="24.96" y2="1.92" gradientUnits="userSpaceOnUse">
<stop stop-color="#FFDFA3"/>
<stop offset="0.5" stop-color="#DE9103"/>
<stop offset="1" stop-color="#CC8600"/>
</linearGradient>
<linearGradient id="paint34_linear_11744_4906" x1="0" y1="1.92" x2="24.96" y2="1.92" gradientUnits="userSpaceOnUse">
<stop stop-color="#FFDFA3"/>
<stop offset="0.5" stop-color="#DE9103"/>
<stop offset="1" stop-color="#CC8600"/>
</linearGradient>
<linearGradient id="paint35_linear_11744_4906" x1="0" y1="1.92" x2="24.96" y2="1.92" gradientUnits="userSpaceOnUse">
<stop stop-color="#FFDFA3"/>
<stop offset="0.5" stop-color="#DE9103"/>
<stop offset="1" stop-color="#CC8600"/>
</linearGradient>
<linearGradient id="paint36_linear_11744_4906" x1="261.646" y1="219.5" x2="285.565" y2="291.529" gradientUnits="userSpaceOnUse">
<stop stop-color="#FFF7D8"/>
<stop offset="1" stop-color="#FF9292"/>
</linearGradient>
<linearGradient id="paint37_linear_11744_4906" x1="154.957" y1="251.568" x2="134.509" y2="267.229" gradientUnits="userSpaceOnUse">
<stop stop-color="#FFF7D8"/>
<stop offset="1" stop-color="#FF9292"/>
</linearGradient>
<linearGradient id="paint38_linear_11744_4906" x1="140.062" y1="157.114" x2="115.332" y2="290.962" gradientUnits="userSpaceOnUse">
<stop stop-color="#FFF7D8"/>
<stop offset="1" stop-color="#FF9292"/>
</linearGradient>
<linearGradient id="paint39_linear_11744_4906" x1="60.2352" y1="231.507" x2="191.22" y2="395.405" gradientUnits="userSpaceOnUse">
<stop stop-color="#1D26D3"/>
<stop offset="1" stop-color="#5353FF"/>
</linearGradient>
<linearGradient id="paint40_linear_11744_4906" x1="192.761" y1="357.623" x2="207.09" y2="453.772" gradientUnits="userSpaceOnUse">
<stop offset="0.256188" stop-color="white" stop-opacity="0"/>
<stop offset="1" stop-color="white"/>
</linearGradient>
<linearGradient id="paint41_linear_11744_4906" x1="304.272" y1="137.597" x2="276.428" y2="137.597" gradientUnits="userSpaceOnUse">
<stop stop-color="#CF8900"/>
<stop offset="1" stop-color="#694500"/>
</linearGradient>
<linearGradient id="paint42_linear_11744_4906" x1="293.917" y1="127.247" x2="284.601" y2="143.294" gradientUnits="userSpaceOnUse">
<stop stop-color="#FFE5B3"/>
<stop offset="0.395" stop-color="#FFB11A"/>
<stop offset="1" stop-color="#F7A300"/>
</linearGradient>
<linearGradient id="paint43_linear_11744_4906" x1="301.161" y1="140.845" x2="279.279" y2="129.454" gradientUnits="userSpaceOnUse">
<stop stop-color="#FFBF44"/>
<stop offset="1" stop-color="#FFD179"/>
</linearGradient>
<linearGradient id="paint44_linear_11744_4906" x1="301.161" y1="140.845" x2="279.279" y2="129.454" gradientUnits="userSpaceOnUse">
<stop stop-color="#936100"/>
<stop offset="1" stop-color="#FFD179"/>
</linearGradient>
<linearGradient id="paint45_linear_11744_4906" x1="301.628" y1="141.496" x2="279.746" y2="130.105" gradientUnits="userSpaceOnUse">
<stop stop-color="#FFBF44"/>
<stop offset="1" stop-color="#FFD179"/>
</linearGradient>
<linearGradient id="paint46_linear_11744_4906" x1="62.6773" y1="50.4621" x2="38.2575" y2="109.465" gradientUnits="userSpaceOnUse">
<stop stop-color="white"/>
<stop offset="1" stop-color="#DBDBFF"/>
</linearGradient>
<linearGradient id="paint47_linear_11744_4906" x1="68.0724" y1="51.5837" x2="43.8496" y2="110.111" gradientUnits="userSpaceOnUse">
<stop stop-color="white"/>
<stop offset="1" stop-color="#DBDBFF"/>
</linearGradient>
<linearGradient id="paint48_linear_11744_4906" x1="71.2405" y1="53.9959" x2="48.1993" y2="109.668" gradientUnits="userSpaceOnUse">
<stop stop-color="white"/>
<stop offset="1" stop-color="#DBDBFF"/>
</linearGradient>
<linearGradient id="paint49_linear_11744_4906" x1="74.1016" y1="55.1795" x2="52.6359" y2="107.045" gradientUnits="userSpaceOnUse">
<stop stop-color="white"/>
<stop offset="1" stop-color="#DBDBFF"/>
</linearGradient>
<linearGradient id="paint50_linear_11744_4906" x1="77.103" y1="55.3199" x2="57.0158" y2="103.855" gradientUnits="userSpaceOnUse">
<stop stop-color="white"/>
<stop offset="1" stop-color="#DBDBFF"/>
</linearGradient>
<linearGradient id="paint51_linear_11744_4906" x1="39.747" y1="44.5912" x2="87.3303" y2="64.2845" gradientUnits="userSpaceOnUse">
<stop stop-color="#9D6A19"/>
<stop offset="1" stop-color="#583600"/>
</linearGradient>
<clipPath id="clip0_11744_4906">
<rect width="328" height="421" fill="white" transform="matrix(-1 0 0 1 328 0)"/>
</clipPath>
</defs>
</svg>
