<svg width="276" height="321" viewBox="0 0 276 321" fill="none" xmlns="http://www.w3.org/2000/svg">
<g clip-path="url(#clip0_7398_10642)">
<path d="M233.299 169.458C225.968 172.919 224.999 180.136 225.431 183.312C226.442 183.191 229.827 181.77 235.286 177.058C242.111 171.167 245.723 164.125 244.026 162.792C242.329 161.459 242.462 165.131 233.299 169.458Z" fill="#FB9E92"/>
<path d="M248.244 167.205C246.276 170.269 238.802 174.331 235.311 175.979L242.583 178.949C243.799 179.265 246.631 179.386 247.407 175.604C248.377 170.877 263.493 161.072 262.899 158.684C262.305 156.296 250.705 163.374 248.244 167.205Z" fill="#FB9E92"/>
<path d="M253.198 167.53C267.999 157.058 269.756 160.781 268.193 163.12L263.55 167.979L252.107 177.651L244.277 180.281C242.717 179.238 242.318 175.229 253.198 167.53Z" fill="#FFB2A7"/>
<rect width="19.0244" height="2.92683" transform="matrix(-1 0 0 1 257.562 170.908)" fill="url(#paint0_linear_7398_10642)"/>
<rect width="19.0244" height="2.92683" transform="matrix(-1 0 0 1 257.562 156.275)" fill="url(#paint1_linear_7398_10642)"/>
<rect width="19.0244" height="2.92683" transform="matrix(-1 0 0 1 257.562 167.982)" fill="url(#paint2_linear_7398_10642)"/>
<rect width="19.0244" height="2.92683" transform="matrix(-1 0 0 1 257.562 153.348)" fill="url(#paint3_linear_7398_10642)"/>
<rect width="19.0244" height="2.92683" transform="matrix(-1 0 0 1 257.562 165.055)" fill="url(#paint4_linear_7398_10642)"/>
<rect width="19.0244" height="2.92683" transform="matrix(-1 0 0 1 257.562 150.422)" fill="url(#paint5_linear_7398_10642)"/>
<rect width="19.0244" height="2.92683" transform="matrix(-1 0 0 1 257.562 162.129)" fill="url(#paint6_linear_7398_10642)"/>
<rect width="19.0244" height="2.92683" transform="matrix(-1 0 0 1 257.562 147.493)" fill="url(#paint7_linear_7398_10642)"/>
<rect width="19.0244" height="2.92683" transform="matrix(-1 0 0 1 257.562 159.201)" fill="url(#paint8_linear_7398_10642)"/>
<rect width="19.0244" height="2.92683" transform="matrix(-1 0 0 1 257.562 144.568)" fill="url(#paint9_linear_7398_10642)"/>
<line y1="-0.228068" x2="19.0244" y2="-0.228068" transform="matrix(-1 8.74227e-08 8.74228e-08 1 257.562 170.908)" stroke="#FFF1D5" stroke-width="0.456135"/>
<line y1="-0.228068" x2="19.0244" y2="-0.228068" transform="matrix(-1 8.74227e-08 8.74228e-08 1 257.562 173.879)" stroke="#FFF1D5" stroke-width="0.456135"/>
<line y1="-0.228068" x2="19.0244" y2="-0.228068" transform="matrix(-1 8.74227e-08 8.74228e-08 1 257.562 156.275)" stroke="#FFF1D5" stroke-width="0.456135"/>
<line y1="-0.228068" x2="19.0244" y2="-0.228068" transform="matrix(-1 8.74227e-08 8.74228e-08 1 257.562 167.982)" stroke="#FFF1D5" stroke-width="0.456135"/>
<line y1="-0.228068" x2="19.0244" y2="-0.228068" transform="matrix(-1 8.74227e-08 8.74228e-08 1 257.562 153.348)" stroke="#FFF1D5" stroke-width="0.456135"/>
<line y1="-0.228068" x2="19.0244" y2="-0.228068" transform="matrix(-1 8.74227e-08 8.74228e-08 1 257.562 165.055)" stroke="#FFF1D5" stroke-width="0.456135"/>
<line y1="-0.228068" x2="19.0244" y2="-0.228068" transform="matrix(-1 8.74227e-08 8.74228e-08 1 257.562 150.422)" stroke="#FFF1D5" stroke-width="0.456135"/>
<line y1="-0.228068" x2="19.0244" y2="-0.228068" transform="matrix(-1 8.74227e-08 8.74228e-08 1 257.562 162.371)" stroke="#FFF1D5" stroke-width="0.456135"/>
<line y1="-0.228068" x2="19.0244" y2="-0.228068" transform="matrix(-1 8.74227e-08 8.74228e-08 1 257.562 147.738)" stroke="#FFF1D5" stroke-width="0.456135"/>
<line y1="-0.228068" x2="19.0244" y2="-0.228068" transform="matrix(-1 8.74227e-08 8.74228e-08 1 257.562 159.445)" stroke="#FFF1D5" stroke-width="0.456135"/>
<rect width="19.0244" height="2.92683" transform="matrix(-1 0 0 1 257.562 141.919)" fill="url(#paint10_linear_7398_10642)"/>
<rect width="19.0244" height="2.92683" transform="matrix(-1 0 0 1 257.562 127.285)" fill="url(#paint11_linear_7398_10642)"/>
<rect width="19.0244" height="2.92683" transform="matrix(-1 0 0 1 257.562 138.993)" fill="url(#paint12_linear_7398_10642)"/>
<rect width="19.0244" height="2.92683" transform="matrix(-1 0 0 1 257.562 124.357)" fill="url(#paint13_linear_7398_10642)"/>
<rect width="19.0244" height="2.92683" transform="matrix(-1 0 0 1 257.562 136.066)" fill="url(#paint14_linear_7398_10642)"/>
<rect width="19.0244" height="2.92683" transform="matrix(-1 0 0 1 257.562 121.432)" fill="url(#paint15_linear_7398_10642)"/>
<rect width="19.0244" height="2.92683" transform="matrix(-1 0 0 1 257.562 133.14)" fill="url(#paint16_linear_7398_10642)"/>
<rect width="19.0244" height="2.92683" transform="matrix(-1 0 0 1 257.562 118.505)" fill="url(#paint17_linear_7398_10642)"/>
<rect width="19.0244" height="2.92683" transform="matrix(-1 0 0 1 257.562 130.212)" fill="url(#paint18_linear_7398_10642)"/>
<rect width="19.0244" height="2.92683" transform="matrix(-1 0 0 1 257.562 115.577)" fill="url(#paint19_linear_7398_10642)"/>
<line y1="-0.228068" x2="19.0244" y2="-0.228068" transform="matrix(-1 8.74227e-08 8.74228e-08 1 257.562 141.919)" stroke="#FFF1D5" stroke-width="0.456135"/>
<line y1="-0.228068" x2="19.0244" y2="-0.228068" transform="matrix(-1 8.74227e-08 8.74228e-08 1 257.562 144.889)" stroke="#FFF1D5" stroke-width="0.456135"/>
<line y1="-0.228068" x2="19.0244" y2="-0.228068" transform="matrix(-1 8.74227e-08 8.74228e-08 1 257.562 127.285)" stroke="#FFF1D5" stroke-width="0.456135"/>
<line y1="-0.228068" x2="19.0244" y2="-0.228068" transform="matrix(-1 8.74227e-08 8.74228e-08 1 257.562 138.993)" stroke="#FFF1D5" stroke-width="0.456135"/>
<line y1="-0.228068" x2="19.0244" y2="-0.228068" transform="matrix(-1 8.74227e-08 8.74228e-08 1 257.562 124.357)" stroke="#FFF1D5" stroke-width="0.456135"/>
<line y1="-0.228068" x2="19.0244" y2="-0.228068" transform="matrix(-1 8.74227e-08 8.74228e-08 1 257.562 136.066)" stroke="#FFF1D5" stroke-width="0.456135"/>
<line y1="-0.228068" x2="19.0244" y2="-0.228068" transform="matrix(-1 8.74227e-08 8.74228e-08 1 257.562 121.432)" stroke="#FFF1D5" stroke-width="0.456135"/>
<line y1="-0.228068" x2="19.0244" y2="-0.228068" transform="matrix(-1 8.74227e-08 8.74228e-08 1 257.562 133.382)" stroke="#FFF1D5" stroke-width="0.456135"/>
<line y1="-0.228068" x2="19.0244" y2="-0.228068" transform="matrix(-1 8.74227e-08 8.74228e-08 1 257.562 118.749)" stroke="#FFF1D5" stroke-width="0.456135"/>
<line y1="-0.228068" x2="19.0244" y2="-0.228068" transform="matrix(-1 8.74227e-08 8.74228e-08 1 257.562 130.455)" stroke="#FFF1D5" stroke-width="0.456135"/>
<rect width="19.0244" height="2.92683" transform="matrix(-1 0 0 1 235.801 172.799)" fill="url(#paint20_linear_7398_10642)"/>
<rect width="19.0244" height="2.92683" transform="matrix(-1 0 0 1 235.801 158.167)" fill="url(#paint21_linear_7398_10642)"/>
<rect width="19.0244" height="2.92683" transform="matrix(-1 0 0 1 235.801 169.874)" fill="url(#paint22_linear_7398_10642)"/>
<rect width="19.0244" height="2.92683" transform="matrix(-1 0 0 1 235.801 155.238)" fill="url(#paint23_linear_7398_10642)"/>
<rect width="19.0244" height="2.92683" transform="matrix(-1 0 0 1 235.801 166.945)" fill="url(#paint24_linear_7398_10642)"/>
<rect width="19.0244" height="2.92683" transform="matrix(-1 0 0 1 235.801 152.312)" fill="url(#paint25_linear_7398_10642)"/>
<rect width="19.0244" height="2.92683" transform="matrix(-1 0 0 1 235.801 164.021)" fill="url(#paint26_linear_7398_10642)"/>
<rect width="19.0244" height="2.92683" transform="matrix(-1 0 0 1 235.801 149.384)" fill="url(#paint27_linear_7398_10642)"/>
<rect width="19.0244" height="2.92683" transform="matrix(-1 0 0 1 235.801 161.093)" fill="url(#paint28_linear_7398_10642)"/>
<rect width="19.0244" height="2.92683" transform="matrix(-1 0 0 1 235.801 146.458)" fill="url(#paint29_linear_7398_10642)"/>
<line y1="-0.228068" x2="19.0244" y2="-0.228068" transform="matrix(-1 8.74227e-08 8.74228e-08 1 235.801 172.799)" stroke="#FFF1D5" stroke-width="0.456135"/>
<line y1="-0.228068" x2="19.0244" y2="-0.228068" transform="matrix(-1 8.74227e-08 8.74228e-08 1 235.801 175.77)" stroke="#FFF1D5" stroke-width="0.456135"/>
<line y1="-0.228068" x2="19.0244" y2="-0.228068" transform="matrix(-1 8.74227e-08 8.74228e-08 1 235.801 158.167)" stroke="#FFF1D5" stroke-width="0.456135"/>
<line y1="-0.228068" x2="19.0244" y2="-0.228068" transform="matrix(-1 8.74227e-08 8.74228e-08 1 235.801 169.874)" stroke="#FFF1D5" stroke-width="0.456135"/>
<line y1="-0.228068" x2="19.0244" y2="-0.228068" transform="matrix(-1 8.74227e-08 8.74228e-08 1 235.801 155.238)" stroke="#FFF1D5" stroke-width="0.456135"/>
<line y1="-0.228068" x2="19.0244" y2="-0.228068" transform="matrix(-1 8.74227e-08 8.74228e-08 1 235.801 166.945)" stroke="#FFF1D5" stroke-width="0.456135"/>
<line y1="-0.228068" x2="19.0244" y2="-0.228068" transform="matrix(-1 8.74227e-08 8.74228e-08 1 235.801 152.312)" stroke="#FFF1D5" stroke-width="0.456135"/>
<line y1="-0.228068" x2="19.0244" y2="-0.228068" transform="matrix(-1 8.74227e-08 8.74228e-08 1 235.801 164.263)" stroke="#FFF1D5" stroke-width="0.456135"/>
<line y1="-0.228068" x2="19.0244" y2="-0.228068" transform="matrix(-1 8.74227e-08 8.74228e-08 1 235.801 149.628)" stroke="#FFF1D5" stroke-width="0.456135"/>
<line y1="-0.228068" x2="19.0244" y2="-0.228068" transform="matrix(-1 8.74227e-08 8.74228e-08 1 235.801 161.336)" stroke="#FFF1D5" stroke-width="0.456135"/>
<rect width="19.0244" height="2.92683" transform="matrix(-1 0 0 1 235.802 143.809)" fill="url(#paint30_linear_7398_10642)"/>
<rect width="19.0244" height="2.92683" transform="matrix(-1 0 0 1 235.802 129.176)" fill="url(#paint31_linear_7398_10642)"/>
<rect width="19.0244" height="2.92683" transform="matrix(-1 0 0 1 235.802 140.884)" fill="url(#paint32_linear_7398_10642)"/>
<rect width="19.0244" height="2.92683" transform="matrix(-1 0 0 1 235.802 137.957)" fill="url(#paint33_linear_7398_10642)"/>
<rect width="19.0244" height="2.92683" transform="matrix(-1 0 0 1 235.802 135.03)" fill="url(#paint34_linear_7398_10642)"/>
<rect width="19.0244" height="2.92683" transform="matrix(-1 0 0 1 235.802 132.104)" fill="url(#paint35_linear_7398_10642)"/>
<line y1="-0.228068" x2="19.0244" y2="-0.228068" transform="matrix(-1 8.74227e-08 8.74228e-08 1 235.802 143.809)" stroke="#FFF1D5" stroke-width="0.456135"/>
<line y1="-0.228068" x2="19.0244" y2="-0.228068" transform="matrix(-1 8.74227e-08 8.74228e-08 1 235.802 146.78)" stroke="#FFF1D5" stroke-width="0.456135"/>
<line y1="-0.228068" x2="19.0244" y2="-0.228068" transform="matrix(-1 8.74227e-08 8.74228e-08 1 235.802 140.884)" stroke="#FFF1D5" stroke-width="0.456135"/>
<line y1="-0.228068" x2="19.0244" y2="-0.228068" transform="matrix(-1 8.74227e-08 8.74228e-08 1 235.802 137.957)" stroke="#FFF1D5" stroke-width="0.456135"/>
<line y1="-0.228068" x2="19.0244" y2="-0.228068" transform="matrix(-1 8.74227e-08 8.74228e-08 1 235.802 135.273)" stroke="#FFF1D5" stroke-width="0.456135"/>
<line y1="-0.228068" x2="19.0244" y2="-0.228068" transform="matrix(-1 8.74227e-08 8.74228e-08 1 235.802 132.347)" stroke="#FFF1D5" stroke-width="0.456135"/>
<path d="M224.631 185.717C224.896 188.628 229.787 206.895 231.641 217.226L239.644 252.287L264.616 247.561C265.89 238.956 245.953 194.471 243.662 190.749C242.838 189.004 243.308 185.011 259.732 174.587C276.157 164.164 270.242 158.418 268.654 161.837C267.066 165.255 253.951 172.515 239.672 173.92C225.394 175.325 223.779 182.451 224.631 185.717Z" fill="url(#paint36_linear_7398_10642)"/>
<path d="M151.841 186.62C152.877 178.043 154.757 169.677 154.757 169.677L132.893 156.645L130.415 169.677C135.239 177.474 143.342 182.979 151.841 186.62Z" fill="black" stroke="black" stroke-width="0.466791" stroke-miterlimit="10"/>
<path d="M151.844 186.619C143.344 182.978 135.242 177.473 130.418 169.676L124.823 199.117C124.823 199.117 154.269 210.402 151.815 202.061C150.809 198.641 151.123 192.581 151.844 186.619Z" fill="url(#paint37_linear_7398_10642)"/>
<path fill-rule="evenodd" clip-rule="evenodd" d="M176.22 175.149C205.13 157.906 153.684 106.543 153.684 106.543H153.679C153.679 106.543 144.517 93.2795 114.753 107.789C97.0831 116.405 101.882 133.654 108.699 146.249C106.044 147.057 102.833 148.718 103.013 152.006C103.312 157.428 109.378 164.474 117.498 159.509C118.415 160.666 118.978 161.312 118.978 161.312C118.978 161.312 147.309 192.391 176.22 175.149Z" fill="url(#paint38_linear_7398_10642)"/>
<path d="M153.416 97.4672C152.248 96.5889 149.765 95.6664 146.491 94.8862C135.277 95.6173 124.098 93.5074 113.331 97.5457C110.769 98.5074 108.526 100.092 106.799 102.104C112.138 101.618 117.478 102.158 122.164 103.434C135.852 107.344 150.162 110.313 162.618 105.397C166.068 99.9255 167.874 96.0001 167.874 96.0001C167.874 96.0001 160.286 102.619 153.416 97.4721V97.4672Z" fill="#4C4529"/>
<path d="M116.561 151.138C116.561 151.138 114.181 150.348 111.742 150.01C109.549 149.706 107.301 149.769 106.697 151.109" stroke="black" stroke-width="0.466791" stroke-miterlimit="10"/>
<path fill-rule="evenodd" clip-rule="evenodd" d="M135.852 95.0096C128.233 94.8958 120.685 94.783 113.33 97.5416V97.5367C110.773 98.4985 108.53 100.088 106.798 102.095C105.61 102.203 104.418 102.36 103.235 102.571C110.611 91.0647 134.172 91.9479 146.49 94.8822C142.937 95.1154 139.387 95.0624 135.852 95.0096ZM106.788 102.1C103.211 106.246 101.842 112.198 104.487 118.15H104.492C98.2248 120.029 94.9613 125.304 93.4203 131.173C93.2142 122.497 101.636 116.305 101.636 116.305C100.276 110.466 101.042 105.981 103.226 102.576C104.408 102.365 105.601 102.208 106.788 102.1Z" fill="white"/>
<path d="M162.613 105.393C150.162 110.31 135.852 107.341 122.16 103.43C117.473 102.15 112.133 101.615 106.794 102.101C103.216 106.252 101.847 112.199 104.492 118.151C98.2303 120.03 94.9668 125.305 93.4209 131.173C93.5436 136.453 96.8562 142.65 107.201 148.941L112.585 149.495L111.952 145.481L111.078 144.407L119.902 149.755L114.636 138.607C138.011 138.779 154.667 117.994 162.613 105.393Z" fill="#2B250D"/>
<path d="M112.538 150.132C109.132 150.427 109.485 155.093 109.485 155.093C109.485 155.093 113.529 150.466 114.78 150.623L112.542 150.132H112.538Z" fill="black" stroke="black" stroke-width="0.466791" stroke-miterlimit="10"/>
<path d="M146.335 137.496L145.999 137.69C145.344 138.068 145.12 138.905 145.498 139.56L147.132 142.39C147.51 143.044 148.348 143.269 149.003 142.891L149.338 142.697C149.993 142.319 150.218 141.482 149.84 140.827L148.205 137.997C147.827 137.342 146.99 137.118 146.335 137.496Z" fill="black"/>
<path d="M159.788 129.273L159.452 129.466C158.797 129.844 158.573 130.682 158.951 131.336L160.585 134.167C160.964 134.821 161.801 135.046 162.456 134.668L162.792 134.474C163.446 134.096 163.671 133.259 163.293 132.604L161.659 129.774C161.28 129.119 160.443 128.895 159.788 129.273Z" fill="black"/>
<path d="M136.156 163.293C141.441 163.293 145.725 159.009 145.725 153.725C145.725 148.441 141.441 144.157 136.156 144.157C130.87 144.157 126.586 148.441 126.586 153.725C126.586 159.009 130.87 163.293 136.156 163.293Z" fill="#FFB18A"/>
<path d="M166.335 152.519C166.335 152.519 155.455 165.252 140.217 154.486" stroke="black" stroke-width="0.933583" stroke-miterlimit="10"/>
<path d="M156.514 143.401L144.657 151.399C143.838 151.949 142.694 151.458 142.454 150.457L141.399 146.026C141.261 145.443 141.482 144.849 141.953 144.53L153.81 136.532C154.63 135.982 155.773 136.473 156.013 137.474L157.069 141.905C157.206 142.489 156.985 143.082 156.514 143.401Z" stroke="black" stroke-width="0.933583" stroke-miterlimit="10"/>
<path d="M171.723 133.099L161.829 140.116C161.01 140.665 159.866 140.175 159.626 139.174L158.571 134.743C158.433 134.159 158.654 133.565 159.125 133.246L169.019 126.23C169.838 125.68 170.982 126.171 171.222 127.172L172.277 131.603C172.415 132.186 172.194 132.78 171.723 133.099Z" stroke="black" stroke-width="0.933583" stroke-miterlimit="10"/>
<path d="M156.482 138.467L159.216 136.45" stroke="black" stroke-width="0.933583" stroke-miterlimit="10"/>
<path d="M124.932 189.802C124.932 189.802 138.27 206.951 155.628 195.53C155.628 195.53 177.142 192.851 204.581 212.668C217.466 222.821 236.593 247.347 236.593 247.347L228.971 210.762L251.837 205.046C262.127 232.866 291.852 270.594 264.413 299.939C248.788 310.991 211.441 280.884 197.721 266.402L208.011 342.838H102.001L62.4315 342.839C58.2842 299.312 30.5679 205.239 124.932 189.802Z" fill="url(#paint39_linear_7398_10642)"/>
<path d="M102.001 342.839L102.001 342.838M102.001 342.838L62.4315 342.839C58.2842 299.312 30.5679 205.239 124.932 189.802C124.932 189.802 138.27 206.951 155.628 195.53C155.628 195.53 177.142 192.851 204.581 212.668C217.466 222.821 236.593 247.347 236.593 247.347L228.971 210.762L251.837 205.046C262.127 232.866 291.852 270.594 264.413 299.939C248.788 310.991 211.441 280.884 197.721 266.402L208.011 342.838H102.001Z" stroke="url(#paint40_linear_7398_10642)" stroke-width="0.649354" stroke-miterlimit="10"/>
<path d="M97.0906 331.489C93.7839 317.73 95.2054 293.222 97.0906 272.485C97.8191 264.475 98.3923 258.385 98.3923 258.385L104.356 327.363L97.0906 331.489Z" fill="url(#paint41_linear_7398_10642)"/>
<rect x="238.003" y="109.412" width="21.2224" height="1.98008" transform="rotate(-35.5409 238.003 109.412)" fill="#CF8900"/>
<ellipse cx="247.801" cy="104.878" rx="10.6112" ry="5.20406" transform="rotate(-35.5409 247.801 104.878)" fill="url(#paint42_linear_7398_10642)"/>
<ellipse cx="246.65" cy="103.268" rx="10.6112" ry="5.20406" transform="rotate(-35.5409 246.65 103.268)" fill="url(#paint43_linear_7398_10642)"/>
<ellipse cx="246.647" cy="103.267" rx="9.39269" ry="4.59481" transform="rotate(-35.5409 246.647 103.267)" fill="url(#paint44_linear_7398_10642)"/>
<mask id="mask0_7398_10642" style="mask-type:alpha" maskUnits="userSpaceOnUse" x="238" y="96" width="17" height="14">
<ellipse cx="246.648" cy="103.267" rx="9.39269" ry="4.59481" transform="rotate(-35.5409 246.648 103.267)" fill="url(#paint45_linear_7398_10642)"/>
</mask>
<g mask="url(#mask0_7398_10642)">
<ellipse cx="247.005" cy="103.763" rx="9.39269" ry="4.59481" transform="rotate(-35.5409 247.005 103.763)" fill="url(#paint46_linear_7398_10642)"/>
<g filter="url(#filter0_d_7398_10642)">
<path d="M243.737 105.707L249.043 99.5339L249.858 99.8477L244.552 106.021L243.737 105.707ZM244.64 105.111C244.183 104.935 243.787 104.718 243.452 104.461C243.12 104.199 242.894 103.94 242.774 103.684L243.911 103.056C244.035 103.29 244.224 103.517 244.476 103.736C244.738 103.954 245.039 104.128 245.382 104.26C245.642 104.36 245.869 104.421 246.06 104.443C246.261 104.462 246.431 104.449 246.571 104.403C246.711 104.358 246.822 104.288 246.905 104.191C247.011 104.069 247.034 103.949 246.974 103.833C246.919 103.713 246.812 103.593 246.654 103.474C246.5 103.35 246.32 103.223 246.115 103.091C245.919 102.958 245.728 102.814 245.541 102.661C245.361 102.509 245.214 102.348 245.101 102.176C244.988 102.005 244.937 101.816 244.947 101.61C244.963 101.407 245.077 101.182 245.287 100.937C245.513 100.674 245.805 100.469 246.163 100.322C246.531 100.172 246.946 100.102 247.408 100.111C247.879 100.117 248.384 100.224 248.922 100.431C249.281 100.57 249.604 100.741 249.891 100.945C250.182 101.144 250.403 101.363 250.552 101.601L249.451 102.252C249.29 102.027 249.101 101.835 248.883 101.675C248.67 101.511 248.435 101.38 248.18 101.282C247.925 101.184 247.695 101.127 247.49 101.113C247.286 101.098 247.115 101.116 246.976 101.168C246.842 101.215 246.731 101.289 246.645 101.39C246.543 101.508 246.52 101.627 246.576 101.748C246.635 101.864 246.743 101.982 246.901 102.101C247.059 102.22 247.236 102.346 247.432 102.48C247.634 102.616 247.827 102.757 248.012 102.904C248.202 103.053 248.353 103.213 248.466 103.385C248.579 103.557 248.627 103.744 248.611 103.948C248.601 104.154 248.492 104.377 248.285 104.618C248.063 104.876 247.77 105.078 247.406 105.223C247.043 105.369 246.625 105.438 246.154 105.431C245.688 105.427 245.183 105.32 244.64 105.111Z" fill="#FFEFC5"/>
</g>
</g>
<path fill-rule="evenodd" clip-rule="evenodd" d="M61.4351 103.75C33.5805 103.75 11 81.1691 11 53.3139C11 25.4586 33.5805 2.87744 61.4351 2.87744C89.2896 2.87744 111.87 25.4586 111.87 53.3139C111.87 74.1681 99.2137 92.0662 81.1633 99.7457C83.8493 104.322 88.2102 106.519 90.6876 107.114C83.9656 107.954 77.4409 105.439 72.5762 102.516C68.9921 103.324 65.2634 103.75 61.4351 103.75Z" fill="black"/>
<path d="M63.5918 85.5584L29.03 72.2981C29.8455 58.4399 41.9932 29.4991 47.9652 16.761L76.1391 28.4213L63.5918 85.5584Z" fill="url(#paint47_linear_7398_10642)"/>
<g filter="url(#filter1_d_7398_10642)">
<path d="M70.6832 86.9599L35.6375 73.5032C33.2387 53.7115 45.5078 27.8468 51.9421 17.3884L78.8741 32.2766C71.6213 41.3685 70.3915 72.5204 70.6832 86.9599Z" fill="url(#paint48_linear_7398_10642)"/>
</g>
<g filter="url(#filter2_d_7398_10642)">
<path d="M41.1397 73.7207C34.3413 67.0801 45.8554 34.2136 52.4623 18.6105L80.0168 32.4063C66.8533 56.1389 71.7343 78.6093 75.8202 86.878L41.1397 73.7207Z" fill="url(#paint49_linear_7398_10642)"/>
</g>
<g filter="url(#filter3_d_7398_10642)">
<path d="M46.6583 71.9159C37.7227 62.0379 47.7185 32.6413 53.8333 19.1778L65.2051 23.8842L82.3619 34.9958C71.6228 55.5083 77.2135 76.6389 81.3512 84.6402L46.6583 71.9159Z" fill="url(#paint50_linear_7398_10642)"/>
</g>
<g filter="url(#filter4_d_7398_10642)">
<path d="M87.004 82.0795C78.0044 74.52 83.1595 50.4287 86.862 39.3279L89.0009 32.7232L54.9932 18.6484L51.4142 29.4507C43.0445 55.707 48.6074 67.2369 52.435 69.7198L87.004 82.0795Z" fill="url(#paint51_linear_7398_10642)"/>
</g>
<path d="M88.7911 31.1001L51.1671 16.4212C48.0306 15.1231 46.7 16.3576 46.4268 17.137L43.5357 24.1225L44.674 24.5936L47.0394 18.8782C47.5019 17.7606 48.2636 17.3518 48.5867 17.2872L53.7719 19.4332C55.5931 20.1869 55.4593 21.3216 55.1647 21.7948L52.6416 27.8911L87.641 41.0375L90.059 35.1951C91.1103 32.655 89.6518 31.4067 88.7911 31.1001Z" fill="url(#paint52_linear_7398_10642)"/>
<path d="M62.4216 50.5647C60.7601 50.0873 59.6005 48.688 60.365 46.0643C61.0466 43.7292 62.6876 42.6283 64.568 43.1685C66.1399 43.6201 66.9157 44.9307 66.6835 46.1887L64.8231 45.6542C64.8437 45.2078 64.5427 44.9059 64.1049 44.7802C63.2593 44.5372 62.6455 45.2117 62.2996 46.4155L62.3394 46.4269C62.8166 45.8532 63.6671 45.6668 64.4929 45.904C65.7962 46.2784 66.4044 47.4978 66.0242 48.821C65.5812 50.3631 64.1129 51.0506 62.4216 50.5647ZM62.8261 49.1192C63.423 49.2907 63.9893 48.9688 64.1637 48.3619C64.3409 47.7451 64.0417 47.1745 63.4349 47.0001C62.8379 46.8286 62.2716 47.1506 62.0943 47.7674C61.92 48.3743 62.2291 48.9477 62.8261 49.1192ZM69.1844 52.5075C67.2443 51.9502 66.4264 50.2613 67.1038 47.9034C67.784 45.5356 69.3708 44.5483 71.3109 45.1056C73.2509 45.663 74.0688 47.3519 73.3914 49.7098C72.7112 52.0776 71.1244 53.0649 69.1844 52.5075ZM69.6217 50.9854C70.3209 51.1755 70.9914 50.6788 71.4315 49.1467C71.8602 47.6544 71.57 46.8279 70.8736 46.6278C70.1771 46.4277 69.5024 46.977 69.0637 48.4665C68.6235 49.9986 68.9281 50.7754 69.6217 50.9854ZM55.0975 57.7169L52.7595 57.0452L54.8289 49.8423L57.2365 50.5339C59.3556 51.1427 60.2403 52.8616 59.5972 55.1001C58.9513 57.3485 57.2862 58.3457 55.0975 57.7169ZM54.1283 56.4045L55.3122 56.7446C56.9438 57.2134 58.024 56.4898 58.5128 54.7886C58.9987 53.0973 58.4644 51.9206 56.8925 51.469L55.6489 51.1118L54.1283 56.4045ZM59.7905 57.4173C60.1449 56.1837 61.281 56.1654 62.276 56.3759C62.6413 56.4539 63.465 56.6421 63.7215 56.705L63.8345 56.2744C64.0088 55.6675 63.7436 55.2036 63.0174 54.9949C62.3906 54.8149 61.9297 54.9948 61.7059 55.3613L60.6513 55.0583C61.008 54.1915 62.0295 53.7849 63.303 54.1508C64.1586 54.3966 65.3306 55.0779 64.8819 56.6399L63.8501 60.2314L62.8154 59.9341L63.0269 59.1979L62.9871 59.1865C62.661 59.5344 62.0349 59.8392 61.1395 59.5819C60.1148 59.2875 59.4875 58.4719 59.7905 57.4173ZM60.8223 57.7245C60.6737 58.2419 61.0243 58.6334 61.6212 58.8049C62.4868 59.0535 63.1699 58.6251 63.3557 57.9785L63.4986 57.481L62.1994 57.2047C61.4887 57.0544 60.9767 57.1873 60.8223 57.7245ZM64.9061 62.7319C64.6873 62.669 64.4812 62.599 64.3476 62.5391L64.602 61.6537C64.7185 61.6979 64.9246 61.7679 65.0738 61.8108C65.4022 61.9051 65.6893 61.9553 66.1324 61.3502L66.3646 61.0292L65.9568 54.9886L67.091 55.3144L67.2506 59.8944L67.3103 59.9116L69.8766 56.1147L71.0207 56.4434L67.0344 61.9217C66.4802 62.6887 65.7916 62.9863 64.9061 62.7319ZM74.3958 59.007C74.4192 58.5506 74.161 58.1748 73.574 58.0062C72.9671 57.8319 72.4379 58.0245 72.3307 58.4352C72.2293 58.7507 72.4222 59.0539 72.9791 59.3646L73.7775 59.8094C74.7095 60.3141 75.0499 60.9288 74.8397 61.6978C74.5497 62.6699 73.5338 63.1319 72.1509 62.7346C70.8576 62.3631 70.2474 61.5631 70.4067 60.5211L71.4911 60.8327C71.4406 61.3459 71.7501 61.6933 72.3868 61.8762C73.0733 62.0734 73.591 61.9206 73.7325 61.4658C73.8225 61.1147 73.6296 60.8116 73.0997 60.5194L72.3055 60.0973C71.3934 59.5983 71.0346 58.9352 71.249 58.1891C71.5262 57.224 72.5506 56.8075 73.8041 57.1676C75.0079 57.5135 75.5769 58.3447 75.4205 59.3014L74.3958 59.007Z" fill="black"/>
</g>
<defs>
<filter id="filter0_d_7398_10642" x="240.409" y="99.0605" width="12.51" height="11.2185" filterUnits="userSpaceOnUse" color-interpolation-filters="sRGB">
<feFlood flood-opacity="0" result="BackgroundImageFix"/>
<feColorMatrix in="SourceAlpha" type="matrix" values="0 0 0 0 0 0 0 0 0 0 0 0 0 0 0 0 0 0 127 0" result="hardAlpha"/>
<feOffset dy="1.89267"/>
<feGaussianBlur stdDeviation="1.18292"/>
<feComposite in2="hardAlpha" operator="out"/>
<feColorMatrix type="matrix" values="0 0 0 0 0.668913 0 0 0 0 0.441654 0 0 0 0 0 0 0 0 1 0"/>
<feBlend mode="normal" in2="BackgroundImageFix" result="effect1_dropShadow_7398_10642"/>
<feBlend mode="normal" in="SourceGraphic" in2="effect1_dropShadow_7398_10642" result="shape"/>
</filter>
<filter id="filter1_d_7398_10642" x="31.2225" y="15.1686" width="51.76" height="77.7888" filterUnits="userSpaceOnUse" color-interpolation-filters="sRGB">
<feFlood flood-opacity="0" result="BackgroundImageFix"/>
<feColorMatrix in="SourceAlpha" type="matrix" values="0 0 0 0 0 0 0 0 0 0 0 0 0 0 0 0 0 0 127 0" result="hardAlpha"/>
<feOffset dy="1.88897"/>
<feGaussianBlur stdDeviation="2.05426"/>
<feComposite in2="hardAlpha" operator="out"/>
<feColorMatrix type="matrix" values="0 0 0 0 0 0 0 0 0 0 0 0 0 0 0 0 0 0 0.25 0"/>
<feBlend mode="normal" in2="BackgroundImageFix" result="effect1_dropShadow_7398_10642"/>
<feBlend mode="normal" in="SourceGraphic" in2="effect1_dropShadow_7398_10642" result="shape"/>
</filter>
<filter id="filter2_d_7398_10642" x="34.955" y="16.3908" width="49.1701" height="76.4846" filterUnits="userSpaceOnUse" color-interpolation-filters="sRGB">
<feFlood flood-opacity="0" result="BackgroundImageFix"/>
<feColorMatrix in="SourceAlpha" type="matrix" values="0 0 0 0 0 0 0 0 0 0 0 0 0 0 0 0 0 0 127 0" result="hardAlpha"/>
<feOffset dy="1.88897"/>
<feGaussianBlur stdDeviation="2.05426"/>
<feComposite in2="hardAlpha" operator="out"/>
<feColorMatrix type="matrix" values="0 0 0 0 0 0 0 0 0 0 0 0 0 0 0 0 0 0 0.25 0"/>
<feBlend mode="normal" in2="BackgroundImageFix" result="effect1_dropShadow_7398_10642"/>
<feBlend mode="normal" in="SourceGraphic" in2="effect1_dropShadow_7398_10642" result="shape"/>
</filter>
<filter id="filter3_d_7398_10642" x="38.995" y="16.9582" width="47.4758" height="73.6794" filterUnits="userSpaceOnUse" color-interpolation-filters="sRGB">
<feFlood flood-opacity="0" result="BackgroundImageFix"/>
<feColorMatrix in="SourceAlpha" type="matrix" values="0 0 0 0 0 0 0 0 0 0 0 0 0 0 0 0 0 0 127 0" result="hardAlpha"/>
<feOffset dy="1.88897"/>
<feGaussianBlur stdDeviation="2.05426"/>
<feComposite in2="hardAlpha" operator="out"/>
<feColorMatrix type="matrix" values="0 0 0 0 0 0 0 0 0 0 0 0 0 0 0 0 0 0 0.25 0"/>
<feBlend mode="normal" in2="BackgroundImageFix" result="effect1_dropShadow_7398_10642"/>
<feBlend mode="normal" in="SourceGraphic" in2="effect1_dropShadow_7398_10642" result="shape"/>
</filter>
<filter id="filter4_d_7398_10642" x="42.9403" y="16.4289" width="50.1692" height="71.6482" filterUnits="userSpaceOnUse" color-interpolation-filters="sRGB">
<feFlood flood-opacity="0" result="BackgroundImageFix"/>
<feColorMatrix in="SourceAlpha" type="matrix" values="0 0 0 0 0 0 0 0 0 0 0 0 0 0 0 0 0 0 127 0" result="hardAlpha"/>
<feOffset dy="1.88897"/>
<feGaussianBlur stdDeviation="2.05426"/>
<feComposite in2="hardAlpha" operator="out"/>
<feColorMatrix type="matrix" values="0 0 0 0 0 0 0 0 0 0 0 0 0 0 0 0 0 0 0.25 0"/>
<feBlend mode="normal" in2="BackgroundImageFix" result="effect1_dropShadow_7398_10642"/>
<feBlend mode="normal" in="SourceGraphic" in2="effect1_dropShadow_7398_10642" result="shape"/>
</filter>
<linearGradient id="paint0_linear_7398_10642" x1="0" y1="1.46341" x2="19.0244" y2="1.46341" gradientUnits="userSpaceOnUse">
<stop stop-color="#FFDFA3"/>
<stop offset="0.5" stop-color="#DE9103"/>
<stop offset="1" stop-color="#CC8600"/>
</linearGradient>
<linearGradient id="paint1_linear_7398_10642" x1="0" y1="1.46341" x2="19.0244" y2="1.46341" gradientUnits="userSpaceOnUse">
<stop stop-color="#FFDFA3"/>
<stop offset="0.5" stop-color="#DE9103"/>
<stop offset="1" stop-color="#CC8600"/>
</linearGradient>
<linearGradient id="paint2_linear_7398_10642" x1="0" y1="1.46341" x2="19.0244" y2="1.46341" gradientUnits="userSpaceOnUse">
<stop stop-color="#FFDFA3"/>
<stop offset="0.5" stop-color="#DE9103"/>
<stop offset="1" stop-color="#CC8600"/>
</linearGradient>
<linearGradient id="paint3_linear_7398_10642" x1="0" y1="1.46341" x2="19.0244" y2="1.46341" gradientUnits="userSpaceOnUse">
<stop stop-color="#FFDFA3"/>
<stop offset="0.5" stop-color="#DE9103"/>
<stop offset="1" stop-color="#CC8600"/>
</linearGradient>
<linearGradient id="paint4_linear_7398_10642" x1="0" y1="1.46341" x2="19.0244" y2="1.46341" gradientUnits="userSpaceOnUse">
<stop stop-color="#FFDFA3"/>
<stop offset="0.5" stop-color="#DE9103"/>
<stop offset="1" stop-color="#CC8600"/>
</linearGradient>
<linearGradient id="paint5_linear_7398_10642" x1="0" y1="1.46341" x2="19.0244" y2="1.46341" gradientUnits="userSpaceOnUse">
<stop stop-color="#FFDFA3"/>
<stop offset="0.5" stop-color="#DE9103"/>
<stop offset="1" stop-color="#CC8600"/>
</linearGradient>
<linearGradient id="paint6_linear_7398_10642" x1="0" y1="1.46341" x2="19.0244" y2="1.46341" gradientUnits="userSpaceOnUse">
<stop stop-color="#FFDFA3"/>
<stop offset="0.5" stop-color="#DE9103"/>
<stop offset="1" stop-color="#CC8600"/>
</linearGradient>
<linearGradient id="paint7_linear_7398_10642" x1="0" y1="1.46341" x2="19.0244" y2="1.46341" gradientUnits="userSpaceOnUse">
<stop stop-color="#FFDFA3"/>
<stop offset="0.5" stop-color="#DE9103"/>
<stop offset="1" stop-color="#CC8600"/>
</linearGradient>
<linearGradient id="paint8_linear_7398_10642" x1="0" y1="1.46341" x2="19.0244" y2="1.46341" gradientUnits="userSpaceOnUse">
<stop stop-color="#FFDFA3"/>
<stop offset="0.5" stop-color="#DE9103"/>
<stop offset="1" stop-color="#CC8600"/>
</linearGradient>
<linearGradient id="paint9_linear_7398_10642" x1="0" y1="1.46341" x2="19.0244" y2="1.46341" gradientUnits="userSpaceOnUse">
<stop stop-color="#FFDFA3"/>
<stop offset="0.5" stop-color="#DE9103"/>
<stop offset="1" stop-color="#CC8600"/>
</linearGradient>
<linearGradient id="paint10_linear_7398_10642" x1="0" y1="1.46341" x2="19.0244" y2="1.46341" gradientUnits="userSpaceOnUse">
<stop stop-color="#FFDFA3"/>
<stop offset="0.5" stop-color="#DE9103"/>
<stop offset="1" stop-color="#CC8600"/>
</linearGradient>
<linearGradient id="paint11_linear_7398_10642" x1="0" y1="1.46341" x2="19.0244" y2="1.46341" gradientUnits="userSpaceOnUse">
<stop stop-color="#FFDFA3"/>
<stop offset="0.5" stop-color="#DE9103"/>
<stop offset="1" stop-color="#CC8600"/>
</linearGradient>
<linearGradient id="paint12_linear_7398_10642" x1="0" y1="1.46341" x2="19.0244" y2="1.46341" gradientUnits="userSpaceOnUse">
<stop stop-color="#FFDFA3"/>
<stop offset="0.5" stop-color="#DE9103"/>
<stop offset="1" stop-color="#CC8600"/>
</linearGradient>
<linearGradient id="paint13_linear_7398_10642" x1="0" y1="1.46341" x2="19.0244" y2="1.46341" gradientUnits="userSpaceOnUse">
<stop stop-color="#FFDFA3"/>
<stop offset="0.5" stop-color="#DE9103"/>
<stop offset="1" stop-color="#CC8600"/>
</linearGradient>
<linearGradient id="paint14_linear_7398_10642" x1="0" y1="1.46341" x2="19.0244" y2="1.46341" gradientUnits="userSpaceOnUse">
<stop stop-color="#FFDFA3"/>
<stop offset="0.5" stop-color="#DE9103"/>
<stop offset="1" stop-color="#CC8600"/>
</linearGradient>
<linearGradient id="paint15_linear_7398_10642" x1="0" y1="1.46341" x2="19.0244" y2="1.46341" gradientUnits="userSpaceOnUse">
<stop stop-color="#FFDFA3"/>
<stop offset="0.5" stop-color="#DE9103"/>
<stop offset="1" stop-color="#CC8600"/>
</linearGradient>
<linearGradient id="paint16_linear_7398_10642" x1="0" y1="1.46341" x2="19.0244" y2="1.46341" gradientUnits="userSpaceOnUse">
<stop stop-color="#FFDFA3"/>
<stop offset="0.5" stop-color="#DE9103"/>
<stop offset="1" stop-color="#CC8600"/>
</linearGradient>
<linearGradient id="paint17_linear_7398_10642" x1="0" y1="1.46341" x2="19.0244" y2="1.46341" gradientUnits="userSpaceOnUse">
<stop stop-color="#FFDFA3"/>
<stop offset="0.5" stop-color="#DE9103"/>
<stop offset="1" stop-color="#CC8600"/>
</linearGradient>
<linearGradient id="paint18_linear_7398_10642" x1="0" y1="1.46341" x2="19.0244" y2="1.46341" gradientUnits="userSpaceOnUse">
<stop stop-color="#FFDFA3"/>
<stop offset="0.5" stop-color="#DE9103"/>
<stop offset="1" stop-color="#CC8600"/>
</linearGradient>
<linearGradient id="paint19_linear_7398_10642" x1="0" y1="1.46341" x2="19.0244" y2="1.46341" gradientUnits="userSpaceOnUse">
<stop stop-color="#FFDFA3"/>
<stop offset="0.5" stop-color="#DE9103"/>
<stop offset="1" stop-color="#CC8600"/>
</linearGradient>
<linearGradient id="paint20_linear_7398_10642" x1="0" y1="1.46341" x2="19.0244" y2="1.46341" gradientUnits="userSpaceOnUse">
<stop stop-color="#FFDFA3"/>
<stop offset="0.5" stop-color="#DE9103"/>
<stop offset="1" stop-color="#CC8600"/>
</linearGradient>
<linearGradient id="paint21_linear_7398_10642" x1="0" y1="1.46341" x2="19.0244" y2="1.46341" gradientUnits="userSpaceOnUse">
<stop stop-color="#FFDFA3"/>
<stop offset="0.5" stop-color="#DE9103"/>
<stop offset="1" stop-color="#CC8600"/>
</linearGradient>
<linearGradient id="paint22_linear_7398_10642" x1="0" y1="1.46341" x2="19.0244" y2="1.46341" gradientUnits="userSpaceOnUse">
<stop stop-color="#FFDFA3"/>
<stop offset="0.5" stop-color="#DE9103"/>
<stop offset="1" stop-color="#CC8600"/>
</linearGradient>
<linearGradient id="paint23_linear_7398_10642" x1="0" y1="1.46341" x2="19.0244" y2="1.46341" gradientUnits="userSpaceOnUse">
<stop stop-color="#FFDFA3"/>
<stop offset="0.5" stop-color="#DE9103"/>
<stop offset="1" stop-color="#CC8600"/>
</linearGradient>
<linearGradient id="paint24_linear_7398_10642" x1="0" y1="1.46341" x2="19.0244" y2="1.46341" gradientUnits="userSpaceOnUse">
<stop stop-color="#FFDFA3"/>
<stop offset="0.5" stop-color="#DE9103"/>
<stop offset="1" stop-color="#CC8600"/>
</linearGradient>
<linearGradient id="paint25_linear_7398_10642" x1="0" y1="1.46341" x2="19.0244" y2="1.46341" gradientUnits="userSpaceOnUse">
<stop stop-color="#FFDFA3"/>
<stop offset="0.5" stop-color="#DE9103"/>
<stop offset="1" stop-color="#CC8600"/>
</linearGradient>
<linearGradient id="paint26_linear_7398_10642" x1="0" y1="1.46341" x2="19.0244" y2="1.46341" gradientUnits="userSpaceOnUse">
<stop stop-color="#FFDFA3"/>
<stop offset="0.5" stop-color="#DE9103"/>
<stop offset="1" stop-color="#CC8600"/>
</linearGradient>
<linearGradient id="paint27_linear_7398_10642" x1="0" y1="1.46341" x2="19.0244" y2="1.46341" gradientUnits="userSpaceOnUse">
<stop stop-color="#FFDFA3"/>
<stop offset="0.5" stop-color="#DE9103"/>
<stop offset="1" stop-color="#CC8600"/>
</linearGradient>
<linearGradient id="paint28_linear_7398_10642" x1="0" y1="1.46341" x2="19.0244" y2="1.46341" gradientUnits="userSpaceOnUse">
<stop stop-color="#FFDFA3"/>
<stop offset="0.5" stop-color="#DE9103"/>
<stop offset="1" stop-color="#CC8600"/>
</linearGradient>
<linearGradient id="paint29_linear_7398_10642" x1="0" y1="1.46341" x2="19.0244" y2="1.46341" gradientUnits="userSpaceOnUse">
<stop stop-color="#FFDFA3"/>
<stop offset="0.5" stop-color="#DE9103"/>
<stop offset="1" stop-color="#CC8600"/>
</linearGradient>
<linearGradient id="paint30_linear_7398_10642" x1="0" y1="1.46341" x2="19.0244" y2="1.46341" gradientUnits="userSpaceOnUse">
<stop stop-color="#FFDFA3"/>
<stop offset="0.5" stop-color="#DE9103"/>
<stop offset="1" stop-color="#CC8600"/>
</linearGradient>
<linearGradient id="paint31_linear_7398_10642" x1="0" y1="1.46341" x2="19.0244" y2="1.46341" gradientUnits="userSpaceOnUse">
<stop stop-color="#FFDFA3"/>
<stop offset="0.5" stop-color="#DE9103"/>
<stop offset="1" stop-color="#CC8600"/>
</linearGradient>
<linearGradient id="paint32_linear_7398_10642" x1="0" y1="1.46341" x2="19.0244" y2="1.46341" gradientUnits="userSpaceOnUse">
<stop stop-color="#FFDFA3"/>
<stop offset="0.5" stop-color="#DE9103"/>
<stop offset="1" stop-color="#CC8600"/>
</linearGradient>
<linearGradient id="paint33_linear_7398_10642" x1="0" y1="1.46341" x2="19.0244" y2="1.46341" gradientUnits="userSpaceOnUse">
<stop stop-color="#FFDFA3"/>
<stop offset="0.5" stop-color="#DE9103"/>
<stop offset="1" stop-color="#CC8600"/>
</linearGradient>
<linearGradient id="paint34_linear_7398_10642" x1="0" y1="1.46341" x2="19.0244" y2="1.46341" gradientUnits="userSpaceOnUse">
<stop stop-color="#FFDFA3"/>
<stop offset="0.5" stop-color="#DE9103"/>
<stop offset="1" stop-color="#CC8600"/>
</linearGradient>
<linearGradient id="paint35_linear_7398_10642" x1="0" y1="1.46341" x2="19.0244" y2="1.46341" gradientUnits="userSpaceOnUse">
<stop stop-color="#FFDFA3"/>
<stop offset="0.5" stop-color="#DE9103"/>
<stop offset="1" stop-color="#CC8600"/>
</linearGradient>
<linearGradient id="paint36_linear_7398_10642" x1="225.925" y1="167.303" x2="244.156" y2="222.202" gradientUnits="userSpaceOnUse">
<stop stop-color="#FFF7D8"/>
<stop offset="1" stop-color="#FF9292"/>
</linearGradient>
<linearGradient id="paint37_linear_7398_10642" x1="144.607" y1="191.748" x2="129.022" y2="203.685" gradientUnits="userSpaceOnUse">
<stop stop-color="#FFF7D8"/>
<stop offset="1" stop-color="#FF9292"/>
</linearGradient>
<linearGradient id="paint38_linear_7398_10642" x1="133.254" y1="119.757" x2="114.405" y2="221.775" gradientUnits="userSpaceOnUse">
<stop stop-color="#FFF7D8"/>
<stop offset="1" stop-color="#FF9292"/>
</linearGradient>
<linearGradient id="paint39_linear_7398_10642" x1="72.4093" y1="176.455" x2="172.245" y2="301.376" gradientUnits="userSpaceOnUse">
<stop stop-color="white"/>
<stop offset="1" stop-color="#CFCFFF"/>
</linearGradient>
<linearGradient id="paint40_linear_7398_10642" x1="173.42" y1="272.58" x2="184.341" y2="345.864" gradientUnits="userSpaceOnUse">
<stop offset="0.256188" stop-color="white" stop-opacity="0"/>
<stop offset="1" stop-color="white"/>
</linearGradient>
<linearGradient id="paint41_linear_7398_10642" x1="100.926" y1="331.489" x2="100.926" y2="244.599" gradientUnits="userSpaceOnUse">
<stop stop-color="#2E2E81"/>
<stop offset="1" stop-color="#88889E"/>
</linearGradient>
<linearGradient id="paint42_linear_7398_10642" x1="258.412" y1="104.878" x2="237.19" y2="104.878" gradientUnits="userSpaceOnUse">
<stop stop-color="#CF8900"/>
<stop offset="1" stop-color="#694500"/>
</linearGradient>
<linearGradient id="paint43_linear_7398_10642" x1="250.521" y1="96.9893" x2="243.42" y2="109.221" gradientUnits="userSpaceOnUse">
<stop stop-color="#FFE5B3"/>
<stop offset="0.395" stop-color="#FFB11A"/>
<stop offset="1" stop-color="#F7A300"/>
</linearGradient>
<linearGradient id="paint44_linear_7398_10642" x1="256.039" y1="107.354" x2="239.361" y2="98.6725" gradientUnits="userSpaceOnUse">
<stop stop-color="#FFBF44"/>
<stop offset="1" stop-color="#FFD179"/>
</linearGradient>
<linearGradient id="paint45_linear_7398_10642" x1="256.04" y1="107.354" x2="239.362" y2="98.6725" gradientUnits="userSpaceOnUse">
<stop stop-color="#936100"/>
<stop offset="1" stop-color="#FFD179"/>
</linearGradient>
<linearGradient id="paint46_linear_7398_10642" x1="256.398" y1="107.85" x2="239.719" y2="99.1681" gradientUnits="userSpaceOnUse">
<stop stop-color="#FFBF44"/>
<stop offset="1" stop-color="#FFD179"/>
</linearGradient>
<linearGradient id="paint47_linear_7398_10642" x1="66.6351" y1="24.4879" x2="44.2422" y2="78.594" gradientUnits="userSpaceOnUse">
<stop stop-color="white"/>
<stop offset="1" stop-color="#DBDBFF"/>
</linearGradient>
<linearGradient id="paint48_linear_7398_10642" x1="71.581" y1="25.5164" x2="49.3687" y2="79.1861" gradientUnits="userSpaceOnUse">
<stop stop-color="white"/>
<stop offset="1" stop-color="#DBDBFF"/>
</linearGradient>
<linearGradient id="paint49_linear_7398_10642" x1="74.4912" y1="27.7276" x2="53.3624" y2="78.7793" gradientUnits="userSpaceOnUse">
<stop stop-color="white"/>
<stop offset="1" stop-color="#DBDBFF"/>
</linearGradient>
<linearGradient id="paint50_linear_7398_10642" x1="77.1137" y1="28.8128" x2="57.4296" y2="76.3739" gradientUnits="userSpaceOnUse">
<stop stop-color="white"/>
<stop offset="1" stop-color="#DBDBFF"/>
</linearGradient>
<linearGradient id="paint51_linear_7398_10642" x1="79.8645" y1="28.9419" x2="61.4445" y2="73.4486" gradientUnits="userSpaceOnUse">
<stop stop-color="white"/>
<stop offset="1" stop-color="#DBDBFF"/>
</linearGradient>
<linearGradient id="paint52_linear_7398_10642" x1="45.6107" y1="19.1038" x2="89.2447" y2="37.1626" gradientUnits="userSpaceOnUse">
<stop stop-color="#9D6A19"/>
<stop offset="1" stop-color="#583600"/>
</linearGradient>
<clipPath id="clip0_7398_10642">
<rect width="276" height="321" fill="white" transform="matrix(-1 0 0 1 276 0)"/>
</clipPath>
</defs>
</svg>
