<svg xmlns="http://www.w3.org/2000/svg" width="123" height="114" viewBox="0 0 123 114" fill="none">
  <g clip-path="url(#clip0_11386_12360)">
    <g filter="url(#filter0_d_11386_12360)">
      <rect x="34.8267" y="111.549" width="20.898" height="3.21514" fill="url(#paint0_linear_11386_12360)"/>
      <rect x="34.8267" y="108.334" width="20.898" height="3.21514" fill="url(#paint1_linear_11386_12360)"/>
      <rect x="34.8267" y="105.12" width="20.898" height="3.21514" fill="url(#paint2_linear_11386_12360)"/>
      <rect x="34.8267" y="101.904" width="20.898" height="3.21514" fill="url(#paint3_linear_11386_12360)"/>
      <rect x="34.8267" y="98.6895" width="20.898" height="3.21514" fill="url(#paint4_linear_11386_12360)"/>
      <line x1="34.8267" y1="111.428" x2="55.7246" y2="111.428" stroke="#FFF1D5" stroke-width="0.242049"/>
      <line x1="34.8267" y1="108.213" x2="55.7246" y2="108.213" stroke="#FFF1D5" stroke-width="0.242049"/>
      <line x1="34.8267" y1="104.999" x2="55.7246" y2="104.999" stroke="#FFF1D5" stroke-width="0.242049"/>
      <line x1="34.8267" y1="102.051" x2="55.7246" y2="102.051" stroke="#FFF1D5" stroke-width="0.242049"/>
      <line x1="34.8267" y1="98.8355" x2="55.7246" y2="98.8355" stroke="#FFF1D5" stroke-width="0.242049"/>
      <rect x="34.8267" y="95.4731" width="20.898" height="3.21514" fill="url(#paint5_linear_11386_12360)"/>
      <line x1="34.8267" y1="95.8384" x2="55.7246" y2="95.8384" stroke="#FFF1D5" stroke-width="0.242049"/>
      <rect x="34.8267" y="92.4761" width="20.898" height="3.21514" fill="url(#paint6_linear_11386_12360)"/>
      <rect x="34.8267" y="89.7759" width="20.898" height="3.21514" fill="url(#paint7_linear_11386_12360)"/>
      <rect x="34.8267" y="87.1636" width="20.898" height="3.21514" fill="url(#paint8_linear_11386_12360)"/>
      <line x1="34.8267" y1="92.5972" x2="55.7246" y2="92.5972" stroke="#FFF1D5" stroke-width="0.242049"/>
      <line x1="34.8267" y1="89.9849" x2="55.7246" y2="89.9849" stroke="#FFF1D5" stroke-width="0.242049"/>
    </g>
    <g filter="url(#filter1_d_11386_12360)">
      <rect x="13.9287" y="111.314" width="19.7837" height="3.04365" fill="url(#paint9_linear_11386_12360)"/>
      <rect x="13.9287" y="108.271" width="19.7837" height="3.04365" fill="url(#paint10_linear_11386_12360)"/>
      <rect x="13.9287" y="105.227" width="19.7837" height="3.04365" fill="url(#paint11_linear_11386_12360)"/>
      <rect x="13.9287" y="102.184" width="19.7837" height="3.04365" fill="url(#paint12_linear_11386_12360)"/>
      <line x1="13.9287" y1="111.168" x2="33.7124" y2="111.168" stroke="#FFF1D5" stroke-width="0.292626"/>
      <line x1="13.9287" y1="108.379" x2="33.7124" y2="108.379" stroke="#FFF1D5" stroke-width="0.292626"/>
      <line x1="13.9287" y1="105.335" x2="33.7124" y2="105.335" stroke="#FFF1D5" stroke-width="0.292626"/>
    </g>
    <g filter="url(#filter2_d_11386_12360)">
      <rect x="59.316" y="31.9796" width="50.9388" height="94.6939" rx="5.55102" fill="url(#paint13_linear_11386_12360)" stroke="url(#paint14_linear_11386_12360)" stroke-width="1.95918"/>
      <path d="M92.2211 86.4221C92.2211 86.229 92.0941 86.0563 91.9112 85.9953L88.965 85.2485C88.5637 85.1469 88.2792 84.7811 88.2792 84.3645C88.2792 83.7701 88.838 83.3383 89.412 83.4805L90.7886 83.8311C91.3017 83.8666 91.7589 83.4653 91.7589 82.9318C91.7589 82.6016 91.576 82.307 91.2966 82.1495L75.5239 78.1562L75.5239 82.7845L91.6776 86.8793C91.9519 86.92 92.2211 86.7066 92.2211 86.4221ZM86.1864 83.8006C86.1864 83.4145 86.4962 83.1046 86.8823 83.1046C87.2683 83.1046 87.5782 83.4145 87.5782 83.8006C87.5782 84.1867 87.2683 84.4966 86.8823 84.4966C86.4962 84.4966 86.1864 84.1867 86.1864 83.8006Z" fill="url(#paint15_linear_11386_12360)"/>
      <path d="M76.0495 70.1388L79.011 70.8297C79.4174 70.9262 79.7069 71.2819 79.712 71.6985C79.7222 72.2929 79.1736 72.7349 78.5945 72.6028L77.2128 72.2827C76.6997 72.2573 76.2527 72.6637 76.2629 73.2023C76.273 73.5985 76.5372 73.9389 76.9182 74.0507L92.8635 77.9525C93.3309 78.0693 93.783 77.7137 93.783 77.231L93.783 74.132C93.783 73.7916 93.5493 73.4918 93.214 73.4106L76.4305 69.2954C76.2375 69.2497 76.0495 69.2853 75.892 69.3716C75.7955 69.458 75.7295 69.5799 75.7295 69.7222C75.7295 69.9152 75.8616 70.0829 76.0444 70.1438L76.0495 70.1388Z" fill="url(#paint16_linear_11386_12360)"/>
      <path d="M82.4179 70.2253H75.3164L75.3164 65.6123H93.9693L93.9693 70.2253H86.944L86.944 88.5351H82.4179L82.4179 70.2253Z" fill="#0C0F5E"/>
      <path d="M93.7744 78.2378L93.7744 73.6045L75.5024 78.0803L75.5024 82.7086L93.7744 78.2378Z" fill="#0C0F5E"/>
      <circle cx="85.1123" cy="36.8779" r="1.30612" fill="black"/>
    </g>
    <g filter="url(#filter3_d_11386_12360)">
      <rect x="102.745" y="111.065" width="19.7837" height="3.04365" fill="url(#paint17_linear_11386_12360)"/>
      <rect x="102.745" y="108.022" width="19.7837" height="3.04365" fill="url(#paint18_linear_11386_12360)"/>
      <rect x="102.745" y="104.978" width="19.7837" height="3.04365" fill="url(#paint19_linear_11386_12360)"/>
      <rect x="102.745" y="101.935" width="19.7837" height="3.04365" fill="url(#paint20_linear_11386_12360)"/>
      <rect x="102.745" y="98.8906" width="19.7837" height="3.04365" fill="url(#paint21_linear_11386_12360)"/>
      <line x1="102.745" y1="110.919" x2="122.528" y2="110.919" stroke="#FFF1D5" stroke-width="0.292626"/>
      <line x1="102.745" y1="107.876" x2="122.528" y2="107.876" stroke="#FFF1D5" stroke-width="0.292626"/>
      <line x1="102.745" y1="104.832" x2="122.528" y2="104.832" stroke="#FFF1D5" stroke-width="0.292626"/>
      <line x1="102.745" y1="102.042" x2="122.528" y2="102.042" stroke="#FFF1D5" stroke-width="0.292626"/>
      <rect x="102.745" y="95.8472" width="19.7837" height="3.04365" fill="url(#paint22_linear_11386_12360)"/>
      <line x1="102.745" y1="98.9987" x2="122.528" y2="98.9987" stroke="#FFF1D5" stroke-width="0.292626"/>
    </g>
    <path d="M109.267 82.4418C112.635 80.1468 116.21 79.1878 118.41 79.7892L119.035 79.3636L120.064 80.8757C120.068 80.8821 120.073 80.8881 120.078 80.8945C121.573 83.0894 119.158 87.3412 114.682 90.3904C110.207 93.4396 105.366 94.1317 103.871 91.9368C103.866 91.9303 103.863 91.9234 103.858 91.9169L103.857 91.9174L102.828 90.4058L103.452 89.9802C103.698 87.7127 105.898 84.7367 109.267 82.4418Z" fill="url(#paint23_linear_11386_12360)"/>
    <ellipse cx="110.944" cy="84.9034" rx="9.80545" ry="4.8089" transform="rotate(-34.2673 110.944 84.9034)" fill="url(#paint24_linear_11386_12360)"/>
    <ellipse cx="110.945" cy="84.9031" rx="8.67947" ry="4.2459" transform="rotate(-34.2673 110.945 84.9031)" fill="url(#paint25_linear_11386_12360)"/>
    <path d="M108.554 81.3941C112.516 78.6951 116.798 78.0781 118.118 80.016C118.171 80.0934 118.215 80.1751 118.257 80.2581C116.764 78.5986 112.672 79.2697 108.872 81.8584C105.07 84.4485 102.947 88.0144 103.948 90.0106C103.886 89.9407 103.825 89.8685 103.772 89.7903C102.452 87.8524 104.593 84.0931 108.554 81.3941Z" fill="url(#paint26_linear_11386_12360)"/>
    <path d="M59.875 0C60.627 0.000191178 61.2363 0.610216 61.2363 1.3623V15.5977C61.2362 16.3496 60.627 16.9588 59.875 16.959H27.6611L22.29 21.6279L22.6328 16.959H16.291C15.5389 16.959 14.9288 16.3498 14.9287 15.5977V1.3623C14.9287 0.610098 15.5388 0 16.291 0H59.875Z" fill="#002639"/>
    <rect x="20.7969" y="3.91113" width="33.9155" height="1.30457" rx="0.652286" fill="#E7DF86"/>
    <rect x="20.7993" y="7.82227" width="33.9155" height="1.30457" rx="0.652286" fill="#E7DF86"/>
    <rect x="20.7993" y="11.7358" width="15.6533" height="1.30457" rx="0.652286" fill="#E7DF86"/>
    <g filter="url(#filter4_d_11386_12360)">
      <rect x="0.928711" y="26" width="26" height="24.8847" rx="12.4424" fill="url(#paint27_linear_11386_12360)"/>
      <ellipse cx="6.68736" cy="32.4998" rx="0.928571" ry="0.928534" fill="#23232A"/>
      <ellipse cx="14.1161" cy="31.3865" rx="0.928571" ry="0.928534" fill="#23232A"/>
      <path d="M18.9481 35.2732L6.56867 37.8921C6.32453 37.9438 6.24564 38.2436 6.43993 38.4002C7.85036 39.5371 11.6376 42.2206 14.4909 42.0909C17.4826 41.9549 19.042 37.2241 19.2847 35.5692C19.313 35.3763 19.1388 35.2328 18.9481 35.2732Z" fill="#23232A"/>
    </g>
    <path d="M30.929 39.9993L32.4298 43.4582L34.6749 40.4289L30.929 39.9993ZM32.6036 41.1512L32.4342 41.4304C32.8493 41.6823 33.2535 41.9021 33.6482 42.093L33.7904 41.7991L33.9326 41.5051C33.5574 41.3237 33.1714 41.1138 32.773 40.8721L32.6036 41.1512ZM35.0421 42.3197L34.935 42.6282C35.3945 42.7879 35.8418 42.9094 36.2794 42.999L36.3449 42.6791L36.4104 42.3592C36.001 42.2754 35.5816 42.1615 35.1493 42.0113L35.0421 42.3197ZM37.6857 42.8594L37.664 43.1852C38.1367 43.2167 38.5993 43.2162 39.0555 43.1932L39.0391 42.8671L39.0227 42.541C38.5882 42.5628 38.1513 42.5632 37.7074 42.5336L37.6857 42.8594ZM40.387 42.7403L40.4294 43.064C40.8803 43.0049 41.3297 42.9328 41.7795 42.8574L41.7255 42.5353L41.6715 42.2133C41.2239 42.2883 40.7837 42.359 40.3446 42.4165L40.387 42.7403ZM43.0612 42.3119L43.1128 42.6343C43.5484 42.5646 43.989 42.5 44.4393 42.4481L44.4019 42.1238L44.3646 41.7994C43.9014 41.8527 43.4506 41.9188 43.0096 41.9895L43.0612 42.3119ZM45.7507 42.0148L45.7647 42.341C45.9831 42.3316 46.2043 42.3265 46.4287 42.3265L46.4287 42L46.4287 41.6735C46.1944 41.6735 45.9639 41.6788 45.7367 41.6885L45.7507 42.0148ZM46.4287 42L46.4287 42.3265C46.6538 42.3265 46.8766 42.3372 47.0971 42.3579L47.1276 42.0328L47.1582 41.7077C46.9177 41.6852 46.6745 41.6735 46.4287 41.6735L46.4287 42ZM48.5005 42.2881L48.413 42.6027C48.8458 42.723 49.2674 42.8796 49.6763 43.0665L49.812 42.7695L49.9478 42.4726C49.51 42.2725 49.0561 42.1036 48.588 41.9735L48.5005 42.2881ZM51.0397 43.4374L50.8651 43.7133C51.2488 43.9562 51.6174 44.2232 51.9688 44.5079L52.1743 44.2541L52.3798 44.0004C52.0102 43.701 51.6211 43.4189 51.2143 43.1615L51.0397 43.4374ZM53.2134 45.1898L52.9829 45.4211C53.312 45.7491 53.6197 46.0885 53.904 46.4316L54.1554 46.2233L54.4069 46.015C54.11 45.6566 53.7883 45.3017 53.4439 44.9585L53.2134 45.1898ZM54.9954 47.3414L54.7251 47.5246C54.9963 47.9247 55.2316 48.3174 55.4278 48.69L55.7167 48.5379L56.0057 48.3858C55.7975 47.9904 55.5496 47.577 55.2656 47.1581L54.9954 47.3414ZM56.2704 49.822L55.9594 49.9216C56.0345 50.1563 56.0824 50.3642 56.1048 50.5408L56.4288 50.4998L56.7527 50.4588C56.7241 50.2329 56.6654 49.985 56.5814 49.7225L56.2704 49.822Z" fill="#FFCA62"/>
    <path d="M42.9285 48.4999L42.9887 48.179L42.9285 48.4999ZM28.4282 47.4996L29.713 51.0444L32.1405 48.1593L28.4282 47.4996ZM29.9713 48.7126L29.784 48.98C30.1729 49.2524 30.5478 49.4888 30.9102 49.6924L31.0702 49.4078L31.2301 49.1231C30.8881 48.9309 30.5315 48.7062 30.1586 48.4451L29.9713 48.7126ZM32.2465 49.9719L32.1269 50.2757C32.582 50.4549 33.0167 50.5806 33.4346 50.6611L33.4964 50.3405L33.5582 50.0199C33.182 49.9473 32.7859 49.8333 32.3661 49.6681L32.2465 49.9719ZM34.7929 50.4463L34.8029 50.7727C35.2786 50.7582 35.7285 50.6889 36.159 50.5846L36.082 50.2672L36.0051 49.9499C35.612 50.0451 35.2072 50.107 34.783 50.12L34.7929 50.4463ZM37.3219 49.8656L37.4412 50.1695C37.8554 50.007 38.26 49.8267 38.6537 49.6537L38.5223 49.3548L38.3909 49.0558C37.9921 49.2311 37.6018 49.405 37.2027 49.5616L37.3219 49.8656ZM39.7281 48.8571L39.8404 49.1637C40.2366 49.0185 40.6334 48.8994 41.041 48.8242L40.9818 48.5031L40.9225 48.182C40.4686 48.2657 40.0352 48.3968 39.6158 48.5505L39.7281 48.8571ZM42.2794 48.4194L42.2597 48.7454C42.4575 48.7573 42.66 48.7818 42.8683 48.8209L42.9285 48.4999L42.9887 48.179C42.7535 48.1349 42.5239 48.107 42.2991 48.0935L42.2794 48.4194ZM42.9285 48.4999L42.8683 48.8209C43.0881 48.8621 43.3019 48.9067 43.5099 48.9545L43.5831 48.6363L43.6563 48.3181C43.4395 48.2682 43.217 48.2218 42.9887 48.179L42.9285 48.4999ZM44.8689 48.9925L44.7672 49.3028C45.1993 49.4444 45.6023 49.6008 45.979 49.769L46.1122 49.4708L46.2453 49.1727C45.8478 48.9952 45.4237 48.8307 44.9706 48.6822L44.8689 48.9925ZM47.2975 50.0828L47.1311 50.3638C47.5202 50.5943 47.8758 50.8377 48.2022 51.0889L48.4014 50.8301L48.6005 50.5713C48.2539 50.3046 47.8766 50.0463 47.4639 49.8019L47.2975 50.0828ZM49.4074 51.7053L49.179 51.9386C49.5038 52.2565 49.7939 52.5785 50.0573 52.8962L50.3086 52.6877L50.56 52.4793C50.2846 52.1472 49.9792 51.8081 49.6358 51.4719L49.4074 51.7053ZM51.1188 53.7453L50.8536 53.9359C51.1311 54.3219 51.3937 54.7063 51.6303 55.0263L51.8928 54.8322L52.1554 54.6381C51.9188 54.3181 51.6778 53.9636 51.3839 53.5547L51.1188 53.7453ZM52.8035 55.7993L52.6245 56.0725C52.8642 56.2295 53.1298 56.3266 53.4285 56.3266L53.4285 56L53.4285 55.6735C53.2804 55.6735 53.1372 55.6277 52.9824 55.5262L52.8035 55.7993Z" fill="#FFCA62"/>
  </g>
  <defs>
    <filter id="filter0_d_11386_12360" x="28.6879" y="85.5962" width="29.2571" height="35.9598" filterUnits="userSpaceOnUse" color-interpolation-filters="sRGB">
      <feFlood flood-opacity="0" result="BackgroundImageFix"/>
      <feColorMatrix in="SourceAlpha" type="matrix" values="0 0 0 0 0 0 0 0 0 0 0 0 0 0 0 0 0 0 127 0" result="hardAlpha"/>
      <feOffset dx="-1.95918" dy="2.61225"/>
      <feGaussianBlur stdDeviation="2.0898"/>
      <feComposite in2="hardAlpha" operator="out"/>
      <feColorMatrix type="matrix" values="0 0 0 0 0.334107 0 0 0 0 0.265986 0 0 0 0 0.51154 0 0 0 0.52 0"/>
      <feBlend mode="normal" in2="BackgroundImageFix" result="effect1_dropShadow_11386_12360"/>
      <feBlend mode="normal" in="SourceGraphic" in2="effect1_dropShadow_11386_12360" result="shape"/>
    </filter>
    <filter id="filter1_d_11386_12360" x="7.78993" y="100.616" width="28.1429" height="26.6209" filterUnits="userSpaceOnUse" color-interpolation-filters="sRGB">
      <feFlood flood-opacity="0" result="BackgroundImageFix"/>
      <feColorMatrix in="SourceAlpha" type="matrix" values="0 0 0 0 0 0 0 0 0 0 0 0 0 0 0 0 0 0 127 0" result="hardAlpha"/>
      <feOffset dx="-1.95918" dy="2.61225"/>
      <feGaussianBlur stdDeviation="2.0898"/>
      <feComposite in2="hardAlpha" operator="out"/>
      <feColorMatrix type="matrix" values="0 0 0 0 0.334107 0 0 0 0 0.265986 0 0 0 0 0.51154 0 0 0 0.52 0"/>
      <feBlend mode="normal" in2="BackgroundImageFix" result="effect1_dropShadow_11386_12360"/>
      <feBlend mode="normal" in="SourceGraphic" in2="effect1_dropShadow_11386_12360" result="shape"/>
    </filter>
    <filter id="filter2_d_11386_12360" x="54.4181" y="31" width="58.1224" height="101.878" filterUnits="userSpaceOnUse" color-interpolation-filters="sRGB">
      <feFlood flood-opacity="0" result="BackgroundImageFix"/>
      <feColorMatrix in="SourceAlpha" type="matrix" values="0 0 0 0 0 0 0 0 0 0 0 0 0 0 0 0 0 0 127 0" result="hardAlpha"/>
      <feOffset dx="-1.30612" dy="2.61225"/>
      <feGaussianBlur stdDeviation="1.30612"/>
      <feComposite in2="hardAlpha" operator="out"/>
      <feColorMatrix type="matrix" values="0 0 0 0 0.333333 0 0 0 0 0.266667 0 0 0 0 0.509804 0 0 0 0.25 0"/>
      <feBlend mode="normal" in2="BackgroundImageFix" result="effect1_dropShadow_11386_12360"/>
      <feBlend mode="normal" in="SourceGraphic" in2="effect1_dropShadow_11386_12360" result="shape"/>
    </filter>
    <filter id="filter3_d_11386_12360" x="96.6059" y="94.2798" width="28.1429" height="26.6209" filterUnits="userSpaceOnUse" color-interpolation-filters="sRGB">
      <feFlood flood-opacity="0" result="BackgroundImageFix"/>
      <feColorMatrix in="SourceAlpha" type="matrix" values="0 0 0 0 0 0 0 0 0 0 0 0 0 0 0 0 0 0 127 0" result="hardAlpha"/>
      <feOffset dx="-1.95918" dy="2.61225"/>
      <feGaussianBlur stdDeviation="2.0898"/>
      <feComposite in2="hardAlpha" operator="out"/>
      <feColorMatrix type="matrix" values="0 0 0 0 0.334107 0 0 0 0 0.265986 0 0 0 0 0.51154 0 0 0 0.52 0"/>
      <feBlend mode="normal" in2="BackgroundImageFix" result="effect1_dropShadow_11386_12360"/>
      <feBlend mode="normal" in="SourceGraphic" in2="effect1_dropShadow_11386_12360" result="shape"/>
    </filter>
    <filter id="filter4_d_11386_12360" x="-4.58813" y="20.4832" width="40.7116" height="39.5963" filterUnits="userSpaceOnUse" color-interpolation-filters="sRGB">
      <feFlood flood-opacity="0" result="BackgroundImageFix"/>
      <feColorMatrix in="SourceAlpha" type="matrix" values="0 0 0 0 0 0 0 0 0 0 0 0 0 0 0 0 0 0 127 0" result="hardAlpha"/>
      <feOffset dx="1.83895" dy="1.83895"/>
      <feGaussianBlur stdDeviation="3.67789"/>
      <feComposite in2="hardAlpha" operator="out"/>
      <feColorMatrix type="matrix" values="0 0 0 0 0.172549 0 0 0 0 0.0470588 0 0 0 0 0.466667 0 0 0 0.25 0"/>
      <feBlend mode="normal" in2="BackgroundImageFix" result="effect1_dropShadow_11386_12360"/>
      <feBlend mode="normal" in="SourceGraphic" in2="effect1_dropShadow_11386_12360" result="shape"/>
    </filter>
    <linearGradient id="paint0_linear_11386_12360" x1="34.8267" y1="113.156" x2="55.7246" y2="113.156" gradientUnits="userSpaceOnUse">
      <stop stop-color="#FFDFA3"/>
      <stop offset="0.5" stop-color="#DE9103"/>
      <stop offset="1" stop-color="#E79D0E"/>
    </linearGradient>
    <linearGradient id="paint1_linear_11386_12360" x1="34.8267" y1="109.942" x2="55.7246" y2="109.942" gradientUnits="userSpaceOnUse">
      <stop stop-color="#FFDFA3"/>
      <stop offset="0.5" stop-color="#DE9103"/>
      <stop offset="1" stop-color="#E79D0E"/>
    </linearGradient>
    <linearGradient id="paint2_linear_11386_12360" x1="34.8267" y1="106.727" x2="55.7246" y2="106.727" gradientUnits="userSpaceOnUse">
      <stop stop-color="#FFDFA3"/>
      <stop offset="0.5" stop-color="#DE9103"/>
      <stop offset="1" stop-color="#E79D0E"/>
    </linearGradient>
    <linearGradient id="paint3_linear_11386_12360" x1="34.8267" y1="103.512" x2="55.7246" y2="103.512" gradientUnits="userSpaceOnUse">
      <stop stop-color="#FFDFA3"/>
      <stop offset="0.5" stop-color="#DE9103"/>
      <stop offset="1" stop-color="#E79D0E"/>
    </linearGradient>
    <linearGradient id="paint4_linear_11386_12360" x1="34.8267" y1="100.297" x2="55.7246" y2="100.297" gradientUnits="userSpaceOnUse">
      <stop stop-color="#FFDFA3"/>
      <stop offset="0.5" stop-color="#DE9103"/>
      <stop offset="1" stop-color="#E79D0E"/>
    </linearGradient>
    <linearGradient id="paint5_linear_11386_12360" x1="34.8267" y1="97.0807" x2="55.7246" y2="97.0807" gradientUnits="userSpaceOnUse">
      <stop stop-color="#FFDFA3"/>
      <stop offset="0.5" stop-color="#DE9103"/>
      <stop offset="1" stop-color="#E79D0E"/>
    </linearGradient>
    <linearGradient id="paint6_linear_11386_12360" x1="34.8267" y1="94.0836" x2="55.7246" y2="94.0836" gradientUnits="userSpaceOnUse">
      <stop stop-color="#FFDFA3"/>
      <stop offset="0.5" stop-color="#DE9103"/>
      <stop offset="1" stop-color="#E79D0E"/>
    </linearGradient>
    <linearGradient id="paint7_linear_11386_12360" x1="34.8267" y1="91.3835" x2="55.7246" y2="91.3835" gradientUnits="userSpaceOnUse">
      <stop stop-color="#FFDFA3"/>
      <stop offset="0.5" stop-color="#DE9103"/>
      <stop offset="1" stop-color="#E79D0E"/>
    </linearGradient>
    <linearGradient id="paint8_linear_11386_12360" x1="34.8267" y1="88.7711" x2="55.7246" y2="88.7711" gradientUnits="userSpaceOnUse">
      <stop stop-color="#FFDFA3"/>
      <stop offset="0.5" stop-color="#DE9103"/>
      <stop offset="1" stop-color="#E79D0E"/>
    </linearGradient>
    <linearGradient id="paint9_linear_11386_12360" x1="13.9287" y1="112.836" x2="33.7124" y2="112.836" gradientUnits="userSpaceOnUse">
      <stop stop-color="#FFDFA3"/>
      <stop offset="0.5" stop-color="#DE9103"/>
      <stop offset="1" stop-color="#E79D0E"/>
    </linearGradient>
    <linearGradient id="paint10_linear_11386_12360" x1="13.9287" y1="109.793" x2="33.7124" y2="109.793" gradientUnits="userSpaceOnUse">
      <stop stop-color="#FFDFA3"/>
      <stop offset="0.5" stop-color="#DE9103"/>
      <stop offset="1" stop-color="#E79D0E"/>
    </linearGradient>
    <linearGradient id="paint11_linear_11386_12360" x1="13.9287" y1="106.749" x2="33.7124" y2="106.749" gradientUnits="userSpaceOnUse">
      <stop stop-color="#FFDFA3"/>
      <stop offset="0.5" stop-color="#DE9103"/>
      <stop offset="1" stop-color="#E79D0E"/>
    </linearGradient>
    <linearGradient id="paint12_linear_11386_12360" x1="13.9287" y1="103.705" x2="33.7124" y2="103.705" gradientUnits="userSpaceOnUse">
      <stop stop-color="#FFDFA3"/>
      <stop offset="0.5" stop-color="#DE9103"/>
      <stop offset="1" stop-color="#E79D0E"/>
    </linearGradient>
    <linearGradient id="paint13_linear_11386_12360" x1="84.7854" y1="31" x2="84.7854" y2="127.653" gradientUnits="userSpaceOnUse">
      <stop stop-color="white"/>
      <stop offset="1" stop-color="#D2B7FF"/>
    </linearGradient>
    <linearGradient id="paint14_linear_11386_12360" x1="84.7854" y1="31" x2="84.7854" y2="127.653" gradientUnits="userSpaceOnUse">
      <stop/>
      <stop offset="1" stop-color="#585858"/>
    </linearGradient>
    <linearGradient id="paint15_linear_11386_12360" x1="83.87" y1="87.0063" x2="83.87" y2="78.1562" gradientUnits="userSpaceOnUse">
      <stop stop-color="#8968BF"/>
      <stop offset="1" stop-color="#4444D6"/>
    </linearGradient>
    <linearGradient id="paint16_linear_11386_12360" x1="75.5111" y1="73.6239" x2="93.783" y2="73.6239" gradientUnits="userSpaceOnUse">
      <stop stop-color="#8468BF"/>
      <stop offset="1" stop-color="#6060FF"/>
    </linearGradient>
    <linearGradient id="paint17_linear_11386_12360" x1="102.745" y1="112.587" x2="122.528" y2="112.587" gradientUnits="userSpaceOnUse">
      <stop stop-color="#FFDFA3"/>
      <stop offset="0.5" stop-color="#DE9103"/>
      <stop offset="1" stop-color="#E79D0E"/>
    </linearGradient>
    <linearGradient id="paint18_linear_11386_12360" x1="102.745" y1="109.544" x2="122.528" y2="109.544" gradientUnits="userSpaceOnUse">
      <stop stop-color="#FFDFA3"/>
      <stop offset="0.5" stop-color="#DE9103"/>
      <stop offset="1" stop-color="#E79D0E"/>
    </linearGradient>
    <linearGradient id="paint19_linear_11386_12360" x1="102.745" y1="106.5" x2="122.528" y2="106.5" gradientUnits="userSpaceOnUse">
      <stop stop-color="#FFDFA3"/>
      <stop offset="0.5" stop-color="#DE9103"/>
      <stop offset="1" stop-color="#E79D0E"/>
    </linearGradient>
    <linearGradient id="paint20_linear_11386_12360" x1="102.745" y1="103.456" x2="122.528" y2="103.456" gradientUnits="userSpaceOnUse">
      <stop stop-color="#FFDFA3"/>
      <stop offset="0.5" stop-color="#DE9103"/>
      <stop offset="1" stop-color="#E79D0E"/>
    </linearGradient>
    <linearGradient id="paint21_linear_11386_12360" x1="102.745" y1="100.412" x2="122.528" y2="100.412" gradientUnits="userSpaceOnUse">
      <stop stop-color="#FFDFA3"/>
      <stop offset="0.5" stop-color="#DE9103"/>
      <stop offset="1" stop-color="#E79D0E"/>
    </linearGradient>
    <linearGradient id="paint22_linear_11386_12360" x1="102.745" y1="97.369" x2="122.528" y2="97.369" gradientUnits="userSpaceOnUse">
      <stop stop-color="#FFDFA3"/>
      <stop offset="0.5" stop-color="#DE9103"/>
      <stop offset="1" stop-color="#E79D0E"/>
    </linearGradient>
    <linearGradient id="paint23_linear_11386_12360" x1="103.858" y1="91.9178" x2="120.065" y2="80.8756" gradientUnits="userSpaceOnUse">
      <stop stop-color="#926100"/>
      <stop offset="0.185" stop-color="#CF8900"/>
      <stop offset="1" stop-color="#694500"/>
    </linearGradient>
    <linearGradient id="paint24_linear_11386_12360" x1="114.521" y1="79.1018" x2="107.96" y2="90.4047" gradientUnits="userSpaceOnUse">
      <stop stop-color="#FFE5B3"/>
      <stop offset="0.395" stop-color="#FFB11A"/>
      <stop offset="1" stop-color="#F7A300"/>
    </linearGradient>
    <linearGradient id="paint25_linear_11386_12360" x1="119.624" y1="88.6799" x2="104.212" y2="80.6572" gradientUnits="userSpaceOnUse">
      <stop stop-color="#FFBF44"/>
      <stop offset="1" stop-color="#FFEAC2"/>
    </linearGradient>
    <linearGradient id="paint26_linear_11386_12360" x1="120.245" y1="83.137" x2="102.99" y2="85.1844" gradientUnits="userSpaceOnUse">
      <stop stop-color="#9C4B00"/>
      <stop offset="1" stop-color="#FFC554"/>
    </linearGradient>
    <linearGradient id="paint27_linear_11386_12360" x1="13.9287" y1="26" x2="13.9287" y2="50.8847" gradientUnits="userSpaceOnUse">
      <stop stop-color="#FFD991"/>
      <stop offset="1" stop-color="#FFA800"/>
    </linearGradient>
    <clipPath id="clip0_11386_12360">
      <rect width="122" height="114" fill="white" transform="translate(0.928711)"/>
    </clipPath>
  </defs>
</svg>