<svg width="127" height="30" viewBox="0 0 127 30" fill="none" xmlns="http://www.w3.org/2000/svg">
<g clip-path="url(#clip0_11709_4646)">
<path d="M13.894 13.5578L22.9387 0H14.7118L6.79714 17.1281H12.0448L3.52197 29.6074L20.4937 13.9801L13.894 13.5578Z" fill="#F6B915"/>
<path d="M5.35451 25.619L6.59553 23.8882L10.2282 18.8171L5.28465 22.7218C3.32037 20.6817 2.10811 17.889 2.10811 14.8037C2.10811 9.38974 5.84352 4.86628 10.8364 3.75422L6.06132 16.8606L12.3692 3.52429L13.4006 1.34617L14.0376 0L12.6075 1.35871C5.58874 1.68898 0 7.5837 0 14.8037C0 19.2352 2.104 23.165 5.35451 25.619Z" fill="#04C7FE"/>
<path d="M22.47 5.1716C22.1125 4.81624 21.7344 4.47761 21.3358 4.16406L20.1071 5.90739L15.2375 12.818L21.4386 7.16159C23.2508 9.17248 24.3562 11.8565 24.3562 14.7996C24.3562 21.0497 19.3757 26.1167 13.2322 26.1167C11.8144 26.1167 10.4583 25.8449 9.2132 25.3516L7.49549 26.8901L4.52441 29.5699L8.48173 27.3583C9.957 27.9352 11.5597 28.253 13.2322 28.253C20.5386 28.253 26.4602 22.2286 26.4602 14.7955C26.4602 11.0203 24.9315 7.60892 22.47 5.16324V5.1716Z" fill="#04C7FE"/>
<path d="M40.14 8.49948C39.6838 8.03961 39.1578 7.67589 38.5538 7.41251C37.9538 7.14913 37.3086 7.01953 36.6182 7.01953H32.1021V20.7697H35.1183V17.1033H36.61C37.3004 17.1033 37.9456 16.9737 38.5455 16.7103C39.1496 16.4469 39.6756 16.0874 40.1318 15.6233C40.5879 15.1634 40.9413 14.6241 41.2002 14.0138C41.4591 13.4034 41.5865 12.747 41.5865 12.0489C41.5865 11.3507 41.4591 10.7152 41.2002 10.1049C40.9413 9.49448 40.5879 8.95935 40.1318 8.4953L40.14 8.49948ZM38.4223 12.8265C38.3195 13.0689 38.1757 13.278 37.999 13.4577C37.8223 13.6375 37.6127 13.7796 37.3744 13.8842C37.136 13.9887 36.8812 14.043 36.61 14.043H35.1224V10.0965H36.61C36.8812 10.0965 37.136 10.1508 37.3744 10.2554C37.6127 10.3599 37.8223 10.502 37.999 10.6818C38.1757 10.8615 38.3195 11.0664 38.4223 11.3047C38.525 11.5388 38.5784 11.7938 38.5784 12.0656C38.5784 12.3373 38.525 12.5923 38.4223 12.8348V12.8265Z" fill="#04C7FE"/>
<path d="M46.0617 7.00293H43.0454V20.774H46.0617V7.00293Z" fill="#04C7FE"/>
<path d="M53.5653 15.4436H56.4911C56.4665 15.5063 56.4459 15.569 56.4254 15.6317C56.4089 15.6944 56.3843 15.7571 56.3596 15.8198C56.2857 15.9954 56.1953 16.171 56.0843 16.3424C56.0227 16.4302 55.961 16.5097 55.8994 16.5849C55.8377 16.6602 55.7761 16.7354 55.7145 16.8107C55.6405 16.8734 55.5665 16.9361 55.4926 16.9988C55.4186 17.0615 55.3405 17.1242 55.2542 17.1869C55.1186 17.2873 54.946 17.3792 54.7405 17.467C54.6543 17.5047 54.568 17.5339 54.4734 17.559C54.383 17.5841 54.2844 17.6092 54.1899 17.6343C53.7748 17.7346 53.3639 17.7346 52.9571 17.6343C52.7475 17.5966 52.5585 17.5423 52.3859 17.467C52.2996 17.4294 52.2133 17.3876 52.127 17.3458C52.0407 17.304 51.9544 17.2496 51.8681 17.1869C51.7941 17.1242 51.7161 17.0615 51.638 16.9988C51.5599 16.9361 51.4859 16.8734 51.4284 16.8107C51.3051 16.6852 51.1818 16.5306 51.0627 16.3424C50.9394 16.1668 50.849 15.9954 50.7873 15.8198C50.701 15.6443 50.6394 15.452 50.6024 15.2387C50.5654 15.0506 50.549 14.8458 50.549 14.62V13.1986C50.549 12.9979 50.5654 12.7931 50.6024 12.5798C50.6394 12.3666 50.701 12.1743 50.7873 11.9987C50.849 11.8231 50.9394 11.6517 51.0627 11.4762C51.1243 11.3884 51.1818 11.3089 51.2353 11.2337C51.2887 11.1584 51.3544 11.0915 51.4284 11.0288C51.49 10.9536 51.5599 10.8867 51.638 10.824C51.7161 10.7613 51.7941 10.6986 51.8681 10.6358C51.9544 10.5731 52.0407 10.5188 52.127 10.477C52.2133 10.4352 52.2996 10.3934 52.3859 10.3557C52.5585 10.2805 52.7475 10.2261 52.9571 10.1885C53.3598 10.0882 53.7707 10.0882 54.1899 10.1885C54.2885 10.2136 54.383 10.2387 54.4734 10.2638C54.5638 10.2888 54.6543 10.3181 54.7405 10.3557C54.9501 10.4435 55.1186 10.5355 55.2542 10.6358C55.4022 10.7362 55.5542 10.8658 55.7145 11.0288L57.8308 8.85907C57.6952 8.7211 57.5555 8.5915 57.4075 8.46609C57.2596 8.34067 57.1075 8.22361 56.9473 8.11073C56.7747 7.99785 56.6062 7.89752 56.4418 7.80136C56.2775 7.70939 56.1007 7.62577 55.9158 7.55052C55.5583 7.38748 55.1803 7.27042 54.7775 7.19517C53.9803 7.01958 53.1708 7.01958 52.3489 7.19517C52.1516 7.23279 51.9585 7.27878 51.7695 7.33731C51.5804 7.39166 51.3996 7.46691 51.227 7.55052C50.849 7.70103 50.5038 7.88916 50.1956 8.11073C49.8627 8.33648 49.5627 8.58314 49.2956 8.85907C49.16 8.99703 49.0326 9.13917 48.9094 9.28967C48.7861 9.44018 48.671 9.59486 48.5601 9.75791C48.3505 10.084 48.1656 10.431 48.0094 10.8072C47.9354 10.9954 47.8697 11.1835 47.808 11.3758C47.7464 11.5681 47.6971 11.7646 47.6601 11.9653C47.5738 12.3541 47.5327 12.7638 47.5327 13.1986V14.62C47.5327 14.8332 47.5409 15.0422 47.5615 15.2471C47.5779 15.452 47.6149 15.6568 47.6642 15.8533C47.7012 16.054 47.7505 16.2505 47.8122 16.4428C47.8738 16.6351 47.9395 16.8274 48.0135 17.0155C48.1738 17.3918 48.3546 17.7388 48.5642 18.0649C48.7984 18.4035 49.0409 18.7003 49.2997 18.9637C49.571 19.2396 49.8709 19.4863 50.1997 19.712C50.36 19.8249 50.5243 19.9252 50.6969 20.0214C50.8695 20.1176 51.0462 20.2054 51.2311 20.2931C51.4037 20.3684 51.5846 20.4353 51.7736 20.4896C51.9626 20.544 52.1558 20.5983 52.353 20.6485C52.7557 20.7238 53.1626 20.7614 53.5653 20.7614C53.968 20.7614 54.3871 20.7238 54.7775 20.6485C54.9871 20.5983 55.1802 20.544 55.3652 20.4896C55.5501 20.4353 55.735 20.36 55.9158 20.2722C56.1007 20.197 56.2733 20.1134 56.4418 20.0172C56.6062 19.9252 56.7747 19.8207 56.9473 19.7079C57.1075 19.595 57.2596 19.4779 57.4075 19.3525C57.5555 19.2271 57.6952 19.0975 57.8308 18.9595C57.9664 18.8216 58.0979 18.6794 58.2253 18.5289C58.3527 18.3784 58.4677 18.2237 58.5664 18.0607C58.6773 17.8851 58.7801 17.7095 58.8787 17.5339C58.9773 17.3583 59.0636 17.1827 59.1376 17.0072C59.2115 16.819 59.2773 16.6309 59.3389 16.4344C59.4006 16.2421 59.4499 16.0456 59.4869 15.8449C59.5362 15.6317 59.5608 15.3892 59.5608 15.1133L59.5773 12.375H53.5653V15.4436Z" fill="#04C7FE"/>
<path d="M67.0814 15.4436H70.0073C69.9826 15.5063 69.962 15.569 69.9415 15.6317C69.9251 15.6944 69.9004 15.7571 69.8757 15.8198C69.8018 15.9954 69.7114 16.171 69.6004 16.3424C69.5388 16.4302 69.4771 16.5097 69.4155 16.5849C69.3539 16.6602 69.2922 16.7354 69.2306 16.8107C69.1566 16.8734 69.0826 16.9361 69.0087 16.9988C68.9347 17.0615 68.8566 17.1242 68.7703 17.1869C68.6347 17.2873 68.4621 17.3792 68.2567 17.467C68.1704 17.5047 68.0841 17.5339 67.9896 17.559C67.8991 17.5841 67.8005 17.6092 67.706 17.6343C67.291 17.7346 66.88 17.7346 66.4732 17.6343C66.2636 17.5966 66.0746 17.5423 65.902 17.467C65.8157 17.4294 65.7294 17.3876 65.6431 17.3458C65.5568 17.304 65.4705 17.2496 65.3842 17.1869C65.3102 17.1242 65.2322 17.0615 65.1541 16.9988C65.076 16.9361 65.002 16.8734 64.9445 16.8107C64.8212 16.6852 64.6979 16.5306 64.5788 16.3424C64.4555 16.1668 64.3651 15.9954 64.3034 15.8198C64.2171 15.6443 64.1555 15.452 64.1185 15.2387C64.0815 15.0506 64.0651 14.8458 64.0651 14.62V13.1986C64.0651 12.9979 64.0815 12.7931 64.1185 12.5798C64.1555 12.3666 64.2171 12.1743 64.3034 11.9987C64.3651 11.8231 64.4555 11.6517 64.5788 11.4762C64.6404 11.3884 64.698 11.3089 64.7514 11.2337C64.8048 11.1584 64.8705 11.0915 64.9445 11.0288C65.0061 10.9536 65.076 10.8867 65.1541 10.824C65.2322 10.7613 65.3102 10.6986 65.3842 10.6358C65.4705 10.5731 65.5568 10.5188 65.6431 10.477C65.7294 10.4352 65.8157 10.3934 65.902 10.3557C66.0746 10.2805 66.2636 10.2261 66.4732 10.1885C66.8759 10.0882 67.2868 10.0882 67.706 10.1885C67.8046 10.2136 67.8991 10.2387 67.9896 10.2638C68.08 10.2888 68.1704 10.3181 68.2567 10.3557C68.4662 10.4435 68.6347 10.5355 68.7703 10.6358C68.9183 10.7362 69.0703 10.8658 69.2306 11.0288L71.3469 8.85907C71.2113 8.7211 71.0716 8.5915 70.9236 8.46609C70.7757 8.34067 70.6237 8.22361 70.4634 8.11073C70.2908 7.99785 70.1223 7.89752 69.9579 7.80136C69.7936 7.70939 69.6169 7.62577 69.4319 7.55052C69.0744 7.38748 68.6964 7.27042 68.2936 7.19517C67.4964 7.01958 66.6869 7.01958 65.865 7.19517C65.6678 7.23279 65.4746 7.27878 65.2856 7.33731C65.0966 7.39166 64.9157 7.46691 64.7432 7.55052C64.3651 7.70103 64.0199 7.88916 63.7117 8.11073C63.3788 8.33648 63.0789 8.58314 62.8118 8.85907C62.6761 8.99703 62.5487 9.13917 62.4255 9.28967C62.3022 9.44018 62.1871 9.59486 62.0762 9.75791C61.8666 10.084 61.6817 10.431 61.5255 10.8072C61.4515 10.9954 61.3858 11.1835 61.3242 11.3758C61.2625 11.5681 61.2132 11.7646 61.1762 11.9653C61.0899 12.3541 61.0488 12.7638 61.0488 13.1986V14.62C61.0488 14.8332 61.057 15.0422 61.0776 15.2471C61.094 15.452 61.131 15.6568 61.1803 15.8533C61.2173 16.054 61.2666 16.2505 61.3283 16.4428C61.3899 16.6351 61.4557 16.8274 61.5296 17.0155C61.6899 17.3918 61.8707 17.7388 62.0803 18.0649C62.3145 18.4035 62.557 18.7003 62.8159 18.9637C63.0871 19.2396 63.3871 19.4863 63.7158 19.712C63.8761 19.8249 64.0404 19.9252 64.213 20.0214C64.3856 20.1176 64.5623 20.2054 64.7473 20.2931C64.9199 20.3684 65.1007 20.4353 65.2897 20.4896C65.4787 20.544 65.6719 20.5983 65.8691 20.6485C66.2718 20.7238 66.6787 20.7614 67.0814 20.7614C67.4841 20.7614 67.9033 20.7238 68.2936 20.6485C68.5032 20.5983 68.6964 20.544 68.8813 20.4896C69.0662 20.4353 69.2511 20.36 69.4319 20.2722C69.6169 20.197 69.7895 20.1134 69.9579 20.0172C70.1223 19.9252 70.2908 19.8207 70.4634 19.7079C70.6237 19.595 70.7757 19.4779 70.9236 19.3525C71.0716 19.2271 71.2113 19.0975 71.3469 18.9595C71.4825 18.8216 71.614 18.6794 71.7414 18.5289C71.8688 18.3784 71.9839 18.2237 72.0825 18.0607C72.1934 17.8851 72.2962 17.7095 72.3948 17.5339C72.4934 17.3583 72.5797 17.1827 72.6537 17.0072C72.7277 16.819 72.7934 16.6309 72.855 16.4344C72.9167 16.2421 72.966 16.0456 73.003 15.8449C73.0523 15.6317 73.0769 15.3892 73.0769 15.1133L73.0934 12.375H67.0814V15.4436Z" fill="#04C7FE"/>
<path d="M89.7403 12.5962C89.765 12.4958 89.7937 12.3997 89.8225 12.3077C89.8513 12.2157 89.8883 12.1196 89.9252 12.0192C89.9869 11.8437 90.0773 11.6722 90.2006 11.4967C90.2992 11.3462 90.4225 11.1957 90.5663 11.0493C90.6403 10.9741 90.7142 10.9072 90.7882 10.8528C90.8622 10.7985 90.9402 10.7358 91.0265 10.6731C91.1745 10.5727 91.3471 10.4724 91.5402 10.3721C91.7251 10.2968 91.9142 10.2425 92.1114 10.2048C92.5018 10.1045 92.9086 10.1045 93.3237 10.2048C93.5209 10.2425 93.71 10.2968 93.8949 10.3721C94.0921 10.4724 94.2606 10.5727 94.4086 10.6731C94.4949 10.7358 94.5729 10.7943 94.6469 10.8528C94.7209 10.9114 94.7866 10.9741 94.8483 11.0493C95.0085 11.1873 95.1318 11.3378 95.214 11.4967C95.3126 11.6472 95.4112 11.8228 95.5099 12.0192C95.5838 12.2074 95.6373 12.3997 95.6742 12.6004L98.6165 11.9816C98.5302 11.5594 98.4152 11.1706 98.2673 10.8236C98.107 10.439 97.9221 10.092 97.7166 9.79514C97.4947 9.4565 97.2522 9.15132 96.981 8.87957C96.7098 8.60365 96.4098 8.35699 96.0811 8.13124C95.7852 7.91802 95.4482 7.73408 95.0702 7.57103C94.8852 7.49578 94.7003 7.42889 94.5072 7.36618C94.3181 7.30347 94.125 7.2533 93.9278 7.21567C93.1182 7.04009 92.3087 7.04009 91.4991 7.21567C91.3019 7.2533 91.1087 7.30347 90.9197 7.36618C90.7307 7.42889 90.5416 7.49578 90.3567 7.57103C89.991 7.73408 89.6458 7.9222 89.3253 8.13124C88.9924 8.36953 88.6965 8.61619 88.4376 8.87957C88.302 9.01753 88.1705 9.15968 88.039 9.31018C87.9075 9.46068 87.7966 9.62373 87.698 9.79514C87.587 9.95818 87.4843 10.1254 87.3939 10.301C87.2993 10.4766 87.2131 10.6522 87.1268 10.8236C87.0528 11.0117 86.987 11.1998 86.9336 11.3963C86.8802 11.5886 86.8268 11.7851 86.7775 11.9858C86.7035 12.3955 86.6665 12.8094 86.6665 13.2191V14.6405C86.6665 15.0753 86.7035 15.4892 86.7775 15.8738C86.8761 16.296 86.9953 16.6848 87.1309 17.0318C87.2911 17.3956 87.4843 17.7426 87.7062 18.0812C87.9158 18.4198 88.1623 18.7166 88.4459 18.98C88.5815 19.118 88.7212 19.2518 88.8691 19.3814C89.0171 19.511 89.1732 19.628 89.3335 19.7284C89.5061 19.8412 89.6787 19.9416 89.8513 20.0377C90.0239 20.1297 90.1965 20.2217 90.3649 20.3095C90.5499 20.3847 90.7348 20.4516 90.9279 20.5143C91.117 20.577 91.3101 20.6272 91.5073 20.6648C91.7046 20.7025 91.9018 20.7317 92.1073 20.7568C92.3087 20.7819 92.5141 20.7944 92.7237 20.7944C92.9333 20.7944 93.1346 20.7819 93.3319 20.7568C93.5291 20.7317 93.7305 20.7025 93.9401 20.6648C94.1373 20.6272 94.3305 20.577 94.5195 20.5143C94.7085 20.4516 94.8976 20.3847 95.0825 20.3095C95.2551 20.2217 95.4236 20.1297 95.5962 20.0377C95.7688 19.9458 95.9331 19.8412 96.0934 19.7284C96.266 19.628 96.4263 19.5151 96.5701 19.3814C96.718 19.2518 96.8577 19.118 96.9933 18.98C97.129 18.8421 97.2563 18.6999 97.3796 18.5494C97.5029 18.3989 97.618 18.2442 97.7289 18.0812C97.9632 17.7342 98.144 17.383 98.2796 17.0318C98.4398 16.6723 98.5549 16.2835 98.6289 15.8738L95.6866 15.276C95.6619 15.3763 95.6373 15.4725 95.6126 15.5644C95.5879 15.6564 95.5592 15.7484 95.5222 15.8362C95.4729 15.9365 95.4277 16.0285 95.3825 16.1163C95.3414 16.2041 95.288 16.2835 95.2263 16.3588C95.177 16.4466 95.1236 16.526 95.0619 16.6012C95.0003 16.6765 94.9346 16.7517 94.8606 16.827C94.7126 16.9775 94.5647 17.1029 94.4209 17.2032C94.2483 17.3287 94.0757 17.4206 93.9072 17.4834C93.8086 17.521 93.7141 17.5544 93.6237 17.5879C93.5333 17.6171 93.4346 17.6464 93.3401 17.6715C92.9251 17.7467 92.5182 17.7467 92.1279 17.6715C92.0292 17.6464 91.9347 17.6171 91.8443 17.5879C91.7539 17.5586 91.6553 17.521 91.5608 17.4834C91.3882 17.4206 91.2156 17.3287 91.0471 17.2032C90.9608 17.1405 90.8827 17.0778 90.8087 17.0151C90.7348 16.9524 90.6608 16.8897 90.5868 16.827C90.5252 16.7517 90.4636 16.6765 90.4019 16.6012C90.3403 16.526 90.2786 16.4466 90.217 16.3588C90.1184 16.2208 90.028 16.0452 89.9417 15.8362C89.9047 15.7484 89.8718 15.6564 89.8389 15.5644C89.8102 15.4725 89.7814 15.3763 89.7567 15.276C89.7198 15.0753 89.7033 14.8663 89.7033 14.6405V13.2191C89.7033 13.0184 89.7198 12.8136 89.7567 12.6004L89.7403 12.5962Z" fill="#04C7FE"/>
<path d="M103.092 7.00293H100.076V20.774H101.95H108.829V17.7054H103.092V15.4228H108.829V12.3542H103.092V10.0924H108.829V7.02383H103.092V7.00293Z" fill="#04C7FE"/>
<path d="M113.316 7.00293H110.299V20.774H117.914V17.7054H113.316V7.00293Z" fill="#04C7FE"/>
<path d="M122.402 17.7054V7.00293H119.385V20.774H127V17.7054H122.402Z" fill="#04C7FE"/>
<path d="M87.09 4.59863H81.4191L75.9618 16.4048H79.5781L73.7017 25.0086L85.401 14.235L80.8561 13.9466L87.09 4.59863Z" fill="#F6B915"/>
<path d="M78.6287 9.10119L77.774 4.59863H73.0112L76.4919 13.6038L78.6287 9.10119Z" fill="#F6B915"/>
</g>
<defs>
<clipPath id="clip0_11709_4646">
<rect width="127" height="29.6074" fill="white"/>
</clipPath>
</defs>
</svg>
