<svg width="126" height="75" viewBox="0 0 126 75" fill="none" xmlns="http://www.w3.org/2000/svg">
<path d="M88.1283 64.013C88.1283 63.4748 87.7742 62.9932 87.2644 62.8233L79.0509 60.7413C77.9322 60.4581 77.1391 59.4383 77.1391 58.277C77.1391 56.6199 78.6969 55.416 80.2971 55.8126L84.1348 56.7898C85.5651 56.889 86.8396 55.7701 86.8396 54.283C86.8396 53.3624 86.3298 52.5409 85.5509 52.1019L41.5803 40.9697V53.8723L86.613 65.2877C87.3777 65.401 88.1283 64.8061 88.1283 64.013ZM71.3047 56.7049C71.3047 55.6285 72.1686 54.7645 73.2448 54.7645C74.3211 54.7645 75.1849 55.6285 75.1849 56.7049C75.1849 57.7812 74.3211 58.6452 73.2448 58.6452C72.1686 58.6452 71.3047 57.7812 71.3047 56.7049Z" fill="url(#paint0_linear_6708_17815)"/>
<path d="M43.0386 18.6198L51.2946 20.546C52.4275 20.8151 53.2347 21.8065 53.2489 22.9678C53.2772 24.6249 51.7478 25.8571 50.1334 25.4889L46.2816 24.5966C44.8513 24.5258 43.6051 25.6588 43.6334 27.1601C43.6617 28.2648 44.3981 29.2137 45.4602 29.5253L89.9123 40.4025C91.2151 40.7283 92.4754 39.7369 92.4754 38.3914V29.7519C92.4754 28.803 91.824 27.9674 90.8894 27.7408L44.1007 16.2687C43.5626 16.1413 43.0386 16.2404 42.5996 16.4812C42.3306 16.7219 42.1465 17.0619 42.1465 17.4584C42.1465 17.9966 42.5147 18.464 43.0245 18.634L43.0386 18.6198Z" fill="url(#paint1_linear_6708_17815)"/>
<path d="M60.7974 18.86H41V6H93V18.86H73.415V69.9036H60.7974V18.86Z" fill="#BCBEFF"/>
<path d="M92.4623 41.194V28.2773L41.5244 40.755V53.6575L92.4623 41.194Z" fill="#BCBEFF"/>
<path d="M15.7488 27.0166L21.3533 24.5591L23.8109 30.1636L18.2063 32.6212L15.7488 27.0166Z" fill="#BCBEFF"/>
<path fill-rule="evenodd" clip-rule="evenodd" d="M10.9333 8.41587C8.25435 9.59057 7.51723 12.8165 8.4157 14.8655L3.93205 16.8316C2.16066 12.7918 3.35377 6.39367 8.96731 3.93221C14.5629 1.47861 20.0402 4.80216 21.8667 8.96748C23.4179 12.5051 21.7203 15.3877 20.669 17.1718L20.4915 17.4741C19.3416 19.4538 18.8992 20.487 19.5647 22.0047L15.0811 23.9708C13.349 20.0207 15.1182 16.9783 16.2548 15.0232L16.2596 15.0158C17.5262 12.8326 17.8775 12.0611 17.383 10.9335C16.4492 8.80376 13.6325 7.23232 10.9333 8.41587Z" fill="#BCBEFF"/>
<path d="M109.888 68.9512L113.417 70.9426L111.426 74.472L107.896 72.4806L109.888 68.9512Z" fill="#BCBEFF" fill-opacity="0.52"/>
<path fill-rule="evenodd" clip-rule="evenodd" d="M117.825 59.0098C116.138 58.0579 114.136 58.9499 113.408 60.2402L110.585 58.6471C112.02 56.1031 115.883 54.1916 119.418 56.1862C122.942 58.1744 123.359 62.3965 121.879 65.0195C120.622 67.2473 118.42 67.4942 117.058 67.6466L116.827 67.6728C115.321 67.8507 114.598 68.0271 114.059 68.9829L111.235 67.3898C112.639 64.9022 114.953 64.6298 116.441 64.4547L116.447 64.4542C118.106 64.2572 118.655 64.1366 119.055 63.4264C119.812 62.0852 119.525 59.9688 117.825 59.0098Z" fill="#BCBEFF" fill-opacity="0.52"/>
<defs>
<linearGradient id="paint0_linear_6708_17815" x1="64.8472" y1="65.6417" x2="64.8472" y2="40.9697" gradientUnits="userSpaceOnUse">
<stop stop-color="#8968BF"/>
<stop offset="1" stop-color="#4444D6"/>
</linearGradient>
<linearGradient id="paint1_linear_6708_17815" x1="41.5376" y1="28.3356" x2="92.4754" y2="28.3356" gradientUnits="userSpaceOnUse">
<stop stop-color="#8468BF"/>
<stop offset="1" stop-color="#6060FF"/>
</linearGradient>
</defs>
</svg>
