<svg width="105" height="18" viewBox="0 0 105 18" fill="none" xmlns="http://www.w3.org/2000/svg">
<g id="NEXTON">
<path d="M11.4844 0.346154L16.2047 0.346154L16.2047 17.6538H12.2387L4.72029 8.43132L4.72029 17.6538H0L0 0.346154L3.96602 0.346154L11.4844 9.56868L11.4844 0.346154Z" fill="white"/>
<path d="M24.3719 13.8709L33.2772 13.8709V17.6538L19.6029 17.6538L19.6029 0.346154L32.9609 0.346154V4.12912L24.3719 4.12912V7.0467L31.9389 7.0467V10.706L24.3719 10.706L24.3719 13.8709Z" fill="white"/>
<path d="M52.11 17.6538H46.5625L43.0344 12.2885L39.555 17.6538H34.0561L40.2607 8.9011L34.3238 0.346154L39.7497 0.346154L43.1561 5.34066L46.5138 0.346154L51.7207 0.346154L45.7839 8.7033L52.11 17.6538Z" fill="white"/>
<path d="M56.6364 17.6538V4.22802L51.4052 4.22802V0.346154L66.661 0.346154V4.22802L61.454 4.22802V17.6538H56.6364Z" fill="white"/>
<path d="M76.8072 18C71.3569 18 67.3422 14.1923 67.3422 9C67.3422 3.80769 71.3569 0 76.8072 0C82.2574 0 86.2721 3.80769 86.2721 9C86.2721 14.1923 82.2574 18 76.8072 18ZM76.8072 13.9451C79.3863 13.9451 81.4058 11.9918 81.4058 9C81.4058 6.00824 79.3863 4.05495 76.8072 4.05495C74.228 4.05495 72.2085 6.00824 72.2085 9C72.2085 11.9918 74.228 13.9451 76.8072 13.9451Z" fill="white"/>
<path d="M100.28 0.346154L105 0.346154V17.6538H101.034L93.5156 8.43132V17.6538H88.7953V0.346154L92.7613 0.346154L100.28 9.56868V0.346154Z" fill="white"/>
</g>
</svg>
