<svg width="97" height="26" viewBox="0 0 97 26" fill="none" xmlns="http://www.w3.org/2000/svg">
<g id="Frame" clip-path="url(#clip0_8691_13560)">
<path id="Vector" d="M0.399069 19.0274C-0.584875 15.7006 0.353601 12.2275 2.08929 9.21509C2.69736 8.15937 3.29452 7.36667 4.04081 6.40467C4.75009 5.48191 5.51925 4.60651 6.34335 3.78411C6.84836 3.28346 7.34245 2.77193 7.88929 2.31723C8.35186 1.93448 9.26063 1.08858 9.92144 1.45137C10.3622 1.69202 10.4562 2.21504 10.4064 2.65341C10.3525 3.12565 10.0627 3.72002 10.555 4.01509C10.9321 4.24486 11.5353 3.9909 11.8463 3.68495C12.595 2.95332 16.666 -0.763469 17.522 1.05532C17.6408 1.30928 17.5511 1.6116 17.4268 1.86314C17.1437 2.44118 16.7648 3.2496 17.4511 3.72848C17.9767 4.09853 18.569 3.77323 19.0867 3.57732C19.9961 3.23146 20.9485 2.89528 21.9228 2.81123C22.4211 2.76648 23.1528 2.75862 23.3699 3.32337C23.6579 4.06951 23.0304 4.64151 22.5678 5.13611C22.3102 5.41365 21.8664 5.75165 21.8191 6.24262C21.7433 7.02746 22.9516 7.19495 23.5505 7.30258C23.903 7.35095 24.251 7.4221 24.5945 7.51602C25.108 7.65569 25.8149 7.97858 25.8264 8.59532C25.8385 9.26286 25.0692 9.60509 24.6503 9.90621C24.6503 9.90621 22.5205 10.9897 22.4654 12.2111C22.4253 13.0836 23.1807 13.6097 23.9131 14.0311C24.3623 14.2899 24.8855 14.3982 25.3293 14.6709C25.6124 14.8462 25.8992 15.1727 25.864 15.524C25.8276 15.9031 25.402 16.1994 25.0904 16.3542C24.7364 16.5314 24.3332 16.5737 23.9567 16.6849C23.5099 16.8137 23.0759 16.9861 22.6618 17.1989C22.2641 17.4057 21.8221 17.6826 21.6275 18.1059C21.3971 18.6077 21.4717 18.9355 21.6942 19.4289C21.9167 19.9223 22.4799 20.3643 22.6491 20.8945C22.9704 21.9025 21.9252 22.3529 21.1231 22.5289C19.7817 22.8303 18.4567 23.2004 17.1534 23.6378C15.6657 24.13 14.1949 24.8483 12.6029 25.0672C11.4055 25.2365 10.1936 25.2825 8.98721 25.2027C6.67739 25.0394 4.32393 24.3283 2.60946 22.7133C1.55952 21.7009 0.79691 20.4288 0.399069 19.0274Z" fill="url(#paint0_radial_8691_13560)"/>
<path id="Vector_2" d="M1.47093 16.3787C1.60248 15.4077 2.19479 14.4015 3.2533 14.2975C4.85744 14.1403 5.87897 15.2383 6.95143 15.635C7.99539 16.0214 8.59679 16.0619 9.70259 15.9047C11.5092 15.6459 14.592 14.7063 14.9606 17.25C15.214 18.9963 14.843 20.4704 13.4153 21.7456C11.7608 23.2337 9.19455 23.5856 6.37306 22.9277C5.12419 22.6363 3.87531 21.8986 2.95078 21.0079C1.69463 19.801 1.23146 18.1491 1.47093 16.3787Z" fill="white"/>
<path id="Vector_3" d="M4.134 18.8502C4.57535 18.8502 4.93304 18.3713 4.93304 17.78C4.93304 17.1898 4.57535 16.7109 4.134 16.7109C3.69265 16.7109 3.33496 17.1898 3.33496 17.7806C3.33496 18.3713 3.69265 18.8508 4.134 18.8508M9.76 19.8745C10.2874 19.8745 10.7148 19.3013 10.7148 18.5944C10.7148 17.8876 10.2874 17.3144 9.76 17.3144C9.23256 17.3144 8.80455 17.8876 8.80455 18.5944C8.80455 19.3013 9.23256 19.8745 9.76 19.8745ZM5.40409 20.1036C5.70904 20.1036 5.95578 19.8509 5.95578 19.5395C5.95682 19.4663 5.94336 19.3936 5.91618 19.3256C5.889 19.2576 5.84862 19.1956 5.79737 19.1432C5.74611 19.0908 5.68499 19.049 5.6175 19.0202C5.55002 18.9914 5.47749 18.9761 5.40409 18.9754C5.33069 18.9761 5.25817 18.9914 5.19068 19.0202C5.12319 19.049 5.06207 19.0908 5.01082 19.1432C4.95957 19.1956 4.91919 19.2576 4.892 19.3256C4.86482 19.3936 4.85136 19.4663 4.8524 19.5395C4.8524 19.8509 5.09915 20.1036 5.40409 20.1036ZM6.3656 20.9792C6.14325 20.9802 5.92272 20.9392 5.7157 20.8582C5.66931 20.836 5.63314 20.797 5.61457 20.7491C5.59599 20.7012 5.59639 20.6481 5.6157 20.6005C5.635 20.5529 5.67176 20.5144 5.71849 20.4929C5.76522 20.4713 5.81842 20.4684 5.86727 20.4846C5.91092 20.5015 6.92517 20.8897 7.46474 19.889C7.49014 19.8417 7.53335 19.8064 7.58485 19.7908C7.63635 19.7753 7.69193 19.7808 7.73937 19.8061C7.7868 19.8315 7.8222 19.8746 7.83777 19.9259C7.85335 19.9773 7.84783 20.0327 7.82242 20.0801C7.44594 20.7814 6.85849 20.9792 6.3656 20.9792Z" fill="#221F20"/>
<path id="Vector_4" fill-rule="evenodd" clip-rule="evenodd" d="M52.5783 6.35257C51.7164 6.35237 50.8628 6.52149 50.0664 6.85029C49.27 7.17909 48.5464 7.66112 47.9367 8.26885C47.3271 8.87659 46.8435 9.59813 46.5134 10.3923C46.1834 11.1864 46.0134 12.0376 46.0132 12.8973C46.013 13.757 46.1826 14.6083 46.5123 15.4026C46.8419 16.1969 47.3252 16.9186 47.9346 17.5267C48.5439 18.1347 49.2674 18.617 50.0636 18.9462C50.8599 19.2754 51.7134 19.4449 52.5753 19.4451C54.3161 19.4455 55.9857 18.7562 57.2169 17.5288C58.4481 16.3014 59.14 14.6365 59.1404 12.9003C59.1408 11.1642 58.4496 9.49893 57.219 8.27099C55.9884 7.04304 54.3191 6.35297 52.5783 6.35257ZM52.5783 17.4963C51.9729 17.4965 51.3733 17.3777 50.8138 17.1468C50.2544 16.9159 49.746 16.5774 49.3177 16.1505C48.8895 15.7237 48.5497 15.2169 48.3178 14.659C48.0859 14.1012 47.9665 13.5033 47.9663 12.8994C47.9661 12.2956 48.0851 11.6976 48.3167 11.1396C48.5482 10.5816 48.8876 10.0746 49.3156 9.64744C49.7436 9.2203 50.2517 8.88142 50.811 8.65015C51.3703 8.41888 51.9698 8.29974 52.5753 8.29954C53.7981 8.29914 54.9709 8.78323 55.8359 9.64531C56.7008 10.5074 57.1869 11.6768 57.1873 12.8964C57.1877 14.116 56.7024 15.2857 55.838 16.1484C54.9737 17.011 53.8011 17.4959 52.5783 17.4963ZM67.5048 13.3847L64.5396 6.55754C64.5144 6.4979 64.4728 6.44656 64.4196 6.4094C64.3675 6.37347 64.3059 6.35369 64.2426 6.35257H61.9328C61.8887 6.35308 61.8453 6.36245 61.8049 6.38011C61.7646 6.39778 61.7283 6.42337 61.6981 6.45536C61.6358 6.52205 61.601 6.60969 61.6005 6.70084V19.098C61.6013 19.189 61.6364 19.2764 61.6987 19.3429C61.7287 19.3749 61.765 19.4004 61.8052 19.4178C61.8455 19.4353 61.8889 19.4444 61.9328 19.4445H63.1253C63.2132 19.4445 63.2968 19.4082 63.3593 19.3429C63.421 19.2762 63.4554 19.1888 63.4557 19.098V10.2338C63.4557 10.1546 63.4817 10.0772 63.529 10.0161C63.575 9.95452 63.6414 9.91106 63.7163 9.8934C63.7903 9.87626 63.8681 9.88636 63.9352 9.92182C64.0037 9.95822 64.058 10.0166 64.0892 10.0875L66.9173 16.4363C66.9433 16.4958 66.9858 16.5466 67.0398 16.5827C67.0932 16.6177 67.1544 16.6371 67.2174 16.6371H68.2941C68.3575 16.6371 68.4194 16.6182 68.4718 16.5827C68.5258 16.5466 68.5683 16.4958 68.5942 16.4363L71.3836 10.1782C71.4148 10.1079 71.4692 10.0503 71.5376 10.0149C71.6045 9.98018 71.6817 9.97052 71.7552 9.98773C71.8295 10.0052 71.8953 10.0479 71.9413 10.1087C71.9886 10.1708 72.0146 10.2465 72.0153 10.3245V19.098C72.0157 19.1889 72.0504 19.2763 72.1123 19.3429C72.1422 19.3748 72.1783 19.4003 72.2185 19.4177C72.2586 19.4352 72.3019 19.4443 72.3457 19.4445H73.5746C73.6625 19.4445 73.7468 19.4082 73.8092 19.3429C73.8714 19.2764 73.9062 19.189 73.9068 19.098V6.70084C73.9063 6.60969 73.8715 6.52205 73.8092 6.45536C73.779 6.42337 73.7427 6.39778 73.7024 6.38011C73.6621 6.36245 73.6186 6.35308 73.5746 6.35257H71.4018C71.3342 6.35311 71.2684 6.37374 71.2126 6.41182C71.1556 6.45056 71.1108 6.50466 71.0835 6.56782L68.1074 13.3847C68.0814 13.4444 68.0389 13.4955 67.985 13.5322C67.932 13.5675 67.8698 13.5864 67.8061 13.5864C67.7424 13.5864 67.6802 13.5675 67.6273 13.5322C67.5733 13.4955 67.5308 13.4444 67.5048 13.3847ZM44.3727 7.74568V6.70145C44.3716 6.61018 44.3371 6.52247 44.2757 6.45475C44.2467 6.42249 44.2112 6.39675 44.1715 6.37924C44.1318 6.36172 44.0888 6.35284 44.0454 6.35317H34.8528C34.8095 6.35356 34.7668 6.36283 34.7272 6.38041C34.6877 6.39799 34.6522 6.4235 34.623 6.45536C34.5615 6.52257 34.5275 6.61041 34.5278 6.70145V7.74568C34.5278 7.83759 34.5618 7.92647 34.623 7.99178C34.6836 8.05708 34.7667 8.09336 34.8528 8.09336H38.169C38.2551 8.09336 38.3369 8.12964 38.3975 8.19494C38.4582 8.26024 38.4927 8.34791 38.4927 8.43982V19.0986C38.4927 19.1905 38.5273 19.2788 38.5879 19.3435C38.6485 19.4082 38.7316 19.4451 38.8171 19.4451H40.0714C40.1569 19.4451 40.2393 19.4088 40.2999 19.3435C40.3614 19.2767 40.3956 19.1893 40.3957 19.0986V8.43922C40.3957 8.34731 40.4297 8.25964 40.4903 8.19433C40.5194 8.16274 40.5547 8.13743 40.594 8.11996C40.6334 8.10249 40.6758 8.09323 40.7189 8.09275H44.0478C44.091 8.0922 44.1337 8.0828 44.1731 8.06511C44.2125 8.04743 44.2478 8.02185 44.2769 7.98996C44.3384 7.92315 44.3726 7.83578 44.3727 7.74508M79.2849 7.45605C80.273 6.79716 81.422 6.41832 82.6091 6.35998C83.7963 6.30164 84.9771 6.566 86.0253 7.12482C87.0736 7.68365 87.95 8.51595 88.5609 9.53284C89.1719 10.5497 89.4944 11.713 89.4941 12.8985C89.4938 14.1931 89.1087 15.4586 88.3876 16.535C87.6665 17.6114 86.6416 18.4505 85.4425 18.9462C83.9374 19.5675 82.2543 19.6084 80.7206 19.0608C79.187 18.5132 77.9123 17.4163 77.1444 15.9835C76.3765 14.5506 76.1703 12.8842 76.5659 11.3081C76.9615 9.73206 77.9306 8.35906 79.2849 7.45605ZM80.3694 16.7205C80.9997 17.1412 81.7243 17.4002 82.479 17.4745C83.2336 17.5489 83.995 17.4363 84.6956 17.1468C85.2551 16.9159 85.7634 16.5773 86.1916 16.1504C86.6197 15.7235 86.9593 15.2166 87.191 14.6587C87.5254 13.854 87.6238 12.9711 87.4747 12.1129C87.3257 11.2546 86.9352 10.4562 86.3489 9.8106C85.7625 9.16503 85.0044 8.69883 84.1628 8.46628C83.3211 8.23374 82.4305 8.2444 81.5947 8.49704C80.7588 8.74967 80.0122 9.23389 79.4415 9.89331C78.8709 10.5527 78.4998 11.3603 78.3714 12.2219C78.243 13.0835 78.3627 13.9637 78.7164 14.7601C79.0701 15.5566 79.6434 16.2364 80.3694 16.7205Z" fill="white"/>
</g>
<defs>
<radialGradient id="paint0_radial_8691_13560" cx="0" cy="0" r="1" gradientUnits="userSpaceOnUse" gradientTransform="translate(12.9345 12.9035) scale(16.1165 16.074)">
<stop offset="0.47" stop-color="#F21F7F"/>
<stop offset="0.6" stop-color="#EB3F9F"/>
<stop offset="0.73" stop-color="#E558B9"/>
<stop offset="0.85" stop-color="#E168C9"/>
<stop offset="0.94" stop-color="#E06DCE"/>
</radialGradient>
<clipPath id="clip0_8691_13560">
<rect width="97" height="26" fill="white"/>
</clipPath>
</defs>
</svg>
