<svg width="57" height="31" viewBox="0 0 57 31" fill="none" xmlns="http://www.w3.org/2000/svg">
<path fill-rule="evenodd" clip-rule="evenodd" d="M12.5 0C5.59644 0 0 5.59644 0 12.5C0 19.4036 5.59644 25 12.5 25H15.5359L19 31L22.4641 25H44.5C51.4036 25 57 19.4036 57 12.5C57 5.59644 51.4036 0 44.5 0H12.5Z" fill="url(#paint0_linear_7501_6215)"/>
<path d="M15.155 17V9.3H16.057L21.15 15.625H20.677V9.3H21.777V17H20.875L15.782 10.675H16.255V17H15.155ZM25.0828 12.622H29.0428V13.557H25.0828V12.622ZM25.1818 16.043H29.6698V17H24.0818V9.3H29.5158V10.257H25.1818V16.043ZM33.1145 17L30.5405 9.3H31.6735L34.0385 16.406H33.4665L35.9195 9.3H36.9315L39.3295 16.406H38.7795L41.1775 9.3H42.2225L39.6485 17H38.4935L36.2495 10.411H36.5465L34.2915 17H33.1145Z" fill="white"/>
<defs>
<linearGradient id="paint0_linear_7501_6215" x1="3.6" y1="-5.80854e-06" x2="60.8175" y2="10.8286" gradientUnits="userSpaceOnUse">
<stop stop-color="#C078F9"/>
<stop offset="1" stop-color="#6047F4"/>
</linearGradient>
</defs>
</svg>
