<svg xmlns="http://www.w3.org/2000/svg" width="195" height="69" viewBox="0 0 195 69" fill="none">
  <g filter="url(#filter0_d_7007_12651)">
    <path d="M43.7665 52.026C43.7665 51.6176 43.4978 51.2521 43.1109 51.1232L36.8775 49.5431C36.0285 49.3281 35.4267 48.5542 35.4267 47.6729C35.4267 46.4153 36.6089 45.5016 37.8233 45.8026L40.7358 46.5443C41.8213 46.6195 42.7885 45.7704 42.7885 44.6418C42.7885 43.9431 42.4016 43.3197 41.8105 42.9865L8.44043 34.5381V44.33L42.6166 52.9934C43.1969 53.0794 43.7665 52.628 43.7665 52.026ZM30.9988 46.4798C30.9988 45.6629 31.6544 45.0072 32.4712 45.0072C33.288 45.0072 33.9436 45.6629 33.9436 46.4798C33.9436 47.2967 33.288 47.9523 32.4712 47.9523C31.6544 47.9523 30.9988 47.2967 30.9988 46.4798Z" fill="url(#paint0_linear_7007_12651)"/>
    <path d="M9.54817 17.5766L15.8138 19.0384C16.6736 19.2427 17.2862 19.9951 17.2969 20.8765C17.3184 22.134 16.1577 23.0692 14.9325 22.7897L12.0093 22.1125C10.9238 22.0588 9.97806 22.9187 9.99955 24.058C10.021 24.8964 10.5799 25.6166 11.3859 25.8531L45.1214 34.108C46.1102 34.3552 47.0667 33.6028 47.0667 32.5817V26.025C47.0667 25.3049 46.5723 24.6707 45.863 24.4987L10.3542 15.7924C9.94581 15.6956 9.54817 15.7709 9.215 15.9536C9.01081 16.1363 8.87109 16.3943 8.87109 16.6953C8.87109 17.1037 9.15052 17.4584 9.53742 17.5874L9.54817 17.5766Z" fill="url(#paint1_linear_7007_12651)"/>
    <path d="M23.0246 17.7597H8V8H47.4638V17.7597H32.6004V56.4976H23.0246V17.7597Z" fill="white"/>
    <path d="M47.0557 34.7099V24.9072L8.39795 34.3767V44.1687L47.0557 34.7099Z" fill="white"/>
  </g>
  <path d="M55.0372 38.4574C54.8932 38.693 54.9675 39.0008 55.2031 39.1447C55.4388 39.2887 55.7465 39.2145 55.8905 38.9788L55.0372 38.4574ZM80.4639 24.7181L80.3265 25.1989L80.4639 24.7181ZM137.464 24.7181L133.747 20.3005L131.779 25.7285L137.464 24.7181ZM55.8905 38.9788C56.0952 38.6438 56.321 38.2916 56.5667 37.9257L55.7366 37.3681C55.4833 37.7452 55.2498 38.1095 55.0372 38.4574L55.8905 38.9788ZM58.0459 35.8865C58.5391 35.2529 59.0771 34.6022 59.6561 33.9487L58.9075 33.2856C58.3142 33.9555 57.7626 34.6224 57.2568 35.2722L58.0459 35.8865ZM61.3856 32.1178C61.9727 31.5355 62.5895 30.962 63.2333 30.4074L62.5805 29.6498C61.9179 30.2206 61.284 30.8101 60.6814 31.4077L61.3856 32.1178ZM65.1985 28.8424C65.8725 28.3489 66.5687 27.8831 67.2844 27.454L66.7703 26.5963C66.0262 27.0424 65.3044 27.5254 64.6077 28.0356L65.1985 28.8424ZM69.4907 26.2849C70.2481 25.9364 71.022 25.6346 71.8097 25.3888L71.5118 24.4342C70.6798 24.6938 69.8658 25.0115 69.0726 25.3765L69.4907 26.2849ZM74.2197 24.8267C75.0286 24.7027 75.8489 24.6428 76.6782 24.6561L76.6942 23.6562C75.806 23.642 74.9296 23.7062 74.0681 23.8383L74.2197 24.8267ZM79.1262 24.9111C79.5245 24.9885 79.9247 25.0841 80.3265 25.1989L80.6012 24.2373C80.1717 24.1146 79.7434 24.0123 79.3168 23.9295L79.1262 24.9111ZM80.3265 25.1989C80.7264 25.3131 81.102 25.4354 81.4543 25.5649L81.7992 24.6262C81.4224 24.4878 81.0233 24.3579 80.6012 24.2373L80.3265 25.1989ZM83.552 26.5768C84.281 27.0396 84.8294 27.5449 85.2294 28.0717L86.0259 27.4671C85.5449 26.8335 84.9038 26.2504 84.088 25.7325L83.552 26.5768ZM86.0936 30.063C86.2091 30.7765 86.1521 31.5209 85.9524 32.2686L86.9186 32.5266C87.1485 31.6657 87.2223 30.7777 87.0808 29.9032L86.0936 30.063ZM85.0326 34.3638C84.634 35.0172 84.1482 35.6384 83.6072 36.2009L84.328 36.8941C84.9157 36.283 85.447 35.6046 85.8863 34.8846L85.0326 34.3638ZM81.8272 37.7018C81.1433 38.1612 80.4441 38.5074 79.7767 38.7131L80.0713 39.6687C80.8484 39.4292 81.6354 39.0353 82.3848 38.532L81.8272 37.7018ZM77.6635 38.8217C77.3428 38.7281 77.0518 38.5718 76.7961 38.3444L76.1317 39.0918C76.5031 39.422 76.9268 39.6484 77.3834 39.7816L77.6635 38.8217ZM76.7961 38.3444C76.5791 38.1515 76.3482 37.8465 76.1279 37.4268L75.2425 37.8916C75.4986 38.3795 75.7969 38.7942 76.1317 39.0918L76.7961 38.3444ZM75.3535 35.0674C75.2068 34.2991 75.1231 33.4424 75.127 32.53L74.127 32.5257C74.1229 33.501 74.2123 34.422 74.3713 35.2549L75.3535 35.0674ZM75.3625 29.9887C75.51 29.1783 75.7314 28.3515 76.0397 27.5265L75.103 27.1764C74.7729 28.0596 74.5362 28.9438 74.3787 29.8097L75.3625 29.9887ZM77.1436 25.2315C77.5644 24.5285 78.061 23.839 78.6425 23.175L77.8902 22.5162C77.2684 23.2262 76.7366 23.9645 76.2855 24.7179L77.1436 25.2315ZM80.4926 21.3976C81.1227 20.8861 81.82 20.3999 82.5903 19.9464L82.0829 19.0846C81.2706 19.5629 80.5321 20.0775 79.8624 20.6212L80.4926 21.3976ZM84.8927 18.7893C85.65 18.4665 86.462 18.171 87.332 17.9074L87.0421 16.9504C86.1389 17.224 85.2927 17.5317 84.5005 17.8694L84.8927 18.7893ZM89.8534 17.2705C90.6659 17.1028 91.5204 16.9599 92.4189 16.8444L92.2914 15.8526C91.369 15.9711 90.4896 16.1181 89.6513 16.2911L89.8534 17.2705ZM95.0072 16.5974C95.8416 16.5438 96.7089 16.5117 97.6103 16.5026L97.6003 15.5027C96.6816 15.5119 95.7962 15.5446 94.943 15.5995L95.0072 16.5974ZM100.23 16.5392C101.083 16.5705 101.964 16.6211 102.873 16.6919L102.95 15.6949C102.028 15.6231 101.134 15.5717 100.267 15.5398L100.23 16.5392ZM105.464 16.9406C106.307 17.0362 107.172 17.1481 108.06 17.277L108.204 16.2874C107.306 16.157 106.431 16.0438 105.577 15.947L105.464 16.9406ZM110.697 17.699C111.525 17.8433 112.372 18.0017 113.237 18.1745L113.433 17.1939C112.56 17.0195 111.705 16.8596 110.869 16.7138L110.697 17.699ZM115.839 18.726C116.668 18.9114 117.513 19.1095 118.375 19.3206L118.613 18.3494C117.745 18.1367 116.893 17.937 116.057 17.7501L115.839 18.726ZM120.949 19.9777C121.773 20.1963 122.611 20.4263 123.464 20.6681L123.736 19.706C122.879 19.4628 122.035 19.2312 121.205 19.0112L120.949 19.9777ZM126.025 21.4168C126.84 21.6619 127.667 21.9172 128.506 22.1831L128.808 21.2297C127.964 20.9625 127.133 20.7057 126.314 20.4592L126.025 21.4168ZM131.063 23.0123C131.868 23.2796 132.684 23.5562 133.512 23.8423L133.838 22.8972C133.007 22.6098 132.187 22.3319 131.378 22.0633L131.063 23.0123Z" fill="#FFCA62"/>
  <circle cx="169.964" cy="32.5" r="24.5" fill="url(#paint2_linear_7007_12651)"/>
  <circle cx="163.197" cy="27.6001" r="1.86667" fill="#23232A"/>
  <circle cx="176.264" cy="27.6001" r="1.86667" fill="#23232A"/>
  <path d="M182.464 32.9893C179.963 43.9885 169.464 43.4893 164.464 40.9896" stroke="#23232A" stroke-width="3" stroke-linecap="round"/>
  <defs>
    <filter id="filter0_d_7007_12651" x="0.504997" y="0.504997" width="59.4505" height="68.4842" filterUnits="userSpaceOnUse" color-interpolation-filters="sRGB">
      <feFlood flood-opacity="0" result="BackgroundImageFix"/>
      <feColorMatrix in="SourceAlpha" type="matrix" values="0 0 0 0 0 0 0 0 0 0 0 0 0 0 0 0 0 0 127 0" result="hardAlpha"/>
      <feOffset dx="2.49833" dy="2.49833"/>
      <feGaussianBlur stdDeviation="4.99667"/>
      <feComposite in2="hardAlpha" operator="out"/>
      <feColorMatrix type="matrix" values="0 0 0 0 0.20136 0 0 0 0 0.0877625 0 0 0 0 0.468066 0 0 0 0.2 0"/>
      <feBlend mode="normal" in2="BackgroundImageFix" result="effect1_dropShadow_7007_12651"/>
      <feBlend mode="normal" in="SourceGraphic" in2="effect1_dropShadow_7007_12651" result="shape"/>
    </filter>
    <linearGradient id="paint0_linear_7007_12651" x1="26.0981" y1="53.2621" x2="41.3249" y2="32.9934" gradientUnits="userSpaceOnUse">
      <stop stop-color="#DBC5FF"/>
      <stop offset="1" stop-color="#4444D6"/>
      <stop offset="1.0001" stop-color="#9797FF"/>
    </linearGradient>
    <linearGradient id="paint1_linear_7007_12651" x1="8.40896" y1="24.9502" x2="47.0667" y2="24.9502" gradientUnits="userSpaceOnUse">
      <stop stop-color="#E2D4FF"/>
      <stop offset="1" stop-color="#9898FF"/>
    </linearGradient>
    <linearGradient id="paint2_linear_7007_12651" x1="169.964" y1="8" x2="169.964" y2="57" gradientUnits="userSpaceOnUse">
      <stop stop-color="#FFD991"/>
      <stop offset="1" stop-color="#FFA800"/>
    </linearGradient>
  </defs>
</svg>