<svg xmlns="http://www.w3.org/2000/svg" width="140" height="166" viewBox="0 0 140 166" fill="none">
  <path d="M110.588 112.572C110.588 111.528 109.901 110.593 108.912 110.263L92.9732 106.223C90.8023 105.674 89.2635 103.695 89.2635 101.441C89.2635 98.2258 92.2862 95.8897 95.3915 96.6592L102.838 98.5556C105.614 98.7479 108.087 96.5768 108.087 93.691C108.087 91.9046 107.098 90.3106 105.586 89.4586L20.2617 67.8567V92.894L107.647 115.046C109.131 115.265 110.588 114.111 110.588 112.572ZM77.9418 98.3906C77.9418 96.3019 79.6181 94.6254 81.7065 94.6254C83.795 94.6254 85.4713 96.3019 85.4713 98.3906C85.4713 100.479 83.795 102.156 81.7065 102.156C79.6181 102.156 77.9418 100.479 77.9418 98.3906Z" fill="url(#paint0_linear_6843_8068)"/>
  <path d="M23.0926 24.487L39.1133 28.2247C41.3117 28.7469 42.878 30.6707 42.9055 32.9244C42.9604 36.1399 39.9926 38.531 36.8599 37.8164L29.3854 36.0849C26.61 35.9475 24.1917 38.1462 24.2467 41.0594C24.3017 43.2031 25.7306 45.0445 27.7916 45.6491L114.051 66.7563C116.579 67.3885 119.025 65.4646 119.025 62.8537V46.0889C119.025 44.2475 117.76 42.626 115.947 42.1862L25.1535 19.9248C24.1093 19.6774 23.0926 19.8698 22.2407 20.337C21.7186 20.8042 21.3613 21.4638 21.3613 22.2334C21.3613 23.2777 22.0758 24.1847 23.0651 24.5145L23.0926 24.487Z" fill="url(#paint1_linear_6843_8068)"/>
  <path d="M57.5525 24.9549H19.1357V0H120.042V24.9549H82.037V124.005H57.5525V24.9549Z" fill="#0C0F5E"/>
  <path d="M118.997 68.2965V43.2317L20.1523 67.4445V92.4818L118.997 68.2965Z" fill="#0C0F5E"/>
  <path d="M15.2812 142.453H21.5621V164.843H16.2849L6.28084 152.912V164.843H0V142.453H5.2772L15.2812 154.383V142.453Z" fill="#0C0F5E"/>
  <path d="M32.4293 159.949H44.2788V164.843H26.0837V142.453H43.8579V147.346H32.4293V151.121H42.4981V155.855H32.4293V159.949Z" fill="#0C0F5E"/>
  <path d="M69.3379 164.843H61.9563L57.2618 157.902L52.6321 164.843H45.3153L53.571 153.52L45.6714 142.453H52.8911L57.4237 148.914L61.8915 142.453H68.8199L60.9203 153.264L69.3379 164.843Z" fill="#0C0F5E"/>
  <path d="M75.3607 164.843V147.474H68.4V142.453H88.6994V147.474H81.7711V164.843H75.3607Z" fill="#0C0F5E"/>
  <path d="M102.2 165.29C94.9479 165.29 89.6059 160.365 89.6059 153.648C89.6059 146.931 94.9479 142.005 102.2 142.005C109.452 142.005 114.794 146.931 114.794 153.648C114.794 160.365 109.452 165.29 102.2 165.29ZM102.2 160.045C105.632 160.045 108.319 157.518 108.319 153.648C108.319 149.777 105.632 147.25 102.2 147.25C98.7682 147.25 96.081 149.777 96.081 153.648C96.081 157.518 98.7682 160.045 102.2 160.045Z" fill="#0C0F5E"/>
  <path d="M133.433 142.453H139.714V164.843H134.436L124.432 152.912V164.843H118.151V142.453H123.429L133.433 154.383V142.453Z" fill="#0C0F5E"/>
  <defs>
    <linearGradient id="paint0_linear_6843_8068" x1="65.411" y1="115.733" x2="65.411" y2="67.8567" gradientUnits="userSpaceOnUse">
      <stop stop-color="#8968BF"/>
      <stop offset="1" stop-color="#4444D6"/>
    </linearGradient>
    <linearGradient id="paint1_linear_6843_8068" x1="20.1797" y1="43.3405" x2="119.025" y2="43.3405" gradientUnits="userSpaceOnUse">
      <stop stop-color="#8468BF"/>
      <stop offset="1" stop-color="#6060FF"/>
    </linearGradient>
  </defs>
</svg>