<svg xmlns="http://www.w3.org/2000/svg" width="105" height="22" viewBox="0 0 105 22" fill="none">
  <g clip-path="url(#clip0_7501_6381)">
    <path d="M13.507 15.9398C13.5381 15.9186 13.5734 15.9047 13.6104 15.8992C13.6474 15.8937 13.6851 15.8966 13.7208 15.9078C13.7566 15.9189 13.7894 15.9381 13.8169 15.9638C13.8444 15.9895 13.866 16.0211 13.8799 16.0564L15.9534 21.679C16.02 21.86 15.8522 22.0398 15.6606 21.9925L8.02592 20.1121C7.98085 20.1025 7.93958 20.0796 7.90734 20.0461C7.87511 20.0127 7.85335 19.9703 7.84484 19.9243C7.83632 19.8783 7.84142 19.8308 7.85949 19.7878C7.87756 19.7447 7.90779 19.7081 7.94636 19.6825L13.507 15.9398Z" fill="white"/>
    <path d="M14.8464 14.6986C14.8367 14.6728 14.8319 14.6453 14.8323 14.6177V8.95052C14.8323 8.79047 14.6737 8.67552 14.5157 8.72062L7.97372 10.6C7.81568 10.6456 7.6571 10.5301 7.6571 10.3701V6.70707C7.65743 6.66979 7.66643 6.63312 7.68336 6.60005C7.70029 6.56698 7.72467 6.53844 7.75452 6.51677L16.2785 0.20112C16.3066 0.180502 16.3386 0.165955 16.3725 0.158373C16.4064 0.150791 16.4415 0.150334 16.4755 0.157032C16.5096 0.163729 16.5419 0.177438 16.5706 0.197317C16.5993 0.217195 16.6236 0.242821 16.6422 0.27262L21.792 8.98792C21.8099 9.01808 21.8208 9.052 21.8238 9.08708C21.8268 9.12216 21.8218 9.15747 21.8094 9.19032L17.4741 20.572C17.3934 20.7821 17.0876 20.781 17.0097 20.5698L14.8464 14.6986ZM5.47429 0.69227C5.51611 0.653071 5.56966 0.629252 5.62638 0.62462L13.4954 0.000920337C13.7411 -0.0188797 13.8613 0.28582 13.6648 0.43102L6.95836 5.38982C6.9273 5.41271 6.89154 5.42816 6.85377 5.43502C6.81599 5.44188 6.77718 5.43996 6.74024 5.42942L2.32375 4.19192C2.28313 4.18179 2.24596 4.16073 2.21612 4.13095C2.18629 4.10117 2.1649 4.06377 2.15422 4.02269C2.14353 3.9816 2.14393 3.93835 2.15538 3.89748C2.16683 3.8566 2.18891 3.81962 2.21929 3.79042L5.47429 0.69227Z" fill="white"/>
    <path d="M1.0943 5.43815C1.11324 5.29185 1.26208 5.1967 1.40768 5.2374L6.08829 6.55355C6.13869 6.56689 6.18339 6.59665 6.21555 6.63827C6.24771 6.67989 6.26556 6.73108 6.26636 6.784V12.1102C6.26636 12.2708 6.42494 12.3857 6.58299 12.3401L13.0795 10.469C13.238 10.4239 13.3966 10.5388 13.3966 10.6994V14.0825C13.3964 14.1217 13.3865 14.1602 13.368 14.1945C13.3495 14.2289 13.3229 14.2581 13.2905 14.2794L6.00386 19.203C5.95738 19.2345 5.90198 19.2496 5.84622 19.2459C5.79046 19.2422 5.73744 19.22 5.69536 19.1826L0.0800221 14.1408C0.0516698 14.1155 0.0298087 14.0835 0.0163249 14.0477C0.00284102 14.0118 -0.00186072 13.9732 0.00262524 13.9351L1.0943 5.43815ZM35.2545 19.1441C34.1341 19.1441 33.0616 18.9846 32.0368 18.6656C31.0121 18.332 30.199 17.9083 29.5975 17.3946L30.5197 15.2908C31.0935 15.7492 31.8041 16.1311 32.6517 16.4365C33.4872 16.7397 34.3678 16.8947 35.255 16.8946C36.0063 16.8946 36.6143 16.8114 37.079 16.6449C37.5437 16.4785 37.8851 16.2561 38.103 15.9778C38.3217 15.6859 38.431 15.3596 38.431 14.9988C38.431 14.5544 38.274 14.2004 37.9601 13.9367C37.6451 13.6588 37.235 13.4436 36.7299 13.291C36.1845 13.1094 35.6302 12.9563 35.0694 12.8323C34.457 12.6908 33.8487 12.5312 33.2454 12.3538C32.6686 12.1703 32.1122 11.9259 31.5854 11.6245C31.0964 11.3215 30.6825 10.9083 30.3758 10.4167C30.0619 9.91661 29.9049 9.27788 29.9049 8.50055C29.8978 7.73303 30.1113 6.98011 30.5192 6.3341C30.9435 5.66823 31.5791 5.14096 32.426 4.7523C33.2865 4.3497 34.373 4.1484 35.6853 4.1484C36.5459 4.1484 37.3998 4.2595 38.247 4.4817C39.0946 4.70353 39.8324 5.0229 40.4606 5.4398L39.6206 7.54355C39.0013 7.16384 38.3317 6.87621 37.6321 6.6894C36.9491 6.49506 36.2933 6.3979 35.6647 6.3979C34.9268 6.3979 34.3255 6.4881 33.8608 6.6685C33.4098 6.8489 33.0751 7.08503 32.8568 7.3769C32.6518 7.66808 32.5439 8.01827 32.5488 8.37625C32.5488 8.82065 32.6993 9.18181 33.0002 9.45975C33.3141 9.72375 33.7172 9.93201 34.2094 10.0845C34.7152 10.2371 35.2754 10.3898 35.8899 10.5427C36.5047 10.6817 37.1127 10.8412 37.7139 11.0212C38.3294 11.2023 38.8829 11.4385 39.3744 11.7296C39.8717 12.0127 40.2885 12.4217 40.584 12.917C40.898 13.4172 41.0549 14.0489 41.0549 14.8123C41.0581 15.5823 40.8372 16.336 40.42 16.9788C40.0098 17.6315 39.3744 18.1591 38.5138 18.5617C37.6532 18.9504 36.5668 19.1441 35.2545 19.1441ZM46.4078 18.9357V6.64705H41.6524V4.3563H53.8276V6.64705H49.0723V18.9357H46.4078ZM62.3499 19.1441C61.2295 19.1441 60.1979 18.9568 59.2551 18.582C58.3123 18.2073 57.4923 17.6866 56.7952 17.02C56.1037 16.3472 55.5529 15.5394 55.1758 14.6451C54.7933 13.7285 54.6021 12.7288 54.6021 11.646C54.6021 10.5632 54.7933 9.57048 55.1758 8.66775C55.5454 7.76929 56.0972 6.96007 56.7952 6.29285C57.4923 5.61268 58.3123 5.08505 59.2551 4.70995C60.1979 4.33521 61.2227 4.14785 62.3293 4.14785C63.4497 4.14785 64.4746 4.33521 65.4041 4.70995C66.3466 5.08505 67.1664 5.61268 67.8635 6.29285C68.5615 6.96007 69.1133 7.76929 69.4829 8.66775C69.8653 9.56975 70.0566 10.5625 70.0566 11.646C70.0566 12.7295 69.8653 13.7292 69.4829 14.6451C69.1132 15.5434 68.5614 16.3524 67.8635 17.0195C67.1667 17.6861 66.3469 18.2068 65.4041 18.5815C64.4746 18.9566 63.4565 19.1441 62.3499 19.1441ZM62.3293 16.7698C63.0535 16.7698 63.723 16.6448 64.3379 16.3947C64.9366 16.1554 65.4807 15.7939 65.9367 15.3326C66.385 14.8647 66.7399 14.313 66.9818 13.7079C67.2416 13.0831 67.3715 12.3958 67.3715 11.646C67.3715 10.8962 67.2416 10.2158 66.9818 9.60495C66.7463 8.99651 66.3906 8.44357 65.9367 7.98025C65.4858 7.50744 64.9407 7.13802 64.3379 6.89675C63.723 6.64705 63.0535 6.5222 62.3293 6.5222C61.6052 6.5222 60.9356 6.64723 60.3208 6.8973C59.7217 7.14551 59.1779 7.51382 58.722 7.98025C58.2663 8.44637 57.9044 8.99821 57.6563 9.60495C57.4102 10.2158 57.2872 10.8962 57.2872 11.646C57.2872 12.3819 57.4102 13.0622 57.6563 13.687C57.9068 14.2987 58.2683 14.8569 58.722 15.3326C59.1779 15.7939 59.7221 16.1554 60.3208 16.3947C60.9356 16.6448 61.6052 16.7698 62.3293 16.7698ZM72.8807 18.9357V4.3563H75.0738L84.0719 15.5823H82.9856V4.3563H85.6296V18.9357H83.4365L74.4384 7.70965H75.5252V18.9357H72.8807ZM90.0482 19.082C89.5835 19.082 89.1871 18.9221 88.8591 18.6024C88.5315 18.2695 88.3677 17.8529 88.3677 17.3528C88.3677 16.8252 88.5315 16.4086 88.8591 16.1032C89.1875 15.7842 89.5839 15.6247 90.0482 15.6247C90.5126 15.6247 90.9088 15.7842 91.2368 16.1032C91.5648 16.409 91.7288 16.8255 91.7288 17.3528C91.7288 17.8533 91.5648 18.2698 91.2368 18.6024C90.9088 18.9218 90.5126 19.082 90.0482 19.082ZM94.481 18.9357V7.1888C94.481 6.0228 94.8156 5.09238 95.485 4.39755C96.1684 3.68988 97.1386 3.33586 98.3957 3.3355C98.8468 3.3355 99.2704 3.38408 99.6666 3.48125C100.076 3.57841 100.418 3.73113 100.691 3.9394L99.9946 5.8974C99.8001 5.74269 99.577 5.62934 99.3386 5.5641C99.0941 5.48106 98.8381 5.43889 98.5803 5.43925C98.0474 5.43925 97.6441 5.59196 97.3706 5.8974C97.0975 6.1889 96.9609 6.6333 96.9609 7.2306V8.4802L97.0427 9.6462V18.9357H94.481ZM92.677 9.9795V7.89665H99.974V9.9795H92.677ZM101.777 18.9357V7.8136H104.34V18.9357H101.777ZM103.069 5.98045C102.59 5.98045 102.194 5.82773 101.88 5.5223C101.735 5.37951 101.619 5.20786 101.542 5.01798C101.464 4.8281 101.426 4.62404 101.429 4.41845C101.429 3.97405 101.579 3.6061 101.88 3.3146C102.194 3.00916 102.59 2.85645 103.069 2.85645C103.547 2.85645 103.936 3.0022 104.237 3.2937C104.551 3.57163 104.708 3.92583 104.709 4.3563C104.709 4.81463 104.558 5.2033 104.258 5.5223C103.957 5.82773 103.561 5.98045 103.069 5.98045Z" fill="white"/>
  </g>
  <defs>
    <clipPath id="clip0_7501_6381">
      <rect width="105" height="22" fill="white"/>
    </clipPath>
  </defs>
</svg>