<svg width="25" height="24" viewBox="0 0 25 24" fill="none" xmlns="http://www.w3.org/2000/svg">
<path d="M4.5 7C4.5 5.89543 5.39543 5 6.5 5H11.3C11.4105 5 11.5 5.08954 11.5 5.2V18.8C11.5 18.9105 11.4105 19 11.3 19H6.5C5.39543 19 4.5 18.1046 4.5 17V7Z" stroke="white" stroke-width="2"/>
<path d="M15.5 5.2C15.5 5.08954 15.5895 5 15.7 5H18.5C19.6046 5 20.5 5.89543 20.5 7V9.8C20.5 9.91046 20.4105 10 20.3 10H15.7C15.5895 10 15.5 9.91046 15.5 9.8V5.2Z" stroke="white" stroke-width="2"/>
<path d="M15.5 14.2C15.5 14.0895 15.5895 14 15.7 14H18.5C19.6046 14 20.5 14.8954 20.5 16V18.8C20.5 18.9105 20.4105 19 20.3 19H15.7C15.5895 19 15.5 18.9105 15.5 18.8V14.2Z" stroke="white" stroke-width="2"/>
</svg>
