<svg width="24" height="24" viewBox="0 0 24 24" fill="none" xmlns="http://www.w3.org/2000/svg">
<path d="M19.1999 13.6855C20.4672 14.6324 21.5999 17.0165 21.5999 18.4855C21.5999 18.9431 21.266 19.3141 20.8541 19.3141H20.3999M15.5999 9.80432C16.4197 9.33006 16.9713 8.44365 16.9713 7.4284C16.9713 6.41316 16.4197 5.52675 15.5999 5.05249M3.14567 19.3141H16.2827C16.6946 19.3141 17.0285 18.9431 17.0285 18.4855C17.0285 15.6089 14.6252 13.2769 9.71419 13.2769C4.80317 13.2769 2.3999 15.6089 2.3999 18.4855C2.3999 18.9431 2.7338 19.3141 3.14567 19.3141ZM12.457 7.4284C12.457 8.94324 11.229 10.1713 9.71419 10.1713C8.19935 10.1713 6.97133 8.94324 6.97133 7.4284C6.97133 5.91357 8.19935 4.68555 9.71419 4.68555C11.229 4.68555 12.457 5.91357 12.457 7.4284Z" stroke="black" stroke-width="2" stroke-linecap="round"/>
</svg>
