<svg xmlns="http://www.w3.org/2000/svg" width="24" height="24" viewBox="0 0 24 24" fill="none">
  <path d="M13.3379 4.5825L12.669 5.3258L13.3379 4.5825ZM12.669 5.3258L18.669 10.7258L20.0069 9.23921L14.0069 3.83921L12.669 5.3258ZM5.33104 10.7258L11.331 5.3258L9.99311 3.83921L3.99311 9.23921L5.33104 10.7258ZM5 17.3784V11.4691H3V17.3784H5ZM18 18.3784H6V20.3784H18V18.3784ZM19 11.4691V17.3784H21V11.4691H19ZM18 20.3784C19.6569 20.3784 21 19.0352 21 17.3784H19C19 17.9307 18.5523 18.3784 18 18.3784V20.3784ZM3 17.3784C3 19.0352 4.34315 20.3784 6 20.3784V18.3784C5.44772 18.3784 5 17.9307 5 17.3784H3ZM3.99311 9.23921C3.36096 9.80814 3 10.6186 3 11.4691H5C5 11.1856 5.12032 10.9154 5.33104 10.7258L3.99311 9.23921ZM18.669 10.7258C18.8797 10.9154 19 11.1856 19 11.4691H21C21 10.6186 20.639 9.80814 20.0069 9.23921L18.669 10.7258ZM14.0069 3.83921C12.866 2.81239 11.134 2.81238 9.99311 3.83921L11.331 5.3258C11.7113 4.98352 12.2887 4.98352 12.669 5.3258L14.0069 3.83921Z" fill="white"/>
</svg>