<svg xmlns="http://www.w3.org/2000/svg" width="21" height="20" viewBox="0 0 21 20" fill="none">
  <path d="M5.07009 10L2.81376 12.2557L0.551758 10L2.80808 7.74432L5.07009 10ZM10.5546 4.51705L14.425 8.38636L16.6813 6.13068L10.5546 0L4.42218 6.13068L6.6785 8.38636L10.5546 4.51705ZM18.2954 7.74432L16.0391 10L18.2954 12.2557L20.5518 10L18.2954 7.74432ZM10.5546 15.483L6.68418 11.6136L4.42786 13.8693L10.5546 20L16.6813 13.8693L14.425 11.6136L10.5546 15.483ZM10.5546 12.2557L12.8109 10L10.5546 7.74432L8.29259 10L10.5546 12.2557Z" fill="#F0B90B"/>
</svg>