<svg xmlns="http://www.w3.org/2000/svg" width="37" height="37" viewBox="0 0 37 37" fill="none">
  <g clip-path="url(#clip0_4801_28744)">
    <path fill-rule="evenodd" clip-rule="evenodd" d="M37 18.5C37 28.7166 28.7166 37 18.5 37C8.28337 37 0 28.7166 0 18.5C0 8.28337 8.28337 0 18.5 0C28.7166 0 37 8.28337 37 18.5Z" fill="url(#paint0_linear_4801_28744)"/>
    <path fill-rule="evenodd" clip-rule="evenodd" d="M14.4619 35.1355C14.559 35.0245 14.5976 34.8641 14.6731 34.5435L14.7733 34.1241C14.8504 33.8004 14.8889 33.6401 14.8596 33.5075C14.8355 33.3894 14.7745 33.282 14.6854 33.2007C14.5852 33.1082 14.4172 33.0573 14.0796 32.954C13.1553 32.6703 12.2597 32.3002 11.4048 31.8486C11.0934 31.6837 10.9376 31.602 10.802 31.5974C10.682 31.5917 10.5633 31.6241 10.4628 31.6899C10.3487 31.7639 10.2624 31.9057 10.0882 32.1863L9.86156 32.5532C9.68889 32.8353 9.60256 32.9771 9.59331 33.1236C9.58709 33.2527 9.6216 33.3805 9.69198 33.489C9.77368 33.6123 9.91089 33.6863 10.1884 33.8359C11.2548 34.4106 12.3774 34.8745 13.5384 35.2203C13.8391 35.3081 13.9901 35.3529 14.1335 35.3251C14.2602 35.298 14.3751 35.2316 14.4619 35.1355ZM27.4073 3.88281C27.398 4.02927 27.3117 4.16956 27.139 4.45169L26.9124 4.8186C26.7382 5.10073 26.6519 5.24256 26.5362 5.31502C26.4357 5.38079 26.317 5.41316 26.1971 5.40752C26.0614 5.40289 25.9057 5.31964 25.5958 5.15469C24.741 4.70158 23.8455 4.32994 22.921 4.04469C22.5849 3.93985 22.4169 3.88898 22.3182 3.79494C22.2298 3.71447 22.1688 3.60822 22.144 3.49123C22.1132 3.3571 22.1533 3.19677 22.2288 2.87456L22.329 2.45523C22.4061 2.13302 22.4446 1.97269 22.5418 1.86169C22.6288 1.76613 22.7437 1.70033 22.8701 1.6736C23.0151 1.64277 23.1646 1.68902 23.4668 1.77844C24.6274 2.12588 25.749 2.5924 26.8137 3.17056C27.0912 3.3201 27.2284 3.3941 27.3101 3.51744C27.38 3.62606 27.4139 3.75385 27.4073 3.88281ZM27.4073 33.119C27.398 32.9725 27.3117 32.8322 27.139 32.5501L26.9124 32.1832C26.7382 31.9011 26.6519 31.7592 26.5378 31.6852C26.4373 31.6195 26.3186 31.5871 26.1986 31.5927C26.0614 31.5989 25.9057 31.6806 25.5943 31.8471C24.74 32.3001 23.8449 32.6718 22.921 32.9571C22.5849 33.0604 22.4169 33.1128 22.3182 33.2053C22.2295 33.2862 22.1685 33.393 22.144 33.5106C22.1132 33.6431 22.1533 33.8035 22.2304 34.1272L22.329 34.5466C22.4061 34.8672 22.4446 35.0291 22.5418 35.1401C22.625 35.2326 22.7484 35.3035 22.8701 35.3282C23.0151 35.3575 23.1661 35.3128 23.4668 35.2218C24.627 34.8738 25.7485 34.4079 26.8137 33.8312C27.0912 33.6817 27.2284 33.6077 27.3101 33.4844C27.38 33.3757 27.4139 33.2479 27.4073 33.119ZM14.4619 1.86631C14.559 1.97731 14.5976 2.13765 14.6746 2.45831L14.7733 2.87765C14.8504 3.2014 14.8889 3.36173 14.8596 3.49431C14.8351 3.61186 14.7742 3.71868 14.6854 3.79956C14.5852 3.89206 14.4172 3.94448 14.0796 4.04777C13.1553 4.33154 12.2597 4.70163 11.4048 5.15315C11.0934 5.31656 10.9376 5.39981 10.802 5.40444C10.682 5.41008 10.5633 5.37771 10.4628 5.31194C10.3487 5.23794 10.2624 5.0961 10.0882 4.81552L9.8631 4.44706C9.68889 4.16494 9.60256 4.02464 9.59331 3.87664C9.58709 3.74752 9.6216 3.61971 9.69198 3.51127C9.77368 3.38794 9.91243 3.31548 10.1884 3.16594C11.2544 2.59023 12.377 2.12629 13.5384 1.78152C13.8391 1.6921 13.9901 1.6474 14.1351 1.67669C14.2584 1.70135 14.3786 1.77227 14.4619 1.86631ZM4.45185 27.1373C4.16973 27.3115 4.02944 27.3979 3.88144 27.4071C3.75283 27.413 3.62561 27.3785 3.5176 27.3084C3.39427 27.2267 3.32027 27.0895 3.17073 26.8151C2.59399 25.7494 2.12802 24.6274 1.78014 23.4666C1.68919 23.1644 1.64448 23.0149 1.67223 22.87C1.69938 22.7433 1.76572 22.6284 1.86185 22.5416C1.97285 22.4445 2.13319 22.4059 2.45539 22.3288L2.87473 22.2286C3.19848 22.1516 3.35881 22.1146 3.49139 22.1439C3.60894 22.1683 3.71577 22.2293 3.79664 22.3181C3.88914 22.4167 3.94002 22.5848 4.04331 22.9209C4.32915 23.8448 4.7013 24.7399 5.15485 25.5941C5.31981 25.9055 5.40306 26.0612 5.40769 26.1969C5.41333 26.3169 5.38096 26.4356 5.31519 26.5361C5.24273 26.6517 5.10089 26.738 4.81877 26.9122L4.45185 27.1373ZM34.5436 14.6729C34.8643 14.5959 35.0246 14.5589 35.1356 14.4617C35.2318 14.3749 35.2981 14.26 35.3253 14.1334C35.353 13.99 35.3099 13.8404 35.2204 13.5383C34.8746 12.3772 34.4107 11.2547 33.836 10.1882C33.6865 9.91073 33.6125 9.77198 33.4891 9.69181C33.3807 9.62144 33.2529 9.58692 33.1238 9.59315C32.9773 9.6024 32.8355 9.68873 32.5534 9.86139L32.1864 10.088C31.9043 10.2607 31.764 10.3486 31.69 10.4626C31.6242 10.5631 31.5919 10.6818 31.5975 10.8018C31.6021 10.9375 31.6854 11.0932 31.8488 11.4031C32.3004 12.2585 32.6705 13.1546 32.9542 14.0794C33.0575 14.417 33.1084 14.5851 33.2009 14.6853C33.2862 14.7757 33.3879 14.8338 33.5061 14.8595C33.6402 14.8903 33.8006 14.8502 34.1228 14.7731L34.5436 14.6729ZM1.86648 14.4617C1.97748 14.5589 2.13781 14.5974 2.45848 14.6729L2.87781 14.7731C3.20156 14.8502 3.36189 14.8888 3.49448 14.8595C3.61258 14.8353 3.71998 14.7743 3.80127 14.6853C3.89377 14.5851 3.94464 14.417 4.04794 14.0794C4.33161 13.1546 4.7017 12.2585 5.15331 11.4031C5.31673 11.0932 5.39998 10.9375 5.4046 10.8018C5.41025 10.6818 5.37787 10.5631 5.3121 10.4626C5.2381 10.3486 5.09627 10.2622 4.81569 10.088L4.44723 9.86139C4.16664 9.68873 4.02481 9.6024 3.87681 9.59315C3.74821 9.58725 3.62098 9.62175 3.51298 9.69181C3.38964 9.77352 3.31564 9.91073 3.1661 10.1882C2.59139 11.2547 2.12749 12.3772 1.78169 13.5383C1.69227 13.8389 1.64756 13.99 1.67685 14.1334C1.70152 14.2567 1.77244 14.38 1.86648 14.4617ZM33.1191 27.4071C32.9727 27.3979 32.8324 27.3115 32.5503 27.1373L32.1834 26.9122C31.9012 26.738 31.7594 26.6501 31.6869 26.5361C31.6212 26.4356 31.5888 26.3169 31.5944 26.1969C31.5991 26.0612 31.6808 25.904 31.8473 25.5956C32.3004 24.7408 32.672 23.8453 32.9573 22.9209C33.0621 22.5848 33.113 22.4167 33.2055 22.3181C33.2864 22.2293 33.3932 22.1683 33.5107 22.1439C33.6433 22.113 33.8036 22.1516 34.1274 22.2286L34.5467 22.3288C34.8689 22.4059 35.0293 22.4445 35.1403 22.5416C35.2328 22.6249 35.3037 22.7466 35.3284 22.87C35.3592 23.0149 35.3129 23.1644 35.222 23.4666C34.875 24.6272 34.409 25.7488 33.8314 26.8136C33.6819 27.0895 33.6079 27.2267 33.4845 27.3084C33.3761 27.3788 33.2483 27.4133 33.1191 27.4071ZM6.95706 18.0646C6.3666 15.4869 6.0706 14.1981 6.75356 13.7449C7.43806 13.2931 8.50952 14.0686 10.654 15.6164L12.7753 17.1504C12.8986 17.2414 12.9619 17.2861 13.0266 17.2737C13.0914 17.2583 13.1299 17.192 13.2054 17.0579L16.4429 11.3661C17.3556 9.76273 17.8119 8.95952 18.5011 8.95952C19.1902 8.95952 19.6465 9.76119 20.5592 11.3661L23.7967 17.0579C23.8738 17.192 23.9108 17.2583 23.9755 17.2737C24.0403 17.2861 24.1019 17.2414 24.2268 17.1504L26.3497 15.6164C28.4926 14.0671 29.5641 13.2931 30.247 13.7449C30.9315 14.1981 30.6355 15.4869 30.0451 18.0646L28.8765 23.1598C28.7408 23.7534 28.673 24.0494 28.4525 24.1789C28.2321 24.3084 27.9314 24.2205 27.3302 24.0416C24.4634 23.1967 21.4898 22.7689 18.5011 22.7713C15.5164 22.7713 12.5348 23.1984 9.67194 24.0432C9.07068 24.222 8.77006 24.3099 8.5496 24.1819C8.32914 24.0509 8.26131 23.7549 8.1241 23.1614L6.95706 18.0646ZM9.80452 22.4645C9.66269 22.5046 9.59177 22.5231 9.53627 22.4907C9.48077 22.4584 9.46535 22.3874 9.43298 22.2441L8.04856 16.2007C7.97456 15.877 7.93756 15.7166 8.02235 15.6611C8.10869 15.6041 8.24281 15.7012 8.50952 15.8939L12.0908 18.4839C12.1941 18.5564 12.245 18.5934 12.2573 18.6489C12.2696 18.7044 12.2373 18.7599 12.1756 18.8694L10.2516 22.2518C10.2352 22.2889 10.2116 22.3224 10.1822 22.3504C10.1478 22.3715 10.1096 22.3857 10.0697 22.3921L9.80452 22.4645ZM13.782 19.7049C13.6556 19.6124 13.5939 19.5693 13.5292 19.5816C13.4644 19.597 13.4259 19.6633 13.3504 19.7974L12.4716 21.3437C12.3329 21.5842 12.265 21.706 12.319 21.7816C12.3729 21.8586 12.5101 21.834 12.7861 21.7862C13.613 21.6402 14.4451 21.525 15.2805 21.4409C15.6181 21.4069 15.7877 21.39 15.8139 21.2913C15.8401 21.1926 15.7029 21.094 15.4301 20.8966L13.782 19.7049ZM21.5721 20.8966C21.2976 21.094 21.162 21.1926 21.1882 21.2913C21.2144 21.39 21.384 21.4069 21.7216 21.4409C22.5571 21.525 23.3891 21.6402 24.216 21.7862C24.492 21.834 24.6292 21.8586 24.6831 21.7816C24.7371 21.7045 24.6677 21.5842 24.529 21.3437L23.6502 19.7974C23.5731 19.6633 23.5361 19.597 23.4714 19.5816C23.4066 19.5693 23.345 19.6124 23.2201 19.7049L21.5721 20.8966ZM22.6204 17.986C22.6836 18.0954 22.7144 18.1509 22.7036 18.2064C22.6913 18.2619 22.6404 18.2989 22.5371 18.3714L19.7097 20.4156C19.5047 20.5636 19.4014 20.6392 19.3212 20.5976C19.2411 20.5559 19.2411 20.428 19.2411 20.1751V13.1606C19.2411 12.7135 19.2411 12.4884 19.3505 12.4591C19.4615 12.4298 19.5725 12.6256 19.7945 13.0141L22.6204 17.986ZM24.9098 18.4824C24.808 18.5564 24.7571 18.5934 24.7448 18.6489C24.7325 18.7044 24.7649 18.7599 24.8265 18.8694L26.7505 22.2518C26.7814 22.3057 26.7968 22.3319 26.8199 22.3504C26.8543 22.3715 26.8926 22.3857 26.9324 22.3921L27.1976 22.4645C27.3394 22.5046 27.4104 22.5231 27.4659 22.4907C27.5214 22.4584 27.5352 22.3874 27.5691 22.2441L28.9536 16.2007C29.0276 15.877 29.0646 15.7166 28.9798 15.6611C28.8934 15.6041 28.7593 15.7012 28.4911 15.8939L24.9098 18.4824ZM17.7611 20.1751C17.7611 20.4295 17.7611 20.5559 17.6809 20.5976C17.5992 20.6392 17.4959 20.5636 17.2924 20.4156L14.465 18.3714C14.3617 18.2974 14.3108 18.2604 14.2985 18.2064C14.2861 18.1525 14.3185 18.0954 14.3802 17.986L17.2076 13.0156C17.4296 12.6256 17.5406 12.4298 17.6501 12.4591C17.7611 12.4884 17.7611 12.7119 17.7611 13.1621V20.1751ZM18.5011 23.5113C21.6476 23.5113 24.6831 23.9892 27.5368 24.8803C27.8836 24.9882 28.0579 25.0422 28.1689 25.1701C28.2181 25.2279 28.2563 25.2943 28.2814 25.3659C28.3354 25.5247 28.2937 25.7066 28.2105 26.072C28.1087 26.516 28.0563 26.7396 27.9176 26.8644C27.8552 26.9196 27.7823 26.9615 27.7033 26.9878C27.526 27.0448 27.3024 26.9754 26.8507 26.8367C24.1462 26.0019 21.3315 25.5789 18.5011 25.5818C15.5935 25.5818 12.7892 26.0211 10.1499 26.8351C9.70123 26.9739 9.47614 27.0448 9.29885 26.9862C9.21928 26.9602 9.14584 26.9182 9.08302 26.8629C8.94427 26.738 8.89339 26.5145 8.79164 26.0705C8.70839 25.7066 8.66677 25.5232 8.72073 25.3644C8.74587 25.2928 8.78402 25.2264 8.83327 25.1686C8.94427 25.0406 9.11694 24.9867 9.46535 24.8788C12.391 23.9693 15.4373 23.5077 18.5011 23.5098" fill="white"/>
  </g>
  <defs>
    <linearGradient id="paint0_linear_4801_28744" x1="18.5" y1="0.131042" x2="18.5" y2="36.9568" gradientUnits="userSpaceOnUse">
      <stop offset="0.002" stop-color="#00A2F7"/>
      <stop offset="1" stop-color="#008DD9"/>
    </linearGradient>
    <clipPath id="clip0_4801_28744">
      <rect width="37" height="37" fill="white"/>
    </clipPath>
  </defs>
</svg>
