<svg width="37" height="37" viewBox="0 0 37 37" fill="none" xmlns="http://www.w3.org/2000/svg">
<g clip-path="url(#clip0_4801_28752)">
<path fill-rule="evenodd" clip-rule="evenodd" d="M37 18.5C37 28.7166 28.7166 37 18.5 37C8.28337 37 0 28.7166 0 18.5C0 8.28337 8.28337 0 18.5 0C28.7166 0 37 8.28337 37 18.5Z" fill="url(#paint0_linear_4801_28752)"/>
<path d="M34 18.5C34 27.0598 27.0598 34 18.5 34C9.94016 34 3 27.0598 3 18.5C3 9.94016 9.94016 3 18.5 3C27.0598 3 34 9.94016 34 18.5Z" stroke="url(#paint1_linear_4801_28752)" stroke-width="2"/>
<path d="M8.24128 23V14.6H9.80128V21.68H14.1933V23H8.24128ZM17.9703 23.12C17.3143 23.12 16.6863 23.028 16.0863 22.844C15.4863 22.652 15.0103 22.408 14.6583 22.112L15.1983 20.9C15.5343 21.164 15.9503 21.384 16.4463 21.56C16.9423 21.736 17.4503 21.824 17.9703 21.824C18.4103 21.824 18.7663 21.776 19.0383 21.68C19.3103 21.584 19.5103 21.456 19.6383 21.296C19.7663 21.128 19.8303 20.94 19.8303 20.732C19.8303 20.476 19.7383 20.272 19.5543 20.12C19.3703 19.96 19.1303 19.836 18.8343 19.748C18.5463 19.652 18.2223 19.564 17.8623 19.484C17.5103 19.404 17.1543 19.312 16.7943 19.208C16.4423 19.096 16.1183 18.956 15.8223 18.788C15.5343 18.612 15.2983 18.38 15.1143 18.092C14.9303 17.804 14.8383 17.436 14.8383 16.988C14.8383 16.532 14.9583 16.116 15.1983 15.74C15.4463 15.356 15.8183 15.052 16.3143 14.828C16.8183 14.596 17.4543 14.48 18.2223 14.48C18.7263 14.48 19.2263 14.544 19.7223 14.672C20.2183 14.8 20.6503 14.984 21.0183 15.224L20.5263 16.436C20.1503 16.212 19.7623 16.048 19.3623 15.944C18.9623 15.832 18.5783 15.776 18.2103 15.776C17.7783 15.776 17.4263 15.828 17.1543 15.932C16.8903 16.036 16.6943 16.172 16.5663 16.34C16.4463 16.508 16.3863 16.7 16.3863 16.916C16.3863 17.172 16.4743 17.38 16.6503 17.54C16.8343 17.692 17.0703 17.812 17.3583 17.9C17.6543 17.988 17.9823 18.076 18.3423 18.164C18.7023 18.244 19.0583 18.336 19.4103 18.44C19.7703 18.544 20.0943 18.68 20.3823 18.848C20.6783 19.016 20.9143 19.244 21.0903 19.532C21.2743 19.82 21.3663 20.184 21.3663 20.624C21.3663 21.072 21.2423 21.488 20.9943 21.872C20.7543 22.248 20.3823 22.552 19.8783 22.784C19.3743 23.008 18.7383 23.12 17.9703 23.12ZM24.5 23V15.92H21.716V14.6H28.844V15.92H26.06V23H24.5Z" fill="#F3F6FC"/>
</g>
<defs>
<linearGradient id="paint0_linear_4801_28752" x1="4.5" y1="5" x2="31.5" y2="34" gradientUnits="userSpaceOnUse">
<stop offset="0.002" stop-color="#FFDC5F"/>
<stop offset="1" stop-color="#D98200"/>
</linearGradient>
<linearGradient id="paint1_linear_4801_28752" x1="8.5" y1="6" x2="31.5" y2="32.5" gradientUnits="userSpaceOnUse">
<stop stop-color="#FFAB09"/>
<stop offset="1" stop-color="#B36B00"/>
</linearGradient>
<clipPath id="clip0_4801_28752">
<rect width="37" height="37" fill="white"/>
</clipPath>
</defs>
</svg>
