<svg xmlns="http://www.w3.org/2000/svg" width="45" height="45" viewBox="0 0 45 45" fill="none">
  <g clip-path="url(#clip0_10354_9915)">
    <path d="M0 22.5C0 34.9264 10.0736 45 22.5 45C34.9264 45 45 34.9264 45 22.5C45 10.0736 34.9264 0 22.5 0C10.0736 0 0 10.0736 0 22.5Z" fill="#1F53FF"/>
    <path d="M30.4107 14.8208H14.6382C11.738 14.8208 9.89973 17.9483 11.36 20.4773L21.0957 37.35C21.7302 38.4525 23.3232 38.4525 23.9577 37.35L33.6935 20.4773C35.1515 17.9528 33.3132 14.8208 30.4152 14.8208H30.4107ZM21.0845 32.292L18.965 28.188L13.8485 19.0396C13.511 18.4546 13.9272 17.7031 14.6337 17.7031H21.0822V32.2943L21.0845 32.292ZM31.1937 19.0373L26.0795 28.1903L23.96 32.292V17.7008H30.4085C31.115 17.7008 31.5312 18.4523 31.1937 19.0373Z" fill="white"/>
    <path d="M21.9616 13.2206H20.5531L18.1704 9.75786H18.1254V13.2206H16.4424V6.80811H17.8779L20.2246 10.2529H20.2786V6.80811H21.9616V13.2206Z" fill="white"/>
    <path d="M25.6739 8.72061H25.7279L26.8259 6.80811H28.7137L26.7922 10.0144L28.7857 13.2206H26.8552L25.7302 11.2811H25.6762L24.5602 13.2206H22.6387L24.6142 10.0144L22.7017 6.80811H24.5962L25.6762 8.72061H25.6739Z" fill="white"/>
  </g>
  <defs>
    <clipPath id="clip0_10354_9915">
      <rect width="45" height="45" fill="white"/>
    </clipPath>
  </defs>
</svg>