<svg xmlns="http://www.w3.org/2000/svg" width="45" height="45" viewBox="0 0 45 45" fill="none">
  <g clip-path="url(#clip0_10354_9908)">
    <path d="M0 22.5C0 34.9264 10.0736 45 22.5 45C34.9264 45 45 34.9264 45 22.5C45 10.0736 34.9264 0 22.5 0C10.0736 0 0 10.0736 0 22.5Z" fill="url(#paint0_linear_10354_9908)"/>
    <path d="M30.4127 14.8203H14.6402C11.7399 14.8203 9.90169 17.9478 11.3619 20.4768L21.0977 37.3496C21.7322 38.4521 23.3252 38.4521 23.9597 37.3496L33.6954 20.4768C35.1534 17.9523 33.3152 14.8203 30.4172 14.8203H30.4127ZM21.0864 32.2916L18.9669 28.1876L13.8504 19.0391C13.5129 18.4541 13.9292 17.7026 14.6357 17.7026H21.0842V32.2938L21.0864 32.2916ZM31.1957 19.0368L26.0814 28.1898L23.9619 32.2916V17.7003H30.4104C31.1169 17.7003 31.5332 18.4518 31.1957 19.0368Z" fill="white"/>
    <path d="M21.9636 13.2201H20.5551L18.1723 9.75737H18.1273V13.2201H16.4443V6.80762H17.8798L20.2266 10.2524H20.2806V6.80762H21.9636V13.2201Z" fill="white"/>
    <path d="M25.6759 8.72012H25.7299L26.8279 6.80762H28.7156L26.7941 10.0139L28.7876 13.2201H26.8571L25.7321 11.2806H25.6781L24.5621 13.2201H22.6406L24.6161 10.0139L22.7036 6.80762H24.5981L25.6781 8.72012H25.6759Z" fill="white"/>
  </g>
  <defs>
    <linearGradient id="paint0_linear_10354_9908" x1="0" y1="22.5" x2="45" y2="22.5" gradientUnits="userSpaceOnUse">
      <stop stop-color="#8468BF"/>
      <stop offset="1" stop-color="#6060FF"/>
    </linearGradient>
    <clipPath id="clip0_10354_9908">
      <rect width="45" height="45" fill="white"/>
    </clipPath>
  </defs>
</svg>