<svg xmlns="http://www.w3.org/2000/svg" width="18" height="18" viewBox="0 0 18 18" fill="none">
  <path d="M10.8626 12.9041C10.9698 12.8331 11.1183 12.8787 11.1623 12.996L12.8299 17.44C12.8835 17.5829 12.7484 17.7251 12.5944 17.6878L6.45469 16.2017C6.28956 16.1617 6.25041 15.9546 6.39047 15.862L10.8626 12.9041Z" fill="url(#paint0_linear_10259_9214)"/>
  <path d="M11.9396 11.9232C11.9319 11.9026 11.928 11.881 11.928 11.8592V7.38038C11.928 7.25369 11.8004 7.16264 11.6733 7.19854L6.41226 8.68396C6.2851 8.71986 6.15757 8.62881 6.15757 8.50212V5.60759C6.15757 5.54842 6.18648 5.49264 6.23574 5.45677L13.0915 0.465225C13.1868 0.395851 13.3242 0.422341 13.3839 0.521588L17.5254 7.40968C17.5548 7.45848 17.5599 7.51721 17.5394 7.56998L14.0526 16.5655C13.9883 16.7315 13.7422 16.7302 13.6797 16.5636L11.9396 11.9232Z" fill="url(#paint1_linear_10259_9214)"/>
  <path d="M4.40209 0.853436C4.4352 0.822456 4.47862 0.803526 4.52481 0.799926L10.8525 0.306858C11.0501 0.291456 11.1466 0.532033 10.9888 0.646749L5.59537 4.56674C5.54545 4.60303 5.48052 4.61463 5.42025 4.59803L1.86866 3.6199C1.72258 3.57967 1.67616 3.40387 1.78478 3.30224L4.40209 0.853436Z" fill="url(#paint2_linear_10259_9214)"/>
  <path d="M0.880043 4.60414C0.895171 4.48849 1.0149 4.41313 1.13208 4.4455L4.89609 5.48527C4.98099 5.50872 5.03942 5.58298 5.03942 5.66742V9.87723C5.03942 10.004 5.16706 10.095 5.29425 10.059L10.5188 8.58021C10.646 8.54421 10.7736 8.63527 10.7736 8.76201V11.436C10.7736 11.4981 10.7418 11.5563 10.6884 11.5917L4.82844 15.4832C4.75201 15.534 4.64894 15.5272 4.58056 15.4668L0.0638375 11.4828C0.0167933 11.4413 -0.00640652 11.3806 0.00153407 11.3199L0.880043 4.60414Z" fill="url(#paint3_linear_10259_9214)"/>
  <defs>
    <linearGradient id="paint0_linear_10259_9214" x1="13.8952" y1="3.56634" x2="0.133889" y2="17.8231" gradientUnits="userSpaceOnUse">
      <stop offset="0.015625" stop-color="#3294FF"/>
      <stop offset="1" stop-color="#005BBE"/>
    </linearGradient>
    <linearGradient id="paint1_linear_10259_9214" x1="13.8952" y1="3.56634" x2="0.133889" y2="17.8231" gradientUnits="userSpaceOnUse">
      <stop offset="0.015625" stop-color="#3294FF"/>
      <stop offset="1" stop-color="#005BBE"/>
    </linearGradient>
    <linearGradient id="paint2_linear_10259_9214" x1="13.8952" y1="3.56634" x2="0.133889" y2="17.8231" gradientUnits="userSpaceOnUse">
      <stop offset="0.015625" stop-color="#3294FF"/>
      <stop offset="1" stop-color="#005BBE"/>
    </linearGradient>
    <linearGradient id="paint3_linear_10259_9214" x1="13.8952" y1="3.56634" x2="0.133889" y2="17.8231" gradientUnits="userSpaceOnUse">
      <stop offset="0.015625" stop-color="#3294FF"/>
      <stop offset="1" stop-color="#005BBE"/>
    </linearGradient>
  </defs>
</svg>