<svg xmlns="http://www.w3.org/2000/svg" width="18" height="18" viewBox="0 0 18 18" fill="none">
  <path d="M0.277721 12.8846C-0.406832 10.5637 0.245659 8.1405 1.45333 6.03791C1.87689 5.30104 2.29201 4.74924 2.81231 4.07706C3.30579 3.43335 3.84093 2.82267 4.41429 2.24896C4.76585 1.89965 5.10953 1.54247 5.49034 1.22522C5.81208 0.958041 6.44432 0.367986 6.90444 0.621108C7.211 0.789856 7.27681 1.15379 7.24194 1.45978C7.20425 1.7894 7.00288 2.20396 7.34487 2.4104C7.60756 2.57014 8.02718 2.39352 8.24374 2.17977C8.76517 1.66903 11.5973 -0.924058 12.1936 0.344924C12.2762 0.522109 12.2132 0.733044 12.1272 0.908542C11.9303 1.31185 11.6665 1.87603 12.1441 2.21015C12.5097 2.46833 12.922 2.24109 13.282 2.1044C13.9148 1.86309 14.578 1.62853 15.2558 1.57003C15.6028 1.53853 16.1113 1.53347 16.2626 1.92721C16.4629 2.44808 16.0264 2.84689 15.7046 3.19282C15.5246 3.38576 15.2164 3.62144 15.1838 3.964C15.1309 4.51187 15.9713 4.62887 16.3886 4.70368C16.6339 4.73743 16.8757 4.78711 17.1142 4.85274C17.472 4.95005 17.9636 5.17561 17.972 5.60591C17.9805 6.07166 17.445 6.31072 17.1536 6.52053C17.1536 6.52053 15.672 7.27652 15.6332 8.12869C15.6051 8.73731 16.131 9.10405 16.6406 9.39824C16.9534 9.5788 17.3173 9.65417 17.6261 9.84486C17.823 9.96692 18.0227 10.1942 17.9979 10.44C17.9726 10.7043 17.6767 10.9108 17.4602 11.0193C17.2138 11.1425 16.9331 11.1723 16.671 11.25C16.3599 11.34 16.0579 11.4598 15.7699 11.6083C15.4931 11.7528 15.186 11.9458 15.0499 12.2411C14.8896 12.5915 14.9419 12.8204 15.0966 13.1647C15.2513 13.5089 15.6433 13.8172 15.7609 14.1873C15.9842 14.8904 15.2575 15.2043 14.6989 15.3269C13.7657 15.5378 12.8439 15.7961 11.9371 16.1009C10.9015 16.444 9.87834 16.9458 8.77023 17.0982C7.93718 17.2163 7.094 17.2484 6.2542 17.1927C4.6466 17.0791 3.00918 16.5824 1.81614 15.4557C1.08578 14.7495 0.555222 13.8626 0.278283 12.8851" fill="url(#paint0_radial_7912_4022)"/>
  <path d="M1.02269 11.0377C1.11438 10.3604 1.52669 9.65843 2.26355 9.58587C3.37954 9.47618 4.09053 10.2417 4.83695 10.519C5.56313 10.7885 5.98163 10.8166 6.75112 10.7069C8.00885 10.5264 10.1536 9.87049 10.4101 11.6457C10.5868 12.8641 10.328 13.8923 9.33464 14.7822C8.18378 15.8205 6.39731 16.0663 4.43421 15.6068C3.56516 15.4037 2.69611 14.889 2.05318 14.2675C1.1785 13.4254 0.856197 12.2729 1.02269 11.0377Z" fill="white"/>
  <path d="M2.87605 12.7589C3.18318 12.7589 3.43236 12.4248 3.43236 12.013C3.43236 11.6013 3.18318 11.2666 2.87605 11.2666C2.56893 11.2666 2.32031 11.6007 2.32031 12.013C2.32031 12.4248 2.56893 12.7595 2.87605 12.7595M6.79044 13.4744C7.15774 13.4744 7.4553 13.0745 7.4553 12.5811C7.4553 12.0878 7.15718 11.6885 6.79044 11.6885C6.42369 11.6885 6.12613 12.0878 6.12613 12.5811C6.12613 13.0745 6.42369 13.4744 6.79044 13.4744ZM3.76142 13.6358C3.81248 13.6352 3.86293 13.6246 3.90987 13.6045C3.95681 13.5843 3.99931 13.5551 4.03495 13.5186C4.07059 13.482 4.09866 13.4387 4.11755 13.3913C4.13644 13.3438 4.14578 13.2931 4.14504 13.2421C4.14504 13.0244 3.97348 12.8483 3.76142 12.8483C3.7103 12.8488 3.6598 12.8594 3.61279 12.8795C3.56579 12.8996 3.52322 12.9288 3.48752 12.9654C3.45182 13.002 3.4237 13.0452 3.40478 13.0927C3.38585 13.1402 3.37649 13.191 3.37724 13.2421C3.37724 13.4592 3.54936 13.6358 3.76142 13.6358ZM4.42966 14.2461C4.27497 14.2461 4.12141 14.218 3.97741 14.1617C3.9428 14.1478 3.91515 14.1207 3.90054 14.0863C3.88593 14.052 3.88556 14.0133 3.89951 13.9787C3.91346 13.944 3.94058 13.9164 3.97492 13.9018C4.00926 13.8872 4.04799 13.8868 4.0826 13.9008C4.11354 13.912 4.8189 14.1831 5.19465 13.4851C5.21228 13.4523 5.24223 13.4278 5.2779 13.417C5.2959 13.4114 5.31427 13.4095 5.33302 13.4114C5.35614 13.4136 5.37836 13.4215 5.39768 13.4344C5.41701 13.4473 5.43284 13.4648 5.44376 13.4853C5.45468 13.5058 5.46035 13.5287 5.46026 13.5519C5.46018 13.5751 5.45434 13.598 5.44327 13.6184C5.18115 14.1078 4.77278 14.2461 4.42966 14.2461Z" fill="#221F20"/>
  <defs>
    <radialGradient id="paint0_radial_7912_4022" cx="0" cy="0" r="1" gradientUnits="userSpaceOnUse" gradientTransform="translate(9.00029 8.61243) scale(11.215)">
      <stop offset="0.47" stop-color="#F21F7F"/>
      <stop offset="0.6" stop-color="#EB3F9F"/>
      <stop offset="0.73" stop-color="#E558B9"/>
      <stop offset="0.85" stop-color="#E168C9"/>
      <stop offset="0.94" stop-color="#E06DCE"/>
    </radialGradient>
  </defs>
</svg>