<svg xmlns="http://www.w3.org/2000/svg" width="20" height="20" viewBox="0 0 20 20" fill="none">
  <path d="M10 20C15.5228 20 20 15.5228 20 10C20 4.47715 15.5228 0 10 0C4.47715 0 0 4.47715 0 10C0 15.5228 4.47715 20 10 20Z" fill="#8E8E93"/>
  <path fill-rule="evenodd" clip-rule="evenodd" d="M6.6779 5.95317L13.3722 5.95312C13.609 5.95312 13.8457 5.98791 14.093 6.10321C14.3895 6.24141 14.5467 6.45923 14.6568 6.62032C14.6654 6.63285 14.6734 6.64577 14.6808 6.65898C14.8103 6.88951 14.8771 7.1384 14.8771 7.40614C14.8771 7.66054 14.8165 7.9377 14.6808 8.17926C14.6795 8.18161 14.6782 8.18387 14.6769 8.18617L10.4475 15.4513C10.3543 15.6115 10.1826 15.7097 9.99724 15.7091C9.81186 15.7085 9.64088 15.6089 9.54876 15.4481L5.39709 8.19849C5.3959 8.19653 5.3947 8.19457 5.39351 8.19256C5.29849 8.036 5.15156 7.79388 5.12586 7.48142C5.10224 7.19407 5.16682 6.90617 5.3112 6.65655C5.45557 6.40689 5.67293 6.20731 5.93436 6.08514C6.21467 5.95415 6.49874 5.95317 6.6779 5.95317ZM9.48013 6.991H6.6779C6.49379 6.991 6.42312 7.00234 6.37371 7.02544C6.30538 7.05733 6.24801 7.1098 6.20964 7.17613C6.17128 7.2425 6.15393 7.3194 6.16024 7.39638C6.16386 7.4405 6.18185 7.49097 6.28795 7.66595C6.29016 7.66962 6.29234 7.67333 6.29447 7.67704L9.48013 13.2398V6.991ZM10.518 6.991V13.2673L13.7775 7.66821C13.8142 7.60137 13.8392 7.50478 13.8392 7.40614C13.8392 7.32613 13.8226 7.25665 13.7855 7.18504C13.7466 7.12907 13.7229 7.09944 13.7031 7.07915C13.6861 7.0618 13.673 7.05251 13.6545 7.0439C13.5774 7.00797 13.4986 6.991 13.3722 6.991H10.518Z" fill="white"/>
</svg>