<svg xmlns="http://www.w3.org/2000/svg" width="24" height="24" viewBox="0 0 24 24" fill="none">
  <path d="M18.8991 7.51147H18.8891H5.84447H5.38037C4.60189 7.51147 3.96812 6.87629 3.96812 6.09608V5.39088C3.96812 4.61066 4.60189 3.97049 5.38037 3.97049H18.9789C19.2484 3.97049 19.463 3.75543 19.463 3.48535C19.463 3.21528 19.2484 3.00022 18.9789 3.00022H4.76656C3.78847 3.00022 3 3.79044 3 4.77071V7.52147H19.0588C19.0288 7.52147 18.9989 7.51147 18.9689 7.51147H18.9041H18.8991Z" fill="#1F53FF"/>
  <path d="M3 7.78787V17.966C3 19.0913 3.90823 20.0015 5.03105 20.0015H18.9689C20.0918 20.0015 21 19.0913 21 17.966V9.54336C21 8.45306 20.1417 7.56781 19.0638 7.5178H3V7.78287V7.78787Z" fill="#1F53FF"/>
  <ellipse cx="17.5038" cy="13.5004" rx="1.50042" ry="1.50042" fill="white"/>
  <path d="M5.14844 5.14475H17.3627" stroke="#1F53FF" stroke-width="0.525" stroke-linecap="round"/>
  <path d="M5.14844 6.42795H17.3627" stroke="#1F53FF" stroke-width="0.525" stroke-linecap="round"/>
</svg>