<svg width="30" height="30" viewBox="0 0 30 30" fill="none" xmlns="http://www.w3.org/2000/svg">
<path d="M16.4094 15C16.4094 18.4169 13.6319 21.1875 10.204 21.1875C9.39036 21.1886 8.58448 21.0294 7.83236 20.719C7.08024 20.4087 6.39662 19.9532 5.82053 19.3786C5.24443 18.8041 4.78715 18.1217 4.47478 17.3704C4.16241 16.6191 4.00108 15.8136 4 15C4 11.5818 6.7775 8.81251 10.204 8.81251C11.0178 8.81124 11.8238 8.97029 12.5761 9.28058C13.3283 9.59086 14.0121 10.0463 14.5884 10.6209C15.1646 11.1955 15.622 11.8779 15.9345 12.6293C16.2469 13.3807 16.4083 14.1863 16.4094 15ZM23.2156 15C23.2156 18.2175 21.8269 20.8245 20.1136 20.8245C18.4004 20.8245 17.0116 18.2161 17.0116 15C17.0116 11.7825 18.4004 9.17551 20.1136 9.17551C21.8269 9.17551 23.2156 11.7839 23.2156 15ZM26 15C26 17.882 25.5119 20.2181 24.9083 20.2181C24.306 20.2181 23.8179 17.8806 23.8179 15C23.8179 12.118 24.306 9.78188 24.9096 9.78188C25.5119 9.78188 26 12.118 26 15Z" fill="#303234"/>
</svg>
