<svg xmlns="http://www.w3.org/2000/svg" width="24" height="24" viewBox="0 0 24 24" fill="none">
  <path d="M8.17088 2.25H17.4009C18.0679 2.25 18.7369 2.359 19.2039 2.843C19.6639 3.321 19.7509 3.983 19.7509 4.6V16.4C19.7509 16.943 19.6789 17.477 19.4009 17.909C19.2405 18.1582 19.016 18.3596 18.7509 18.492V19.4C18.7509 20.066 18.6429 20.735 18.1599 21.202C17.6819 21.664 17.0199 21.75 16.4029 21.75H5.75088C5.35306 21.75 4.97153 21.592 4.69022 21.3107C4.40892 21.0294 4.25088 20.6478 4.25088 20.25V6.017C4.24788 5.519 4.24488 4.897 4.38088 4.33C4.54788 3.638 4.93288 2.967 5.75188 2.55C6.08988 2.378 6.44588 2.31 6.82588 2.28C7.19088 2.25 7.63588 2.25 8.17088 2.25ZM5.75088 20.25H16.4029C16.9499 20.25 17.0859 20.154 17.1169 20.124C17.1419 20.1 17.2509 19.969 17.2509 19.4V18.75H7.25088C6.85306 18.75 6.47153 18.908 6.19022 19.1893C5.90892 19.4706 5.75088 19.8522 5.75088 20.25Z" fill="#303234"/>
</svg>