<svg width="46" height="46" viewBox="0 0 46 46" fill="none" xmlns="http://www.w3.org/2000/svg">
<rect width="46" height="46" rx="16" fill="#767680"/>
<path d="M22.6148 18.6085C24.4397 18.6085 25.919 17.1291 25.919 15.3043C25.919 13.4794 24.4397 12 22.6148 12C20.7899 12 19.3105 13.4794 19.3105 15.3043C19.3105 17.1291 20.7899 18.6085 22.6148 18.6085Z" fill="white"/>
<path d="M19.2508 24.2966C19.072 23.5898 18.4418 23.0703 17.6839 23.0703H14.6181C13.7239 23.0703 13 23.7942 13 24.6884V31.5864C13 32.4806 13.7239 33.2045 14.6181 33.2045H17.6839C18.4418 33.2045 19.072 32.685 19.2508 31.9782V24.2966Z" fill="#F2F2F7"/>
<path d="M31.9655 25.2341C31.0287 24.6125 29.7854 24.7317 28.9848 25.5322L28.0566 26.4605C28.0396 26.6819 27.9714 27.0225 27.6904 27.2865C27.4264 27.5335 27.0517 27.6612 26.5577 27.6612C26.3363 27.6612 26.0979 27.6357 25.8424 27.5846C24.4458 27.3291 23.2109 26.9288 23.1939 26.9203C23.1343 26.9033 23.1087 26.8437 23.1258 26.7841C23.1428 26.7245 23.2024 26.6989 23.262 26.7159C23.2705 26.7159 24.4968 27.1162 25.8765 27.3717C26.6599 27.5164 27.2135 27.4313 27.5371 27.1247C28.0481 26.6393 27.8352 25.7196 27.4094 25.2512C27.1539 24.9701 26.8303 24.7743 26.4641 24.6721L24.8545 24.2292C24.318 24.0845 23.773 24.0078 23.2194 24.0078H22.9043C21.942 24.0078 20.9882 24.2292 20.1281 24.6636L19.813 24.8168V32.1407C19.9492 32.1237 20.1366 32.1237 20.3921 32.1407C20.7923 32.1662 21.2607 32.2429 21.7972 32.3195C22.8107 32.4813 24.0796 32.6942 25.1696 32.5921C25.8765 32.5239 26.4726 32.4984 27.0261 32.3962C27.6223 32.2855 28.1758 32.1066 28.9167 31.7404C29.6321 31.3913 30.3219 30.8292 30.918 30.2586C31.5226 29.6795 32.0762 29.0408 32.502 28.5128C33.3706 27.4398 33.047 25.9239 31.9655 25.2001V25.2341Z" fill="white"/>
<path d="M25.4165 22.3135C27.3261 22.3135 28.8741 20.7655 28.8741 18.856C28.8741 16.9464 27.3261 15.3984 25.4165 15.3984C23.507 15.3984 21.959 16.9464 21.959 18.856C21.959 20.7655 23.507 22.3135 25.4165 22.3135Z" fill="#F2F2F7"/>
</svg>
