<svg xmlns="http://www.w3.org/2000/svg" width="46" height="46" viewBox="0 0 46 46" fill="none">
  <rect width="46" height="46" rx="16" fill="#E1E4E6"/>
  <path d="M22.6147 18.6085C24.4396 18.6085 25.919 17.1291 25.919 15.3043C25.919 13.4794 24.4396 12 22.6147 12C20.7898 12 19.3105 13.4794 19.3105 15.3043C19.3105 17.1291 20.7898 18.6085 22.6147 18.6085Z" fill="white"/>
  <path d="M19.2508 24.2976C19.072 23.5908 18.4418 23.0713 17.6839 23.0713H14.6181C13.7239 23.0713 13 23.7952 13 24.6894V31.5874C13 32.4816 13.7239 33.2055 14.6181 33.2055H17.6839C18.4418 33.2055 19.072 32.686 19.2508 31.9791V24.2976Z" fill="#F2F2F7"/>
  <path d="M31.9654 25.2341C31.0286 24.6125 29.7853 24.7317 28.9847 25.5322L28.0565 26.4605C28.0395 26.6819 27.9713 27.0225 27.6903 27.2865C27.4263 27.5335 27.0516 27.6612 26.5577 27.6612C26.3362 27.6612 26.0978 27.6357 25.8423 27.5846C24.4457 27.3291 23.2108 26.9288 23.1938 26.9203C23.1342 26.9033 23.1086 26.8437 23.1257 26.7841C23.1427 26.7245 23.2023 26.6989 23.2619 26.7159C23.2704 26.7159 24.4968 27.1162 25.8764 27.3717C26.6598 27.5164 27.2134 27.4313 27.537 27.1247C28.048 26.6393 27.8351 25.7196 27.4093 25.2512C27.1538 24.9701 26.8302 24.7743 26.464 24.6721L24.8544 24.2292C24.3179 24.0845 23.7729 24.0078 23.2193 24.0078H22.9042C21.9419 24.0078 20.9881 24.2292 20.128 24.6636L19.8129 24.8168V32.1407C19.9492 32.1237 20.1365 32.1237 20.392 32.1407C20.7922 32.1662 21.2606 32.2429 21.7972 32.3195C22.8106 32.4813 24.0795 32.6942 25.1695 32.5921C25.8764 32.5239 26.4725 32.4984 27.026 32.3962C27.6222 32.2855 28.1757 32.1066 28.9166 31.7404C29.632 31.3913 30.3218 30.8292 30.9179 30.2586C31.5225 29.6795 32.0761 29.0408 32.5019 28.5128C33.3705 27.4398 33.0469 25.9239 31.9654 25.2001V25.2341Z" fill="white"/>
  <path d="M25.4166 22.3135C27.3261 22.3135 28.8741 20.7655 28.8741 18.856C28.8741 16.9464 27.3261 15.3984 25.4166 15.3984C23.507 15.3984 21.959 16.9464 21.959 18.856C21.959 20.7655 23.507 22.3135 25.4166 22.3135Z" fill="#F2F2F7"/>
</svg>
