<svg xmlns="http://www.w3.org/2000/svg" width="46" height="46" viewBox="0 0 46 46" fill="none">
  <rect width="46" height="46" rx="16" fill="#E1E4E6"/>
  <path d="M33.3569 14H12.8358C10.7174 14 9 15.7174 9 17.8358V28.1642C9 30.2826 10.7174 32 12.8358 32H33.3569C35.4754 32 37.1928 30.2826 37.1928 28.1642V17.8358C37.1928 15.7174 35.4754 14 33.3569 14Z" fill="white"/>
  <path d="M23.1234 26.7138C25.1745 26.7138 26.8373 25.0511 26.8373 23C26.8373 20.9489 25.1745 19.2861 23.1234 19.2861C21.0723 19.2861 19.4095 20.9489 19.4095 23C19.4095 25.0511 21.0723 26.7138 23.1234 26.7138Z" fill="#E5E5EA"/>
  <path d="M14.2589 26.1314C13.8794 26.1314 13.5812 25.8332 13.5812 25.4537V20.2353C13.5812 19.8558 13.8794 19.5576 14.2589 19.5576C14.6384 19.5576 14.9366 19.8558 14.9366 20.2353V25.4537C14.9366 25.8332 14.6384 26.1314 14.2589 26.1314Z" fill="#E5E5EA"/>
  <path d="M32.0829 26.1314C31.7034 26.1314 31.4052 25.8332 31.4052 25.4537V20.2353C31.4052 19.8558 31.7034 19.5576 32.0829 19.5576C32.4624 19.5576 32.7606 19.8558 32.7606 20.2353V25.4537C32.7606 25.8332 32.4624 26.1314 32.0829 26.1314Z" fill="#E5E5EA"/>
</svg>
