<svg xmlns="http://www.w3.org/2000/svg" width="46" height="46" viewBox="0 0 46 46" fill="none">
  <rect width="46" height="46" rx="16" fill="#E1E4E6"/>
  <path fill-rule="evenodd" clip-rule="evenodd" d="M15.0106 12H31.0012C32.1011 12 33 13.0294 33 14.3072V33.7939C33 34.3382 32.3968 34.6577 31.9474 34.35L30.055 33.0367C29.8303 32.8829 29.5228 32.8829 29.2862 33.0367L26.7197 34.8115C26.495 34.9653 26.1875 34.9653 25.9509 34.8115L23.3844 33.0367C23.1597 32.8829 22.8522 32.8829 22.6156 33.0367L20.0491 34.8115C19.8244 34.9653 19.5169 34.9653 19.2803 34.8115L16.7138 33.0367C16.4891 32.8829 16.1815 32.8829 15.945 33.0367L14.0526 34.35C13.6032 34.6577 13 34.35 13 33.7939V14.3072C13.0118 13.0294 13.9107 12 15.0106 12ZM16.8781 18.8293C16.8781 18.2771 17.3258 17.8293 17.8781 17.8293H28.6098C29.162 17.8293 29.6098 18.2771 29.6098 18.8293C29.6098 19.3816 29.162 19.8293 28.6098 19.8293H17.8781C17.3258 19.8293 16.8781 19.3816 16.8781 18.8293ZM17.8781 24.1709C17.3258 24.1709 16.8781 24.6186 16.8781 25.1709C16.8781 25.7232 17.3258 26.1709 17.8781 26.1709H28.6098C29.162 26.1709 29.6098 25.7232 29.6098 25.1709C29.6098 24.6186 29.162 24.1709 28.6098 24.1709H17.8781Z" fill="white"/>
</svg>
