<svg width="46" height="46" viewBox="0 0 46 46" fill="none" xmlns="http://www.w3.org/2000/svg">
<rect width="46" height="46" rx="16" fill="#767680"/>
<path d="M17.7059 16.7059L20.0588 14.3529L17.7059 12M13 19.0588V17.4932C13 15.7647 14.4027 14.3529 16.1403 14.3529H18.4932M28.2941 28.4706L25.9412 30.8235L28.2941 33.1765M33 26.1176V27.6833C33 29.4118 31.5973 30.8235 29.8597 30.8235H27.5068" stroke="#F2F2F7" stroke-width="2" stroke-linecap="round" stroke-linejoin="round"/>
<path d="M19.4162 32.2968C22.7849 32.2968 25.5157 29.5659 25.5157 26.1972C25.5157 22.8285 22.7849 20.0977 19.4162 20.0977C16.0475 20.0977 13.3167 22.8285 13.3167 26.1972C13.3167 29.5659 16.0475 32.2968 19.4162 32.2968Z" fill="white"/>
<path d="M26.5746 12.6797C23.3077 12.6797 20.647 15.2498 20.4841 18.4806C20.6289 18.4715 20.7737 18.4625 20.9185 18.4625C24.285 18.4625 27.0181 21.1955 27.0181 24.562C27.0181 24.6616 27.009 24.7611 27 24.8607C30.1674 24.6344 32.6742 22.001 32.6742 18.7792C32.6742 15.5575 29.9411 12.6797 26.5746 12.6797Z" fill="white"/>
</svg>
