<svg xmlns="http://www.w3.org/2000/svg" width="46" height="46" viewBox="0 0 46 46" fill="none">
  <rect width="46" height="46" rx="16" fill="#E1E4E6"/>
  <path d="M17.7059 16.7059L20.0588 14.3529L17.7059 12M13 19.0588V17.4932C13 15.7647 14.4027 14.3529 16.1403 14.3529H18.4932M28.2941 28.4706L25.9412 30.8235L28.2941 33.1765M33 26.1176V27.6833C33 29.4118 31.5973 30.8235 29.8597 30.8235H27.5068" stroke="#F2F2F7" stroke-width="2" stroke-linecap="round" stroke-linejoin="round"/>
  <path d="M19.4162 32.2987C22.7849 32.2987 25.5158 29.5678 25.5158 26.1992C25.5158 22.8305 22.7849 20.0996 19.4162 20.0996C16.0475 20.0996 13.3167 22.8305 13.3167 26.1992C13.3167 29.5678 16.0475 32.2987 19.4162 32.2987Z" fill="white"/>
  <path d="M26.5747 12.6787C23.3077 12.6787 20.6471 15.2488 20.4842 18.4796C20.629 18.4706 20.7738 18.4615 20.9186 18.4615C24.2851 18.4615 27.0181 21.1945 27.0181 24.5611C27.0181 24.6606 27.009 24.7602 27 24.8597C30.1674 24.6335 32.6742 22 32.6742 18.7783C32.6742 15.5565 29.9412 12.6787 26.5747 12.6787Z" fill="white"/>
</svg>
