<svg width="46" height="46" viewBox="0 0 46 46" fill="none" xmlns="http://www.w3.org/2000/svg">
<rect width="46" height="46" rx="16" fill="#767680"/>
<path d="M33.3569 14H12.8358C10.7174 14 9 15.7174 9 17.8358V28.1642C9 30.2826 10.7174 32 12.8358 32H33.3569C35.4754 32 37.1928 30.2826 37.1928 28.1642V17.8358C37.1928 15.7174 35.4754 14 33.3569 14Z" fill="white"/>
<path d="M23.1235 26.7129C25.1746 26.7129 26.8374 25.0501 26.8374 22.999C26.8374 20.9479 25.1746 19.2852 23.1235 19.2852C21.0724 19.2852 19.4097 20.9479 19.4097 22.999C19.4097 25.0501 21.0724 26.7129 23.1235 26.7129Z" fill="#E5E5EA"/>
<path d="M14.259 26.1324C13.8795 26.1324 13.5813 25.8342 13.5813 25.4547V20.2363C13.5813 19.8568 13.8795 19.5586 14.259 19.5586C14.6385 19.5586 14.9367 19.8568 14.9367 20.2363V25.4547C14.9367 25.8342 14.6385 26.1324 14.259 26.1324Z" fill="#E5E5EA"/>
<path d="M32.083 26.1324C31.7035 26.1324 31.4053 25.8342 31.4053 25.4547V20.2363C31.4053 19.8568 31.7035 19.5586 32.083 19.5586C32.4625 19.5586 32.7607 19.8568 32.7607 20.2363V25.4547C32.7607 25.8342 32.4625 26.1324 32.083 26.1324Z" fill="#E5E5EA"/>
</svg>
