<svg xmlns="http://www.w3.org/2000/svg" width="25" height="24" viewBox="0 0 25 24" fill="none">
  <path fill-rule="evenodd" clip-rule="evenodd" d="M6.10852 3H18.9009C19.7809 3 20.5 3.82348 20.5 4.84574V20.4352C20.5 20.8706 20.0174 21.1261 19.6579 20.88L18.144 19.8294C17.9642 19.7063 17.7182 19.7063 17.529 19.8294L15.4758 21.2492C15.296 21.3722 15.05 21.3722 14.8607 21.2492L12.8075 19.8294C12.6277 19.7063 12.3817 19.7063 12.1925 19.8294L10.1393 21.2492C9.95949 21.3722 9.71348 21.3722 9.52425 21.2492L7.47102 19.8294C7.29125 19.7063 7.04524 19.7063 6.856 19.8294L5.34211 20.88C4.98255 21.1261 4.5 20.88 4.5 20.4352V4.84574C4.50946 3.82348 5.22856 3 6.10852 3ZM7.60244 8.46348C7.60244 8.02165 7.96061 7.66348 8.40244 7.66348H16.9878C17.4296 7.66348 17.7878 8.02165 17.7878 8.46348C17.7878 8.9053 17.4296 9.26348 16.9878 9.26348H8.40244C7.96061 9.26348 7.60244 8.9053 7.60244 8.46348ZM8.40244 12.7367C7.96061 12.7367 7.60244 13.0949 7.60244 13.5367C7.60244 13.9785 7.96061 14.3367 8.40244 14.3367H16.9878C17.4296 14.3367 17.7878 13.9785 17.7878 13.5367C17.7878 13.0949 17.4296 12.7367 16.9878 12.7367H8.40244Z" fill="#B9B9BA"/>
</svg>