<svg width="30" height="30" viewBox="0 0 30 30" fill="none" xmlns="http://www.w3.org/2000/svg">
<g id="Frame 37730">
<path id="Vector" d="M15.513 4C14.868 4 14.28 4.34 13.106 5.017L6.675 8.723C5.56742 9.34838 4.64442 10.2549 3.99918 11.351C3.35393 12.4471 3.00928 13.6941 3 14.966V15.202C3.00935 16.4723 3.35321 17.7177 3.99697 18.8128C4.64072 19.9079 5.56164 20.814 6.667 21.44L10.69 23.763C13.044 25.123 14.221 25.805 15.514 25.805C16.806 25.806 17.984 25.127 20.339 23.767L24.59 21.314C25.767 20.634 26.354 20.294 26.677 19.735C27 19.175 27.001 18.495 27 17.135V14.505C27.0002 14.3225 26.9524 14.1432 26.8614 13.9851C26.7704 13.8269 26.6394 13.6955 26.4815 13.604C26.3236 13.5125 26.1445 13.4642 25.962 13.4638C25.7796 13.4635 25.6002 13.5111 25.442 13.602L16.714 18.626C16.127 18.963 15.834 19.133 15.513 19.133C15.19 19.133 14.897 18.965 14.309 18.627L8.405 15.234C8.108 15.063 7.959 14.978 7.84 14.963C7.70851 14.9456 7.57497 14.9723 7.46027 15.0389C7.34556 15.1055 7.25614 15.2082 7.206 15.331C7.161 15.442 7.161 15.613 7.163 15.956C7.165 16.208 7.163 16.334 7.188 16.45C7.241 16.709 7.377 16.943 7.575 17.117C7.664 17.194 7.773 17.257 7.991 17.383L14.306 21.033C14.895 21.373 15.19 21.543 15.513 21.543C15.836 21.543 16.13 21.373 16.719 21.034L24.459 16.565C24.661 16.449 24.761 16.393 24.836 16.435C24.911 16.479 24.911 16.595 24.911 16.827V18.02C24.911 18.36 24.912 18.53 24.831 18.669C24.751 18.809 24.604 18.893 24.309 19.063L17.927 22.748C16.749 23.428 16.16 23.768 15.514 23.768C14.868 23.768 14.278 23.428 13.102 22.746L7.132 19.294L7.089 19.269C6.47374 18.9094 5.96285 18.3956 5.60669 17.7783C5.25054 17.1611 5.06142 16.4616 5.058 15.749V14.603C5.05829 14.2093 5.16188 13.8226 5.35841 13.4814C5.55495 13.1403 5.83756 12.8567 6.178 12.659C6.47915 12.4847 6.82091 12.3928 7.16887 12.3927C7.51682 12.3925 7.85868 12.484 8.16 12.658L13.106 15.516C14.28 16.195 14.868 16.535 15.513 16.536C16.158 16.536 16.746 16.196 17.923 15.519L25.405 11.213C25.5712 11.1173 25.7092 10.9796 25.8052 10.8136C25.9011 10.6476 25.9517 10.4592 25.9517 10.2675C25.9517 10.0758 25.9011 9.88741 25.8052 9.72142C25.7092 9.55543 25.5712 9.41767 25.405 9.322L17.92 5.013C16.745 4.338 16.158 4 15.514 4H15.513Z" fill="black"/>
</g>
</svg>
