<svg xmlns="http://www.w3.org/2000/svg" width="24" height="24" viewBox="0 0 24 24" fill="none">
  <path d="M18.8991 7.5115H18.8891H5.84447H5.38037C4.60189 7.5115 3.96812 6.87632 3.96812 6.0961V5.39091C3.96812 4.61069 4.60189 3.97051 5.38037 3.97051H18.9789C19.2484 3.97051 19.463 3.75545 19.463 3.48538C19.463 3.2153 19.2484 3.00024 18.9789 3.00024H4.76656C3.78847 3.00024 3 3.79046 3 4.77074V7.5215H19.0588C19.0288 7.5215 18.9989 7.5115 18.9689 7.5115H18.9041H18.8991Z" fill="#B9B9BA"/>
  <path d="M3 7.7879V17.966C3 19.0913 3.90823 20.0016 5.03105 20.0016H18.9689C20.0918 20.0016 21 19.0913 21 17.966V9.54338C21 8.45308 20.1417 7.56784 19.0638 7.51782H3V7.7829V7.7879Z" fill="#B9B9BA"/>
  <ellipse cx="17.5038" cy="13.5004" rx="1.50042" ry="1.50042" fill="#E1E4E6"/>
  <path d="M5.14844 5.14478H17.3627" stroke="#B9B9BA" stroke-width="0.525" stroke-linecap="round"/>
  <path d="M5.14844 6.42798H17.3627" stroke="#B9B9BA" stroke-width="0.525" stroke-linecap="round"/>
</svg>