<svg xmlns="http://www.w3.org/2000/svg" width="30" height="30" viewBox="0 0 30 30" fill="none">
  <path fill-rule="evenodd" clip-rule="evenodd" d="M28 15.5C28 22.4036 22.4036 28 15.5 28C8.59644 28 3 22.4036 3 15.5C3 8.59644 8.59644 3 15.5 3C22.4036 3 28 8.59644 28 15.5ZM9.5 13C9.5 10.2386 11.7386 8 14.5 8H16.1667C18.9281 8 21.1667 10.2386 21.1667 13L21.9998 13C22.9203 13 23.6665 13.7462 23.6665 14.6667V16.3333C23.6665 17.2538 22.9203 18 21.9998 18H21.1667V18.2419C21.1667 19.8201 19.9841 21.122 18.4568 21.31C18.1721 21.8211 17.6263 22.1667 16.9998 22.1667H15.3332C14.4127 22.1667 13.6665 21.4206 13.6665 20.5001C13.6665 19.5796 14.4127 18.8334 15.3332 18.8334H16.9998C17.5994 18.8334 18.1249 19.15 18.4186 19.625C19.0396 19.4714 19.5 18.9104 19.5 18.2419V13C19.5 11.1591 18.0076 9.66667 16.1667 9.66667H14.5C12.6591 9.66667 11.1667 11.1591 11.1667 13V16.3333C11.1667 17.2538 10.4205 18 9.5 18H8.66667C7.74619 18 7 17.2538 7 16.3333V14.6667C7 13.7462 7.74619 13 8.66667 13H9.5ZM12.833 14.6666C12.833 14.2063 13.2061 13.8333 13.6663 13.8333C14.1266 13.8333 14.4997 14.2063 14.4997 14.6666C14.4997 15.1268 14.1266 15.4999 13.6663 15.4999C13.2061 15.4999 12.833 15.1268 12.833 14.6666ZM16.9998 13.8333C16.5396 13.8333 16.1665 14.2063 16.1665 14.6666C16.1665 15.1268 16.5396 15.4999 16.9998 15.4999C17.4601 15.4999 17.8332 15.1268 17.8332 14.6666C17.8332 14.2063 17.4601 13.8333 16.9998 13.8333Z" fill="#303234"/>
</svg>