<svg width="32" height="24" viewBox="0 0 32 24" fill="none" xmlns="http://www.w3.org/2000/svg">
<path d="M12.0281 0H6.40245C6.29586 0 6.20112 0.0437683 6.13006 0.120363L0.0662364 7.50627C-0.0995712 7.71417 0.0662364 7.99866 0.338635 7.99866H8.94879C9.09091 7.99866 9.20934 7.92207 9.25671 7.8017L12.336 0.426741C12.4189 0.218842 12.2531 0 12.0281 0Z" fill="white"/>
<path d="M21.2422 7.57192L18.2458 0.196957C18.1984 0.0765946 18.0681 0 17.926 0H13.3663C13.2242 0 13.1058 0.0765946 13.0584 0.196957L9.96726 7.58286C9.88435 7.79076 10.0502 8.0096 10.2752 8.0096H20.9106C21.1474 7.99866 21.3014 7.77982 21.2303 7.57192H21.2422Z" fill="#ECF1FF"/>
<path d="M22.024 8.0096H30.6815C30.9539 8.0096 31.1197 7.71417 30.9539 7.51721L25.0322 0.120363C24.973 0.0437683 24.8664 0 24.7598 0H19.2881C19.0513 0 18.8973 0.218842 18.9684 0.415799L22.0358 7.97678V8.0096H22.024Z" fill="#D6E1FF"/>
<path d="M0.208341 9.07287L13.7217 23.2976C13.9585 23.5492 14.4086 23.3195 14.2901 23.0021L9.35145 8.77744C9.30407 8.64613 9.17379 8.55859 9.03167 8.55859H0.457052C0.172811 8.55859 0.0188467 8.87591 0.208341 9.07287Z" fill="#D6E1FF"/>
<path d="M10.0267 8.96345L15.1785 23.79C15.2733 24.0745 15.7115 24.0745 15.8181 23.79L21.0647 8.96345C21.1358 8.76649 20.97 8.55859 20.7449 8.55859H10.3464C10.1214 8.55859 9.95559 8.76649 10.0267 8.96345Z" fill="#D6E1FF"/>
<path d="M17.3104 23.2647L30.8 9.07287C30.9895 8.87591 30.8356 8.55859 30.5513 8.55859H22.0833C21.9412 8.55859 21.8109 8.64613 21.7635 8.77744L16.7419 22.9693C16.6235 23.2866 17.0735 23.5274 17.3104 23.2757V23.2647Z" fill="#D6E1FF"/>
</svg>
