<svg xmlns="http://www.w3.org/2000/svg" width="24" height="24" viewBox="0 0 24 24" fill="none">
  <path d="M9.75503 4H6.12795C6.05922 4 5.99814 4.02822 5.95232 4.0776L2.04271 8.83962C1.9358 8.97367 2.04271 9.15709 2.21833 9.15709H7.76968C7.86131 9.15709 7.93767 9.10771 7.96821 9.0301L9.95357 4.27514C10.007 4.1411 9.90011 4 9.75503 4Z" fill="#1F53FF"/>
  <path d="M15.696 8.88196L13.7641 4.12699C13.7336 4.04939 13.6496 4 13.558 4H10.6181C10.5265 4 10.4501 4.04939 10.4196 4.12699L8.42659 8.88901C8.37314 9.02305 8.48004 9.16415 8.62512 9.16415H15.4822C15.6349 9.15709 15.7342 9.016 15.6884 8.88196H15.696Z" fill="#1F53FF"/>
  <path d="M16.1996 9.16415H21.7815C21.9571 9.16415 22.064 8.97367 21.9571 8.84668L18.1391 4.07761C18.1009 4.02822 18.0322 4 17.9635 4H14.4357C14.283 4 14.1837 4.1411 14.2295 4.26809L16.2072 9.14298V9.16415H16.1996Z" fill="#1F53FF"/>
  <path d="M2.13446 9.84853L10.8471 19.0198C10.9998 19.1821 11.29 19.0339 11.2136 18.8293L8.02942 9.65805C7.99888 9.57339 7.91488 9.51695 7.82325 9.51695H2.29481C2.11155 9.51695 2.01228 9.72154 2.13446 9.84853Z" fill="#1F53FF"/>
  <path d="M8.46435 9.77798L11.786 19.3373C11.8471 19.5207 12.1296 19.5207 12.1983 19.3373L15.5811 9.77798C15.6269 9.65099 15.52 9.51695 15.3749 9.51695H8.67052C8.52543 9.51695 8.41853 9.65099 8.46435 9.77798Z" fill="#1F53FF"/>
  <path d="M13.1608 18.9987L21.8582 9.84853C21.9804 9.72154 21.8811 9.51695 21.6978 9.51695H16.2381C16.1465 9.51695 16.0625 9.57339 16.032 9.65805L12.7943 18.8082C12.718 19.0128 13.0081 19.168 13.1608 19.0057V18.9987Z" fill="#1F53FF"/>
</svg>