<svg xmlns="http://www.w3.org/2000/svg" width="100" height="18" viewBox="0 0 100 18" fill="none">
  <path d="M10.9375 0.987177H15.4331V17.0128H11.6559L4.49551 8.47344V17.0128H0V0.987177H3.77716L10.9375 9.52655V0.987177Z" fill="black"/>
  <path d="M23.2113 13.5101H31.6925V17.0128H18.6694V0.987177H31.3913V4.48992H23.2113V7.19139H30.418V10.5797H23.2113V13.5101Z" fill="black"/>
  <path d="M49.6286 17.0128H44.3452L40.9852 12.0449L37.6715 17.0128H32.4344L38.3435 8.90842L32.6893 0.987177H37.8568L41.101 5.61172L44.2989 0.987177H49.2578L43.6037 8.72527L49.6286 17.0128Z" fill="black"/>
  <path d="M53.9395 17.0128V4.5815H48.9573V0.987177H63.4866V4.5815H58.5277V17.0128H53.9395Z" fill="black"/>
  <path d="M73.1497 17.3333C67.959 17.3333 64.1355 13.8077 64.1355 9C64.1355 4.19231 67.959 0.666664 73.1497 0.666664C78.3404 0.666664 82.1639 4.19231 82.1639 9C82.1639 13.8077 78.3404 17.3333 73.1497 17.3333ZM73.1497 13.5788C75.606 13.5788 77.5293 11.7701 77.5293 9C77.5293 6.22985 75.606 4.42124 73.1497 4.42124C70.6934 4.42124 68.77 6.22985 68.77 9C68.77 11.7701 70.6934 13.5788 73.1497 13.5788Z" fill="black"/>
  <path d="M95.5045 0.987177H100V17.0128H96.2228L89.0625 8.47344V17.0128H84.5669V0.987177H88.3441L95.5045 9.52655V0.987177Z" fill="black"/>
</svg>