<svg width="16" height="16" viewBox="0 0 16 16" fill="none" xmlns="http://www.w3.org/2000/svg">
<path d="M12.7083 3.29906H1.81334C0.812801 3.29906 0 4.1283 0 5.15394V14.1468C0 15.1725 0.812801 16.0017 1.81334 16.0017H13.4699C14.4726 16.0017 15.2832 15.1703 15.2832 14.1468V12.3269C15.6886 12.2658 16 11.9122 16 11.4802V7.45181C16 7.02191 15.6886 6.66839 15.2832 6.60511V5.15175C15.2832 4.12612 14.4704 3.29688 13.4699 3.29688H12.7062L12.7083 3.29906Z" fill="url(#paint0_linear_2000_11135)"/>
<path d="M10.4534 0.330965C10.1867 -0.0203707 9.70246 -0.103295 9.33766 0.136749L4.53125 3.29659H12.7083L10.4534 0.330965Z" fill="#90909A"/>
<path d="M12.1534 11.3125H11.799C11.122 11.3125 10.5183 10.7408 10.4548 9.95967C10.3814 9.06533 10.9876 8.3125 11.7428 8.3125H12.1534C12.8695 8.3125 13.4487 8.98325 13.4487 9.8125C13.4487 10.6417 12.8695 11.3125 12.1534 11.3125Z" fill="#90909A"/>
<defs>
<linearGradient id="paint0_linear_2000_11135" x1="16" y1="4.29679" x2="3.39201" y2="18.9252" gradientUnits="userSpaceOnUse">
<stop stop-color="white"/>
<stop offset="1" stop-color="#E5E5EE"/>
</linearGradient>
</defs>
</svg>
