<svg xmlns="http://www.w3.org/2000/svg" width="23" height="23" viewBox="0 0 23 23" fill="none">
  <path d="M16.4286 0C13.4057 0 10.9524 2.51317 10.9524 5.60976C10.9524 8.70634 13.4057 11.2195 16.4286 11.2195C19.4514 11.2195 21.9048 8.70634 21.9048 5.60976C21.9048 2.51317 19.4514 0 16.4286 0ZM16.4286 8.97561C14.6105 8.97561 13.1429 7.4722 13.1429 5.60976C13.1429 3.74732 14.6105 2.2439 16.4286 2.2439C18.2467 2.2439 19.7143 3.74732 19.7143 5.60976C19.7143 7.4722 18.2467 8.97561 16.4286 8.97561ZM19.7143 15.7073H17.5238C17.5238 14.361 16.7024 13.1493 15.4757 12.678L8.72905 10.0976H0V22.439H6.57143V20.8234L14.2381 23L23 20.1951V19.0732C23 17.2107 21.5324 15.7073 19.7143 15.7073ZM4.38095 20.1951H2.19048V12.3415H4.38095V20.1951ZM14.2052 20.6551L6.57143 18.5122V12.3415H8.33476L14.709 14.7761C15.0814 14.922 15.3333 15.2922 15.3333 15.7073C15.3333 15.7073 13.1429 15.6512 12.8143 15.539L10.2076 14.6527L9.51762 16.7844L12.1243 17.6707C12.6829 17.8615 13.2633 17.9512 13.8548 17.9512H19.7143C20.1414 17.9512 20.5248 18.2205 20.7 18.5907L14.2052 20.6551Z" fill="white"/>
</svg>
