<svg width="30" height="21" viewBox="0 0 30 21" fill="none" xmlns="http://www.w3.org/2000/svg">
<circle cx="6" cy="3" r="3" fill="white"/>
<path d="M12 10.7692V10.7692C12 9.23983 10.7602 8 9.23077 8H3.76923C2.23983 8 1 9.23983 1 10.7692V10.7692V17.2308V17.2308C1 18.7602 2.23983 20 3.76923 20H9.23077C10.7602 20 12 18.7602 12 17.2308V17.2308" stroke="white" stroke-width="2"/>
<path d="M18 10.7692V10.7692C18 9.23983 19.2398 8 20.7692 8H26.2308C27.7602 8 29 9.23983 29 10.7692V10.7692V17.2308V17.2308C29 18.7602 27.7602 20 26.2308 20H20.7692C19.2398 20 18 18.7602 18 17.2308V17.2308" stroke="white" stroke-width="2"/>
<circle cx="24" cy="3" r="3" fill="white"/>
<path d="M4.24808 14.8321C3.65434 14.4362 3.65434 13.5638 4.24808 13.168L7.4453 11.0365C8.10986 10.5934 9 11.0698 9 11.8685V16.1315C9 16.9302 8.10985 17.4066 7.4453 16.9635L4.24808 14.8321Z" fill="white"/>
<path d="M25.7519 13.1679C26.3457 13.5638 26.3457 14.4362 25.7519 14.832L22.5547 16.9635C21.8901 17.4066 21 16.9302 21 16.1315L21 11.8685C21 11.0698 21.8901 10.5934 22.5547 11.0365L25.7519 13.1679Z" fill="white"/>
<line x1="8" y1="14" x2="23" y2="14" stroke="white" stroke-width="2"/>
</svg>
