<svg width="16" height="16" viewBox="0 0 16 16" fill="none" xmlns="http://www.w3.org/2000/svg">
<path d="M12.7083 3.29906H1.81334C0.812801 3.29906 0 4.1283 0 5.15394V14.1468C0 15.1725 0.812801 16.0017 1.81334 16.0017H13.4699C14.4726 16.0017 15.2832 15.1703 15.2832 14.1468V12.3269C15.6886 12.2658 16 11.9122 16 11.4802V7.45181C16 7.02191 15.6886 6.66839 15.2832 6.60511V5.15175C15.2832 4.12612 14.4704 3.29688 13.4699 3.29688H12.7062L12.7083 3.29906Z" fill="url(#paint0_linear_2000_11126)"/>
<path d="M10.4534 0.330965C10.1867 -0.0203707 9.70246 -0.103295 9.33766 0.136749L4.53125 3.29659H12.7083L10.4534 0.330965Z" fill="#007AFF"/>
<path d="M12.9365 10.6256H12.6272C12.0363 10.6256 11.5093 10.1848 11.4539 9.58255C11.3899 8.89297 11.9189 8.3125 12.5781 8.3125H12.9365C13.5616 8.3125 14.0672 8.82968 14.0672 9.46907C14.0672 10.1085 13.5616 10.6256 12.9365 10.6256Z" fill="#007AFF"/>
<defs>
<linearGradient id="paint0_linear_2000_11126" x1="16" y1="4.29679" x2="3.39201" y2="18.9252" gradientUnits="userSpaceOnUse">
<stop stop-color="white"/>
<stop offset="1" stop-color="#E5E5EE"/>
</linearGradient>
</defs>
</svg>
