<svg width="46" height="46" viewBox="0 0 46 46" fill="none" xmlns="http://www.w3.org/2000/svg">
<rect width="46" height="46" rx="16" fill="#007AFF"/>
<path d="M31.7005 18.0125H31.6894H17.1632H16.6463C15.7794 18.0125 15.0737 17.3067 15.0737 16.4398V15.6563C15.0737 14.7894 15.7794 14.0781 16.6463 14.0781H31.7894C32.0895 14.0781 32.3285 13.8391 32.3285 13.539C32.3285 13.239 32.0895 13 31.7894 13H15.9628C14.8736 13 13.9956 13.878 13.9956 14.9672V18.0236H31.8783C31.845 18.0236 31.8117 18.0125 31.7783 18.0125H31.7061H31.7005Z" fill="#D6E1FF"/>
<path d="M13.9956 18.3177V30.7378C13.9956 31.9881 15.007 32.9995 16.2573 32.9995H31.7783C33.0287 32.9995 34.0401 31.9881 34.0401 30.7378V20.2682C34.0401 19.0568 33.0842 18.0731 31.8839 18.0176H13.9956V18.3121V18.3177Z" fill="url(#paint0_linear_1431_10865)"/>
<ellipse cx="30.1112" cy="25.7824" rx="1.66713" ry="1.66713" fill="white"/>
<path d="M16.3828 15.3809H29.9542" stroke="#ECF1FF" stroke-width="0.7" stroke-linecap="round"/>
<path d="M16.3828 16.8105H29.9542" stroke="#ECF1FF" stroke-width="0.7" stroke-linecap="round"/>
<defs>
<linearGradient id="paint0_linear_1431_10865" x1="13.9957" y1="18.0176" x2="34.3309" y2="26.9441" gradientUnits="userSpaceOnUse">
<stop stop-color="white"/>
<stop offset="1" stop-color="#D6E1FF"/>
</linearGradient>
</defs>
</svg>
