<svg width="26" height="26" viewBox="0 0 26 26" fill="none" xmlns="http://www.w3.org/2000/svg">
<path d="M6.49997 6.5001V11.0501M19.5 6.5001V11.0501M18.85 15.6001H21.45C22.5269 15.6001 23.4 14.7271 23.4 13.6501V4.5501C23.4 3.47314 22.5269 2.6001 21.45 2.6001H4.54998C3.47302 2.6001 2.59998 3.47314 2.59998 4.5501V13.6501C2.59998 14.7271 3.47302 15.6001 4.54998 15.6001H7.14997M9.32199 19.7229L12.9989 23.3999M12.9989 23.3999L16.4282 19.9706M12.9989 23.3999L12.9991 15.879M15.6 9.1001C15.6 10.536 14.4359 11.7001 13 11.7001C11.564 11.7001 10.4 10.536 10.4 9.1001C10.4 7.66416 11.564 6.5001 13 6.5001C14.4359 6.5001 15.6 7.66416 15.6 9.1001Z" stroke="#0088CC" stroke-width="2" stroke-linecap="round" stroke-linejoin="round"/>
</svg>
