<svg width="26" height="26" viewBox="0 0 26 26" fill="none" xmlns="http://www.w3.org/2000/svg">
<path d="M6.5001 6.5001V11.0501M19.5001 6.5001V11.0501M18.8501 15.6001H21.4501C22.527 15.6001 23.4001 14.7271 23.4001 13.6501V4.5501C23.4001 3.47314 22.527 2.6001 21.4501 2.6001H4.5501C3.47314 2.6001 2.6001 3.47314 2.6001 4.5501V13.6501C2.6001 14.7271 3.47314 15.6001 4.5501 15.6001H7.1501M9.32211 19.7229L12.9991 23.3999M12.9991 23.3999L16.4283 19.9706M12.9991 23.3999L12.9992 15.879M15.6001 9.1001C15.6001 10.536 14.436 11.7001 13.0001 11.7001C11.5642 11.7001 10.4001 10.536 10.4001 9.1001C10.4001 7.66416 11.5642 6.5001 13.0001 6.5001C14.436 6.5001 15.6001 7.66416 15.6001 9.1001Z" stroke="#ABAAB4" stroke-width="2" stroke-linecap="round" stroke-linejoin="round"/>
</svg>
