<svg width="46" height="46" viewBox="0 0 46 46" fill="none" xmlns="http://www.w3.org/2000/svg">
<rect width="46" height="46" rx="16" fill="#58A1F7"/>
<path d="M17.7059 16.7059L20.0588 14.3529L17.7059 12M13 19.0588V17.4932C13 15.7647 14.4027 14.3529 16.1403 14.3529H18.4932M28.2941 28.4706L25.9412 30.8235L28.2941 33.1765M33 26.1176V27.6833C33 29.4118 31.5973 30.8235 29.8597 30.8235H27.5068" stroke="#D6E1FF" stroke-width="2" stroke-linecap="round" stroke-linejoin="round"/>
<path d="M19.4162 32.2987C22.7849 32.2987 25.5157 29.5678 25.5157 26.1992C25.5157 22.8305 22.7849 20.0996 19.4162 20.0996C16.0475 20.0996 13.3167 22.8305 13.3167 26.1992C13.3167 29.5678 16.0475 32.2987 19.4162 32.2987Z" fill="white"/>
<path d="M26.5746 12.6777C23.3077 12.6777 20.647 15.2479 20.4841 18.4786C20.6289 18.4696 20.7737 18.4605 20.9185 18.4605C24.285 18.4605 27.0181 21.1936 27.0181 24.5601C27.0181 24.6596 27.009 24.7592 27 24.8587C30.1674 24.6325 32.6742 21.999 32.6742 18.7773C32.6742 15.5556 29.9411 12.6777 26.5746 12.6777Z" fill="url(#paint0_linear_1431_10838)"/>
<defs>
<linearGradient id="paint0_linear_1431_10838" x1="20.4842" y1="12.6777" x2="33.7986" y2="17.0494" gradientUnits="userSpaceOnUse">
<stop stop-color="white"/>
<stop offset="1" stop-color="#D6E1FF"/>
</linearGradient>
</defs>
</svg>
