<svg width="26" height="26" viewBox="0 0 26 26" fill="none" xmlns="http://www.w3.org/2000/svg">
<path d="M11.05 8.45005C11.6411 5.84486 13.9709 3.90005 16.755 3.90005C19.9859 3.90005 22.605 6.51918 22.605 9.75005C22.605 12.7428 20.3577 15.2106 17.4587 15.5582M7.14995 6.50005L9.74995 3.90005L7.14995 1.30005M1.94995 9.10005V7.36672C1.94995 5.45213 3.50203 3.90005 5.41662 3.90005H8.01662M18.85 19.5L16.25 22.1L18.85 24.7M24.05 16.9V18.6334C24.05 20.548 22.4979 22.1 20.5833 22.1H17.9833M13.65 17.55C13.65 20.7809 11.0308 23.4 7.79995 23.4C4.56909 23.4 1.94995 20.7809 1.94995 17.55C1.94995 14.3192 4.56909 11.7 7.79995 11.7C11.0308 11.7 13.65 14.3192 13.65 17.55Z" stroke="#0088CC" stroke-width="2" stroke-linecap="round" stroke-linejoin="round"/>
</svg>
