<svg width="46" height="46" viewBox="0 0 46 46" fill="none" xmlns="http://www.w3.org/2000/svg">
<rect width="46" height="46" rx="16" fill="#A2C8F5"/>
<path d="M20.0227 14H15.335C15.2462 14 15.1673 14.0365 15.108 14.1003L10.0552 20.2548C9.91703 20.428 10.0552 20.6651 10.2822 20.6651H17.4568C17.5753 20.6651 17.6739 20.6013 17.7134 20.501L20.2793 14.3556C20.3484 14.1824 20.2102 14 20.0227 14Z" fill="white"/>
<path d="M27.7008 20.3095L25.204 14.1641C25.1645 14.0638 25.056 14 24.9375 14H21.138C21.0196 14 20.9209 14.0638 20.8814 14.1641L18.3057 20.3186C18.2366 20.4919 18.3748 20.6742 18.5623 20.6742H27.4245C27.6219 20.6651 27.7502 20.4828 27.6909 20.3095H27.7008Z" fill="#ECF1FF"/>
<path d="M28.352 20.6742H35.5661C35.7931 20.6742 35.9312 20.428 35.7931 20.2639L30.8586 14.1003C30.8093 14.0365 30.7205 14 30.6317 14H26.0722C25.8749 14 25.7466 14.1824 25.8058 14.3465L28.3618 20.6469V20.6742H28.352Z" fill="#D6E1FF"/>
<path d="M10.1737 21.5594L21.434 33.4125C21.6314 33.6222 22.0064 33.4308 21.9077 33.1663L17.7924 21.3132C17.7529 21.2038 17.6444 21.1309 17.5259 21.1309H10.3809C10.144 21.1309 10.0158 21.3953 10.1737 21.5594Z" fill="#D6E1FF"/>
<path d="M18.3549 21.4682L22.6479 33.8228C22.7268 34.0599 23.092 34.0599 23.1808 33.8228L27.5527 21.4682C27.6119 21.3041 27.4737 21.1309 27.2862 21.1309H18.6214C18.4339 21.1309 18.2957 21.3041 18.3549 21.4682Z" fill="#D6E1FF"/>
<path d="M24.4243 33.3852L35.6649 21.5594C35.8228 21.3953 35.6945 21.1309 35.4576 21.1309H28.4014C28.283 21.1309 28.1744 21.2038 28.135 21.3132L23.9506 33.139C23.8519 33.4034 24.2269 33.604 24.4243 33.3943V33.3852Z" fill="#D6E1FF"/>
</svg>
