<svg width="26" height="26" viewBox="0 0 26 26" fill="none" xmlns="http://www.w3.org/2000/svg">
<path d="M8.09383 21.9514C7.56989 22.126 7.28673 22.6923 7.46138 23.2163C7.63602 23.7402 8.20234 24.0234 8.72629 23.8487L8.09383 21.9514ZM15.1601 23.35L15.0693 22.3542H15.0693L15.1601 23.35ZM19.2101 22.45L19.6486 23.3487L19.2101 22.45ZM23.0799 18.9297L22.3028 18.3003L23.0799 18.9297ZM20.4331 16.727L21.1403 17.4341H21.1403L20.4331 16.727ZM18.6509 18.5092L19.358 19.2163L18.6509 18.5092ZM13.8101 18.3C13.2578 18.3 12.8101 18.7478 12.8101 19.3C12.8101 19.8523 13.2578 20.3 13.8101 20.3V18.3ZM22.6684 16.5056L22.1137 17.3377L22.6684 16.5056ZM9.77984 15.9152L10.2271 16.8096H10.2271L9.77984 15.9152ZM14.624 15.472L14.8871 14.5073L14.624 15.472ZM16.5157 15.988L16.2526 16.9527L16.5157 15.988ZM17.1151 18.245L16.408 17.5379L17.1151 18.245ZM15.353 18.5929C14.9624 18.9835 14.9624 19.6166 15.353 20.0072C15.7435 20.3977 16.3766 20.3977 16.7672 20.0072L15.353 18.5929ZM8.72629 23.8487C8.869 23.8012 9.15496 23.7717 9.64674 23.8068C10.1181 23.8404 10.6675 23.9229 11.2924 24.0211C12.4834 24.2081 13.9743 24.4622 15.2508 24.3459L15.0693 22.3542C14.0958 22.4429 12.8867 22.2469 11.6027 22.0453C10.9902 21.9491 10.3583 21.8525 9.78901 21.8119C9.24016 21.7727 8.62611 21.7739 8.09383 21.9514L8.72629 23.8487ZM15.2508 24.3459C16.0834 24.2701 16.7825 24.2347 17.4285 24.1178C18.1251 23.9918 18.7793 23.773 19.6486 23.3487L18.7715 21.5513C18.0302 21.9131 17.5518 22.063 17.0723 22.1498C16.5421 22.2458 16.0215 22.2674 15.0693 22.3542L15.2508 24.3459ZM19.6486 23.3487C20.486 22.9401 21.2972 22.2791 21.9979 21.6059C22.7082 20.9234 23.3538 20.1803 23.857 19.5591L22.3028 18.3003C21.8309 18.883 21.2425 19.5581 20.6122 20.1637C19.9723 20.7786 19.3361 21.2758 18.7715 21.5513L19.6486 23.3487ZM19.726 16.0199L17.9438 17.8021L19.358 19.2163L21.1403 17.4341L19.726 16.0199ZM16.7417 18.3H13.8101V20.3H16.7417V18.3ZM17.9438 17.8021C17.625 18.1209 17.1926 18.3 16.7417 18.3V20.3C17.723 20.3 18.6641 19.9102 19.358 19.2163L17.9438 17.8021ZM23.2231 15.6736C22.1239 14.9408 20.6602 15.0857 19.726 16.0199L21.1403 17.4341C21.4003 17.174 21.8077 17.1337 22.1137 17.3377L23.2231 15.6736ZM23.857 19.5591C24.8775 18.299 24.4949 16.5214 23.2231 15.6736L22.1137 17.3377C22.4837 17.5844 22.5242 18.0269 22.3028 18.3003L23.857 19.5591ZM3.46006 15.8H7.06006V13.8H3.46006V15.8ZM6.96006 15.7V23.8H8.96006V15.7H6.96006ZM7.06006 23.7H3.46006V25.7H7.06006V23.7ZM3.56006 23.8V15.7H1.56006V23.8H3.56006ZM3.46006 23.7C3.51528 23.7 3.56006 23.7448 3.56006 23.8H1.56006C1.56006 24.8494 2.41072 25.7 3.46006 25.7V23.7ZM6.96006 23.8C6.96006 23.7448 7.00483 23.7 7.06006 23.7V25.7C8.1094 25.7 8.96006 24.8494 8.96006 23.8H6.96006ZM7.06006 15.8C7.00483 15.8 6.96006 15.7553 6.96006 15.7H8.96006C8.96006 14.6507 8.1094 13.8 7.06006 13.8V15.8ZM3.46006 13.8C2.41072 13.8 1.56006 14.6507 1.56006 15.7H3.56006C3.56006 15.7553 3.51529 15.8 3.46006 15.8V13.8ZM8.85727 17.4945L10.2271 16.8096L9.33263 15.0207L7.96285 15.7056L8.85727 17.4945ZM12.5973 16.25H12.9664V14.25H12.5973V16.25ZM14.3609 16.4368L16.2526 16.9527L16.7789 15.0232L14.8871 14.5073L14.3609 16.4368ZM16.408 17.5379L15.353 18.5929L16.7672 20.0072L17.8222 18.9521L16.408 17.5379ZM16.2526 16.9527C16.5119 17.0234 16.598 17.3479 16.408 17.5379L17.8222 18.9521C19.0981 17.6762 18.5197 15.498 16.7789 15.0232L16.2526 16.9527ZM12.9664 16.25C13.4375 16.25 13.9064 16.3129 14.3609 16.4368L14.8871 14.5073C14.2612 14.3366 13.6152 14.25 12.9664 14.25V16.25ZM10.2271 16.8096C10.963 16.4416 11.7745 16.25 12.5973 16.25V14.25C11.464 14.25 10.3463 14.5139 9.33263 15.0207L10.2271 16.8096ZM18.6601 8.50005C18.6601 9.93599 17.496 11.1 16.0601 11.1V13.1C18.6006 13.1 20.6601 11.0406 20.6601 8.50005H18.6601ZM16.0601 11.1C14.6241 11.1 13.4601 9.93599 13.4601 8.50005H11.4601C11.4601 11.0406 13.5196 13.1 16.0601 13.1V11.1ZM13.4601 8.50005C13.4601 7.06411 14.6241 5.90005 16.0601 5.90005V3.90005C13.5196 3.90005 11.4601 5.95954 11.4601 8.50005H13.4601ZM16.0601 5.90005C17.496 5.90005 18.6601 7.06411 18.6601 8.50005H20.6601C20.6601 5.95954 18.6006 3.90005 16.0601 3.90005V5.90005ZM12.4601 7.50005C11.0241 7.50005 9.86006 6.33599 9.86006 4.90005H7.86006C7.86006 7.44056 9.91955 9.50005 12.4601 9.50005V7.50005ZM9.86006 4.90005C9.86006 3.46411 11.0241 2.30005 12.4601 2.30005V0.300049C9.91955 0.300049 7.86006 2.35954 7.86006 4.90005H9.86006ZM12.4601 2.30005C13.896 2.30005 15.0601 3.46411 15.0601 4.90005H17.0601C17.0601 2.35954 15.0006 0.300049 12.4601 0.300049V2.30005Z" fill="#0088CC"/>
</svg>
