<svg width="16" height="18" viewBox="0 0 16 18" fill="none" xmlns="http://www.w3.org/2000/svg">
<path d="M13.7063 16.3423C13.7063 16.1907 13.6066 16.055 13.463 16.0071L11.1495 15.4207C10.8343 15.3409 10.611 15.0537 10.611 14.7266C10.611 14.2598 11.0497 13.9207 11.5005 14.0324L12.5815 14.3077C12.9843 14.3356 13.3433 14.0204 13.3433 13.6016C13.3433 13.3423 13.1997 13.1109 12.9803 12.9872L0.594971 9.85156V13.4859L13.2795 16.7013C13.4949 16.7332 13.7063 16.5657 13.7063 16.3423ZM8.96757 14.2837C8.96757 13.9806 9.21089 13.7372 9.51404 13.7372C9.81719 13.7372 10.0605 13.9806 10.0605 14.2837C10.0605 14.5869 9.81719 14.8303 9.51404 14.8303C9.21089 14.8303 8.96757 14.5869 8.96757 14.2837Z" fill="url(#paint0_linear_2004_14536)"/>
<path d="M1.00569 3.55296L3.33119 4.09551C3.6503 4.17131 3.87766 4.45057 3.88165 4.7777C3.88963 5.24445 3.45884 5.59153 3.00411 5.4878L1.91914 5.23647C1.51626 5.21653 1.16525 5.53567 1.17322 5.95855C1.1812 6.26972 1.38862 6.537 1.68779 6.62477L14.2088 9.6886C14.5758 9.78036 14.9308 9.5011 14.9308 9.12211V6.6886C14.9308 6.42131 14.7473 6.18594 14.484 6.12211L1.30486 2.89073C1.15328 2.85482 1.00569 2.88275 0.882038 2.95057C0.80625 3.01839 0.754395 3.11413 0.754395 3.22583C0.754395 3.37743 0.858105 3.50908 1.0017 3.55695L1.00569 3.55296Z" fill="url(#paint1_linear_2004_14536)"/>
<path d="M6.00781 3.62234H0.431396V0H15.0785V3.62234H9.56187V18H6.00781V3.62234Z" fill="#2F3038"/>
<path d="M14.927 9.91174V6.27344L0.579102 9.78807V13.4224L14.927 9.91174Z" fill="#2F3038"/>
<defs>
<linearGradient id="paint0_linear_2004_14536" x1="7.14865" y1="16.801" x2="7.14865" y2="9.85156" gradientUnits="userSpaceOnUse">
<stop stop-color="#8968BF"/>
<stop offset="1" stop-color="#4444D6"/>
</linearGradient>
<linearGradient id="paint1_linear_2004_14536" x1="0.582874" y1="6.28966" x2="14.9308" y2="6.28966" gradientUnits="userSpaceOnUse">
<stop stop-color="#8468BF"/>
<stop offset="1" stop-color="#6060FF"/>
</linearGradient>
</defs>
</svg>
