<svg xmlns="http://www.w3.org/2000/svg" width="24" height="24" viewBox="0 0 24 24" fill="none">
  <path d="M9.75503 4H6.12795C6.05922 4 5.99814 4.02822 5.95232 4.0776L2.04271 8.83962C1.9358 8.97367 2.04271 9.15709 2.21833 9.15709H7.76968C7.86131 9.15709 7.93767 9.10771 7.96821 9.0301L9.95357 4.27514C10.007 4.1411 9.90011 4 9.75503 4Z" fill="white"/>
  <path d="M15.6958 8.88195L13.7639 4.12699C13.7333 4.04938 13.6493 4 13.5577 4H10.6179C10.5262 4 10.4499 4.04938 10.4193 4.12699L8.42634 8.88901C8.37289 9.02305 8.4798 9.16415 8.62488 9.16415H15.482C15.6347 9.15709 15.734 9.01599 15.6881 8.88195H15.6958Z" fill="#D2E8FF"/>
  <path d="M16.1998 9.16415H21.7817C21.9573 9.16415 22.0642 8.97366 21.9573 8.84668L18.1394 4.0776C18.1012 4.02822 18.0325 4 17.9637 4H14.4359C14.2832 4 14.1839 4.1411 14.2297 4.26808L16.2075 9.14298V9.16415H16.1998Z" fill="#A2CFFF"/>
  <path d="M2.13446 9.84853L10.8471 19.0198C10.9998 19.1821 11.29 19.0339 11.2136 18.8293L8.02942 9.65805C7.99888 9.57339 7.91488 9.51695 7.82325 9.51695H2.29481C2.11155 9.51695 2.01228 9.72154 2.13446 9.84853Z" fill="#A2CFFF"/>
  <path d="M8.46459 9.77798L11.7862 19.3373C11.8473 19.5207 12.1299 19.5207 12.1986 19.3373L15.5813 9.77798C15.6271 9.65099 15.5202 9.51695 15.3751 9.51695H8.67076C8.52568 9.51695 8.41877 9.65099 8.46459 9.77798Z" fill="#A2CFFF"/>
  <path d="M13.1606 18.9987L21.858 9.84853C21.9801 9.72154 21.8809 9.51695 21.6976 9.51695H16.2379C16.1463 9.51695 16.0623 9.57339 16.0317 9.65805L12.7941 18.8082C12.7177 19.0128 13.0079 19.168 13.1606 19.0057V18.9987Z" fill="#A2CFFF"/>
</svg>