<svg xmlns="http://www.w3.org/2000/svg" width="26" height="20" viewBox="0 0 26 20" fill="none">
  <path d="M10.0227 0H5.33502C5.2462 0 5.16725 0.0364712 5.10804 0.100296L0.0551933 6.25481C-0.0829705 6.42805 0.0551933 6.66511 0.282177 6.66511H7.45683C7.57525 6.66511 7.67394 6.60128 7.71342 6.50099L10.2793 0.355594C10.3484 0.182356 10.2102 0 10.0227 0Z" fill="white"/>
  <path d="M17.7008 6.30951L15.204 0.16412C15.1645 0.0638246 15.056 0 14.9375 0H11.138C11.0196 0 10.9209 0.0638246 10.8814 0.16412L8.30568 6.31863C8.2366 6.49187 8.37476 6.67422 8.56227 6.67422H17.4245C17.6219 6.66511 17.7502 6.48275 17.6909 6.30951H17.7008Z" fill="white"/>
  <path d="M18.352 6.67422H25.5661C25.7931 6.67422 25.9312 6.42804 25.7931 6.26392L20.8586 0.100296C20.8093 0.0364712 20.7205 0 20.6317 0H16.0722C15.8749 0 15.7466 0.182356 15.8058 0.346476L18.3618 6.64687V6.67422H18.352Z" fill="white"/>
  <path d="M0.173654 7.5594L11.434 19.4125C11.6314 19.6222 12.0064 19.4308 11.9077 19.1663L7.7924 7.31322C7.75293 7.2038 7.64437 7.13086 7.52594 7.13086H0.380899C0.144047 7.13086 0.0157522 7.39528 0.173654 7.5594Z" fill="white"/>
  <path d="M8.35493 7.46822L12.6479 19.8228C12.7268 20.0599 13.092 20.0599 13.1808 19.8228L17.5527 7.46822C17.6119 7.3041 17.4737 7.13086 17.2862 7.13086H8.62139C8.43388 7.13086 8.29572 7.3041 8.35493 7.46822Z" fill="white"/>
  <path d="M14.4243 19.3852L25.6649 7.5594C25.8228 7.39528 25.6945 7.13086 25.4576 7.13086H18.4014C18.283 7.13086 18.1744 7.2038 18.135 7.31322L13.9506 19.139C13.8519 19.4034 14.2269 19.604 14.4243 19.3943V19.3852Z" fill="white"/>
</svg>
