<svg width="22" height="22" viewBox="0 0 22 22" fill="none" xmlns="http://www.w3.org/2000/svg">
<path d="M19.8 15.1799V16.1799C20.3523 16.1799 20.8 15.7322 20.8 15.1799H19.8ZM19.8 10.3399H20.8C20.8 9.78764 20.3523 9.33992 19.8 9.33992V10.3399ZM6.49925 5.53874C6.03468 5.8374 5.90018 6.45611 6.19883 6.92068C6.49749 7.38525 7.1162 7.51975 7.58077 7.2211L6.49925 5.53874ZM13.2 2.41992L13.9894 1.80598C13.6716 1.39744 13.0946 1.29886 12.6593 1.57874L13.2 2.41992ZM15.4907 6.99386C15.8297 7.42981 16.458 7.50834 16.894 7.16927C17.3299 6.8302 17.4084 6.20193 17.0694 5.76598L15.4907 6.99386ZM19.8 14.1799H16.94V16.1799H19.8V14.1799ZM16.94 11.3399H19.8V9.33992H16.94V11.3399ZM18.8 10.3399V15.1799H20.8V10.3399H18.8ZM15.52 12.7599C15.52 11.9757 16.1558 11.3399 16.94 11.3399V9.33992C15.0512 9.33992 13.52 10.8711 13.52 12.7599H15.52ZM16.94 14.1799C16.1558 14.1799 15.52 13.5442 15.52 12.7599H13.52C13.52 14.6487 15.0512 16.1799 16.94 16.1799V14.1799ZM7.58077 7.2211L13.7408 3.2611L12.6593 1.57874L6.49925 5.53874L7.58077 7.2211ZM12.4107 3.03386L15.4907 6.99386L17.0694 5.76598L13.9894 1.80598L12.4107 3.03386ZM3.08001 7.37992H18.04V5.37992H3.08001V7.37992ZM18.04 18.5799H3.08001V20.5799H18.04V18.5799ZM3.20001 18.6999V7.25992H1.20001V18.6999H3.20001ZM3.08001 18.5799C3.14629 18.5799 3.20001 18.6337 3.20001 18.6999H1.20001C1.20001 19.7382 2.04172 20.5799 3.08001 20.5799V18.5799ZM17.92 18.6999C17.92 18.6337 17.9737 18.5799 18.04 18.5799V20.5799C19.0783 20.5799 19.92 19.7382 19.92 18.6999H17.92ZM18.04 7.37992C17.9737 7.37992 17.92 7.3262 17.92 7.25992H19.92C19.92 6.22163 19.0783 5.37992 18.04 5.37992V7.37992ZM3.08001 5.37992C2.04172 5.37992 1.20001 6.22163 1.20001 7.25992H3.20001C3.20001 7.3262 3.14629 7.37992 3.08001 7.37992V5.37992ZM17.92 15.8399V18.6999H19.92V15.8399H17.92ZM17.92 7.25992V9.56992H19.92V7.25992H17.92Z" fill="white"/>
</svg>
