<svg xmlns="http://www.w3.org/2000/svg" width="21" height="20" viewBox="0 0 21 20" fill="none">
  <path d="M17.7036 5.01311H17.6925H3.16731H2.65054C1.7837 5.01311 1.078 4.30741 1.078 3.44057V2.65707C1.078 1.79023 1.7837 1.07897 2.65054 1.07897H17.7925C18.0926 1.07897 18.3315 0.840037 18.3315 0.539976C18.3315 0.239914 18.0926 0.000976562 17.7925 0.000976562H1.96707C0.877957 0.000976563 0 0.878934 0 1.96804V5.02422H17.8814C17.8481 5.02422 17.8147 5.01311 17.7814 5.01311H17.7092H17.7036Z" fill="white"/>
  <path d="M0 5.31862V17.7378C0 18.9881 1.01132 19.9994 2.26157 19.9994H17.7814C19.0317 19.9994 20.043 18.9881 20.043 17.7378V7.26901C20.043 6.05766 19.0872 5.07412 17.887 5.01855H0V5.31306V5.31862Z" fill="white"/>
  <ellipse cx="16.1143" cy="12.7793" rx="1.66701" ry="1.66701" fill="#1F53FF"/>
  <path d="M2.38721 2.38379H15.9576" stroke="#B4C5FF" stroke-width="0.7" stroke-linecap="round"/>
  <path d="M2.38721 3.80957H15.9576" stroke="#B4C5FF" stroke-width="0.7" stroke-linecap="round"/>
</svg>
