<svg xmlns="http://www.w3.org/2000/svg" width="24" height="24" viewBox="0 0 24 24" fill="none">
  <path d="M12 4C16.411 4 20 7.589 20 12C20 16.411 16.411 20 12 20C7.589 20 4 16.411 4 12C4 7.589 7.589 4 12 4ZM12 2C6.477 2 2 6.477 2 12C2 17.523 6.477 22 12 22C17.523 22 22 17.523 22 12C22 6.477 17.523 2 12 2Z" fill="#C6CACA"/>
  <path d="M9.00024 9.54679C8.99872 9.58277 9.00453 9.61868 9.01731 9.65231C9.03009 9.68595 9.04956 9.71659 9.07453 9.74237C9.09951 9.76814 9.12945 9.7885 9.16253 9.80219C9.1956 9.81588 9.23111 9.82261 9.26687 9.82197H10.1796C10.3323 9.82197 10.454 9.69608 10.4739 9.54345C10.5735 8.81261 11.0713 8.28008 11.9586 8.28008C12.7176 8.28008 13.4124 8.66221 13.4124 9.58133C13.4124 10.2888 12.9986 10.6141 12.3447 11.1087C11.6002 11.6535 11.0105 12.2897 11.0525 13.3224L11.0558 13.5642C11.057 13.6373 11.0867 13.707 11.1384 13.7582C11.1901 13.8095 11.2598 13.8382 11.3324 13.8382H12.2297C12.303 13.8382 12.3734 13.8089 12.4253 13.7567C12.4771 13.7044 12.5063 13.6336 12.5063 13.5597V13.4427C12.5063 12.6428 12.8083 12.41 13.6237 11.7872C14.2975 11.2714 15 10.6988 15 9.49666C15 7.81328 13.5883 7 12.0427 7C10.641 7 9.10534 7.65731 9.00024 9.54679ZM10.7228 15.9672C10.7228 16.5611 11.193 17 11.8402 17C12.514 17 12.9776 16.5611 12.9776 15.9672C12.9776 15.3523 12.5129 14.92 11.8391 14.92C11.193 14.92 10.7228 15.3523 10.7228 15.9672Z" fill="#C6CACA"/>
</svg>
