<svg xmlns="http://www.w3.org/2000/svg" width="32" height="32" viewBox="0 0 32 32" fill="none">
  <rect width="32" height="32" rx="16" fill="white"/>
  <path d="M10.1541 16L7.74277 18.4093L5.3335 16L7.74277 13.5908L10.1541 16ZM16.0002 10.1498L20.1289 14.2806L22.5381 11.8713L16.0002 5.33337L9.46219 11.8713L11.8715 14.2806L16.0002 10.1498ZM24.2596 13.5908L21.8504 16L24.2596 18.4093L26.6668 16L24.2596 13.5908ZM16.0002 21.8502L11.8715 17.7215L9.46219 20.1287L16.0002 26.6667L22.5381 20.1287L20.1289 17.7215L16.0002 21.8502ZM16.0002 18.4093L18.4094 16L16.0002 13.5908L13.5909 16L16.0002 18.4093Z" fill="#F0B90B"/>
</svg>