<svg xmlns="http://www.w3.org/2000/svg" width="81" height="17" viewBox="0 0 81 17" fill="none">
  <path d="M3.84354 8.04224L2.02597 9.84919L0.209961 8.04224L2.02597 6.23528L3.84354 8.04224ZM8.25002 3.65458L11.362 6.75267L13.1781 4.94571L8.25002 0.0422363L3.32199 4.94571L5.13799 6.75267L8.25002 3.65458ZM14.4756 6.23528L12.6596 8.04224L14.4756 9.84919L16.2901 8.04224L14.4756 6.23528ZM8.25002 12.4299L5.13799 9.33337L3.32199 11.1388L8.25002 16.0422L13.1781 11.1388L11.362 9.33337L8.25002 12.4299ZM8.25002 9.84919L10.066 8.04224L8.25002 6.23528L6.43402 8.04224L8.25002 9.84919ZM27.4155 10.0227V9.99769C27.4155 8.8191 26.7871 8.22981 25.7644 7.84216C26.3928 7.49046 26.9238 6.93868 26.9238 5.94923V5.92422C26.9238 4.54556 25.8147 3.65458 24.0128 3.65458H19.9221V12.4299H24.1165C26.1069 12.4299 27.4186 11.628 27.4186 10.0227H27.4155ZM24.9962 6.27123C24.9962 6.92305 24.4542 7.19972 23.5981 7.19972H21.8119V5.34743H23.7269C24.5454 5.34743 24.9994 5.67256 24.9994 6.24935L24.9962 6.27123ZM25.4879 9.78198C25.4879 10.4338 24.9711 10.7339 24.1133 10.7339H21.8119V8.8066H24.0537C25.0496 8.8066 25.4911 9.1708 25.4911 9.7601L25.4879 9.78198ZM31.492 12.4299V3.65458H29.5457V12.4299H31.492ZM41.9215 12.4299V3.65458H40.0002V9.05826L35.8687 3.65458H34.0794V12.4299H35.9944V6.85115L40.2642 12.4299H41.9215ZM52.6683 12.4299L48.8823 3.59206H47.093L43.3149 12.4299H45.2927L46.1018 10.4619H49.8312L50.6371 12.4299H52.6683ZM49.1415 8.75658H46.7914L47.9633 5.91172L49.1415 8.75658ZM61.9164 12.4299V3.65458H59.9951V9.05826L55.862 3.65458H54.0743V12.4299H55.9877V6.85115L60.2591 12.4299H61.9164ZM71.9311 11.0137L70.6979 9.7726C70.0051 10.3978 69.3878 10.7996 68.3792 10.7996C66.868 10.7996 65.8217 9.54908 65.8217 8.04224V8.01723C65.8217 6.51351 66.8931 5.28491 68.3792 5.28491C69.2605 5.28491 69.9502 5.66006 70.6351 6.27436L71.8651 4.85818C71.0467 4.0563 70.0523 3.50453 68.3887 3.50453C65.6804 3.50453 63.7905 5.54751 63.7905 8.03755V8.06256C63.7905 10.5823 65.7181 12.5753 68.3133 12.5753C70.0114 12.5799 71.0184 11.9781 71.9248 11.0137H71.9311ZM80.21 12.4299V10.7105H75.4155V8.86443H79.5737V7.14501H75.4155V5.37244H80.1408V3.65302H73.4879V12.4283L80.21 12.4299Z" fill="#F0B90B"/>
</svg>