<svg xmlns="http://www.w3.org/2000/svg" width="18" height="24" viewBox="0 0 18 24" fill="none">
  <path d="M16.3139 21.0203C16.3139 20.834 16.1914 20.6673 16.0149 20.6085L13.1718 19.8878C12.7845 19.7898 12.51 19.4368 12.51 19.0348C12.51 18.4612 13.0492 18.0445 13.6031 18.1817L14.9316 18.52C15.4267 18.5543 15.8678 18.167 15.8678 17.6523C15.8678 17.3336 15.6914 17.0492 15.4218 16.8973L0.201172 13.0438V17.5101L15.7894 21.4616C16.0541 21.5008 16.3139 21.2949 16.3139 21.0203ZM10.4904 18.4906C10.4904 18.118 10.7894 17.8189 11.162 17.8189C11.5345 17.8189 11.8335 18.118 11.8335 18.4906C11.8335 18.8632 11.5345 19.1623 11.162 19.1623C10.7894 19.1623 10.4904 18.8632 10.4904 18.4906Z" fill="url(#paint0_linear_4362_21067)"/>
  <path d="M0.705308 5.30789L3.56315 5.97464C3.95531 6.06779 4.23472 6.41097 4.23962 6.81298C4.24943 7.38659 3.72001 7.81311 3.16119 7.68565L1.82786 7.37678C1.33276 7.35227 0.901386 7.74448 0.91119 8.26415C0.920994 8.64655 1.1759 8.97503 1.54354 9.08288L16.9308 12.8481C17.3818 12.9608 17.8181 12.6177 17.8181 12.1519V9.16133C17.8181 8.83285 17.5926 8.5436 17.269 8.46516L1.07296 4.49406C0.886681 4.44994 0.705308 4.48425 0.553347 4.5676C0.46021 4.65094 0.396484 4.7686 0.396484 4.90588C0.396484 5.09217 0.523935 5.25396 0.700406 5.31279L0.705308 5.30789Z" fill="url(#paint1_linear_4362_21067)"/>
  <path d="M6.85294 5.39131H0V0.939758H18V5.39131H11.2206V23.0602H6.85294V5.39131Z" fill="#0C0F5E"/>
  <path d="M17.814 13.1233V8.65216L0.181641 12.9713V17.4376L17.814 13.1233Z" fill="#0C0F5E"/>
  <defs>
    <linearGradient id="paint0_linear_4362_21067" x1="8.25509" y1="21.5841" x2="8.25509" y2="13.0438" gradientUnits="userSpaceOnUse">
      <stop stop-color="#8968BF"/>
      <stop offset="1" stop-color="#4444D6"/>
    </linearGradient>
    <linearGradient id="paint1_linear_4362_21067" x1="0.1857" y1="8.67107" x2="17.8181" y2="8.67107" gradientUnits="userSpaceOnUse">
      <stop stop-color="#8468BF"/>
      <stop offset="1" stop-color="#6060FF"/>
    </linearGradient>
  </defs>
</svg>
