<svg width="20" height="20" viewBox="0 0 20 20" fill="none" xmlns="http://www.w3.org/2000/svg">
<g clip-path="url(#clip0_6786_10428)">
<path d="M20 0H0V20H20V0Z" fill="url(#paint0_linear_6786_10428)"/>
<path d="M13.505 6.56055H6.495C5.206 6.56055 4.389 7.95055 5.038 9.07455L9.365 16.5735C9.647 17.0635 10.355 17.0635 10.637 16.5735L14.964 9.07455C15.612 7.95255 14.795 6.56055 13.507 6.56055H13.505ZM9.36 14.3255L8.418 12.5015L6.144 8.43555C5.994 8.17555 6.179 7.84155 6.493 7.84155H9.359V14.3265L9.36 14.3255ZM13.853 8.43455L11.58 12.5025L10.638 14.3255V7.84055H13.504C13.818 7.84055 14.003 8.17455 13.853 8.43455Z" fill="white"/>
<path d="M9.75012 5.85H9.12412L8.06512 4.311H8.04512V5.85H7.29712V3H7.93512L8.97812 4.531H9.00212V3H9.75012V5.85Z" fill="white"/>
<path d="M11.4 3.85H11.424L11.912 3H12.751L11.897 4.425L12.783 5.85H11.925L11.425 4.988H11.401L10.905 5.85H10.051L10.929 4.425L10.079 3H10.921L11.401 3.85H11.4Z" fill="white"/>
</g>
<defs>
<linearGradient id="paint0_linear_6786_10428" x1="0" y1="10" x2="20" y2="10" gradientUnits="userSpaceOnUse">
<stop stop-color="#8468BF"/>
<stop offset="1" stop-color="#6060FF"/>
</linearGradient>
<clipPath id="clip0_6786_10428">
<rect width="20" height="20" rx="10" fill="white"/>
</clipPath>
</defs>
</svg>
