<svg xmlns="http://www.w3.org/2000/svg" width="15" height="20" viewBox="0 0 15 20" fill="none">
  <path d="M13.5953 17.517C13.5953 17.3617 13.4931 17.2228 13.3461 17.1738L10.9768 16.5732C10.6541 16.4915 10.4253 16.1974 10.4253 15.8623C10.4253 15.3843 10.8747 15.0371 11.3363 15.1515L12.4433 15.4334C12.8559 15.462 13.2235 15.1392 13.2235 14.7102C13.2235 14.4447 13.0765 14.2077 12.8518 14.0811L0.167969 10.8699V14.5918L13.1582 17.8847C13.3787 17.9173 13.5953 17.7458 13.5953 17.517ZM8.74231 15.4089C8.74231 15.0984 8.9915 14.8491 9.30195 14.8491C9.61241 14.8491 9.86159 15.0984 9.86159 15.4089C9.86159 15.7194 9.61241 15.9686 9.30195 15.9686C8.9915 15.9686 8.74231 15.7194 8.74231 15.4089Z" fill="url(#paint0_linear_4362_21265)"/>
  <path d="M0.587431 4.42306L2.96897 4.97868C3.29576 5.05631 3.52861 5.34229 3.53269 5.6773C3.54086 6.15531 3.09969 6.51074 2.634 6.40452L1.52289 6.14714C1.11031 6.12671 0.75083 6.45355 0.759 6.88661C0.76717 7.20528 0.979588 7.47901 1.28596 7.56889L14.1087 10.7065C14.4845 10.8005 14.8481 10.5145 14.8481 10.1264V7.63425C14.8481 7.36053 14.6601 7.11948 14.3905 7.05411L0.893804 3.74487C0.738575 3.7081 0.587431 3.73669 0.460797 3.80615C0.383183 3.8756 0.330078 3.97365 0.330078 4.08805C0.330078 4.2433 0.436287 4.37812 0.583346 4.42714L0.587431 4.42306Z" fill="url(#paint1_linear_4362_21265)"/>
  <path d="M5.71078 4.49271H0V0.783081H15V4.49271H9.35049V19.2168H5.71078V4.49271Z" fill="#0C0F5E"/>
  <path d="M14.845 10.9361V7.21008L0.151367 10.8094V14.5313L14.845 10.9361Z" fill="#0C0F5E"/>
  <defs>
    <linearGradient id="paint0_linear_4362_21265" x1="6.87957" y1="17.9868" x2="6.87957" y2="10.8699" gradientUnits="userSpaceOnUse">
      <stop stop-color="#8968BF"/>
      <stop offset="1" stop-color="#4444D6"/>
    </linearGradient>
    <linearGradient id="paint1_linear_4362_21265" x1="0.154425" y1="7.22571" x2="14.8481" y2="7.22571" gradientUnits="userSpaceOnUse">
      <stop stop-color="#8468BF"/>
      <stop offset="1" stop-color="#6060FF"/>
    </linearGradient>
  </defs>
</svg>
