<svg xmlns="http://www.w3.org/2000/svg" width="79" height="17" viewBox="0 0 79 17" fill="none">
  <path d="M10.8042 11.6347C10.9029 11.5695 11.0396 11.6114 11.0801 11.7193L12.6145 15.8087C12.6639 15.9402 12.5395 16.071 12.3978 16.0367L6.74813 14.6692C6.59618 14.6324 6.56016 14.4418 6.68904 14.3566L10.8042 11.6347Z" fill="url(#paint0_linear_10163_12476)"/>
  <path d="M11.7953 10.7321C11.7882 10.7132 11.7846 10.6933 11.7846 10.6733V6.55188C11.7846 6.4353 11.6672 6.35152 11.5502 6.38456L6.70909 7.75142C6.59208 7.78446 6.47472 7.70068 6.47472 7.5841V4.92057C6.47472 4.86612 6.50133 4.8148 6.54666 4.78179L12.8553 0.188614C12.943 0.124777 13.0694 0.149152 13.1243 0.240479L16.9353 6.57884C16.9623 6.62374 16.967 6.67779 16.9482 6.72635L13.7397 15.004C13.6805 15.1567 13.454 15.1555 13.3965 15.0022L11.7953 10.7321Z" fill="url(#paint1_linear_10163_12476)"/>
  <path d="M4.85935 0.545842C4.88982 0.517335 4.92977 0.499915 4.97227 0.496603L10.7949 0.0428858C10.9768 0.0287132 11.0656 0.25009 10.9203 0.355651L5.95739 3.9628C5.91146 3.99618 5.85171 4.00686 5.79625 3.99158L2.52812 3.09152C2.39369 3.0545 2.35097 2.89273 2.45093 2.79921L4.85935 0.545842Z" fill="url(#paint2_linear_10163_12476)"/>
  <path d="M1.6184 3.99721C1.63232 3.89079 1.74249 3.82144 1.85032 3.85123L5.31393 4.80802C5.39205 4.8296 5.44582 4.89793 5.44582 4.97563V8.84946C5.44582 8.96609 5.56327 9.04988 5.68031 9.01675L10.4879 7.65595C10.6049 7.62283 10.7223 7.70662 10.7223 7.82324V10.2838C10.7223 10.341 10.6931 10.3945 10.644 10.4271L5.25167 14.008C5.18135 14.0547 5.0865 14.0485 5.02358 13.993L0.867336 10.3269C0.824047 10.2887 0.802699 10.2329 0.810005 10.177L1.6184 3.99721Z" fill="url(#paint3_linear_10163_12476)"/>
  <path d="M26.8997 13.9635C26.0705 13.9635 25.2768 13.8473 24.5184 13.6151C23.76 13.3727 23.1583 13.0647 22.7134 12.6911L23.3959 11.1611C23.8206 11.4944 24.3465 11.7721 24.9734 11.9943C25.6003 12.2164 26.2424 12.3275 26.8997 12.3275C27.4559 12.3275 27.9059 12.2669 28.2497 12.1457C28.5935 12.0245 28.8463 11.863 29.0081 11.661C29.1698 11.4489 29.2507 11.2116 29.2507 10.949C29.2507 10.6259 29.1345 10.3684 28.9019 10.1765C28.6693 9.97452 28.3659 9.818 27.9918 9.70691C27.6278 9.58573 27.2182 9.47464 26.7632 9.37366C26.3183 9.27267 25.8683 9.15654 25.4133 9.02525C24.9683 8.88387 24.5588 8.70715 24.1847 8.49508C23.8206 8.27291 23.5223 7.98005 23.2898 7.6165C23.0572 7.25295 22.9409 6.78841 22.9409 6.22289C22.9409 5.64727 23.0926 5.12214 23.3959 4.6475C23.7094 4.16277 24.1796 3.77902 24.8065 3.49626C25.4436 3.2034 26.2475 3.05697 27.2182 3.05697C27.8553 3.05697 28.4873 3.13776 29.1142 3.29934C29.7412 3.46091 30.2872 3.69318 30.7524 3.99614L30.1305 5.52608C29.6552 5.24332 29.1648 5.0363 28.6592 4.90502C28.1536 4.76364 27.6682 4.69295 27.2031 4.69295C26.657 4.69295 26.2121 4.75859 25.8683 4.88987C25.5346 5.02115 25.2869 5.19283 25.1251 5.4049C24.9734 5.61697 24.8976 5.85934 24.8976 6.132C24.8976 6.45516 25.0088 6.71772 25.2312 6.91969C25.4638 7.11157 25.7621 7.26305 26.1262 7.37413C26.5003 7.48522 26.9149 7.5963 27.3699 7.70738C27.825 7.80837 28.2749 7.92451 28.7199 8.05579C29.1749 8.18707 29.5844 8.35875 29.9485 8.57082C30.3226 8.78289 30.6209 9.0707 30.8434 9.43425C31.0759 9.7978 31.1922 10.2573 31.1922 10.8127C31.1922 11.3782 31.0355 11.9034 30.722 12.3881C30.4187 12.8627 29.9485 13.2465 29.3114 13.5393C28.6744 13.8221 27.8705 13.9635 26.8997 13.9635Z" fill="black"/>
  <path d="M35.1532 13.812V4.87472H31.6342V3.20845H40.644V4.87472H37.125V13.812H35.1532Z" fill="black"/>
  <path d="M46.9507 13.9635C46.1215 13.9635 45.3581 13.8271 44.6604 13.5545C43.9626 13.2818 43.3559 12.9031 42.8402 12.4184C42.3245 11.9236 41.9251 11.3479 41.642 10.6915C41.3588 10.025 41.2173 9.29792 41.2173 8.51023C41.2173 7.72253 41.3588 7.00048 41.642 6.34407C41.9251 5.67756 42.3245 5.10194 42.8402 4.61721C43.3559 4.12237 43.9626 3.73863 44.6604 3.46596C45.3581 3.1933 46.1165 3.05697 46.9355 3.05697C47.7647 3.05697 48.5231 3.1933 49.2107 3.46596C49.9085 3.73863 50.5152 4.12237 51.0309 4.61721C51.5466 5.10194 51.946 5.67756 52.2291 6.34407C52.5123 7.00048 52.6538 7.72253 52.6538 8.51023C52.6538 9.29792 52.5123 10.025 52.2291 10.6915C51.946 11.358 51.5466 11.9337 51.0309 12.4184C50.5152 12.9031 49.9085 13.2818 49.2107 13.5545C48.5231 13.8271 47.7698 13.9635 46.9507 13.9635ZM46.9355 12.2366C47.4715 12.2366 47.967 12.1457 48.422 11.964C48.877 11.7822 49.2714 11.5247 49.6051 11.1914C49.9388 10.8481 50.1966 10.4542 50.3787 10.0099C50.5708 9.55543 50.6668 9.05555 50.6668 8.51023C50.6668 7.9649 50.5708 7.47007 50.3787 7.02573C50.1966 6.57129 49.9388 6.17744 49.6051 5.84419C49.2714 5.50084 48.877 5.23827 48.422 5.0565C47.967 4.87472 47.4715 4.78383 46.9355 4.78383C46.3996 4.78383 45.9041 4.87472 45.4491 5.0565C45.0042 5.23827 44.6098 5.50084 44.266 5.84419C43.9323 6.17744 43.6694 6.57129 43.4773 7.02573C43.2953 7.47007 43.2042 7.9649 43.2042 8.51023C43.2042 9.04545 43.2953 9.54028 43.4773 9.99472C43.6694 10.4492 43.9323 10.8481 44.266 11.1914C44.5997 11.5247 44.9941 11.7822 45.4491 11.964C45.9041 12.1457 46.3996 12.2366 46.9355 12.2366Z" fill="black"/>
  <path d="M54.7439 13.812V3.20845H56.3669L63.0256 11.3732H62.2217V3.20845H64.1783V13.812H62.5554L55.8967 5.64727H56.7006V13.812H54.7439Z" fill="black"/>
  <path d="M67.4481 13.918C67.1043 13.918 66.811 13.8019 66.5684 13.5696C66.3257 13.3273 66.2043 13.0243 66.2043 12.6608C66.2043 12.277 66.3257 11.9741 66.5684 11.7519C66.811 11.5196 67.1043 11.4035 67.4481 11.4035C67.7919 11.4035 68.0851 11.5196 68.3278 11.7519C68.5705 11.9741 68.6919 12.277 68.6919 12.6608C68.6919 13.0243 68.5705 13.3273 68.3278 13.5696C68.0851 13.8019 67.7919 13.918 67.4481 13.918Z" fill="black"/>
  <path d="M70.7283 13.812V5.26857C70.7283 4.42028 70.976 3.74368 71.4715 3.23874C71.9771 2.72372 72.695 2.4662 73.6253 2.4662C73.959 2.4662 74.2725 2.50155 74.5658 2.57224C74.8691 2.64293 75.1219 2.75401 75.3241 2.90549L74.8084 4.3294C74.6669 4.21831 74.5051 4.13752 74.3231 4.08703C74.141 4.02644 73.954 3.99614 73.7619 3.99614C73.3675 3.99614 73.0692 4.10723 72.8669 4.3294C72.6647 4.54147 72.5636 4.86462 72.5636 5.29886V6.20774L72.6243 7.05602V13.812H70.7283ZM69.3935 7.29839V5.7836H74.7933V7.29839H69.3935ZM76.128 13.812V5.72301H78.024V13.812H76.128ZM77.0836 4.38999C76.7297 4.38999 76.4365 4.2789 76.2039 4.05673C75.9814 3.83456 75.8702 3.56695 75.8702 3.25389C75.8702 2.93074 75.9814 2.66312 76.2039 2.45105C76.4365 2.22888 76.7297 2.1178 77.0836 2.1178C77.4375 2.1178 77.7257 2.22383 77.9482 2.4359C78.1808 2.63788 78.297 2.89539 78.297 3.20845C78.297 3.5417 78.1858 3.82446 77.9634 4.05673C77.7409 4.2789 77.4476 4.38999 77.0836 4.38999Z" fill="black"/>
  <defs>
    <linearGradient id="paint0_linear_10163_12476" x1="13.5948" y1="3.04224" x2="0.931774" y2="16.1611" gradientUnits="userSpaceOnUse">
      <stop offset="0.015625" stop-color="#3294FF"/>
      <stop offset="1" stop-color="#005BBE"/>
    </linearGradient>
    <linearGradient id="paint1_linear_10163_12476" x1="13.5948" y1="3.04224" x2="0.931774" y2="16.1611" gradientUnits="userSpaceOnUse">
      <stop offset="0.015625" stop-color="#3294FF"/>
      <stop offset="1" stop-color="#005BBE"/>
    </linearGradient>
    <linearGradient id="paint2_linear_10163_12476" x1="13.5948" y1="3.04224" x2="0.931774" y2="16.1611" gradientUnits="userSpaceOnUse">
      <stop offset="0.015625" stop-color="#3294FF"/>
      <stop offset="1" stop-color="#005BBE"/>
    </linearGradient>
    <linearGradient id="paint3_linear_10163_12476" x1="13.5948" y1="3.04224" x2="0.931774" y2="16.1611" gradientUnits="userSpaceOnUse">
      <stop offset="0.015625" stop-color="#3294FF"/>
      <stop offset="1" stop-color="#005BBE"/>
    </linearGradient>
  </defs>
</svg>