<svg xmlns="http://www.w3.org/2000/svg" width="32" height="32" viewBox="0 0 32 32" fill="none">
  <rect width="32" height="32" rx="16" fill="white"/>
  <path d="M17.7112 21.0218C17.8334 20.941 18.0026 20.9928 18.0528 21.1265L19.953 26.1904C20.0141 26.3533 19.8601 26.5153 19.6846 26.4728L12.6885 24.7793C12.5003 24.7338 12.4557 24.4978 12.6153 24.3923L17.7112 21.0218Z" fill="url(#paint0_linear_10163_12936)"/>
  <path d="M18.9385 19.9041C18.9297 19.8807 18.9252 19.856 18.9252 19.8312V14.7276C18.9252 14.5833 18.7799 14.4795 18.635 14.5204L12.6402 16.213C12.4953 16.2539 12.3499 16.1502 12.3499 16.0058V12.7075C12.3499 12.6401 12.3829 12.5766 12.439 12.5357L20.2511 6.84789C20.3597 6.76884 20.5162 6.79902 20.5842 6.91211L25.3034 14.761C25.3369 14.8166 25.3427 14.8835 25.3194 14.9437L21.3462 25.1939C21.2729 25.383 20.9925 25.3816 20.9213 25.1918L18.9385 19.9041Z" fill="url(#paint1_linear_10163_12936)"/>
  <path d="M10.3496 7.29025C10.3873 7.25495 10.4368 7.23338 10.4894 7.22927L17.6997 6.66743C17.925 6.64988 18.0349 6.92401 17.855 7.05473L11.7093 11.5215C11.6524 11.5629 11.5785 11.5761 11.5098 11.5572L7.46281 10.4426C7.29635 10.3968 7.24345 10.1964 7.36722 10.0806L10.3496 7.29025Z" fill="url(#paint2_linear_10163_12936)"/>
  <path d="M6.33629 11.5641C6.35353 11.4323 6.48995 11.3465 6.62349 11.3834L10.9125 12.5682C11.0093 12.5949 11.0758 12.6795 11.0758 12.7757V17.5727C11.0758 17.7172 11.2213 17.8209 11.3662 17.7799L17.3195 16.0948C17.4644 16.0538 17.6098 16.1575 17.6098 16.302V19.3489C17.6098 19.4197 17.5736 19.486 17.5128 19.5264L10.8354 23.9607C10.7483 24.0185 10.6309 24.0108 10.553 23.942L5.40624 19.4022C5.35263 19.3549 5.3262 19.2858 5.33524 19.2167L6.33629 11.5641Z" fill="url(#paint3_linear_10163_12936)"/>
  <defs>
    <linearGradient id="paint0_linear_10163_12936" x1="21.1668" y1="10.3816" x2="5.48603" y2="26.6269" gradientUnits="userSpaceOnUse">
      <stop offset="0.015625" stop-color="#3294FF"/>
      <stop offset="1" stop-color="#005BBE"/>
    </linearGradient>
    <linearGradient id="paint1_linear_10163_12936" x1="21.1668" y1="10.3816" x2="5.48603" y2="26.6269" gradientUnits="userSpaceOnUse">
      <stop offset="0.015625" stop-color="#3294FF"/>
      <stop offset="1" stop-color="#005BBE"/>
    </linearGradient>
    <linearGradient id="paint2_linear_10163_12936" x1="21.1668" y1="10.3816" x2="5.48603" y2="26.6269" gradientUnits="userSpaceOnUse">
      <stop offset="0.015625" stop-color="#3294FF"/>
      <stop offset="1" stop-color="#005BBE"/>
    </linearGradient>
    <linearGradient id="paint3_linear_10163_12936" x1="21.1668" y1="10.3816" x2="5.48603" y2="26.6269" gradientUnits="userSpaceOnUse">
      <stop offset="0.015625" stop-color="#3294FF"/>
      <stop offset="1" stop-color="#005BBE"/>
    </linearGradient>
  </defs>
</svg>