<svg xmlns="http://www.w3.org/2000/svg" width="16" height="16" viewBox="0 0 16 16" fill="none">
  <path d="M7.9987 2.66634C10.9394 2.66634 13.332 5.05901 13.332 7.99967C13.332 10.9403 10.9394 13.333 7.9987 13.333C5.05803 13.333 2.66536 10.9403 2.66536 7.99967C2.66536 5.05901 5.05803 2.66634 7.9987 2.66634ZM7.9987 1.33301C4.3167 1.33301 1.33203 4.31767 1.33203 7.99967C1.33203 11.6817 4.3167 14.6663 7.9987 14.6663C11.6807 14.6663 14.6654 11.6817 14.6654 7.99967C14.6654 4.31767 11.6807 1.33301 7.9987 1.33301ZM8.66536 9.99967H7.33203V11.333H8.66536V9.99967ZM7.33203 8.66634H8.66536L8.9987 4.66634H6.9987L7.33203 8.66634Z" fill="#C6CACA"/>
</svg>