<svg xmlns="http://www.w3.org/2000/svg" width="43" height="43" viewBox="0 0 43 43" fill="none">
  <g clip-path="url(#clip0_4544_21455)">
    <path d="M21.5 43C33.3741 43 43 33.3741 43 21.5C43 9.62588 33.3741 0 21.5 0C9.62588 0 0 9.62588 0 21.5C0 33.3741 9.62588 43 21.5 43Z" fill="#0088CC"/>
    <path fill-rule="evenodd" clip-rule="evenodd" d="M15.5172 14.2087L27.576 14.2086C28.0026 14.2086 28.4289 14.2713 28.8744 14.479C29.4085 14.7279 29.6916 15.1203 29.8901 15.4105C29.9055 15.433 29.9199 15.4563 29.9333 15.4801C30.1666 15.8954 30.2868 16.3437 30.2868 16.826C30.2868 17.2843 30.1778 17.7835 29.9333 18.2187C29.931 18.2229 29.9286 18.227 29.9262 18.2311L22.3077 31.3181C22.1397 31.6067 21.8305 31.7837 21.4965 31.7826C21.1626 31.7814 20.8546 31.6021 20.6887 31.3123L13.2101 18.2533C13.2079 18.2498 13.2058 18.2462 13.2036 18.2426C13.0325 17.9606 12.7678 17.5245 12.7215 16.9616C12.6789 16.444 12.7953 15.9254 13.0553 15.4757C13.3154 15.026 13.7069 14.6665 14.1779 14.4464C14.6828 14.2105 15.1945 14.2087 15.5172 14.2087ZM20.5651 16.0782H15.5172C15.1856 16.0782 15.0583 16.0986 14.9693 16.1402C14.8462 16.1977 14.7429 16.2922 14.6737 16.4117C14.6046 16.5312 14.5734 16.6698 14.5848 16.8084C14.5913 16.8879 14.6237 16.9788 14.8148 17.294C14.8188 17.3006 14.8227 17.3073 14.8265 17.314L20.5651 27.3344V16.0782ZM22.4346 16.0782V27.384L28.3061 17.2981C28.3723 17.1777 28.4172 17.0037 28.4172 16.826C28.4172 16.6819 28.3874 16.5567 28.3206 16.4277C28.2505 16.3269 28.2078 16.2735 28.1721 16.237C28.1414 16.2057 28.1179 16.189 28.0845 16.1735C27.9457 16.1088 27.8036 16.0782 27.576 16.0782H22.4346Z" fill="white"/>
  </g>
  <defs>
    <clipPath id="clip0_4544_21455">
      <rect width="43" height="43" fill="white"/>
    </clipPath>
  </defs>
</svg>
