<svg width="23" height="22" viewBox="0 0 23 22" fill="none" xmlns="http://www.w3.org/2000/svg">
<path d="M11.1512 21.8919C17.1666 21.8919 22.0431 17.0155 22.0431 11C22.0431 4.98462 17.1666 0.108154 11.1512 0.108154C5.13574 0.108154 0.259277 4.98462 0.259277 11C0.259277 17.0155 5.13574 21.8919 11.1512 21.8919Z" fill="#26A17B"/>
<path fill-rule="evenodd" clip-rule="evenodd" d="M12.4595 11.9415V11.9402C12.3846 11.9456 11.9986 11.9688 11.1374 11.9688C10.4499 11.9688 9.96589 11.9483 9.7957 11.9402V11.9422C7.14897 11.8258 5.17345 11.3649 5.17345 10.8135C5.17345 10.2621 7.14897 9.80196 9.7957 9.68351V11.4834C9.96861 11.4956 10.4642 11.5249 11.149 11.5249C11.9707 11.5249 12.3825 11.4909 12.4595 11.4841V9.68487C15.1007 9.80264 17.0715 10.2635 17.0715 10.8135C17.0715 11.3649 15.1007 11.8244 12.4595 11.9415ZM12.4595 9.49767V7.88703H16.145V5.43091H6.11016V7.88703H9.7957V9.49699C6.80043 9.6345 4.54785 10.2281 4.54785 10.9388C4.54785 11.6495 6.80043 12.2424 9.7957 12.3806V17.542H12.4595V12.3793C15.45 12.2417 17.6971 11.6488 17.6971 10.9388C17.6971 10.2288 15.45 9.63586 12.4595 9.49767Z" fill="white"/>
</svg>
