<svg xmlns="http://www.w3.org/2000/svg" width="18" height="24" viewBox="0 0 18 24" fill="none">
  <path d="M16.3134 21.0205C16.3134 20.8342 16.1909 20.6675 16.0144 20.6086L13.1713 19.888C12.784 19.7899 12.5095 19.4369 12.5095 19.0349C12.5095 18.4613 13.0487 18.0446 13.6026 18.1819L14.9311 18.5201C15.4262 18.5545 15.8673 18.1672 15.8673 17.6524C15.8673 17.3337 15.6909 17.0494 15.4213 16.8974L0.200684 13.0439V17.5102L15.7889 21.4617C16.0536 21.5009 16.3134 21.295 16.3134 21.0205ZM10.4899 18.4907C10.4899 18.1181 10.7889 17.8191 11.1615 17.8191C11.534 17.8191 11.833 18.1181 11.833 18.4907C11.833 18.8633 11.534 19.1624 11.1615 19.1624C10.7889 19.1624 10.4899 18.8633 10.4899 18.4907Z" fill="url(#paint0_linear_4078_6002)"/>
  <path d="M0.705796 5.30825L3.56364 5.97501C3.9558 6.06816 4.23521 6.41134 4.24011 6.81335C4.24991 7.38695 3.7205 7.81348 3.16168 7.68601L1.82835 7.37715C1.33325 7.35264 0.901875 7.74484 0.911679 8.26452C0.921482 8.64692 1.17638 8.97539 1.54403 9.08325L16.9313 12.8484C17.3823 12.9612 17.8185 12.618 17.8185 12.1523V9.16169C17.8185 8.83322 17.5931 8.54397 17.2695 8.46552L1.07344 4.49442C0.887169 4.4503 0.705796 4.48462 0.553835 4.56796C0.460698 4.65131 0.396973 4.76897 0.396973 4.90624C0.396973 5.09254 0.524424 5.25433 0.700894 5.31316L0.705796 5.30825Z" fill="url(#paint1_linear_4078_6002)"/>
  <path d="M6.85294 5.39149H0V0.939941H18V5.39149H11.2206V23.0604H6.85294V5.39149Z" fill="#0C0F5E"/>
  <path d="M17.814 13.1235V8.65234L0.181641 12.9715V17.4378L17.814 13.1235Z" fill="#0C0F5E"/>
  <defs>
    <linearGradient id="paint0_linear_4078_6002" x1="8.2546" y1="21.5843" x2="8.2546" y2="13.0439" gradientUnits="userSpaceOnUse">
      <stop stop-color="#8968BF"/>
      <stop offset="1" stop-color="#4444D6"/>
    </linearGradient>
    <linearGradient id="paint1_linear_4078_6002" x1="0.186188" y1="8.67143" x2="17.8185" y2="8.67143" gradientUnits="userSpaceOnUse">
      <stop stop-color="#8468BF"/>
      <stop offset="1" stop-color="#6060FF"/>
    </linearGradient>
  </defs>
</svg>
