<svg xmlns="http://www.w3.org/2000/svg" width="18" height="24" viewBox="0 0 18 24" fill="none">
  <path d="M16.3134 21.0214C16.3134 20.8351 16.1909 20.6684 16.0144 20.6096L13.1713 19.8889C12.784 19.7909 12.5095 19.4379 12.5095 19.0359C12.5095 18.4623 13.0487 18.0456 13.6026 18.1828L14.9311 18.5211C15.4262 18.5554 15.8673 18.1681 15.8673 17.6534C15.8673 17.3347 15.6909 17.0503 15.4213 16.8984L0.200684 13.0449V17.5112L15.7889 21.4627C16.0536 21.5019 16.3134 21.296 16.3134 21.0214ZM10.4899 18.4917C10.4899 18.1191 10.7889 17.82 11.1615 17.82C11.534 17.82 11.833 18.1191 11.833 18.4917C11.833 18.8643 11.534 19.1634 11.1615 19.1634C10.7889 19.1634 10.4899 18.8643 10.4899 18.4917Z" fill="url(#paint0_linear_6390_7378)"/>
  <path d="M0.705796 5.30777L3.56364 5.97452C3.9558 6.06767 4.23521 6.41085 4.24011 6.81286C4.24991 7.38646 3.7205 7.81299 3.16168 7.68552L1.82835 7.37666C1.33325 7.35215 0.901875 7.74435 0.911678 8.26403C0.921482 8.64643 1.17638 8.9749 1.54403 9.08276L16.9313 12.8479C17.3823 12.9607 17.8185 12.6175 17.8185 12.1518V9.1612C17.8185 8.83273 17.5931 8.54348 17.2695 8.46503L1.07344 4.49394C0.887169 4.44981 0.705796 4.48413 0.553835 4.56748C0.460698 4.65082 0.396973 4.76848 0.396973 4.90575C0.396973 5.09205 0.524424 5.25384 0.700894 5.31267L0.705796 5.30777Z" fill="url(#paint1_linear_6390_7378)"/>
  <path d="M6.85294 5.391H0V0.939453H18V5.391H11.2206V23.0599H6.85294V5.391Z" fill="#BCBEFF"/>
  <path d="M17.814 13.1216V8.65039L0.181641 12.9696V17.4358L17.814 13.1216Z" fill="#BCBEFF"/>
  <defs>
    <linearGradient id="paint0_linear_6390_7378" x1="8.2546" y1="21.5852" x2="8.2546" y2="13.0449" gradientUnits="userSpaceOnUse">
      <stop stop-color="#8968BF"/>
      <stop offset="1" stop-color="#4444D6"/>
    </linearGradient>
    <linearGradient id="paint1_linear_6390_7378" x1="0.186188" y1="8.67094" x2="17.8185" y2="8.67094" gradientUnits="userSpaceOnUse">
      <stop stop-color="#8468BF"/>
      <stop offset="1" stop-color="#6060FF"/>
    </linearGradient>
  </defs>
</svg>
