<svg xmlns="http://www.w3.org/2000/svg" width="18" height="22" viewBox="0 0 18 22" fill="none">
  <path d="M10.8409 17.528L6.83447 15.0226C6.58136 14.8641 6.37268 14.6438 6.22802 14.3825C6.08336 14.1212 6.00747 13.8275 6.00748 13.5288V1.52589C6.00748 0.765167 5.17793 0.295042 4.52573 0.683961L0.94025 2.82811C0.653687 2.99929 0.41642 3.24187 0.251621 3.53215C0.0868218 3.82243 0.00012581 4.15049 0 4.48429V16.9963C0 17.6755 0.349589 18.3055 0.925319 18.6623L4.89498 21.1309C5.22996 21.3397 5.61603 21.452 6.01072 21.4555C6.4054 21.4589 6.79339 21.3534 7.13199 21.1506L10.8263 18.9402C11.3602 18.6255 11.3675 17.8575 10.8409 17.528Z" fill="url(#paint0_linear_4078_2485)"/>
  <path d="M17.0749 6.77972L13.1052 4.31147C12.7703 4.10268 12.3842 3.99037 11.9895 3.9869C11.5948 3.98343 11.2068 4.08894 10.8682 4.29181L7.17385 6.50187C6.64219 6.81941 6.6349 7.58705 7.15929 7.91698L11.1657 10.4224C11.4188 10.5809 11.6275 10.8011 11.7722 11.0624C11.9168 11.3237 11.9927 11.6175 11.9927 11.9161V18.3715C11.9927 19.1319 12.8223 19.602 13.4745 19.2131L17.06 17.0697C17.3466 16.8985 17.5839 16.6558 17.7487 16.3655C17.9135 16.0751 18.0001 15.747 18.0002 15.4131V8.44646C18.0002 7.76695 17.6506 7.13696 17.0749 6.78008V6.77972Z" fill="url(#paint1_linear_4078_2485)"/>
  <defs>
    <linearGradient id="paint0_linear_4078_2485" x1="-3.16269" y1="3.59684" x2="13.673" y2="19.6353" gradientUnits="userSpaceOnUse">
      <stop offset="0.189" stop-color="#A334E9"/>
      <stop offset="1" stop-color="#29A9EA"/>
    </linearGradient>
    <linearGradient id="paint1_linear_4078_2485" x1="0.682414" y1="-0.44003" x2="17.5181" y2="15.5981" gradientUnits="userSpaceOnUse">
      <stop offset="0.189" stop-color="#A334E9"/>
      <stop offset="1" stop-color="#29A9EA"/>
    </linearGradient>
  </defs>
</svg>
