<svg xmlns="http://www.w3.org/2000/svg" width="24" height="24" viewBox="0 0 24 24" fill="none">
  <path d="M4 7C4 5.89543 4.89543 5 6 5H10.8C10.9105 5 11 5.08954 11 5.2V18.8C11 18.9105 10.9105 19 10.8 19H6C4.89543 19 4 18.1046 4 17V7Z" stroke="#1F53FF" stroke-width="2"/>
  <path d="M15 5.2C15 5.08954 15.0895 5 15.2 5H18C19.1046 5 20 5.89543 20 7V9.8C20 9.91046 19.9105 10 19.8 10H15.2C15.0895 10 15 9.91046 15 9.8V5.2Z" stroke="#1F53FF" stroke-width="2"/>
  <path d="M15 14.2C15 14.0895 15.0895 14 15.2 14H18C19.1046 14 20 14.8954 20 16V18.8C20 18.9105 19.9105 19 19.8 19H15.2C15.0895 19 15 18.9105 15 18.8V14.2Z" stroke="#1F53FF" stroke-width="2"/>
</svg>