<svg width="19" height="22" viewBox="0 0 19 22" fill="none" xmlns="http://www.w3.org/2000/svg">
<mask id="mask0_10671_21406" style="mask-type:luminance" maskUnits="userSpaceOnUse" x="0" y="0" width="19" height="22">
<path d="M0.439453 0.4506H18.6663V21.5495H0.439453V0.4506Z" fill="white"/>
</mask>
<g mask="url(#mask0_10671_21406)">
<path d="M18.6663 0.4506C18.6663 0.4506 12.0271 2.08313 9.43198 2.7917L4.70231 3.90115L0.450881 2.7917C0.450881 2.7917 0.439453 6.01368 0.439453 7.65763L4.73748 8.8462C4.73748 8.8462 18.6663 5.31478 18.6663 5.40884V0.4506Z" fill="#3400EC"/>
<path d="M16.3463 6.9271L4.65923 9.89325L0.439453 8.74336L0.450003 13.4801C1.53132 13.8722 4.69704 14.8251 4.69704 14.8251L16.3463 11.8862V6.9271Z" fill="#3400EC"/>
<path d="M4.75769 15.8607L0.439453 14.8172C0.439453 14.8172 0.450881 15.815 0.450881 17.1996V19.7148L4.68385 20.8471L18.6663 17.3878V12.4506L4.75769 15.8607Z" fill="#3400EC"/>
</g>
</svg>
