<svg xmlns="http://www.w3.org/2000/svg" width="15" height="16" viewBox="0 0 15 16" fill="none">
  <g clip-path="url(#clip0_3148_3205)">
    <path d="M7.5 1.75C10.9519 1.75 13.75 4.54813 13.75 8C13.75 11.4519 10.9519 14.25 7.5 14.25C4.04813 14.25 1.25 11.4519 1.25 8C1.25 4.54813 4.04813 1.75 7.5 1.75ZM7.5 3C6.17392 3 4.90215 3.52678 3.96447 4.46447C3.02678 5.40215 2.5 6.67392 2.5 8C2.5 9.32608 3.02678 10.5979 3.96447 11.5355C4.90215 12.4732 6.17392 13 7.5 13C8.82608 13 10.0979 12.4732 11.0355 11.5355C11.9732 10.5979 12.5 9.32608 12.5 8C12.5 6.67392 11.9732 5.40215 11.0355 4.46447C10.0979 3.52678 8.82608 3 7.5 3ZM7.5 9.875C7.66576 9.875 7.82473 9.94085 7.94194 10.0581C8.05915 10.1753 8.125 10.3342 8.125 10.5C8.125 10.6658 8.05915 10.8247 7.94194 10.9419C7.82473 11.0592 7.66576 11.125 7.5 11.125C7.33424 11.125 7.17527 11.0592 7.05806 10.9419C6.94085 10.8247 6.875 10.6658 6.875 10.5C6.875 10.3342 6.94085 10.1753 7.05806 10.0581C7.17527 9.94085 7.33424 9.875 7.5 9.875ZM7.5 4.25C7.66576 4.25 7.82473 4.31585 7.94194 4.43306C8.05915 4.55027 8.125 4.70924 8.125 4.875V8.625C8.125 8.79076 8.05915 8.94973 7.94194 9.06694C7.82473 9.18415 7.66576 9.25 7.5 9.25C7.33424 9.25 7.17527 9.18415 7.05806 9.06694C6.94085 8.94973 6.875 8.79076 6.875 8.625V4.875C6.875 4.70924 6.94085 4.55027 7.05806 4.43306C7.17527 4.31585 7.33424 4.25 7.5 4.25Z" fill="#FF7979"/>
  </g>
  <defs>
    <clipPath id="clip0_3148_3205">
      <rect width="15" height="15" fill="white" transform="translate(0 0.5)"/>
    </clipPath>
  </defs>
</svg>
